G04 #@! TF.FileFunction,Soldermask,Bot*
%FSLAX46Y46*%
G04 Gerber Fmt 4.6, Leading zero omitted, Abs format (unit mm)*
G04 Created by KiCad (PCBNEW 4.0.1-stable) date 6/19/2016 12:02:01 AM*
%MOMM*%
G01*
G04 APERTURE LIST*
%ADD10C,0.100000*%
%ADD11R,1.650000X1.400000*%
%ADD12R,1.400000X1.650000*%
%ADD13R,1.797000X1.289000*%
%ADD14O,2.299920X0.806400*%
%ADD15O,0.806400X2.299920*%
%ADD16R,1.700000X1.100000*%
%ADD17R,1.100000X1.700000*%
%ADD18R,2.127200X2.127200*%
%ADD19O,2.127200X2.127200*%
%ADD20R,2.432000X2.127200*%
%ADD21O,2.432000X2.127200*%
%ADD22R,1.200100X1.200100*%
%ADD23R,1.924000X1.924000*%
%ADD24R,1.400000X3.500000*%
%ADD25C,4.380180*%
%ADD26O,2.784001X3.480000*%
%ADD27C,2.777011*%
%ADD28C,2.099260*%
%ADD29C,1.901140*%
%ADD30C,2.000200*%
%ADD31C,2.686000*%
%ADD32C,4.387800*%
%ADD33C,2.101800*%
%ADD34C,3.448000*%
%ADD35C,5.401260*%
G04 APERTURE END LIST*
D10*
D11*
X141478000Y-108728000D03*
X141478000Y-110728000D03*
X141478000Y-114792000D03*
X141478000Y-112792000D03*
D12*
X116570000Y-104140000D03*
X114570000Y-104140000D03*
D11*
X110998000Y-118348000D03*
X110998000Y-116348000D03*
X141478000Y-118856000D03*
X141478000Y-116856000D03*
X110998000Y-108188000D03*
X110998000Y-106188000D03*
X141478000Y-104664000D03*
X141478000Y-106664000D03*
D12*
X49514000Y-65532000D03*
X47514000Y-65532000D03*
D13*
X37338000Y-61531500D03*
X37338000Y-63436500D03*
X59182000Y-51371500D03*
X59182000Y-53276500D03*
X76962000Y-51371500D03*
X76962000Y-53276500D03*
X95250000Y-51879500D03*
X95250000Y-53784500D03*
X114046000Y-51371500D03*
X114046000Y-53276500D03*
X134366000Y-51371500D03*
X134366000Y-53276500D03*
X153162000Y-51371500D03*
X153162000Y-53276500D03*
X171958000Y-51371500D03*
X171958000Y-53276500D03*
X191262000Y-51371500D03*
X191262000Y-53276500D03*
X210566000Y-51879500D03*
X210566000Y-53784500D03*
X229870000Y-51879500D03*
X229870000Y-53784500D03*
X42418000Y-70167500D03*
X42418000Y-72072500D03*
X62230000Y-70675500D03*
X62230000Y-72580500D03*
X82042000Y-70675500D03*
X82042000Y-72580500D03*
X101346000Y-70675500D03*
X101346000Y-72580500D03*
X119126000Y-70675500D03*
X119126000Y-72580500D03*
X139954000Y-70675500D03*
X139954000Y-72580500D03*
X157734000Y-70675500D03*
X157734000Y-72580500D03*
X176530000Y-70167500D03*
X176530000Y-72072500D03*
X195326000Y-70167500D03*
X195326000Y-72072500D03*
X215138000Y-70675500D03*
X215138000Y-72580500D03*
X240538000Y-70167500D03*
X240538000Y-72072500D03*
X44958000Y-89471500D03*
X44958000Y-91376500D03*
X71882000Y-89979500D03*
X71882000Y-91884500D03*
X90170000Y-101790500D03*
X90170000Y-99885500D03*
X110998000Y-89217500D03*
X110998000Y-91122500D03*
X129540000Y-89217500D03*
X129540000Y-91122500D03*
X147320000Y-88963500D03*
X147320000Y-90868500D03*
X166878000Y-88963500D03*
X166878000Y-90868500D03*
X186182000Y-89217500D03*
X186182000Y-91122500D03*
X204470000Y-101790500D03*
X204470000Y-99885500D03*
X227838000Y-89979500D03*
X227838000Y-91884500D03*
X249428000Y-90233500D03*
X249428000Y-92138500D03*
X42418000Y-108267500D03*
X42418000Y-110172500D03*
X62738000Y-108267500D03*
X62738000Y-110172500D03*
X81788000Y-108267500D03*
X81788000Y-110172500D03*
X151130000Y-109029500D03*
X151130000Y-110934500D03*
X222504000Y-108775500D03*
X222504000Y-110680500D03*
X246888000Y-109029500D03*
X246888000Y-110934500D03*
X249174000Y-51879500D03*
X249174000Y-53784500D03*
D14*
X118237000Y-113284000D03*
X118237000Y-112483900D03*
X118237000Y-111683800D03*
X118237000Y-110883700D03*
X118237000Y-110083600D03*
X118237000Y-109283500D03*
X118237000Y-114084100D03*
X118237000Y-114884200D03*
X118237000Y-115684300D03*
X118237000Y-116484400D03*
X118237000Y-117284500D03*
X129667000Y-113284000D03*
X129667000Y-112483900D03*
X129667000Y-111683800D03*
X129667000Y-110883700D03*
X129667000Y-110083600D03*
X129667000Y-109283500D03*
X129667000Y-114084100D03*
X129667000Y-114884200D03*
X129667000Y-115684300D03*
X129667000Y-116484400D03*
X129667000Y-117284500D03*
D15*
X123952000Y-107569000D03*
X123952000Y-118999000D03*
X124752100Y-107569000D03*
X124752100Y-118999000D03*
X125552200Y-118999000D03*
X125552200Y-107569000D03*
X126352300Y-107569000D03*
X126352300Y-118999000D03*
X127152400Y-118999000D03*
X127152400Y-107569000D03*
X127952500Y-107569000D03*
X127952500Y-118999000D03*
X123151900Y-118999000D03*
X123151900Y-107569000D03*
X122351800Y-107569000D03*
X122351800Y-118999000D03*
X121551700Y-118999000D03*
X121551700Y-107569000D03*
X120751600Y-107569000D03*
X120751600Y-118999000D03*
X119951500Y-118999000D03*
X119951500Y-107569000D03*
D16*
X69342000Y-53274000D03*
X69342000Y-51374000D03*
X107442000Y-53274000D03*
X107442000Y-51374000D03*
X126238000Y-53274000D03*
X126238000Y-51374000D03*
X145034000Y-53274000D03*
X145034000Y-51374000D03*
X163830000Y-53274000D03*
X163830000Y-51374000D03*
X183134000Y-53274000D03*
X183134000Y-51374000D03*
X202438000Y-53782000D03*
X202438000Y-51882000D03*
X221234000Y-53782000D03*
X221234000Y-51882000D03*
X240030000Y-53782000D03*
X240030000Y-51882000D03*
X258826000Y-53782000D03*
X258826000Y-51882000D03*
X50038000Y-69662000D03*
X50038000Y-71562000D03*
X38100000Y-53528000D03*
X38100000Y-51628000D03*
X87630000Y-53782000D03*
X87630000Y-51882000D03*
X73914000Y-72578000D03*
X73914000Y-70678000D03*
X92710000Y-72578000D03*
X92710000Y-70678000D03*
X112014000Y-72578000D03*
X112014000Y-70678000D03*
X130810000Y-72578000D03*
X130810000Y-70678000D03*
X149606000Y-72578000D03*
X149606000Y-70678000D03*
X168910000Y-72578000D03*
X168910000Y-70678000D03*
X187706000Y-72578000D03*
X187706000Y-70678000D03*
X206502000Y-73086000D03*
X206502000Y-71186000D03*
X225806000Y-72578000D03*
X225806000Y-70678000D03*
X251714000Y-72578000D03*
X251714000Y-70678000D03*
X55626000Y-88966000D03*
X55626000Y-90866000D03*
X82550000Y-91882000D03*
X82550000Y-89982000D03*
X89662000Y-91628000D03*
X89662000Y-89728000D03*
X119888000Y-91374000D03*
X119888000Y-89474000D03*
X140462000Y-91628000D03*
X140462000Y-89728000D03*
X159766000Y-90358000D03*
X159766000Y-88458000D03*
X178308000Y-91374000D03*
X178308000Y-89474000D03*
X197612000Y-91120000D03*
X197612000Y-89220000D03*
X203962000Y-91628000D03*
X203962000Y-89728000D03*
X236982000Y-91628000D03*
X236982000Y-89728000D03*
X249174000Y-87818000D03*
X249174000Y-85918000D03*
X50546000Y-108270000D03*
X50546000Y-110170000D03*
X73914000Y-110678000D03*
X73914000Y-108778000D03*
X92456000Y-110678000D03*
X92456000Y-108778000D03*
X161036000Y-110678000D03*
X161036000Y-108778000D03*
X233172000Y-110932000D03*
X233172000Y-109032000D03*
X255270000Y-110424000D03*
X255270000Y-108524000D03*
D17*
X98232000Y-67056000D03*
X96332000Y-67056000D03*
D18*
X173990000Y-117856000D03*
D19*
X173990000Y-120396000D03*
X176530000Y-117856000D03*
X176530000Y-120396000D03*
X179070000Y-117856000D03*
X179070000Y-120396000D03*
D20*
X261112000Y-72136000D03*
D21*
X261112000Y-74676000D03*
X261112000Y-77216000D03*
X261112000Y-79756000D03*
D22*
X231582000Y-70596760D03*
X229682000Y-70596760D03*
X230632000Y-68597780D03*
D16*
X54102000Y-59878000D03*
X54102000Y-57978000D03*
X51562000Y-59878000D03*
X51562000Y-57978000D03*
D17*
X116012000Y-119380000D03*
X114112000Y-119380000D03*
X229682000Y-75946000D03*
X231582000Y-75946000D03*
X133792000Y-105156000D03*
X131892000Y-105156000D03*
D23*
X100937000Y-64486000D03*
X100937000Y-67086000D03*
X107597000Y-67086000D03*
X107597000Y-64486000D03*
X64107000Y-64486000D03*
X64107000Y-67086000D03*
X70767000Y-67086000D03*
X70767000Y-64486000D03*
X137132000Y-64486000D03*
X137132000Y-67086000D03*
X143792000Y-67086000D03*
X143792000Y-64486000D03*
X176502000Y-64486000D03*
X176502000Y-67086000D03*
X183162000Y-67086000D03*
X183162000Y-64486000D03*
X217777000Y-64486000D03*
X217777000Y-67086000D03*
X224437000Y-67086000D03*
X224437000Y-64486000D03*
X257526000Y-89436000D03*
X260126000Y-89436000D03*
X260126000Y-82776000D03*
X257526000Y-82776000D03*
X211554000Y-104618000D03*
X211554000Y-107218000D03*
X218214000Y-107218000D03*
X218214000Y-104618000D03*
X175994000Y-102586000D03*
X175994000Y-105186000D03*
X182654000Y-105186000D03*
X182654000Y-102586000D03*
X143736000Y-102840000D03*
X143736000Y-105440000D03*
X150396000Y-105440000D03*
X150396000Y-102840000D03*
X95222000Y-102840000D03*
X95222000Y-105440000D03*
X101882000Y-105440000D03*
X101882000Y-102840000D03*
X64742000Y-101824000D03*
X64742000Y-104424000D03*
X71402000Y-104424000D03*
X71402000Y-101824000D03*
X36292000Y-93500000D03*
X38892000Y-93500000D03*
X38892000Y-86840000D03*
X36292000Y-86840000D03*
D24*
X223743500Y-99446000D03*
X219743000Y-90546000D03*
X223741000Y-90546000D03*
X219743000Y-99446000D03*
D25*
X43942000Y-56896000D03*
D26*
X41422000Y-61686000D03*
D27*
X47752000Y-59436000D03*
D28*
X49022000Y-56896000D03*
X38862000Y-56896000D03*
D27*
X46442000Y-60896000D03*
D25*
X62992000Y-56896000D03*
D26*
X60472000Y-61686000D03*
D27*
X66802000Y-59436000D03*
D28*
X68072000Y-56896000D03*
X57912000Y-56896000D03*
D27*
X65492000Y-60896000D03*
D25*
X82042000Y-56896000D03*
D26*
X79522000Y-61686000D03*
D27*
X85852000Y-59436000D03*
D28*
X87122000Y-56896000D03*
X76962000Y-56896000D03*
D27*
X84542000Y-60896000D03*
D25*
X101092000Y-56896000D03*
D26*
X98572000Y-61686000D03*
D27*
X104902000Y-59436000D03*
D28*
X106172000Y-56896000D03*
X96012000Y-56896000D03*
D27*
X103592000Y-60896000D03*
D25*
X120142000Y-56896000D03*
D26*
X117622000Y-61686000D03*
D27*
X123952000Y-59436000D03*
D28*
X125222000Y-56896000D03*
X115062000Y-56896000D03*
D27*
X122642000Y-60896000D03*
D25*
X139192000Y-56896000D03*
D26*
X136672000Y-61686000D03*
D27*
X143002000Y-59436000D03*
D28*
X144272000Y-56896000D03*
X134112000Y-56896000D03*
D27*
X141692000Y-60896000D03*
D25*
X158242000Y-56896000D03*
D26*
X155722000Y-61686000D03*
D27*
X162052000Y-59436000D03*
D28*
X163322000Y-56896000D03*
X153162000Y-56896000D03*
D27*
X160742000Y-60896000D03*
D25*
X177292000Y-56896000D03*
D26*
X174772000Y-61686000D03*
D27*
X181102000Y-59436000D03*
D28*
X182372000Y-56896000D03*
X172212000Y-56896000D03*
D27*
X179792000Y-60896000D03*
D25*
X196342000Y-56896000D03*
D26*
X193822000Y-61686000D03*
D27*
X200152000Y-59436000D03*
D28*
X201422000Y-56896000D03*
X191262000Y-56896000D03*
D27*
X198842000Y-60896000D03*
D25*
X215392000Y-56896000D03*
D26*
X212872000Y-61686000D03*
D27*
X219202000Y-59436000D03*
D28*
X220472000Y-56896000D03*
X210312000Y-56896000D03*
D27*
X217892000Y-60896000D03*
D25*
X234442000Y-56896000D03*
D26*
X231922000Y-61686000D03*
D27*
X238252000Y-59436000D03*
D28*
X239522000Y-56896000D03*
X229362000Y-56896000D03*
D27*
X236942000Y-60896000D03*
D25*
X46324520Y-75946000D03*
D26*
X43804520Y-80736000D03*
D27*
X50134520Y-78486000D03*
D28*
X51404520Y-75946000D03*
X41244520Y-75946000D03*
D27*
X48824520Y-79946000D03*
D25*
X67755770Y-75946000D03*
D26*
X65235770Y-80736000D03*
D27*
X71565770Y-78486000D03*
D28*
X72835770Y-75946000D03*
X62675770Y-75946000D03*
D27*
X70255770Y-79946000D03*
D25*
X86805770Y-75946000D03*
D26*
X84285770Y-80736000D03*
D27*
X90615770Y-78486000D03*
D28*
X91885770Y-75946000D03*
X81725770Y-75946000D03*
D27*
X89305770Y-79946000D03*
D25*
X105855770Y-75946000D03*
D26*
X103335770Y-80736000D03*
D27*
X109665770Y-78486000D03*
D28*
X110935770Y-75946000D03*
X100775770Y-75946000D03*
D27*
X108355770Y-79946000D03*
D25*
X124905770Y-75946000D03*
D26*
X122385770Y-80736000D03*
D27*
X128715770Y-78486000D03*
D28*
X129985770Y-75946000D03*
X119825770Y-75946000D03*
D27*
X127405770Y-79946000D03*
D25*
X143955770Y-75946000D03*
D26*
X141435770Y-80736000D03*
D27*
X147765770Y-78486000D03*
D28*
X149035770Y-75946000D03*
X138875770Y-75946000D03*
D27*
X146455770Y-79946000D03*
D25*
X163005770Y-75946000D03*
D26*
X160485770Y-80736000D03*
D27*
X166815770Y-78486000D03*
D28*
X168085770Y-75946000D03*
X157925770Y-75946000D03*
D27*
X165505770Y-79946000D03*
D25*
X182055770Y-75946000D03*
D26*
X179535770Y-80736000D03*
D27*
X185865770Y-78486000D03*
D28*
X187135770Y-75946000D03*
X176975770Y-75946000D03*
D27*
X184555770Y-79946000D03*
D25*
X201105770Y-75946000D03*
D26*
X198585770Y-80736000D03*
D27*
X204915770Y-78486000D03*
D28*
X206185770Y-75946000D03*
X196025770Y-75946000D03*
D27*
X203605770Y-79946000D03*
D25*
X220155770Y-75946000D03*
D26*
X217635770Y-80736000D03*
D27*
X223965770Y-78486000D03*
D28*
X225235770Y-75946000D03*
X215075770Y-75946000D03*
D27*
X222655770Y-79946000D03*
D25*
X246349520Y-75946000D03*
D26*
X243829520Y-80736000D03*
D27*
X250159520Y-78486000D03*
D28*
X251429520Y-75946000D03*
X241269520Y-75946000D03*
D27*
X248849520Y-79946000D03*
D25*
X51085750Y-94996000D03*
D26*
X48565750Y-99786000D03*
D27*
X54895750Y-97536000D03*
D28*
X56165750Y-94996000D03*
X46005750Y-94996000D03*
D27*
X53585750Y-98996000D03*
D25*
X77279500Y-94996000D03*
D26*
X74759500Y-99786000D03*
D27*
X81089500Y-97536000D03*
D28*
X82359500Y-94996000D03*
X72199500Y-94996000D03*
D27*
X79779500Y-98996000D03*
D25*
X96329500Y-94996000D03*
D26*
X93809500Y-99786000D03*
D27*
X100139500Y-97536000D03*
D28*
X101409500Y-94996000D03*
X91249500Y-94996000D03*
D27*
X98829500Y-98996000D03*
D25*
X115379500Y-94996000D03*
D26*
X112859500Y-99786000D03*
D27*
X119189500Y-97536000D03*
D28*
X120459500Y-94996000D03*
X110299500Y-94996000D03*
D27*
X117879500Y-98996000D03*
D25*
X134429500Y-94996000D03*
D26*
X131909500Y-99786000D03*
D27*
X138239500Y-97536000D03*
D28*
X139509500Y-94996000D03*
X129349500Y-94996000D03*
D27*
X136929500Y-98996000D03*
D25*
X153479500Y-94996000D03*
D26*
X150959500Y-99786000D03*
D27*
X157289500Y-97536000D03*
D28*
X158559500Y-94996000D03*
X148399500Y-94996000D03*
D27*
X155979500Y-98996000D03*
D25*
X172529500Y-94996000D03*
D26*
X170009500Y-99786000D03*
D27*
X176339500Y-97536000D03*
D28*
X177609500Y-94996000D03*
X167449500Y-94996000D03*
D27*
X175029500Y-98996000D03*
D25*
X191579500Y-94996000D03*
D26*
X189059500Y-99786000D03*
D27*
X195389500Y-97536000D03*
D28*
X196659500Y-94996000D03*
X186499500Y-94996000D03*
D27*
X194079500Y-98996000D03*
D25*
X210629500Y-94996000D03*
D26*
X208109500Y-99786000D03*
D27*
X214439500Y-97536000D03*
D28*
X215709500Y-94996000D03*
X205549500Y-94996000D03*
D27*
X213129500Y-98996000D03*
D25*
X232060750Y-94996000D03*
D26*
X229540750Y-99786000D03*
D27*
X235870750Y-97536000D03*
D28*
X237140750Y-94996000D03*
X226980750Y-94996000D03*
D27*
X234560750Y-98996000D03*
D25*
X253492000Y-94996000D03*
D26*
X250972000Y-99786000D03*
D27*
X257302000Y-97536000D03*
D28*
X258572000Y-94996000D03*
X248412000Y-94996000D03*
D27*
X255992000Y-98996000D03*
D25*
X46324520Y-114046000D03*
D26*
X43804520Y-118836000D03*
D27*
X50134520Y-116586000D03*
D28*
X51404520Y-114046000D03*
X41244520Y-114046000D03*
D27*
X48824520Y-118046000D03*
D25*
X67755770Y-114046000D03*
D26*
X65235770Y-118836000D03*
D27*
X71565770Y-116586000D03*
D28*
X72835770Y-114046000D03*
X62675770Y-114046000D03*
D27*
X70255770Y-118046000D03*
D25*
X86805770Y-114046000D03*
D26*
X84285770Y-118836000D03*
D27*
X90615770Y-116586000D03*
D28*
X91885770Y-114046000D03*
X81725770Y-114046000D03*
D27*
X89305770Y-118046000D03*
D25*
X227299520Y-114046000D03*
D26*
X224779520Y-118836000D03*
D27*
X231109520Y-116586000D03*
D28*
X232379520Y-114046000D03*
X222219520Y-114046000D03*
D27*
X229799520Y-118046000D03*
D25*
X251112020Y-114046000D03*
D26*
X248592020Y-118836000D03*
D27*
X254922020Y-116586000D03*
D28*
X256192020Y-114046000D03*
X246032020Y-114046000D03*
D27*
X253612020Y-118046000D03*
D25*
X253492000Y-56896000D03*
D26*
X250972000Y-61686000D03*
D27*
X257302000Y-59436000D03*
D28*
X258572000Y-56896000D03*
X248412000Y-56896000D03*
D27*
X255992000Y-60896000D03*
D29*
X136652000Y-109065060D03*
X136652000Y-113946940D03*
D30*
X61722000Y-51816000D03*
X64262000Y-51816000D03*
X99822000Y-51816000D03*
X102362000Y-51816000D03*
X118872000Y-51816000D03*
X121412000Y-51816000D03*
X137922000Y-51816000D03*
X140462000Y-51816000D03*
X156972000Y-51816000D03*
X159512000Y-51816000D03*
X176022000Y-51816000D03*
X178562000Y-51816000D03*
X195072000Y-51816000D03*
X197612000Y-51816000D03*
X214122000Y-51816000D03*
X216662000Y-51816000D03*
X233172000Y-51816000D03*
X235712000Y-51816000D03*
X252222000Y-51816000D03*
X254762000Y-51816000D03*
X45054520Y-70866000D03*
X47594520Y-70866000D03*
X42672000Y-51816000D03*
X45212000Y-51816000D03*
X80772000Y-51816000D03*
X83312000Y-51816000D03*
X66485770Y-70866000D03*
X69025770Y-70866000D03*
X85535770Y-70866000D03*
X88075770Y-70866000D03*
X104585770Y-70866000D03*
X107125770Y-70866000D03*
X123635770Y-70866000D03*
X126175770Y-70866000D03*
X143002000Y-70866000D03*
X145542000Y-70866000D03*
X161735770Y-70866000D03*
X164275770Y-70866000D03*
X180785770Y-70866000D03*
X183325770Y-70866000D03*
X199835770Y-70866000D03*
X202375770Y-70866000D03*
X218885770Y-70866000D03*
X221425770Y-70866000D03*
X245079520Y-70866000D03*
X247619520Y-70866000D03*
X49815750Y-89916000D03*
X52355750Y-89916000D03*
X76009500Y-89916000D03*
X78549500Y-89916000D03*
X95059500Y-89916000D03*
X97599500Y-89916000D03*
X114109500Y-89916000D03*
X116649500Y-89916000D03*
X133159500Y-89916000D03*
X135699500Y-89916000D03*
X152209500Y-89916000D03*
X154749500Y-89916000D03*
X171259500Y-89916000D03*
X173799500Y-89916000D03*
X190309500Y-89916000D03*
X192849500Y-89916000D03*
X209359500Y-89916000D03*
X211899500Y-89916000D03*
X230790750Y-89916000D03*
X233330750Y-89916000D03*
X252222000Y-89916000D03*
X254762000Y-89916000D03*
X45054520Y-108966000D03*
X47594520Y-108966000D03*
X66485770Y-108966000D03*
X69025770Y-108966000D03*
X85535770Y-108966000D03*
X88075770Y-108966000D03*
X154592020Y-108966000D03*
X157132020Y-108966000D03*
X226029520Y-108966000D03*
X228569520Y-108966000D03*
X249842020Y-108966000D03*
X252382020Y-108966000D03*
D31*
X153322020Y-119126000D03*
X159672020Y-116586000D03*
D32*
X155862020Y-114046000D03*
D33*
X160942020Y-114046000D03*
X150782020Y-114046000D03*
D34*
X205900020Y-121031000D03*
X105824020Y-121031000D03*
D32*
X205900020Y-105791000D03*
X105824020Y-105791000D03*
D35*
X35052000Y-100838000D03*
X263144000Y-99314000D03*
X99822000Y-118110000D03*
X236220000Y-67564000D03*
X134366000Y-83820000D03*
M02*
