M48
;DRILL file {KiCad 4.0.1-stable} date 5/15/2016 6:24:48 PM
;FORMAT={-:-/ absolute / inch / decimal}
FMAT,2
INCH,TZ
T1C0.016
T2C0.028
T3C0.031
T4C0.032
T5C0.032
T6C0.035
T7C0.039
T8C0.059
T9C0.059
T10C0.067
T11C0.098
T12C0.120
T13C0.157
%
G90
G05
M72
T1
X2.4875Y-2.5763
X2.4875Y-5.4913
X2.8254Y-3.0444
X3.0423Y-3.4591
X3.12Y-3.06
X3.2186Y-4.6675
X3.4797Y-4.8363
X3.5766Y-4.7235
X3.6185Y-5.0591
X3.8478Y-3.5517
X4.0575Y-4.8313
X4.2891Y-4.7512
X4.3025Y-4.8313
X5.0525Y-4.8863
X5.1215Y-3.0787
X5.1953Y-4.5769
X5.3768Y-4.8364
X5.4725Y-5.0063
X5.7525Y-5.0063
X5.7956Y-3.2339
X5.8805Y-5.308
X5.8965Y-3.0685
X5.9639Y-5.2804
X6.0452Y-3.1681
X6.1185Y-5.3671
X6.2825Y-3.3313
X6.2975Y-5.0063
X6.2975Y-5.1313
X6.5275Y-3.3313
X6.5325Y-5.2063
X6.5415Y-5.0289
X6.5825Y-4.0463
X6.8743Y-4.7473
X7.0075Y-4.0763
X7.1225Y-3.3263
X7.2345Y-4.8866
X7.3025Y-4.0763
X7.4561Y-4.8997
X7.5382Y-4.6856
X7.5811Y-4.8364
X7.6103Y-4.8088
X7.7435Y-5.425
X7.7444Y-5.0315
X7.7686Y-4.6973
X7.8825Y-3.7413
X7.885Y-3.3288
X8.0375Y-5.4529
X8.0727Y-5.0591
X8.1028Y-4.7073
X8.1084Y-4.9838
X8.238Y-5.4649
X8.2778Y-4.7073
X8.2815Y-3.815
X8.2815Y-4.7515
X8.2909Y-5.0659
X8.2936Y-5.0006
X8.3257Y-4.8027
X8.3457Y-5.0224
X8.3989Y-4.9406
X8.4607Y-5.3259
X8.4731Y-5.177
X8.4739Y-5.1111
X8.5128Y-5.0032
X8.54Y-4.84
X8.553Y-3.1063
X8.57Y-5.25
X8.6Y-5.38
X8.64Y-5.22
X8.65Y-5.35
X8.6875Y-3.3063
X8.6875Y-3.4563
X8.7101Y-5.3885
X8.7783Y-5.3613
X8.8Y-5.29
X8.84Y-5.22
X8.87Y-5.25
X8.9758Y-5.2673
X8.9773Y-5.1907
X8.9937Y-5.1304
X8.9937Y-4.9843
X9.012Y-3.553
X9.0913Y-4.2269
X9.1291Y-3.938
X9.1504Y-4.0881
X9.1532Y-4.1948
X9.1683Y-4.0425
X9.2272Y-3.7798
X9.3275Y-3.3063
X9.48Y-4.85
X9.48Y-5.4
X9.8925Y-3.3063
X10.2725Y-3.3063
X10.4578Y-4.8267
X10.6118Y-3.4563
X10.668Y-3.3375
X11.2374Y-4.6711
X11.3465Y-4.5689
X11.39Y-5.491
X11.3925Y-2.5763
T2
X11.35Y-3.3
X11.35Y-3.35
X11.35Y-3.4
X11.35Y-3.45
X11.35Y-3.55
X11.35Y-3.6
X11.35Y-3.65
X11.35Y-3.7
X11.35Y-3.75
X11.35Y-3.8
X11.35Y-3.85
X11.35Y-3.9
X11.35Y-3.95
X11.35Y-4.
X11.35Y-4.05
T3
X3.1071Y-2.8207
X3.1386Y-2.7735
X3.17Y-2.8207
X3.2014Y-2.7735
X3.2329Y-2.8207
T4
X8.6Y-5.1239
X8.6Y-5.3161
T5
X2.59Y-3.595
X2.59Y-3.895
X2.7225Y-4.2063
X2.7225Y-4.5063
X4.0825Y-3.5463
X4.0825Y-3.8463
X4.6525Y-2.7063
X4.6525Y-3.0063
X4.8375Y-3.4563
X4.8375Y-3.7563
X5.5825Y-3.4563
X5.5825Y-3.7563
T6
X5.7635Y-5.425
X5.8635Y-5.425
X5.9635Y-5.425
X6.0635Y-5.425
X6.1635Y-5.425
X6.2126Y-2.6564
X6.2126Y-2.7564
X6.2126Y-2.8564
X6.2126Y-2.9564
X6.2635Y-5.425
X6.9626Y-2.6564
X6.9626Y-2.7564
X6.9626Y-2.8564
X6.9626Y-2.9564
X7.7126Y-2.6564
X7.7126Y-2.7564
X7.7126Y-2.8564
X7.7126Y-2.9564
X7.7126Y-3.1564
X8.4626Y-2.6564
X8.4626Y-2.7564
X8.4626Y-2.8564
X8.4626Y-2.9564
X8.4626Y-3.1564
T7
X2.7625Y-2.7063
X2.8575Y-3.4563
X2.8575Y-4.9563
X2.8625Y-2.7063
X2.9575Y-3.4563
X2.9575Y-4.9563
X3.0425Y-4.2063
X3.1425Y-4.2063
X3.5125Y-2.7063
X3.6125Y-2.7063
X3.7025Y-3.4563
X3.7025Y-4.9563
X3.8025Y-3.4563
X3.8025Y-4.9563
X4.0725Y-4.2063
X4.1725Y-4.2063
X4.2625Y-2.7063
X4.3625Y-2.7063
X4.4525Y-3.4563
X4.4525Y-4.9563
X4.5525Y-3.4563
X4.5525Y-4.9563
X4.8225Y-4.2063
X4.9225Y-4.2063
X5.0125Y-2.7063
X5.1125Y-2.7063
X5.2025Y-3.4563
X5.3025Y-3.4563
X5.5725Y-4.2113
X5.6725Y-4.2113
X5.7625Y-2.7063
X5.8625Y-2.7063
X5.9525Y-3.4563
X6.0525Y-3.4563
X6.3225Y-4.2063
X6.4225Y-4.2063
X6.5125Y-2.7063
X6.6125Y-2.7063
X6.7025Y-3.4563
X6.8025Y-3.4563
X7.0725Y-4.2063
X7.1725Y-4.2063
X7.1795Y-4.9565
X7.2625Y-2.7063
X7.2795Y-4.9565
X7.3625Y-2.7063
X7.4525Y-3.4563
X7.5525Y-3.4563
X7.8225Y-4.2063
X7.9225Y-4.2063
X8.0125Y-2.7063
X8.1125Y-2.7063
X8.2025Y-3.4563
X8.3025Y-3.4563
X8.5725Y-4.2063
X8.6725Y-4.2063
X8.7625Y-2.7063
X8.8625Y-2.7063
X8.9525Y-3.4563
X9.0525Y-3.4563
X9.3225Y-4.2063
X9.4225Y-4.2063
X9.5125Y-2.7063
X9.6125Y-2.7063
X9.7025Y-3.4563
X9.8025Y-3.4563
X9.9825Y-4.9563
X10.0725Y-4.2063
X10.0825Y-4.9563
X10.1675Y-4.2063
X10.1725Y-4.2063
X10.2625Y-2.7063
X10.2675Y-4.2063
X10.3625Y-2.7063
X10.7325Y-3.4563
X10.8325Y-3.4563
X10.9175Y-4.9563
X10.9225Y-4.2063
X11.0125Y-2.7063
X11.0125Y-4.2063
X11.0175Y-4.9563
X11.0225Y-4.2063
X11.1125Y-2.7063
X11.1125Y-4.2063
T8
X2.7125Y-3.1063
X2.8075Y-3.8563
X2.8075Y-5.3563
X2.9625Y-3.0063
X2.9925Y-4.6063
X3.0575Y-3.7563
X3.0575Y-5.2563
X3.2425Y-4.5063
X3.4625Y-3.1063
X3.6525Y-3.8563
X3.6525Y-5.3563
X3.7125Y-3.0063
X3.9025Y-3.7563
X3.9025Y-5.2563
X4.0225Y-4.6063
X4.2125Y-3.1063
X4.2725Y-4.5063
X4.4025Y-3.8563
X4.4025Y-5.3563
X4.4625Y-3.0063
X4.6525Y-3.7563
X4.6525Y-5.2563
X4.7725Y-4.6063
X4.9625Y-3.1063
X5.0225Y-4.5063
X5.1525Y-3.8563
X5.2125Y-3.0063
X5.4025Y-3.7563
X5.5225Y-4.6063
X5.7125Y-3.1063
X5.7725Y-4.5063
X5.9025Y-3.8563
X5.9625Y-3.0063
X6.1525Y-3.7563
X6.2725Y-4.6063
X6.4625Y-3.1063
X6.5225Y-4.5063
X6.6525Y-3.8563
X6.7125Y-3.0063
X6.9025Y-3.7563
X7.0225Y-4.6063
X7.1126Y-5.3564
X7.2125Y-3.1063
X7.2725Y-4.5063
X7.3626Y-5.2564
X7.4025Y-3.8563
X7.4625Y-3.0063
X7.6525Y-3.7563
X7.7725Y-4.6063
X7.9625Y-3.1063
X8.0225Y-4.5063
X8.1525Y-3.8563
X8.2125Y-3.0063
X8.4025Y-3.7563
X8.5225Y-4.6063
X8.7125Y-3.1063
X8.7725Y-4.5063
X8.9025Y-3.8563
X8.9625Y-3.0063
X9.1525Y-3.7563
X9.2725Y-4.6063
X9.4625Y-3.1063
X9.5225Y-4.5063
X9.6525Y-3.8563
X9.7125Y-3.0063
X9.9025Y-3.7563
X9.9325Y-5.3563
X10.0225Y-4.6063
X10.1175Y-4.6063
X10.1825Y-5.2563
X10.2125Y-3.1063
X10.2725Y-4.5063
X10.3675Y-4.5063
X10.4625Y-3.0063
X10.6825Y-3.8563
X10.8675Y-5.3563
X10.8725Y-4.6063
X10.9325Y-3.7563
X10.9625Y-3.1063
X10.9625Y-4.6063
X11.1175Y-5.2563
X11.1225Y-4.5063
X11.2125Y-3.0063
X11.2125Y-4.5063
T9
X3.03Y-2.59
X3.03Y-2.78
X3.31Y-2.6
X3.31Y-2.78
T10
X2.6125Y-2.9063
X2.7075Y-3.6563
X2.7075Y-5.1563
X2.8925Y-4.4063
X3.0125Y-2.9063
X3.1075Y-3.6563
X3.1075Y-5.1563
X3.2925Y-4.4063
X3.3625Y-2.9063
X3.5525Y-3.6563
X3.5525Y-5.1563
X3.7625Y-2.9063
X3.9225Y-4.4063
X3.9525Y-3.6563
X3.9525Y-5.1563
X4.1125Y-2.9063
X4.3025Y-3.6563
X4.3025Y-5.1563
X4.3225Y-4.4063
X4.5125Y-2.9063
X4.6725Y-4.4063
X4.7025Y-3.6563
X4.7025Y-5.1563
X4.8625Y-2.9063
X5.0525Y-3.6563
X5.0725Y-4.4063
X5.2625Y-2.9063
X5.4225Y-4.4063
X5.4525Y-3.6563
X5.6125Y-2.9063
X5.8025Y-3.6563
X5.8225Y-4.4063
X6.0125Y-2.9063
X6.1725Y-4.4063
X6.2025Y-3.6563
X6.3625Y-2.9063
X6.5525Y-3.6563
X6.5725Y-4.4063
X6.7625Y-2.9063
X6.9225Y-4.4063
X6.9525Y-3.6563
X7.0126Y-5.1564
X7.1125Y-2.9063
X7.3025Y-3.6563
X7.3225Y-4.4063
X7.4126Y-5.1564
X7.5125Y-2.9063
X7.6725Y-4.4063
X7.7025Y-3.6563
X7.8625Y-2.9063
X8.0525Y-3.6563
X8.0725Y-4.4063
X8.2625Y-2.9063
X8.4225Y-4.4063
X8.4525Y-3.6563
X8.6125Y-2.9063
X8.8025Y-3.6563
X8.8225Y-4.4063
X9.0125Y-2.9063
X9.1725Y-4.4063
X9.2025Y-3.6563
X9.3625Y-2.9063
X9.5525Y-3.6563
X9.5725Y-4.4063
X9.7625Y-2.9063
X9.8325Y-5.1563
X9.9225Y-4.4063
X9.9525Y-3.6563
X10.0175Y-4.4063
X10.1125Y-2.9063
X10.2325Y-5.1563
X10.3225Y-4.4063
X10.4175Y-4.4063
X10.5125Y-2.9063
X10.5825Y-3.6563
X10.7675Y-5.1563
X10.7725Y-4.4063
X10.8625Y-2.9063
X10.8625Y-4.4063
X10.9825Y-3.6563
X11.1675Y-5.1563
X11.1725Y-4.4063
X11.2625Y-2.9063
X11.2625Y-4.4063
T11
X2.5098Y-4.7685
X4.1325Y-3.3163
X7.4996Y-4.3945
X10.3225Y-3.6563
X11.3595Y-4.7685
T12
X5.2426Y-5.4314
X9.1826Y-5.4314
T13
X2.8125Y-2.9063
X2.9075Y-3.6563
X2.9075Y-5.1563
X3.0925Y-4.4063
X3.5625Y-2.9063
X3.7525Y-3.6563
X3.7525Y-5.1563
X4.1225Y-4.4063
X4.3125Y-2.9063
X4.5025Y-3.6563
X4.5025Y-5.1563
X4.8725Y-4.4063
X5.0625Y-2.9063
X5.2426Y-4.8314
X5.2525Y-3.6563
X5.6225Y-4.4063
X5.8125Y-2.9063
X6.0025Y-3.6563
X6.3725Y-4.4063
X6.5625Y-2.9063
X6.7525Y-3.6563
X7.1225Y-4.4063
X7.2126Y-5.1564
X7.3125Y-2.9063
X7.5025Y-3.6563
X7.8725Y-4.4063
X8.0625Y-2.9063
X8.2525Y-3.6563
X8.6225Y-4.4063
X8.8125Y-2.9063
X9.0025Y-3.6563
X9.1826Y-4.8314
X9.3725Y-4.4063
X9.5625Y-2.9063
X9.7525Y-3.6563
X10.0325Y-5.1563
X10.1225Y-4.4063
X10.2175Y-4.4063
X10.3125Y-2.9063
X10.7825Y-3.6563
X10.9675Y-5.1563
X10.9725Y-4.4063
X11.0625Y-2.9063
X11.0625Y-4.4063
T0
M30
