G04 #@! TF.FileFunction,Paste,Bot*
%FSLAX46Y46*%
G04 Gerber Fmt 4.6, Leading zero omitted, Abs format (unit mm)*
G04 Created by KiCad (PCBNEW 4.0.1-stable) date 5/15/2016 6:24:45 PM*
%MOMM*%
G01*
G04 APERTURE LIST*
%ADD10C,0.150000*%
%ADD11C,0.099100*%
%ADD12R,0.960000X0.960000*%
%ADD13C,1.265560*%
%ADD14C,1.960000*%
G04 APERTURE END LIST*
D10*
D11*
X227209040Y-75750560D02*
X768040Y-75750560D01*
X227209040Y-75750560D02*
G75*
G03X227971040Y-74988560I0J762000D01*
G01*
X227971040Y-693560D02*
X227971040Y-74988560D01*
X227971040Y-693560D02*
G75*
G03X227209040Y68440I-762000J0D01*
G01*
X768040Y68440D02*
X227209040Y68440D01*
X768040Y68440D02*
G75*
G03X6040Y-693560I0J-762000D01*
G01*
X6040Y-74988560D02*
X6040Y-693560D01*
X6040Y-74988560D02*
G75*
G03X768040Y-75750560I762000J0D01*
G01*
D12*
X184410000Y-14487600D03*
X184410000Y-17887600D03*
X169805000Y-33537600D03*
X169805000Y-36937600D03*
X178695000Y-52588000D03*
X178695000Y-55988000D03*
X93605000Y-33537600D03*
X93605000Y-36937600D03*
X159645000Y-52588000D03*
X159645000Y-55988000D03*
X150755000Y-33537600D03*
X150755000Y-36937600D03*
X165360000Y-14487600D03*
X165360000Y-17887600D03*
X146310000Y-14487600D03*
X146310000Y-17887600D03*
X131705000Y-33537600D03*
X131705000Y-36937600D03*
X140595000Y-52588000D03*
X140595000Y-55988000D03*
X102495000Y-52588000D03*
X102495000Y-55988000D03*
X12960000Y-14487600D03*
X12960000Y-17887600D03*
X127260000Y-14487600D03*
X127260000Y-17887600D03*
X89160000Y-14487600D03*
X89160000Y-17887600D03*
X83445000Y-52588000D03*
X83445000Y-55988000D03*
X74555000Y-33537600D03*
X74555000Y-36937600D03*
X70110000Y-14487600D03*
X70110000Y-17887600D03*
X125990000Y-62973000D03*
X125990000Y-59573000D03*
X121545000Y-52588000D03*
X121545000Y-55988000D03*
X112655000Y-33537600D03*
X112655000Y-36937600D03*
X108210000Y-14487600D03*
X108210000Y-17887600D03*
X56775000Y-62973000D03*
X56775000Y-59573000D03*
X37725000Y-62973000D03*
X37725000Y-59573000D03*
X64395000Y-52588000D03*
X64395000Y-55988000D03*
X55505000Y-33537600D03*
X55505000Y-36937600D03*
X45345000Y-52588000D03*
X45345000Y-55988000D03*
X36455000Y-33537600D03*
X36455000Y-36937600D03*
X16135000Y-62973000D03*
X16135000Y-59573000D03*
X14865000Y-33537600D03*
X14865000Y-36937600D03*
X51060000Y-14487600D03*
X51060000Y-17887600D03*
X32010000Y-14487600D03*
X32010000Y-17887600D03*
X19310000Y-52588000D03*
X19310000Y-55988000D03*
X222510000Y-14487600D03*
X222510000Y-17887600D03*
X221240000Y-55988000D03*
X221240000Y-52588000D03*
X221240000Y-62973000D03*
X221240000Y-59573000D03*
X197745000Y-62973000D03*
X197745000Y-59573000D03*
X212985000Y-33537600D03*
X212985000Y-36937600D03*
X203460000Y-14487600D03*
X203460000Y-17887600D03*
X188855000Y-33537600D03*
X188855000Y-36937600D03*
X199650000Y-55988000D03*
X199650000Y-52588000D03*
D13*
X18228000Y-7025780D03*
X17430440Y-5826900D03*
X19825660Y-7025780D03*
X19025560Y-5826900D03*
D14*
X21784000Y-1420000D03*
X14672000Y-1166000D03*
D13*
X16630340Y-7025780D03*
D14*
X14672000Y-5992000D03*
X21784000Y-5992000D03*
M02*
