G04 #@! TF.FileFunction,Soldermask,Top*
%FSLAX46Y46*%
G04 Gerber Fmt 4.6, Leading zero omitted, Abs format (unit mm)*
G04 Created by KiCad (PCBNEW 4.0.1-stable) date 6/17/2016 11:41:39 PM*
%MOMM*%
G01*
G04 APERTURE LIST*
%ADD10C,0.100000*%
%ADD11C,0.010000*%
%ADD12C,1.705560*%
%ADD13C,2.400000*%
%ADD14R,2.127200X2.127200*%
%ADD15O,2.127200X2.127200*%
%ADD16R,2.432000X2.127200*%
%ADD17O,2.432000X2.127200*%
%ADD18C,4.380180*%
%ADD19O,2.784001X3.480000*%
%ADD20C,2.777011*%
%ADD21C,2.099260*%
%ADD22C,1.901140*%
%ADD23C,2.000200*%
%ADD24C,2.686000*%
%ADD25C,4.387800*%
%ADD26C,2.101800*%
%ADD27C,3.448000*%
%ADD28C,5.401260*%
G04 APERTURE END LIST*
D10*
D11*
G36*
X217841725Y-117330741D02*
X218220984Y-117611410D01*
X218486629Y-117990174D01*
X218567000Y-118328830D01*
X218610137Y-118640976D01*
X218699696Y-118826896D01*
X218761889Y-119017746D01*
X218795920Y-119400390D01*
X218796663Y-119913673D01*
X218794946Y-119963546D01*
X218757500Y-120967500D01*
X217481079Y-121003413D01*
X216934568Y-121010222D01*
X216486030Y-120999757D01*
X216194101Y-120974288D01*
X216115829Y-120950496D01*
X216064411Y-120776724D01*
X216035585Y-120432443D01*
X216027996Y-119993704D01*
X216040288Y-119536560D01*
X216071107Y-119137064D01*
X216096034Y-118999000D01*
X216281000Y-118999000D01*
X216281000Y-120777000D01*
X218567000Y-120777000D01*
X218567000Y-118999000D01*
X216281000Y-118999000D01*
X216096034Y-118999000D01*
X216119096Y-118871269D01*
X216154000Y-118808500D01*
X216244566Y-118637281D01*
X216276059Y-118386137D01*
X216535000Y-118386137D01*
X216535000Y-118745000D01*
X217424000Y-118745000D01*
X217888252Y-118740951D01*
X218153925Y-118714633D01*
X218276435Y-118644783D01*
X218311201Y-118510141D01*
X218313000Y-118403935D01*
X218207336Y-118019381D01*
X217941645Y-117689326D01*
X217592879Y-117495819D01*
X217441797Y-117475000D01*
X217052864Y-117588290D01*
X216728402Y-117874317D01*
X216548790Y-118252318D01*
X216535000Y-118386137D01*
X216276059Y-118386137D01*
X216281000Y-118346735D01*
X216394848Y-117926879D01*
X216686989Y-117551524D01*
X217083319Y-117293657D01*
X217424000Y-117221000D01*
X217841725Y-117330741D01*
X217841725Y-117330741D01*
G37*
X217841725Y-117330741D02*
X218220984Y-117611410D01*
X218486629Y-117990174D01*
X218567000Y-118328830D01*
X218610137Y-118640976D01*
X218699696Y-118826896D01*
X218761889Y-119017746D01*
X218795920Y-119400390D01*
X218796663Y-119913673D01*
X218794946Y-119963546D01*
X218757500Y-120967500D01*
X217481079Y-121003413D01*
X216934568Y-121010222D01*
X216486030Y-120999757D01*
X216194101Y-120974288D01*
X216115829Y-120950496D01*
X216064411Y-120776724D01*
X216035585Y-120432443D01*
X216027996Y-119993704D01*
X216040288Y-119536560D01*
X216071107Y-119137064D01*
X216096034Y-118999000D01*
X216281000Y-118999000D01*
X216281000Y-120777000D01*
X218567000Y-120777000D01*
X218567000Y-118999000D01*
X216281000Y-118999000D01*
X216096034Y-118999000D01*
X216119096Y-118871269D01*
X216154000Y-118808500D01*
X216244566Y-118637281D01*
X216276059Y-118386137D01*
X216535000Y-118386137D01*
X216535000Y-118745000D01*
X217424000Y-118745000D01*
X217888252Y-118740951D01*
X218153925Y-118714633D01*
X218276435Y-118644783D01*
X218311201Y-118510141D01*
X218313000Y-118403935D01*
X218207336Y-118019381D01*
X217941645Y-117689326D01*
X217592879Y-117495819D01*
X217441797Y-117475000D01*
X217052864Y-117588290D01*
X216728402Y-117874317D01*
X216548790Y-118252318D01*
X216535000Y-118386137D01*
X216276059Y-118386137D01*
X216281000Y-118346735D01*
X216394848Y-117926879D01*
X216686989Y-117551524D01*
X217083319Y-117293657D01*
X217424000Y-117221000D01*
X217841725Y-117330741D01*
G36*
X217537378Y-119322849D02*
X217593432Y-119505492D01*
X217590799Y-119791984D01*
X217542181Y-120076312D01*
X217460283Y-120252466D01*
X217424000Y-120269000D01*
X217340008Y-120158262D01*
X217266846Y-119888432D01*
X217261535Y-119856250D01*
X217253060Y-119516170D01*
X217330083Y-119302844D01*
X217465815Y-119268077D01*
X217537378Y-119322849D01*
X217537378Y-119322849D01*
G37*
X217537378Y-119322849D02*
X217593432Y-119505492D01*
X217590799Y-119791984D01*
X217542181Y-120076312D01*
X217460283Y-120252466D01*
X217424000Y-120269000D01*
X217340008Y-120158262D01*
X217266846Y-119888432D01*
X217261535Y-119856250D01*
X217253060Y-119516170D01*
X217330083Y-119302844D01*
X217465815Y-119268077D01*
X217537378Y-119322849D01*
D12*
X51054000Y-54119780D03*
X51851560Y-52920900D03*
X49456340Y-54119780D03*
X50256440Y-52920900D03*
D13*
X47498000Y-48514000D03*
X54610000Y-48260000D03*
D12*
X52651660Y-54119780D03*
D13*
X54610000Y-53086000D03*
X47498000Y-53086000D03*
D14*
X173990000Y-117856000D03*
D15*
X173990000Y-120396000D03*
X176530000Y-117856000D03*
X176530000Y-120396000D03*
X179070000Y-117856000D03*
X179070000Y-120396000D03*
D16*
X261112000Y-72136000D03*
D17*
X261112000Y-74676000D03*
X261112000Y-77216000D03*
X261112000Y-79756000D03*
D18*
X43942000Y-56896000D03*
D19*
X41422000Y-61686000D03*
D20*
X47752000Y-59436000D03*
D21*
X49022000Y-56896000D03*
X38862000Y-56896000D03*
D20*
X46442000Y-60896000D03*
D18*
X62992000Y-56896000D03*
D19*
X60472000Y-61686000D03*
D20*
X66802000Y-59436000D03*
D21*
X68072000Y-56896000D03*
X57912000Y-56896000D03*
D20*
X65492000Y-60896000D03*
D18*
X82042000Y-56896000D03*
D19*
X79522000Y-61686000D03*
D20*
X85852000Y-59436000D03*
D21*
X87122000Y-56896000D03*
X76962000Y-56896000D03*
D20*
X84542000Y-60896000D03*
D18*
X101092000Y-56896000D03*
D19*
X98572000Y-61686000D03*
D20*
X104902000Y-59436000D03*
D21*
X106172000Y-56896000D03*
X96012000Y-56896000D03*
D20*
X103592000Y-60896000D03*
D18*
X120142000Y-56896000D03*
D19*
X117622000Y-61686000D03*
D20*
X123952000Y-59436000D03*
D21*
X125222000Y-56896000D03*
X115062000Y-56896000D03*
D20*
X122642000Y-60896000D03*
D18*
X139192000Y-56896000D03*
D19*
X136672000Y-61686000D03*
D20*
X143002000Y-59436000D03*
D21*
X144272000Y-56896000D03*
X134112000Y-56896000D03*
D20*
X141692000Y-60896000D03*
D18*
X158242000Y-56896000D03*
D19*
X155722000Y-61686000D03*
D20*
X162052000Y-59436000D03*
D21*
X163322000Y-56896000D03*
X153162000Y-56896000D03*
D20*
X160742000Y-60896000D03*
D18*
X177292000Y-56896000D03*
D19*
X174772000Y-61686000D03*
D20*
X181102000Y-59436000D03*
D21*
X182372000Y-56896000D03*
X172212000Y-56896000D03*
D20*
X179792000Y-60896000D03*
D18*
X196342000Y-56896000D03*
D19*
X193822000Y-61686000D03*
D20*
X200152000Y-59436000D03*
D21*
X201422000Y-56896000D03*
X191262000Y-56896000D03*
D20*
X198842000Y-60896000D03*
D18*
X215392000Y-56896000D03*
D19*
X212872000Y-61686000D03*
D20*
X219202000Y-59436000D03*
D21*
X220472000Y-56896000D03*
X210312000Y-56896000D03*
D20*
X217892000Y-60896000D03*
D18*
X234442000Y-56896000D03*
D19*
X231922000Y-61686000D03*
D20*
X238252000Y-59436000D03*
D21*
X239522000Y-56896000D03*
X229362000Y-56896000D03*
D20*
X236942000Y-60896000D03*
D18*
X46324520Y-75946000D03*
D19*
X43804520Y-80736000D03*
D20*
X50134520Y-78486000D03*
D21*
X51404520Y-75946000D03*
X41244520Y-75946000D03*
D20*
X48824520Y-79946000D03*
D18*
X67755770Y-75946000D03*
D19*
X65235770Y-80736000D03*
D20*
X71565770Y-78486000D03*
D21*
X72835770Y-75946000D03*
X62675770Y-75946000D03*
D20*
X70255770Y-79946000D03*
D18*
X86805770Y-75946000D03*
D19*
X84285770Y-80736000D03*
D20*
X90615770Y-78486000D03*
D21*
X91885770Y-75946000D03*
X81725770Y-75946000D03*
D20*
X89305770Y-79946000D03*
D18*
X105855770Y-75946000D03*
D19*
X103335770Y-80736000D03*
D20*
X109665770Y-78486000D03*
D21*
X110935770Y-75946000D03*
X100775770Y-75946000D03*
D20*
X108355770Y-79946000D03*
D18*
X124905770Y-75946000D03*
D19*
X122385770Y-80736000D03*
D20*
X128715770Y-78486000D03*
D21*
X129985770Y-75946000D03*
X119825770Y-75946000D03*
D20*
X127405770Y-79946000D03*
D18*
X143955770Y-75946000D03*
D19*
X141435770Y-80736000D03*
D20*
X147765770Y-78486000D03*
D21*
X149035770Y-75946000D03*
X138875770Y-75946000D03*
D20*
X146455770Y-79946000D03*
D18*
X163005770Y-75946000D03*
D19*
X160485770Y-80736000D03*
D20*
X166815770Y-78486000D03*
D21*
X168085770Y-75946000D03*
X157925770Y-75946000D03*
D20*
X165505770Y-79946000D03*
D18*
X182055770Y-75946000D03*
D19*
X179535770Y-80736000D03*
D20*
X185865770Y-78486000D03*
D21*
X187135770Y-75946000D03*
X176975770Y-75946000D03*
D20*
X184555770Y-79946000D03*
D18*
X201105770Y-75946000D03*
D19*
X198585770Y-80736000D03*
D20*
X204915770Y-78486000D03*
D21*
X206185770Y-75946000D03*
X196025770Y-75946000D03*
D20*
X203605770Y-79946000D03*
D18*
X220155770Y-75946000D03*
D19*
X217635770Y-80736000D03*
D20*
X223965770Y-78486000D03*
D21*
X225235770Y-75946000D03*
X215075770Y-75946000D03*
D20*
X222655770Y-79946000D03*
D18*
X246349520Y-75946000D03*
D19*
X243829520Y-80736000D03*
D20*
X250159520Y-78486000D03*
D21*
X251429520Y-75946000D03*
X241269520Y-75946000D03*
D20*
X248849520Y-79946000D03*
D18*
X51085750Y-94996000D03*
D19*
X48565750Y-99786000D03*
D20*
X54895750Y-97536000D03*
D21*
X56165750Y-94996000D03*
X46005750Y-94996000D03*
D20*
X53585750Y-98996000D03*
D18*
X77279500Y-94996000D03*
D19*
X74759500Y-99786000D03*
D20*
X81089500Y-97536000D03*
D21*
X82359500Y-94996000D03*
X72199500Y-94996000D03*
D20*
X79779500Y-98996000D03*
D18*
X96329500Y-94996000D03*
D19*
X93809500Y-99786000D03*
D20*
X100139500Y-97536000D03*
D21*
X101409500Y-94996000D03*
X91249500Y-94996000D03*
D20*
X98829500Y-98996000D03*
D18*
X115379500Y-94996000D03*
D19*
X112859500Y-99786000D03*
D20*
X119189500Y-97536000D03*
D21*
X120459500Y-94996000D03*
X110299500Y-94996000D03*
D20*
X117879500Y-98996000D03*
D18*
X134429500Y-94996000D03*
D19*
X131909500Y-99786000D03*
D20*
X138239500Y-97536000D03*
D21*
X139509500Y-94996000D03*
X129349500Y-94996000D03*
D20*
X136929500Y-98996000D03*
D18*
X153479500Y-94996000D03*
D19*
X150959500Y-99786000D03*
D20*
X157289500Y-97536000D03*
D21*
X158559500Y-94996000D03*
X148399500Y-94996000D03*
D20*
X155979500Y-98996000D03*
D18*
X172529500Y-94996000D03*
D19*
X170009500Y-99786000D03*
D20*
X176339500Y-97536000D03*
D21*
X177609500Y-94996000D03*
X167449500Y-94996000D03*
D20*
X175029500Y-98996000D03*
D18*
X191579500Y-94996000D03*
D19*
X189059500Y-99786000D03*
D20*
X195389500Y-97536000D03*
D21*
X196659500Y-94996000D03*
X186499500Y-94996000D03*
D20*
X194079500Y-98996000D03*
D18*
X210629500Y-94996000D03*
D19*
X208109500Y-99786000D03*
D20*
X214439500Y-97536000D03*
D21*
X215709500Y-94996000D03*
X205549500Y-94996000D03*
D20*
X213129500Y-98996000D03*
D18*
X232060750Y-94996000D03*
D19*
X229540750Y-99786000D03*
D20*
X235870750Y-97536000D03*
D21*
X237140750Y-94996000D03*
X226980750Y-94996000D03*
D20*
X234560750Y-98996000D03*
D18*
X253492000Y-94996000D03*
D19*
X250972000Y-99786000D03*
D20*
X257302000Y-97536000D03*
D21*
X258572000Y-94996000D03*
X248412000Y-94996000D03*
D20*
X255992000Y-98996000D03*
D18*
X46324520Y-114046000D03*
D19*
X43804520Y-118836000D03*
D20*
X50134520Y-116586000D03*
D21*
X51404520Y-114046000D03*
X41244520Y-114046000D03*
D20*
X48824520Y-118046000D03*
D18*
X67755770Y-114046000D03*
D19*
X65235770Y-118836000D03*
D20*
X71565770Y-116586000D03*
D21*
X72835770Y-114046000D03*
X62675770Y-114046000D03*
D20*
X70255770Y-118046000D03*
D18*
X86805770Y-114046000D03*
D19*
X84285770Y-118836000D03*
D20*
X90615770Y-116586000D03*
D21*
X91885770Y-114046000D03*
X81725770Y-114046000D03*
D20*
X89305770Y-118046000D03*
D18*
X227299520Y-114046000D03*
D19*
X224779520Y-118836000D03*
D20*
X231109520Y-116586000D03*
D21*
X232379520Y-114046000D03*
X222219520Y-114046000D03*
D20*
X229799520Y-118046000D03*
D18*
X251112020Y-114046000D03*
D19*
X248592020Y-118836000D03*
D20*
X254922020Y-116586000D03*
D21*
X256192020Y-114046000D03*
X246032020Y-114046000D03*
D20*
X253612020Y-118046000D03*
D18*
X253492000Y-56896000D03*
D19*
X250972000Y-61686000D03*
D20*
X257302000Y-59436000D03*
D21*
X258572000Y-56896000D03*
X248412000Y-56896000D03*
D20*
X255992000Y-60896000D03*
D22*
X136652000Y-109065060D03*
X136652000Y-113946940D03*
D23*
X61722000Y-51816000D03*
X64262000Y-51816000D03*
X99822000Y-51816000D03*
X102362000Y-51816000D03*
X118872000Y-51816000D03*
X121412000Y-51816000D03*
X137922000Y-51816000D03*
X140462000Y-51816000D03*
X156972000Y-51816000D03*
X159512000Y-51816000D03*
X176022000Y-51816000D03*
X178562000Y-51816000D03*
X195072000Y-51816000D03*
X197612000Y-51816000D03*
X214122000Y-51816000D03*
X216662000Y-51816000D03*
X233172000Y-51816000D03*
X235712000Y-51816000D03*
X252222000Y-51816000D03*
X254762000Y-51816000D03*
X45054520Y-70866000D03*
X47594520Y-70866000D03*
X42672000Y-51816000D03*
X45212000Y-51816000D03*
X80772000Y-51816000D03*
X83312000Y-51816000D03*
X66485770Y-70866000D03*
X69025770Y-70866000D03*
X85535770Y-70866000D03*
X88075770Y-70866000D03*
X104585770Y-70866000D03*
X107125770Y-70866000D03*
X123635770Y-70866000D03*
X126175770Y-70866000D03*
X143002000Y-70866000D03*
X145542000Y-70866000D03*
X161735770Y-70866000D03*
X164275770Y-70866000D03*
X180785770Y-70866000D03*
X183325770Y-70866000D03*
X199835770Y-70866000D03*
X202375770Y-70866000D03*
X218885770Y-70866000D03*
X221425770Y-70866000D03*
X245079520Y-70866000D03*
X247619520Y-70866000D03*
X49815750Y-89916000D03*
X52355750Y-89916000D03*
X76009500Y-89916000D03*
X78549500Y-89916000D03*
X95059500Y-89916000D03*
X97599500Y-89916000D03*
X114109500Y-89916000D03*
X116649500Y-89916000D03*
X133159500Y-89916000D03*
X135699500Y-89916000D03*
X152209500Y-89916000D03*
X154749500Y-89916000D03*
X171259500Y-89916000D03*
X173799500Y-89916000D03*
X190309500Y-89916000D03*
X192849500Y-89916000D03*
X209359500Y-89916000D03*
X211899500Y-89916000D03*
X230790750Y-89916000D03*
X233330750Y-89916000D03*
X252222000Y-89916000D03*
X254762000Y-89916000D03*
X45054520Y-108966000D03*
X47594520Y-108966000D03*
X66485770Y-108966000D03*
X69025770Y-108966000D03*
X85535770Y-108966000D03*
X88075770Y-108966000D03*
X154592020Y-108966000D03*
X157132020Y-108966000D03*
X226029520Y-108966000D03*
X228569520Y-108966000D03*
X249842020Y-108966000D03*
X252382020Y-108966000D03*
D24*
X153322020Y-119126000D03*
X159672020Y-116586000D03*
D25*
X155862020Y-114046000D03*
D26*
X160942020Y-114046000D03*
X150782020Y-114046000D03*
D27*
X205900020Y-121031000D03*
X105824020Y-121031000D03*
D25*
X205900020Y-105791000D03*
X105824020Y-105791000D03*
D28*
X35052000Y-100838000D03*
X263144000Y-99314000D03*
X99822000Y-118110000D03*
X236220000Y-67564000D03*
X134366000Y-83820000D03*
M02*
