G04 #@! TF.FileFunction,Legend,Bot*
%FSLAX46Y46*%
G04 Gerber Fmt 4.6, Leading zero omitted, Abs format (unit mm)*
G04 Created by KiCad (PCBNEW 4.0.1-stable) date 6/19/2016 12:02:01 AM*
%MOMM*%
G01*
G04 APERTURE LIST*
%ADD10C,0.100000*%
%ADD11C,1.270000*%
%ADD12C,0.150000*%
%ADD13C,0.300000*%
%ADD14C,0.200000*%
%ADD15C,0.304800*%
%ADD16C,0.203200*%
%ADD17C,0.200660*%
%ADD18C,0.381000*%
%ADD19C,0.158800*%
%ADD20C,0.088900*%
G04 APERTURE END LIST*
D10*
D11*
X215960474Y-114336286D02*
X216202379Y-114578190D01*
X216928093Y-114820095D01*
X217411903Y-114820095D01*
X218137617Y-114578190D01*
X218621426Y-114094381D01*
X218863331Y-113610571D01*
X219105236Y-112642952D01*
X219105236Y-111917238D01*
X218863331Y-110949619D01*
X218621426Y-110465810D01*
X218137617Y-109982000D01*
X217411903Y-109740095D01*
X216928093Y-109740095D01*
X216202379Y-109982000D01*
X215960474Y-110223905D01*
X214267141Y-111433429D02*
X213057617Y-114820095D01*
X211848093Y-111433429D02*
X213057617Y-114820095D01*
X213541426Y-116029619D01*
X213783331Y-116271524D01*
X214267141Y-116513429D01*
X209912855Y-111433429D02*
X209912855Y-116513429D01*
X209912855Y-111675333D02*
X209429046Y-111433429D01*
X208461427Y-111433429D01*
X207977617Y-111675333D01*
X207735712Y-111917238D01*
X207493808Y-112401048D01*
X207493808Y-113852476D01*
X207735712Y-114336286D01*
X207977617Y-114578190D01*
X208461427Y-114820095D01*
X209429046Y-114820095D01*
X209912855Y-114578190D01*
X206042379Y-111433429D02*
X204107141Y-111433429D01*
X205316665Y-109740095D02*
X205316665Y-114094381D01*
X205074760Y-114578190D01*
X204590951Y-114820095D01*
X204107141Y-114820095D01*
X201688094Y-114820095D02*
X202171903Y-114578190D01*
X202413808Y-114336286D01*
X202655713Y-113852476D01*
X202655713Y-112401048D01*
X202413808Y-111917238D01*
X202171903Y-111675333D01*
X201688094Y-111433429D01*
X200962380Y-111433429D01*
X200478570Y-111675333D01*
X200236665Y-111917238D01*
X199994761Y-112401048D01*
X199994761Y-113852476D01*
X200236665Y-114336286D01*
X200478570Y-114578190D01*
X200962380Y-114820095D01*
X201688094Y-114820095D01*
X198301428Y-109740095D02*
X197091904Y-114820095D01*
X196124285Y-111191524D01*
X195156666Y-114820095D01*
X193947142Y-109740095D01*
X189834761Y-114820095D02*
X189834761Y-112159143D01*
X190076666Y-111675333D01*
X190560476Y-111433429D01*
X191528095Y-111433429D01*
X192011904Y-111675333D01*
X189834761Y-114578190D02*
X190318571Y-114820095D01*
X191528095Y-114820095D01*
X192011904Y-114578190D01*
X192253809Y-114094381D01*
X192253809Y-113610571D01*
X192011904Y-113126762D01*
X191528095Y-112884857D01*
X190318571Y-112884857D01*
X189834761Y-112642952D01*
X186690000Y-114820095D02*
X187173809Y-114578190D01*
X187415714Y-114094381D01*
X187415714Y-109740095D01*
X184029048Y-114820095D02*
X184512857Y-114578190D01*
X184754762Y-114094381D01*
X184754762Y-109740095D01*
X179916667Y-111433429D02*
X179916667Y-114820095D01*
X181126191Y-109498190D02*
X182335715Y-113126762D01*
X179190953Y-113126762D01*
X176288096Y-109740095D02*
X175804287Y-109740095D01*
X175320477Y-109982000D01*
X175078572Y-110223905D01*
X174836668Y-110707714D01*
X174594763Y-111675333D01*
X174594763Y-112884857D01*
X174836668Y-113852476D01*
X175078572Y-114336286D01*
X175320477Y-114578190D01*
X175804287Y-114820095D01*
X176288096Y-114820095D01*
X176771906Y-114578190D01*
X177013810Y-114336286D01*
X177255715Y-113852476D01*
X177497620Y-112884857D01*
X177497620Y-111675333D01*
X177255715Y-110707714D01*
X177013810Y-110223905D01*
X176771906Y-109982000D01*
X176288096Y-109740095D01*
D12*
X140628000Y-110228000D02*
X140628000Y-109228000D01*
X142328000Y-109228000D02*
X142328000Y-110228000D01*
X142328000Y-113292000D02*
X142328000Y-114292000D01*
X140628000Y-114292000D02*
X140628000Y-113292000D01*
X115070000Y-103290000D02*
X116070000Y-103290000D01*
X116070000Y-104990000D02*
X115070000Y-104990000D01*
X111848000Y-116848000D02*
X111848000Y-117848000D01*
X110148000Y-117848000D02*
X110148000Y-116848000D01*
X142328000Y-117356000D02*
X142328000Y-118356000D01*
X140628000Y-118356000D02*
X140628000Y-117356000D01*
X111848000Y-106688000D02*
X111848000Y-107688000D01*
X110148000Y-107688000D02*
X110148000Y-106688000D01*
X140628000Y-106164000D02*
X140628000Y-105164000D01*
X142328000Y-105164000D02*
X142328000Y-106164000D01*
X48014000Y-64682000D02*
X49014000Y-64682000D01*
X49014000Y-66382000D02*
X48014000Y-66382000D01*
D13*
X36322000Y-63011000D02*
X36322000Y-64135000D01*
X36322000Y-64135000D02*
X38354000Y-64135000D01*
X38354000Y-64135000D02*
X38354000Y-63011000D01*
X36322000Y-61930000D02*
X36322000Y-60833000D01*
X36322000Y-60833000D02*
X38354000Y-60833000D01*
X38354000Y-60833000D02*
X38354000Y-61930000D01*
D14*
X36957000Y-62738000D02*
X37719000Y-62738000D01*
X36957000Y-62293500D02*
X37719000Y-62293500D01*
X37719000Y-62293500D02*
X37338000Y-62674500D01*
X37338000Y-62674500D02*
X36957000Y-62293500D01*
D13*
X58166000Y-52851000D02*
X58166000Y-53975000D01*
X58166000Y-53975000D02*
X60198000Y-53975000D01*
X60198000Y-53975000D02*
X60198000Y-52851000D01*
X58166000Y-51770000D02*
X58166000Y-50673000D01*
X58166000Y-50673000D02*
X60198000Y-50673000D01*
X60198000Y-50673000D02*
X60198000Y-51770000D01*
D14*
X58801000Y-52578000D02*
X59563000Y-52578000D01*
X58801000Y-52133500D02*
X59563000Y-52133500D01*
X59563000Y-52133500D02*
X59182000Y-52514500D01*
X59182000Y-52514500D02*
X58801000Y-52133500D01*
D13*
X75946000Y-52851000D02*
X75946000Y-53975000D01*
X75946000Y-53975000D02*
X77978000Y-53975000D01*
X77978000Y-53975000D02*
X77978000Y-52851000D01*
X75946000Y-51770000D02*
X75946000Y-50673000D01*
X75946000Y-50673000D02*
X77978000Y-50673000D01*
X77978000Y-50673000D02*
X77978000Y-51770000D01*
D14*
X76581000Y-52578000D02*
X77343000Y-52578000D01*
X76581000Y-52133500D02*
X77343000Y-52133500D01*
X77343000Y-52133500D02*
X76962000Y-52514500D01*
X76962000Y-52514500D02*
X76581000Y-52133500D01*
D13*
X94234000Y-53359000D02*
X94234000Y-54483000D01*
X94234000Y-54483000D02*
X96266000Y-54483000D01*
X96266000Y-54483000D02*
X96266000Y-53359000D01*
X94234000Y-52278000D02*
X94234000Y-51181000D01*
X94234000Y-51181000D02*
X96266000Y-51181000D01*
X96266000Y-51181000D02*
X96266000Y-52278000D01*
D14*
X94869000Y-53086000D02*
X95631000Y-53086000D01*
X94869000Y-52641500D02*
X95631000Y-52641500D01*
X95631000Y-52641500D02*
X95250000Y-53022500D01*
X95250000Y-53022500D02*
X94869000Y-52641500D01*
D13*
X113030000Y-52851000D02*
X113030000Y-53975000D01*
X113030000Y-53975000D02*
X115062000Y-53975000D01*
X115062000Y-53975000D02*
X115062000Y-52851000D01*
X113030000Y-51770000D02*
X113030000Y-50673000D01*
X113030000Y-50673000D02*
X115062000Y-50673000D01*
X115062000Y-50673000D02*
X115062000Y-51770000D01*
D14*
X113665000Y-52578000D02*
X114427000Y-52578000D01*
X113665000Y-52133500D02*
X114427000Y-52133500D01*
X114427000Y-52133500D02*
X114046000Y-52514500D01*
X114046000Y-52514500D02*
X113665000Y-52133500D01*
D13*
X133350000Y-52851000D02*
X133350000Y-53975000D01*
X133350000Y-53975000D02*
X135382000Y-53975000D01*
X135382000Y-53975000D02*
X135382000Y-52851000D01*
X133350000Y-51770000D02*
X133350000Y-50673000D01*
X133350000Y-50673000D02*
X135382000Y-50673000D01*
X135382000Y-50673000D02*
X135382000Y-51770000D01*
D14*
X133985000Y-52578000D02*
X134747000Y-52578000D01*
X133985000Y-52133500D02*
X134747000Y-52133500D01*
X134747000Y-52133500D02*
X134366000Y-52514500D01*
X134366000Y-52514500D02*
X133985000Y-52133500D01*
D13*
X152146000Y-52851000D02*
X152146000Y-53975000D01*
X152146000Y-53975000D02*
X154178000Y-53975000D01*
X154178000Y-53975000D02*
X154178000Y-52851000D01*
X152146000Y-51770000D02*
X152146000Y-50673000D01*
X152146000Y-50673000D02*
X154178000Y-50673000D01*
X154178000Y-50673000D02*
X154178000Y-51770000D01*
D14*
X152781000Y-52578000D02*
X153543000Y-52578000D01*
X152781000Y-52133500D02*
X153543000Y-52133500D01*
X153543000Y-52133500D02*
X153162000Y-52514500D01*
X153162000Y-52514500D02*
X152781000Y-52133500D01*
D13*
X170942000Y-52851000D02*
X170942000Y-53975000D01*
X170942000Y-53975000D02*
X172974000Y-53975000D01*
X172974000Y-53975000D02*
X172974000Y-52851000D01*
X170942000Y-51770000D02*
X170942000Y-50673000D01*
X170942000Y-50673000D02*
X172974000Y-50673000D01*
X172974000Y-50673000D02*
X172974000Y-51770000D01*
D14*
X171577000Y-52578000D02*
X172339000Y-52578000D01*
X171577000Y-52133500D02*
X172339000Y-52133500D01*
X172339000Y-52133500D02*
X171958000Y-52514500D01*
X171958000Y-52514500D02*
X171577000Y-52133500D01*
D13*
X190246000Y-52851000D02*
X190246000Y-53975000D01*
X190246000Y-53975000D02*
X192278000Y-53975000D01*
X192278000Y-53975000D02*
X192278000Y-52851000D01*
X190246000Y-51770000D02*
X190246000Y-50673000D01*
X190246000Y-50673000D02*
X192278000Y-50673000D01*
X192278000Y-50673000D02*
X192278000Y-51770000D01*
D14*
X190881000Y-52578000D02*
X191643000Y-52578000D01*
X190881000Y-52133500D02*
X191643000Y-52133500D01*
X191643000Y-52133500D02*
X191262000Y-52514500D01*
X191262000Y-52514500D02*
X190881000Y-52133500D01*
D13*
X209550000Y-53359000D02*
X209550000Y-54483000D01*
X209550000Y-54483000D02*
X211582000Y-54483000D01*
X211582000Y-54483000D02*
X211582000Y-53359000D01*
X209550000Y-52278000D02*
X209550000Y-51181000D01*
X209550000Y-51181000D02*
X211582000Y-51181000D01*
X211582000Y-51181000D02*
X211582000Y-52278000D01*
D14*
X210185000Y-53086000D02*
X210947000Y-53086000D01*
X210185000Y-52641500D02*
X210947000Y-52641500D01*
X210947000Y-52641500D02*
X210566000Y-53022500D01*
X210566000Y-53022500D02*
X210185000Y-52641500D01*
D13*
X228854000Y-53359000D02*
X228854000Y-54483000D01*
X228854000Y-54483000D02*
X230886000Y-54483000D01*
X230886000Y-54483000D02*
X230886000Y-53359000D01*
X228854000Y-52278000D02*
X228854000Y-51181000D01*
X228854000Y-51181000D02*
X230886000Y-51181000D01*
X230886000Y-51181000D02*
X230886000Y-52278000D01*
D14*
X229489000Y-53086000D02*
X230251000Y-53086000D01*
X229489000Y-52641500D02*
X230251000Y-52641500D01*
X230251000Y-52641500D02*
X229870000Y-53022500D01*
X229870000Y-53022500D02*
X229489000Y-52641500D01*
D13*
X41402000Y-71647000D02*
X41402000Y-72771000D01*
X41402000Y-72771000D02*
X43434000Y-72771000D01*
X43434000Y-72771000D02*
X43434000Y-71647000D01*
X41402000Y-70566000D02*
X41402000Y-69469000D01*
X41402000Y-69469000D02*
X43434000Y-69469000D01*
X43434000Y-69469000D02*
X43434000Y-70566000D01*
D14*
X42037000Y-71374000D02*
X42799000Y-71374000D01*
X42037000Y-70929500D02*
X42799000Y-70929500D01*
X42799000Y-70929500D02*
X42418000Y-71310500D01*
X42418000Y-71310500D02*
X42037000Y-70929500D01*
D13*
X61214000Y-72155000D02*
X61214000Y-73279000D01*
X61214000Y-73279000D02*
X63246000Y-73279000D01*
X63246000Y-73279000D02*
X63246000Y-72155000D01*
X61214000Y-71074000D02*
X61214000Y-69977000D01*
X61214000Y-69977000D02*
X63246000Y-69977000D01*
X63246000Y-69977000D02*
X63246000Y-71074000D01*
D14*
X61849000Y-71882000D02*
X62611000Y-71882000D01*
X61849000Y-71437500D02*
X62611000Y-71437500D01*
X62611000Y-71437500D02*
X62230000Y-71818500D01*
X62230000Y-71818500D02*
X61849000Y-71437500D01*
D13*
X81026000Y-72155000D02*
X81026000Y-73279000D01*
X81026000Y-73279000D02*
X83058000Y-73279000D01*
X83058000Y-73279000D02*
X83058000Y-72155000D01*
X81026000Y-71074000D02*
X81026000Y-69977000D01*
X81026000Y-69977000D02*
X83058000Y-69977000D01*
X83058000Y-69977000D02*
X83058000Y-71074000D01*
D14*
X81661000Y-71882000D02*
X82423000Y-71882000D01*
X81661000Y-71437500D02*
X82423000Y-71437500D01*
X82423000Y-71437500D02*
X82042000Y-71818500D01*
X82042000Y-71818500D02*
X81661000Y-71437500D01*
D13*
X100330000Y-72155000D02*
X100330000Y-73279000D01*
X100330000Y-73279000D02*
X102362000Y-73279000D01*
X102362000Y-73279000D02*
X102362000Y-72155000D01*
X100330000Y-71074000D02*
X100330000Y-69977000D01*
X100330000Y-69977000D02*
X102362000Y-69977000D01*
X102362000Y-69977000D02*
X102362000Y-71074000D01*
D14*
X100965000Y-71882000D02*
X101727000Y-71882000D01*
X100965000Y-71437500D02*
X101727000Y-71437500D01*
X101727000Y-71437500D02*
X101346000Y-71818500D01*
X101346000Y-71818500D02*
X100965000Y-71437500D01*
D13*
X118110000Y-72155000D02*
X118110000Y-73279000D01*
X118110000Y-73279000D02*
X120142000Y-73279000D01*
X120142000Y-73279000D02*
X120142000Y-72155000D01*
X118110000Y-71074000D02*
X118110000Y-69977000D01*
X118110000Y-69977000D02*
X120142000Y-69977000D01*
X120142000Y-69977000D02*
X120142000Y-71074000D01*
D14*
X118745000Y-71882000D02*
X119507000Y-71882000D01*
X118745000Y-71437500D02*
X119507000Y-71437500D01*
X119507000Y-71437500D02*
X119126000Y-71818500D01*
X119126000Y-71818500D02*
X118745000Y-71437500D01*
D13*
X138938000Y-72155000D02*
X138938000Y-73279000D01*
X138938000Y-73279000D02*
X140970000Y-73279000D01*
X140970000Y-73279000D02*
X140970000Y-72155000D01*
X138938000Y-71074000D02*
X138938000Y-69977000D01*
X138938000Y-69977000D02*
X140970000Y-69977000D01*
X140970000Y-69977000D02*
X140970000Y-71074000D01*
D14*
X139573000Y-71882000D02*
X140335000Y-71882000D01*
X139573000Y-71437500D02*
X140335000Y-71437500D01*
X140335000Y-71437500D02*
X139954000Y-71818500D01*
X139954000Y-71818500D02*
X139573000Y-71437500D01*
D13*
X156718000Y-72155000D02*
X156718000Y-73279000D01*
X156718000Y-73279000D02*
X158750000Y-73279000D01*
X158750000Y-73279000D02*
X158750000Y-72155000D01*
X156718000Y-71074000D02*
X156718000Y-69977000D01*
X156718000Y-69977000D02*
X158750000Y-69977000D01*
X158750000Y-69977000D02*
X158750000Y-71074000D01*
D14*
X157353000Y-71882000D02*
X158115000Y-71882000D01*
X157353000Y-71437500D02*
X158115000Y-71437500D01*
X158115000Y-71437500D02*
X157734000Y-71818500D01*
X157734000Y-71818500D02*
X157353000Y-71437500D01*
D13*
X175514000Y-71647000D02*
X175514000Y-72771000D01*
X175514000Y-72771000D02*
X177546000Y-72771000D01*
X177546000Y-72771000D02*
X177546000Y-71647000D01*
X175514000Y-70566000D02*
X175514000Y-69469000D01*
X175514000Y-69469000D02*
X177546000Y-69469000D01*
X177546000Y-69469000D02*
X177546000Y-70566000D01*
D14*
X176149000Y-71374000D02*
X176911000Y-71374000D01*
X176149000Y-70929500D02*
X176911000Y-70929500D01*
X176911000Y-70929500D02*
X176530000Y-71310500D01*
X176530000Y-71310500D02*
X176149000Y-70929500D01*
D13*
X194310000Y-71647000D02*
X194310000Y-72771000D01*
X194310000Y-72771000D02*
X196342000Y-72771000D01*
X196342000Y-72771000D02*
X196342000Y-71647000D01*
X194310000Y-70566000D02*
X194310000Y-69469000D01*
X194310000Y-69469000D02*
X196342000Y-69469000D01*
X196342000Y-69469000D02*
X196342000Y-70566000D01*
D14*
X194945000Y-71374000D02*
X195707000Y-71374000D01*
X194945000Y-70929500D02*
X195707000Y-70929500D01*
X195707000Y-70929500D02*
X195326000Y-71310500D01*
X195326000Y-71310500D02*
X194945000Y-70929500D01*
D13*
X214122000Y-72155000D02*
X214122000Y-73279000D01*
X214122000Y-73279000D02*
X216154000Y-73279000D01*
X216154000Y-73279000D02*
X216154000Y-72155000D01*
X214122000Y-71074000D02*
X214122000Y-69977000D01*
X214122000Y-69977000D02*
X216154000Y-69977000D01*
X216154000Y-69977000D02*
X216154000Y-71074000D01*
D14*
X214757000Y-71882000D02*
X215519000Y-71882000D01*
X214757000Y-71437500D02*
X215519000Y-71437500D01*
X215519000Y-71437500D02*
X215138000Y-71818500D01*
X215138000Y-71818500D02*
X214757000Y-71437500D01*
D13*
X239522000Y-71647000D02*
X239522000Y-72771000D01*
X239522000Y-72771000D02*
X241554000Y-72771000D01*
X241554000Y-72771000D02*
X241554000Y-71647000D01*
X239522000Y-70566000D02*
X239522000Y-69469000D01*
X239522000Y-69469000D02*
X241554000Y-69469000D01*
X241554000Y-69469000D02*
X241554000Y-70566000D01*
D14*
X240157000Y-71374000D02*
X240919000Y-71374000D01*
X240157000Y-70929500D02*
X240919000Y-70929500D01*
X240919000Y-70929500D02*
X240538000Y-71310500D01*
X240538000Y-71310500D02*
X240157000Y-70929500D01*
D13*
X43942000Y-90951000D02*
X43942000Y-92075000D01*
X43942000Y-92075000D02*
X45974000Y-92075000D01*
X45974000Y-92075000D02*
X45974000Y-90951000D01*
X43942000Y-89870000D02*
X43942000Y-88773000D01*
X43942000Y-88773000D02*
X45974000Y-88773000D01*
X45974000Y-88773000D02*
X45974000Y-89870000D01*
D14*
X44577000Y-90678000D02*
X45339000Y-90678000D01*
X44577000Y-90233500D02*
X45339000Y-90233500D01*
X45339000Y-90233500D02*
X44958000Y-90614500D01*
X44958000Y-90614500D02*
X44577000Y-90233500D01*
D13*
X70866000Y-91459000D02*
X70866000Y-92583000D01*
X70866000Y-92583000D02*
X72898000Y-92583000D01*
X72898000Y-92583000D02*
X72898000Y-91459000D01*
X70866000Y-90378000D02*
X70866000Y-89281000D01*
X70866000Y-89281000D02*
X72898000Y-89281000D01*
X72898000Y-89281000D02*
X72898000Y-90378000D01*
D14*
X71501000Y-91186000D02*
X72263000Y-91186000D01*
X71501000Y-90741500D02*
X72263000Y-90741500D01*
X72263000Y-90741500D02*
X71882000Y-91122500D01*
X71882000Y-91122500D02*
X71501000Y-90741500D01*
D13*
X91186000Y-100311000D02*
X91186000Y-99187000D01*
X91186000Y-99187000D02*
X89154000Y-99187000D01*
X89154000Y-99187000D02*
X89154000Y-100311000D01*
X91186000Y-101392000D02*
X91186000Y-102489000D01*
X91186000Y-102489000D02*
X89154000Y-102489000D01*
X89154000Y-102489000D02*
X89154000Y-101392000D01*
D14*
X90551000Y-100584000D02*
X89789000Y-100584000D01*
X90551000Y-101028500D02*
X89789000Y-101028500D01*
X89789000Y-101028500D02*
X90170000Y-100647500D01*
X90170000Y-100647500D02*
X90551000Y-101028500D01*
D13*
X109982000Y-90697000D02*
X109982000Y-91821000D01*
X109982000Y-91821000D02*
X112014000Y-91821000D01*
X112014000Y-91821000D02*
X112014000Y-90697000D01*
X109982000Y-89616000D02*
X109982000Y-88519000D01*
X109982000Y-88519000D02*
X112014000Y-88519000D01*
X112014000Y-88519000D02*
X112014000Y-89616000D01*
D14*
X110617000Y-90424000D02*
X111379000Y-90424000D01*
X110617000Y-89979500D02*
X111379000Y-89979500D01*
X111379000Y-89979500D02*
X110998000Y-90360500D01*
X110998000Y-90360500D02*
X110617000Y-89979500D01*
D13*
X128524000Y-90697000D02*
X128524000Y-91821000D01*
X128524000Y-91821000D02*
X130556000Y-91821000D01*
X130556000Y-91821000D02*
X130556000Y-90697000D01*
X128524000Y-89616000D02*
X128524000Y-88519000D01*
X128524000Y-88519000D02*
X130556000Y-88519000D01*
X130556000Y-88519000D02*
X130556000Y-89616000D01*
D14*
X129159000Y-90424000D02*
X129921000Y-90424000D01*
X129159000Y-89979500D02*
X129921000Y-89979500D01*
X129921000Y-89979500D02*
X129540000Y-90360500D01*
X129540000Y-90360500D02*
X129159000Y-89979500D01*
D13*
X146304000Y-90443000D02*
X146304000Y-91567000D01*
X146304000Y-91567000D02*
X148336000Y-91567000D01*
X148336000Y-91567000D02*
X148336000Y-90443000D01*
X146304000Y-89362000D02*
X146304000Y-88265000D01*
X146304000Y-88265000D02*
X148336000Y-88265000D01*
X148336000Y-88265000D02*
X148336000Y-89362000D01*
D14*
X146939000Y-90170000D02*
X147701000Y-90170000D01*
X146939000Y-89725500D02*
X147701000Y-89725500D01*
X147701000Y-89725500D02*
X147320000Y-90106500D01*
X147320000Y-90106500D02*
X146939000Y-89725500D01*
D13*
X165862000Y-90443000D02*
X165862000Y-91567000D01*
X165862000Y-91567000D02*
X167894000Y-91567000D01*
X167894000Y-91567000D02*
X167894000Y-90443000D01*
X165862000Y-89362000D02*
X165862000Y-88265000D01*
X165862000Y-88265000D02*
X167894000Y-88265000D01*
X167894000Y-88265000D02*
X167894000Y-89362000D01*
D14*
X166497000Y-90170000D02*
X167259000Y-90170000D01*
X166497000Y-89725500D02*
X167259000Y-89725500D01*
X167259000Y-89725500D02*
X166878000Y-90106500D01*
X166878000Y-90106500D02*
X166497000Y-89725500D01*
D13*
X185166000Y-90697000D02*
X185166000Y-91821000D01*
X185166000Y-91821000D02*
X187198000Y-91821000D01*
X187198000Y-91821000D02*
X187198000Y-90697000D01*
X185166000Y-89616000D02*
X185166000Y-88519000D01*
X185166000Y-88519000D02*
X187198000Y-88519000D01*
X187198000Y-88519000D02*
X187198000Y-89616000D01*
D14*
X185801000Y-90424000D02*
X186563000Y-90424000D01*
X185801000Y-89979500D02*
X186563000Y-89979500D01*
X186563000Y-89979500D02*
X186182000Y-90360500D01*
X186182000Y-90360500D02*
X185801000Y-89979500D01*
D13*
X205486000Y-100311000D02*
X205486000Y-99187000D01*
X205486000Y-99187000D02*
X203454000Y-99187000D01*
X203454000Y-99187000D02*
X203454000Y-100311000D01*
X205486000Y-101392000D02*
X205486000Y-102489000D01*
X205486000Y-102489000D02*
X203454000Y-102489000D01*
X203454000Y-102489000D02*
X203454000Y-101392000D01*
D14*
X204851000Y-100584000D02*
X204089000Y-100584000D01*
X204851000Y-101028500D02*
X204089000Y-101028500D01*
X204089000Y-101028500D02*
X204470000Y-100647500D01*
X204470000Y-100647500D02*
X204851000Y-101028500D01*
D13*
X226822000Y-91459000D02*
X226822000Y-92583000D01*
X226822000Y-92583000D02*
X228854000Y-92583000D01*
X228854000Y-92583000D02*
X228854000Y-91459000D01*
X226822000Y-90378000D02*
X226822000Y-89281000D01*
X226822000Y-89281000D02*
X228854000Y-89281000D01*
X228854000Y-89281000D02*
X228854000Y-90378000D01*
D14*
X227457000Y-91186000D02*
X228219000Y-91186000D01*
X227457000Y-90741500D02*
X228219000Y-90741500D01*
X228219000Y-90741500D02*
X227838000Y-91122500D01*
X227838000Y-91122500D02*
X227457000Y-90741500D01*
D13*
X248412000Y-91713000D02*
X248412000Y-92837000D01*
X248412000Y-92837000D02*
X250444000Y-92837000D01*
X250444000Y-92837000D02*
X250444000Y-91713000D01*
X248412000Y-90632000D02*
X248412000Y-89535000D01*
X248412000Y-89535000D02*
X250444000Y-89535000D01*
X250444000Y-89535000D02*
X250444000Y-90632000D01*
D14*
X249047000Y-91440000D02*
X249809000Y-91440000D01*
X249047000Y-90995500D02*
X249809000Y-90995500D01*
X249809000Y-90995500D02*
X249428000Y-91376500D01*
X249428000Y-91376500D02*
X249047000Y-90995500D01*
D13*
X41402000Y-109747000D02*
X41402000Y-110871000D01*
X41402000Y-110871000D02*
X43434000Y-110871000D01*
X43434000Y-110871000D02*
X43434000Y-109747000D01*
X41402000Y-108666000D02*
X41402000Y-107569000D01*
X41402000Y-107569000D02*
X43434000Y-107569000D01*
X43434000Y-107569000D02*
X43434000Y-108666000D01*
D14*
X42037000Y-109474000D02*
X42799000Y-109474000D01*
X42037000Y-109029500D02*
X42799000Y-109029500D01*
X42799000Y-109029500D02*
X42418000Y-109410500D01*
X42418000Y-109410500D02*
X42037000Y-109029500D01*
D13*
X61722000Y-109747000D02*
X61722000Y-110871000D01*
X61722000Y-110871000D02*
X63754000Y-110871000D01*
X63754000Y-110871000D02*
X63754000Y-109747000D01*
X61722000Y-108666000D02*
X61722000Y-107569000D01*
X61722000Y-107569000D02*
X63754000Y-107569000D01*
X63754000Y-107569000D02*
X63754000Y-108666000D01*
D14*
X62357000Y-109474000D02*
X63119000Y-109474000D01*
X62357000Y-109029500D02*
X63119000Y-109029500D01*
X63119000Y-109029500D02*
X62738000Y-109410500D01*
X62738000Y-109410500D02*
X62357000Y-109029500D01*
D13*
X80772000Y-109747000D02*
X80772000Y-110871000D01*
X80772000Y-110871000D02*
X82804000Y-110871000D01*
X82804000Y-110871000D02*
X82804000Y-109747000D01*
X80772000Y-108666000D02*
X80772000Y-107569000D01*
X80772000Y-107569000D02*
X82804000Y-107569000D01*
X82804000Y-107569000D02*
X82804000Y-108666000D01*
D14*
X81407000Y-109474000D02*
X82169000Y-109474000D01*
X81407000Y-109029500D02*
X82169000Y-109029500D01*
X82169000Y-109029500D02*
X81788000Y-109410500D01*
X81788000Y-109410500D02*
X81407000Y-109029500D01*
D13*
X150114000Y-110509000D02*
X150114000Y-111633000D01*
X150114000Y-111633000D02*
X152146000Y-111633000D01*
X152146000Y-111633000D02*
X152146000Y-110509000D01*
X150114000Y-109428000D02*
X150114000Y-108331000D01*
X150114000Y-108331000D02*
X152146000Y-108331000D01*
X152146000Y-108331000D02*
X152146000Y-109428000D01*
D14*
X150749000Y-110236000D02*
X151511000Y-110236000D01*
X150749000Y-109791500D02*
X151511000Y-109791500D01*
X151511000Y-109791500D02*
X151130000Y-110172500D01*
X151130000Y-110172500D02*
X150749000Y-109791500D01*
D13*
X221488000Y-110255000D02*
X221488000Y-111379000D01*
X221488000Y-111379000D02*
X223520000Y-111379000D01*
X223520000Y-111379000D02*
X223520000Y-110255000D01*
X221488000Y-109174000D02*
X221488000Y-108077000D01*
X221488000Y-108077000D02*
X223520000Y-108077000D01*
X223520000Y-108077000D02*
X223520000Y-109174000D01*
D14*
X222123000Y-109982000D02*
X222885000Y-109982000D01*
X222123000Y-109537500D02*
X222885000Y-109537500D01*
X222885000Y-109537500D02*
X222504000Y-109918500D01*
X222504000Y-109918500D02*
X222123000Y-109537500D01*
D13*
X245872000Y-110509000D02*
X245872000Y-111633000D01*
X245872000Y-111633000D02*
X247904000Y-111633000D01*
X247904000Y-111633000D02*
X247904000Y-110509000D01*
X245872000Y-109428000D02*
X245872000Y-108331000D01*
X245872000Y-108331000D02*
X247904000Y-108331000D01*
X247904000Y-108331000D02*
X247904000Y-109428000D01*
D14*
X246507000Y-110236000D02*
X247269000Y-110236000D01*
X246507000Y-109791500D02*
X247269000Y-109791500D01*
X247269000Y-109791500D02*
X246888000Y-110172500D01*
X246888000Y-110172500D02*
X246507000Y-109791500D01*
D13*
X248158000Y-53359000D02*
X248158000Y-54483000D01*
X248158000Y-54483000D02*
X250190000Y-54483000D01*
X250190000Y-54483000D02*
X250190000Y-53359000D01*
X248158000Y-52278000D02*
X248158000Y-51181000D01*
X248158000Y-51181000D02*
X250190000Y-51181000D01*
X250190000Y-51181000D02*
X250190000Y-52278000D01*
D14*
X248793000Y-53086000D02*
X249555000Y-53086000D01*
X248793000Y-52641500D02*
X249555000Y-52641500D01*
X249555000Y-52641500D02*
X249174000Y-53022500D01*
X249174000Y-53022500D02*
X248793000Y-52641500D01*
D15*
X118948200Y-118287800D02*
X128955800Y-118287800D01*
X128955800Y-118287800D02*
X128955800Y-108280200D01*
X119430800Y-108280200D02*
X128955800Y-108280200D01*
X118948200Y-108762800D02*
X118948200Y-118287800D01*
X119430800Y-108280200D02*
X118948200Y-108762800D01*
D16*
X120777000Y-109474000D02*
G75*
G03X120777000Y-109474000I-635000J0D01*
G01*
D12*
X68467000Y-51724000D02*
X68467000Y-52924000D01*
X70217000Y-52924000D02*
X70217000Y-51724000D01*
X106567000Y-51724000D02*
X106567000Y-52924000D01*
X108317000Y-52924000D02*
X108317000Y-51724000D01*
X125363000Y-51724000D02*
X125363000Y-52924000D01*
X127113000Y-52924000D02*
X127113000Y-51724000D01*
X144159000Y-51724000D02*
X144159000Y-52924000D01*
X145909000Y-52924000D02*
X145909000Y-51724000D01*
X162955000Y-51724000D02*
X162955000Y-52924000D01*
X164705000Y-52924000D02*
X164705000Y-51724000D01*
X182259000Y-51724000D02*
X182259000Y-52924000D01*
X184009000Y-52924000D02*
X184009000Y-51724000D01*
X201563000Y-52232000D02*
X201563000Y-53432000D01*
X203313000Y-53432000D02*
X203313000Y-52232000D01*
X220359000Y-52232000D02*
X220359000Y-53432000D01*
X222109000Y-53432000D02*
X222109000Y-52232000D01*
X239155000Y-52232000D02*
X239155000Y-53432000D01*
X240905000Y-53432000D02*
X240905000Y-52232000D01*
X257951000Y-52232000D02*
X257951000Y-53432000D01*
X259701000Y-53432000D02*
X259701000Y-52232000D01*
X50913000Y-71212000D02*
X50913000Y-70012000D01*
X49163000Y-70012000D02*
X49163000Y-71212000D01*
X37225000Y-51978000D02*
X37225000Y-53178000D01*
X38975000Y-53178000D02*
X38975000Y-51978000D01*
X86755000Y-52232000D02*
X86755000Y-53432000D01*
X88505000Y-53432000D02*
X88505000Y-52232000D01*
X73039000Y-71028000D02*
X73039000Y-72228000D01*
X74789000Y-72228000D02*
X74789000Y-71028000D01*
X91835000Y-71028000D02*
X91835000Y-72228000D01*
X93585000Y-72228000D02*
X93585000Y-71028000D01*
X111139000Y-71028000D02*
X111139000Y-72228000D01*
X112889000Y-72228000D02*
X112889000Y-71028000D01*
X129935000Y-71028000D02*
X129935000Y-72228000D01*
X131685000Y-72228000D02*
X131685000Y-71028000D01*
X148731000Y-71028000D02*
X148731000Y-72228000D01*
X150481000Y-72228000D02*
X150481000Y-71028000D01*
X168035000Y-71028000D02*
X168035000Y-72228000D01*
X169785000Y-72228000D02*
X169785000Y-71028000D01*
X186831000Y-71028000D02*
X186831000Y-72228000D01*
X188581000Y-72228000D02*
X188581000Y-71028000D01*
X205627000Y-71536000D02*
X205627000Y-72736000D01*
X207377000Y-72736000D02*
X207377000Y-71536000D01*
X224931000Y-71028000D02*
X224931000Y-72228000D01*
X226681000Y-72228000D02*
X226681000Y-71028000D01*
X250839000Y-71028000D02*
X250839000Y-72228000D01*
X252589000Y-72228000D02*
X252589000Y-71028000D01*
X56501000Y-90516000D02*
X56501000Y-89316000D01*
X54751000Y-89316000D02*
X54751000Y-90516000D01*
X81675000Y-90332000D02*
X81675000Y-91532000D01*
X83425000Y-91532000D02*
X83425000Y-90332000D01*
X88787000Y-90078000D02*
X88787000Y-91278000D01*
X90537000Y-91278000D02*
X90537000Y-90078000D01*
X119013000Y-89824000D02*
X119013000Y-91024000D01*
X120763000Y-91024000D02*
X120763000Y-89824000D01*
X139587000Y-90078000D02*
X139587000Y-91278000D01*
X141337000Y-91278000D02*
X141337000Y-90078000D01*
X158891000Y-88808000D02*
X158891000Y-90008000D01*
X160641000Y-90008000D02*
X160641000Y-88808000D01*
X177433000Y-89824000D02*
X177433000Y-91024000D01*
X179183000Y-91024000D02*
X179183000Y-89824000D01*
X196737000Y-89570000D02*
X196737000Y-90770000D01*
X198487000Y-90770000D02*
X198487000Y-89570000D01*
X203087000Y-90078000D02*
X203087000Y-91278000D01*
X204837000Y-91278000D02*
X204837000Y-90078000D01*
X236107000Y-90078000D02*
X236107000Y-91278000D01*
X237857000Y-91278000D02*
X237857000Y-90078000D01*
X248299000Y-86268000D02*
X248299000Y-87468000D01*
X250049000Y-87468000D02*
X250049000Y-86268000D01*
X51421000Y-109820000D02*
X51421000Y-108620000D01*
X49671000Y-108620000D02*
X49671000Y-109820000D01*
X73039000Y-109128000D02*
X73039000Y-110328000D01*
X74789000Y-110328000D02*
X74789000Y-109128000D01*
X91581000Y-109128000D02*
X91581000Y-110328000D01*
X93331000Y-110328000D02*
X93331000Y-109128000D01*
X160161000Y-109128000D02*
X160161000Y-110328000D01*
X161911000Y-110328000D02*
X161911000Y-109128000D01*
X232297000Y-109382000D02*
X232297000Y-110582000D01*
X234047000Y-110582000D02*
X234047000Y-109382000D01*
X254395000Y-108874000D02*
X254395000Y-110074000D01*
X256145000Y-110074000D02*
X256145000Y-108874000D01*
X96682000Y-67931000D02*
X97882000Y-67931000D01*
X97882000Y-66181000D02*
X96682000Y-66181000D01*
X229332840Y-68945760D02*
X229381100Y-68945760D01*
X232131820Y-69646800D02*
X232131820Y-68945760D01*
X232131820Y-68945760D02*
X231882900Y-68945760D01*
X229332840Y-68945760D02*
X229132180Y-68945760D01*
X229132180Y-68945760D02*
X229132180Y-69646800D01*
X53227000Y-58328000D02*
X53227000Y-59528000D01*
X54977000Y-59528000D02*
X54977000Y-58328000D01*
X50687000Y-58328000D02*
X50687000Y-59528000D01*
X52437000Y-59528000D02*
X52437000Y-58328000D01*
X114462000Y-120255000D02*
X115662000Y-120255000D01*
X115662000Y-118505000D02*
X114462000Y-118505000D01*
X231232000Y-75071000D02*
X230032000Y-75071000D01*
X230032000Y-76821000D02*
X231232000Y-76821000D01*
X132242000Y-106031000D02*
X133442000Y-106031000D01*
X133442000Y-104281000D02*
X132242000Y-104281000D01*
X101767000Y-66786000D02*
X103267000Y-68286000D01*
X106767000Y-63286000D02*
X101767000Y-63286000D01*
X101767000Y-63286000D02*
X101767000Y-68286000D01*
X101767000Y-68286000D02*
X106767000Y-68286000D01*
X106767000Y-68286000D02*
X106767000Y-63286000D01*
X64937000Y-66786000D02*
X66437000Y-68286000D01*
X69937000Y-63286000D02*
X64937000Y-63286000D01*
X64937000Y-63286000D02*
X64937000Y-68286000D01*
X64937000Y-68286000D02*
X69937000Y-68286000D01*
X69937000Y-68286000D02*
X69937000Y-63286000D01*
X137962000Y-66786000D02*
X139462000Y-68286000D01*
X142962000Y-63286000D02*
X137962000Y-63286000D01*
X137962000Y-63286000D02*
X137962000Y-68286000D01*
X137962000Y-68286000D02*
X142962000Y-68286000D01*
X142962000Y-68286000D02*
X142962000Y-63286000D01*
X177332000Y-66786000D02*
X178832000Y-68286000D01*
X182332000Y-63286000D02*
X177332000Y-63286000D01*
X177332000Y-63286000D02*
X177332000Y-68286000D01*
X177332000Y-68286000D02*
X182332000Y-68286000D01*
X182332000Y-68286000D02*
X182332000Y-63286000D01*
X218607000Y-66786000D02*
X220107000Y-68286000D01*
X223607000Y-63286000D02*
X218607000Y-63286000D01*
X218607000Y-63286000D02*
X218607000Y-68286000D01*
X218607000Y-68286000D02*
X223607000Y-68286000D01*
X223607000Y-68286000D02*
X223607000Y-63286000D01*
X259826000Y-88606000D02*
X261326000Y-87106000D01*
X256326000Y-83606000D02*
X256326000Y-88606000D01*
X256326000Y-88606000D02*
X261326000Y-88606000D01*
X261326000Y-88606000D02*
X261326000Y-83606000D01*
X261326000Y-83606000D02*
X256326000Y-83606000D01*
X212384000Y-106918000D02*
X213884000Y-108418000D01*
X217384000Y-103418000D02*
X212384000Y-103418000D01*
X212384000Y-103418000D02*
X212384000Y-108418000D01*
X212384000Y-108418000D02*
X217384000Y-108418000D01*
X217384000Y-108418000D02*
X217384000Y-103418000D01*
X176824000Y-104886000D02*
X178324000Y-106386000D01*
X181824000Y-101386000D02*
X176824000Y-101386000D01*
X176824000Y-101386000D02*
X176824000Y-106386000D01*
X176824000Y-106386000D02*
X181824000Y-106386000D01*
X181824000Y-106386000D02*
X181824000Y-101386000D01*
X144566000Y-105140000D02*
X146066000Y-106640000D01*
X149566000Y-101640000D02*
X144566000Y-101640000D01*
X144566000Y-101640000D02*
X144566000Y-106640000D01*
X144566000Y-106640000D02*
X149566000Y-106640000D01*
X149566000Y-106640000D02*
X149566000Y-101640000D01*
X96052000Y-105140000D02*
X97552000Y-106640000D01*
X101052000Y-101640000D02*
X96052000Y-101640000D01*
X96052000Y-101640000D02*
X96052000Y-106640000D01*
X96052000Y-106640000D02*
X101052000Y-106640000D01*
X101052000Y-106640000D02*
X101052000Y-101640000D01*
X65572000Y-104124000D02*
X67072000Y-105624000D01*
X70572000Y-100624000D02*
X65572000Y-100624000D01*
X65572000Y-100624000D02*
X65572000Y-105624000D01*
X65572000Y-105624000D02*
X70572000Y-105624000D01*
X70572000Y-105624000D02*
X70572000Y-100624000D01*
X38592000Y-92670000D02*
X40092000Y-91170000D01*
X35092000Y-87670000D02*
X35092000Y-92670000D01*
X35092000Y-92670000D02*
X40092000Y-92670000D01*
X40092000Y-92670000D02*
X40092000Y-87670000D01*
X40092000Y-87670000D02*
X35092000Y-87670000D01*
D17*
X223243140Y-94996000D02*
G75*
G03X223243140Y-94996000I-1501140J0D01*
G01*
X224091500Y-98094800D02*
X224091500Y-98595180D01*
X224091500Y-98595180D02*
X223393000Y-98595180D01*
X223393000Y-98595180D02*
X223393000Y-98094800D01*
X219392500Y-98595180D02*
X219392500Y-98094800D01*
X220091000Y-98595180D02*
X219392500Y-98595180D01*
X220091000Y-98094800D02*
X220091000Y-98595180D01*
X220091000Y-91897200D02*
X220091000Y-91396820D01*
X220091000Y-91396820D02*
X219392500Y-91396820D01*
X219392500Y-91396820D02*
X219392500Y-91897200D01*
X224091500Y-91897200D02*
X224091500Y-91396820D01*
X224091500Y-91396820D02*
X223393000Y-91396820D01*
X223393000Y-91396820D02*
X223393000Y-91897200D01*
D18*
X218643200Y-97795080D02*
X218643200Y-92196920D01*
X224840800Y-97795080D02*
X224840800Y-92196920D01*
X224741740Y-98094800D02*
X224741740Y-91897200D01*
X224741740Y-91897200D02*
X218742260Y-91897200D01*
X218742260Y-91897200D02*
X218742260Y-98094800D01*
X218742260Y-98094800D02*
X224741740Y-98094800D01*
D12*
X135651240Y-116205000D02*
X136052560Y-116405660D01*
X136052560Y-116405660D02*
X136652000Y-116507260D01*
X136652000Y-116507260D02*
X137152380Y-116405660D01*
X137152380Y-116405660D02*
X137850880Y-116006880D01*
X137850880Y-116006880D02*
X138252200Y-115404900D01*
X138252200Y-115404900D02*
X138452860Y-114805460D01*
X138452860Y-114805460D02*
X138452860Y-108206540D01*
X138452860Y-108206540D02*
X138252200Y-107505500D01*
X138252200Y-107505500D02*
X137952480Y-107106720D01*
X137952480Y-107106720D02*
X137452100Y-106705400D01*
X137452100Y-106705400D02*
X136852660Y-106504740D01*
X136852660Y-106504740D02*
X136352280Y-106504740D01*
X136352280Y-106504740D02*
X135851900Y-106705400D01*
X135851900Y-106705400D02*
X135252460Y-107205780D01*
X135252460Y-107205780D02*
X134952740Y-107706160D01*
X134952740Y-107706160D02*
X134851140Y-108206540D01*
X134851140Y-108305600D02*
X134851140Y-114907060D01*
X134851140Y-114907060D02*
X134952740Y-115305840D01*
X134952740Y-115305840D02*
X135252460Y-115806220D01*
X135252460Y-115806220D02*
X135752840Y-116306600D01*
X134322820Y-108315760D02*
X134371080Y-107856020D01*
X134371080Y-107856020D02*
X134482840Y-107457240D01*
X134482840Y-107457240D02*
X134701280Y-107025440D01*
X134701280Y-107025440D02*
X134932420Y-106735880D01*
X134932420Y-106735880D02*
X135282940Y-106405680D01*
X135282940Y-106405680D02*
X135821420Y-106116120D01*
X135821420Y-106116120D02*
X136420860Y-105986580D01*
X136420860Y-105986580D02*
X136931400Y-105986580D01*
X136931400Y-105986580D02*
X137632440Y-106156760D01*
X137632440Y-106156760D02*
X138221720Y-106555540D01*
X138221720Y-106555540D02*
X138592560Y-107015280D01*
X138592560Y-107015280D02*
X138800840Y-107436920D01*
X138800840Y-107436920D02*
X138960860Y-107886500D01*
X138960860Y-107886500D02*
X138991340Y-108325920D01*
X138772900Y-115666520D02*
X138551920Y-116044980D01*
X138551920Y-116044980D02*
X138272520Y-116365020D01*
X138272520Y-116365020D02*
X137942320Y-116616480D01*
X137942320Y-116616480D02*
X137391140Y-116916200D01*
X137391140Y-116916200D02*
X136921240Y-117025420D01*
X136921240Y-117025420D02*
X136461500Y-117045740D01*
X136461500Y-117045740D02*
X136001760Y-116956840D01*
X136001760Y-116956840D02*
X135552180Y-116766340D01*
X135552180Y-116766340D02*
X135082280Y-116405660D01*
X135082280Y-116405660D02*
X134762240Y-116055140D01*
X134762240Y-116055140D02*
X134531100Y-115666520D01*
X134531100Y-115666520D02*
X134391400Y-115237260D01*
X134391400Y-115237260D02*
X134322820Y-114795300D01*
X138981180Y-108305600D02*
X138981180Y-114757200D01*
X138981180Y-114757200D02*
X138943080Y-115176300D01*
X138943080Y-115176300D02*
X138772900Y-115666520D01*
X134322820Y-108305600D02*
X134322820Y-114757200D01*
X139735143Y-109561334D02*
X139782762Y-109513715D01*
X139830381Y-109370858D01*
X139830381Y-109275620D01*
X139782762Y-109132762D01*
X139687524Y-109037524D01*
X139592286Y-108989905D01*
X139401810Y-108942286D01*
X139258952Y-108942286D01*
X139068476Y-108989905D01*
X138973238Y-109037524D01*
X138878000Y-109132762D01*
X138830381Y-109275620D01*
X138830381Y-109370858D01*
X138878000Y-109513715D01*
X138925619Y-109561334D01*
X139830381Y-110513715D02*
X139830381Y-109942286D01*
X139830381Y-110228000D02*
X138830381Y-110228000D01*
X138973238Y-110132762D01*
X139068476Y-110037524D01*
X139116095Y-109942286D01*
X143935143Y-113625334D02*
X143982762Y-113577715D01*
X144030381Y-113434858D01*
X144030381Y-113339620D01*
X143982762Y-113196762D01*
X143887524Y-113101524D01*
X143792286Y-113053905D01*
X143601810Y-113006286D01*
X143458952Y-113006286D01*
X143268476Y-113053905D01*
X143173238Y-113101524D01*
X143078000Y-113196762D01*
X143030381Y-113339620D01*
X143030381Y-113434858D01*
X143078000Y-113577715D01*
X143125619Y-113625334D01*
X143125619Y-114006286D02*
X143078000Y-114053905D01*
X143030381Y-114149143D01*
X143030381Y-114387239D01*
X143078000Y-114482477D01*
X143125619Y-114530096D01*
X143220857Y-114577715D01*
X143316095Y-114577715D01*
X143458952Y-114530096D01*
X144030381Y-113958667D01*
X144030381Y-114577715D01*
X115736666Y-102397143D02*
X115784285Y-102444762D01*
X115927142Y-102492381D01*
X116022380Y-102492381D01*
X116165238Y-102444762D01*
X116260476Y-102349524D01*
X116308095Y-102254286D01*
X116355714Y-102063810D01*
X116355714Y-101920952D01*
X116308095Y-101730476D01*
X116260476Y-101635238D01*
X116165238Y-101540000D01*
X116022380Y-101492381D01*
X115927142Y-101492381D01*
X115784285Y-101540000D01*
X115736666Y-101587619D01*
X115403333Y-101492381D02*
X114784285Y-101492381D01*
X115117619Y-101873333D01*
X114974761Y-101873333D01*
X114879523Y-101920952D01*
X114831904Y-101968571D01*
X114784285Y-102063810D01*
X114784285Y-102301905D01*
X114831904Y-102397143D01*
X114879523Y-102444762D01*
X114974761Y-102492381D01*
X115260476Y-102492381D01*
X115355714Y-102444762D01*
X115403333Y-102397143D01*
X113455143Y-117181334D02*
X113502762Y-117133715D01*
X113550381Y-116990858D01*
X113550381Y-116895620D01*
X113502762Y-116752762D01*
X113407524Y-116657524D01*
X113312286Y-116609905D01*
X113121810Y-116562286D01*
X112978952Y-116562286D01*
X112788476Y-116609905D01*
X112693238Y-116657524D01*
X112598000Y-116752762D01*
X112550381Y-116895620D01*
X112550381Y-116990858D01*
X112598000Y-117133715D01*
X112645619Y-117181334D01*
X112883714Y-118038477D02*
X113550381Y-118038477D01*
X112502762Y-117800381D02*
X113217048Y-117562286D01*
X113217048Y-118181334D01*
X143935143Y-117689334D02*
X143982762Y-117641715D01*
X144030381Y-117498858D01*
X144030381Y-117403620D01*
X143982762Y-117260762D01*
X143887524Y-117165524D01*
X143792286Y-117117905D01*
X143601810Y-117070286D01*
X143458952Y-117070286D01*
X143268476Y-117117905D01*
X143173238Y-117165524D01*
X143078000Y-117260762D01*
X143030381Y-117403620D01*
X143030381Y-117498858D01*
X143078000Y-117641715D01*
X143125619Y-117689334D01*
X143030381Y-118594096D02*
X143030381Y-118117905D01*
X143506571Y-118070286D01*
X143458952Y-118117905D01*
X143411333Y-118213143D01*
X143411333Y-118451239D01*
X143458952Y-118546477D01*
X143506571Y-118594096D01*
X143601810Y-118641715D01*
X143839905Y-118641715D01*
X143935143Y-118594096D01*
X143982762Y-118546477D01*
X144030381Y-118451239D01*
X144030381Y-118213143D01*
X143982762Y-118117905D01*
X143935143Y-118070286D01*
X113455143Y-107021334D02*
X113502762Y-106973715D01*
X113550381Y-106830858D01*
X113550381Y-106735620D01*
X113502762Y-106592762D01*
X113407524Y-106497524D01*
X113312286Y-106449905D01*
X113121810Y-106402286D01*
X112978952Y-106402286D01*
X112788476Y-106449905D01*
X112693238Y-106497524D01*
X112598000Y-106592762D01*
X112550381Y-106735620D01*
X112550381Y-106830858D01*
X112598000Y-106973715D01*
X112645619Y-107021334D01*
X112550381Y-107878477D02*
X112550381Y-107688000D01*
X112598000Y-107592762D01*
X112645619Y-107545143D01*
X112788476Y-107449905D01*
X112978952Y-107402286D01*
X113359905Y-107402286D01*
X113455143Y-107449905D01*
X113502762Y-107497524D01*
X113550381Y-107592762D01*
X113550381Y-107783239D01*
X113502762Y-107878477D01*
X113455143Y-107926096D01*
X113359905Y-107973715D01*
X113121810Y-107973715D01*
X113026571Y-107926096D01*
X112978952Y-107878477D01*
X112931333Y-107783239D01*
X112931333Y-107592762D01*
X112978952Y-107497524D01*
X113026571Y-107449905D01*
X113121810Y-107402286D01*
X139735143Y-105497334D02*
X139782762Y-105449715D01*
X139830381Y-105306858D01*
X139830381Y-105211620D01*
X139782762Y-105068762D01*
X139687524Y-104973524D01*
X139592286Y-104925905D01*
X139401810Y-104878286D01*
X139258952Y-104878286D01*
X139068476Y-104925905D01*
X138973238Y-104973524D01*
X138878000Y-105068762D01*
X138830381Y-105211620D01*
X138830381Y-105306858D01*
X138878000Y-105449715D01*
X138925619Y-105497334D01*
X138830381Y-105830667D02*
X138830381Y-106497334D01*
X139830381Y-106068762D01*
X48680666Y-63789143D02*
X48728285Y-63836762D01*
X48871142Y-63884381D01*
X48966380Y-63884381D01*
X49109238Y-63836762D01*
X49204476Y-63741524D01*
X49252095Y-63646286D01*
X49299714Y-63455810D01*
X49299714Y-63312952D01*
X49252095Y-63122476D01*
X49204476Y-63027238D01*
X49109238Y-62932000D01*
X48966380Y-62884381D01*
X48871142Y-62884381D01*
X48728285Y-62932000D01*
X48680666Y-62979619D01*
X48109238Y-63312952D02*
X48204476Y-63265333D01*
X48252095Y-63217714D01*
X48299714Y-63122476D01*
X48299714Y-63074857D01*
X48252095Y-62979619D01*
X48204476Y-62932000D01*
X48109238Y-62884381D01*
X47918761Y-62884381D01*
X47823523Y-62932000D01*
X47775904Y-62979619D01*
X47728285Y-63074857D01*
X47728285Y-63122476D01*
X47775904Y-63217714D01*
X47823523Y-63265333D01*
X47918761Y-63312952D01*
X48109238Y-63312952D01*
X48204476Y-63360571D01*
X48252095Y-63408190D01*
X48299714Y-63503429D01*
X48299714Y-63693905D01*
X48252095Y-63789143D01*
X48204476Y-63836762D01*
X48109238Y-63884381D01*
X47918761Y-63884381D01*
X47823523Y-63836762D01*
X47775904Y-63789143D01*
X47728285Y-63693905D01*
X47728285Y-63503429D01*
X47775904Y-63408190D01*
X47823523Y-63360571D01*
X47918761Y-63312952D01*
D19*
X39665976Y-62301881D02*
X38730976Y-62301881D01*
X38730976Y-62524500D01*
X38775500Y-62658072D01*
X38864548Y-62747119D01*
X38953595Y-62791643D01*
X39131690Y-62836167D01*
X39265262Y-62836167D01*
X39443357Y-62791643D01*
X39532405Y-62747119D01*
X39621452Y-62658072D01*
X39665976Y-62524500D01*
X39665976Y-62301881D01*
X39665976Y-63726643D02*
X39665976Y-63192357D01*
X39665976Y-63459500D02*
X38730976Y-63459500D01*
X38864548Y-63370452D01*
X38953595Y-63281405D01*
X38998119Y-63192357D01*
X61509976Y-52141881D02*
X60574976Y-52141881D01*
X60574976Y-52364500D01*
X60619500Y-52498072D01*
X60708548Y-52587119D01*
X60797595Y-52631643D01*
X60975690Y-52676167D01*
X61109262Y-52676167D01*
X61287357Y-52631643D01*
X61376405Y-52587119D01*
X61465452Y-52498072D01*
X61509976Y-52364500D01*
X61509976Y-52141881D01*
X60664024Y-53032357D02*
X60619500Y-53076881D01*
X60574976Y-53165929D01*
X60574976Y-53388548D01*
X60619500Y-53477595D01*
X60664024Y-53522119D01*
X60753071Y-53566643D01*
X60842119Y-53566643D01*
X60975690Y-53522119D01*
X61509976Y-52987833D01*
X61509976Y-53566643D01*
X79289976Y-52141881D02*
X78354976Y-52141881D01*
X78354976Y-52364500D01*
X78399500Y-52498072D01*
X78488548Y-52587119D01*
X78577595Y-52631643D01*
X78755690Y-52676167D01*
X78889262Y-52676167D01*
X79067357Y-52631643D01*
X79156405Y-52587119D01*
X79245452Y-52498072D01*
X79289976Y-52364500D01*
X79289976Y-52141881D01*
X78354976Y-52987833D02*
X78354976Y-53566643D01*
X78711167Y-53254976D01*
X78711167Y-53388548D01*
X78755690Y-53477595D01*
X78800214Y-53522119D01*
X78889262Y-53566643D01*
X79111881Y-53566643D01*
X79200929Y-53522119D01*
X79245452Y-53477595D01*
X79289976Y-53388548D01*
X79289976Y-53121405D01*
X79245452Y-53032357D01*
X79200929Y-52987833D01*
X97577976Y-52649881D02*
X96642976Y-52649881D01*
X96642976Y-52872500D01*
X96687500Y-53006072D01*
X96776548Y-53095119D01*
X96865595Y-53139643D01*
X97043690Y-53184167D01*
X97177262Y-53184167D01*
X97355357Y-53139643D01*
X97444405Y-53095119D01*
X97533452Y-53006072D01*
X97577976Y-52872500D01*
X97577976Y-52649881D01*
X96954643Y-53985595D02*
X97577976Y-53985595D01*
X96598452Y-53762976D02*
X97266310Y-53540357D01*
X97266310Y-54119167D01*
X116373976Y-52141881D02*
X115438976Y-52141881D01*
X115438976Y-52364500D01*
X115483500Y-52498072D01*
X115572548Y-52587119D01*
X115661595Y-52631643D01*
X115839690Y-52676167D01*
X115973262Y-52676167D01*
X116151357Y-52631643D01*
X116240405Y-52587119D01*
X116329452Y-52498072D01*
X116373976Y-52364500D01*
X116373976Y-52141881D01*
X115438976Y-53522119D02*
X115438976Y-53076881D01*
X115884214Y-53032357D01*
X115839690Y-53076881D01*
X115795167Y-53165929D01*
X115795167Y-53388548D01*
X115839690Y-53477595D01*
X115884214Y-53522119D01*
X115973262Y-53566643D01*
X116195881Y-53566643D01*
X116284929Y-53522119D01*
X116329452Y-53477595D01*
X116373976Y-53388548D01*
X116373976Y-53165929D01*
X116329452Y-53076881D01*
X116284929Y-53032357D01*
X136693976Y-52141881D02*
X135758976Y-52141881D01*
X135758976Y-52364500D01*
X135803500Y-52498072D01*
X135892548Y-52587119D01*
X135981595Y-52631643D01*
X136159690Y-52676167D01*
X136293262Y-52676167D01*
X136471357Y-52631643D01*
X136560405Y-52587119D01*
X136649452Y-52498072D01*
X136693976Y-52364500D01*
X136693976Y-52141881D01*
X135758976Y-53477595D02*
X135758976Y-53299500D01*
X135803500Y-53210452D01*
X135848024Y-53165929D01*
X135981595Y-53076881D01*
X136159690Y-53032357D01*
X136515881Y-53032357D01*
X136604929Y-53076881D01*
X136649452Y-53121405D01*
X136693976Y-53210452D01*
X136693976Y-53388548D01*
X136649452Y-53477595D01*
X136604929Y-53522119D01*
X136515881Y-53566643D01*
X136293262Y-53566643D01*
X136204214Y-53522119D01*
X136159690Y-53477595D01*
X136115167Y-53388548D01*
X136115167Y-53210452D01*
X136159690Y-53121405D01*
X136204214Y-53076881D01*
X136293262Y-53032357D01*
X155489976Y-52141881D02*
X154554976Y-52141881D01*
X154554976Y-52364500D01*
X154599500Y-52498072D01*
X154688548Y-52587119D01*
X154777595Y-52631643D01*
X154955690Y-52676167D01*
X155089262Y-52676167D01*
X155267357Y-52631643D01*
X155356405Y-52587119D01*
X155445452Y-52498072D01*
X155489976Y-52364500D01*
X155489976Y-52141881D01*
X154554976Y-52987833D02*
X154554976Y-53611167D01*
X155489976Y-53210452D01*
X174285976Y-52141881D02*
X173350976Y-52141881D01*
X173350976Y-52364500D01*
X173395500Y-52498072D01*
X173484548Y-52587119D01*
X173573595Y-52631643D01*
X173751690Y-52676167D01*
X173885262Y-52676167D01*
X174063357Y-52631643D01*
X174152405Y-52587119D01*
X174241452Y-52498072D01*
X174285976Y-52364500D01*
X174285976Y-52141881D01*
X173751690Y-53210452D02*
X173707167Y-53121405D01*
X173662643Y-53076881D01*
X173573595Y-53032357D01*
X173529071Y-53032357D01*
X173440024Y-53076881D01*
X173395500Y-53121405D01*
X173350976Y-53210452D01*
X173350976Y-53388548D01*
X173395500Y-53477595D01*
X173440024Y-53522119D01*
X173529071Y-53566643D01*
X173573595Y-53566643D01*
X173662643Y-53522119D01*
X173707167Y-53477595D01*
X173751690Y-53388548D01*
X173751690Y-53210452D01*
X173796214Y-53121405D01*
X173840738Y-53076881D01*
X173929786Y-53032357D01*
X174107881Y-53032357D01*
X174196929Y-53076881D01*
X174241452Y-53121405D01*
X174285976Y-53210452D01*
X174285976Y-53388548D01*
X174241452Y-53477595D01*
X174196929Y-53522119D01*
X174107881Y-53566643D01*
X173929786Y-53566643D01*
X173840738Y-53522119D01*
X173796214Y-53477595D01*
X173751690Y-53388548D01*
X193589976Y-52141881D02*
X192654976Y-52141881D01*
X192654976Y-52364500D01*
X192699500Y-52498072D01*
X192788548Y-52587119D01*
X192877595Y-52631643D01*
X193055690Y-52676167D01*
X193189262Y-52676167D01*
X193367357Y-52631643D01*
X193456405Y-52587119D01*
X193545452Y-52498072D01*
X193589976Y-52364500D01*
X193589976Y-52141881D01*
X193589976Y-53121405D02*
X193589976Y-53299500D01*
X193545452Y-53388548D01*
X193500929Y-53433072D01*
X193367357Y-53522119D01*
X193189262Y-53566643D01*
X192833071Y-53566643D01*
X192744024Y-53522119D01*
X192699500Y-53477595D01*
X192654976Y-53388548D01*
X192654976Y-53210452D01*
X192699500Y-53121405D01*
X192744024Y-53076881D01*
X192833071Y-53032357D01*
X193055690Y-53032357D01*
X193144738Y-53076881D01*
X193189262Y-53121405D01*
X193233786Y-53210452D01*
X193233786Y-53388548D01*
X193189262Y-53477595D01*
X193144738Y-53522119D01*
X193055690Y-53566643D01*
X212893976Y-52204643D02*
X211958976Y-52204643D01*
X211958976Y-52427262D01*
X212003500Y-52560834D01*
X212092548Y-52649881D01*
X212181595Y-52694405D01*
X212359690Y-52738929D01*
X212493262Y-52738929D01*
X212671357Y-52694405D01*
X212760405Y-52649881D01*
X212849452Y-52560834D01*
X212893976Y-52427262D01*
X212893976Y-52204643D01*
X212893976Y-53629405D02*
X212893976Y-53095119D01*
X212893976Y-53362262D02*
X211958976Y-53362262D01*
X212092548Y-53273214D01*
X212181595Y-53184167D01*
X212226119Y-53095119D01*
X211958976Y-54208214D02*
X211958976Y-54297262D01*
X212003500Y-54386310D01*
X212048024Y-54430833D01*
X212137071Y-54475357D01*
X212315167Y-54519881D01*
X212537786Y-54519881D01*
X212715881Y-54475357D01*
X212804929Y-54430833D01*
X212849452Y-54386310D01*
X212893976Y-54297262D01*
X212893976Y-54208214D01*
X212849452Y-54119167D01*
X212804929Y-54074643D01*
X212715881Y-54030119D01*
X212537786Y-53985595D01*
X212315167Y-53985595D01*
X212137071Y-54030119D01*
X212048024Y-54074643D01*
X212003500Y-54119167D01*
X211958976Y-54208214D01*
X232197976Y-52204643D02*
X231262976Y-52204643D01*
X231262976Y-52427262D01*
X231307500Y-52560834D01*
X231396548Y-52649881D01*
X231485595Y-52694405D01*
X231663690Y-52738929D01*
X231797262Y-52738929D01*
X231975357Y-52694405D01*
X232064405Y-52649881D01*
X232153452Y-52560834D01*
X232197976Y-52427262D01*
X232197976Y-52204643D01*
X232197976Y-53629405D02*
X232197976Y-53095119D01*
X232197976Y-53362262D02*
X231262976Y-53362262D01*
X231396548Y-53273214D01*
X231485595Y-53184167D01*
X231530119Y-53095119D01*
X232197976Y-54519881D02*
X232197976Y-53985595D01*
X232197976Y-54252738D02*
X231262976Y-54252738D01*
X231396548Y-54163690D01*
X231485595Y-54074643D01*
X231530119Y-53985595D01*
X44745976Y-70492643D02*
X43810976Y-70492643D01*
X43810976Y-70715262D01*
X43855500Y-70848834D01*
X43944548Y-70937881D01*
X44033595Y-70982405D01*
X44211690Y-71026929D01*
X44345262Y-71026929D01*
X44523357Y-70982405D01*
X44612405Y-70937881D01*
X44701452Y-70848834D01*
X44745976Y-70715262D01*
X44745976Y-70492643D01*
X44745976Y-71917405D02*
X44745976Y-71383119D01*
X44745976Y-71650262D02*
X43810976Y-71650262D01*
X43944548Y-71561214D01*
X44033595Y-71472167D01*
X44078119Y-71383119D01*
X43900024Y-72273595D02*
X43855500Y-72318119D01*
X43810976Y-72407167D01*
X43810976Y-72629786D01*
X43855500Y-72718833D01*
X43900024Y-72763357D01*
X43989071Y-72807881D01*
X44078119Y-72807881D01*
X44211690Y-72763357D01*
X44745976Y-72229071D01*
X44745976Y-72807881D01*
X64557976Y-71000643D02*
X63622976Y-71000643D01*
X63622976Y-71223262D01*
X63667500Y-71356834D01*
X63756548Y-71445881D01*
X63845595Y-71490405D01*
X64023690Y-71534929D01*
X64157262Y-71534929D01*
X64335357Y-71490405D01*
X64424405Y-71445881D01*
X64513452Y-71356834D01*
X64557976Y-71223262D01*
X64557976Y-71000643D01*
X64557976Y-72425405D02*
X64557976Y-71891119D01*
X64557976Y-72158262D02*
X63622976Y-72158262D01*
X63756548Y-72069214D01*
X63845595Y-71980167D01*
X63890119Y-71891119D01*
X63622976Y-72737071D02*
X63622976Y-73315881D01*
X63979167Y-73004214D01*
X63979167Y-73137786D01*
X64023690Y-73226833D01*
X64068214Y-73271357D01*
X64157262Y-73315881D01*
X64379881Y-73315881D01*
X64468929Y-73271357D01*
X64513452Y-73226833D01*
X64557976Y-73137786D01*
X64557976Y-72870643D01*
X64513452Y-72781595D01*
X64468929Y-72737071D01*
X84369976Y-71000643D02*
X83434976Y-71000643D01*
X83434976Y-71223262D01*
X83479500Y-71356834D01*
X83568548Y-71445881D01*
X83657595Y-71490405D01*
X83835690Y-71534929D01*
X83969262Y-71534929D01*
X84147357Y-71490405D01*
X84236405Y-71445881D01*
X84325452Y-71356834D01*
X84369976Y-71223262D01*
X84369976Y-71000643D01*
X84369976Y-72425405D02*
X84369976Y-71891119D01*
X84369976Y-72158262D02*
X83434976Y-72158262D01*
X83568548Y-72069214D01*
X83657595Y-71980167D01*
X83702119Y-71891119D01*
X83746643Y-73226833D02*
X84369976Y-73226833D01*
X83390452Y-73004214D02*
X84058310Y-72781595D01*
X84058310Y-73360405D01*
X103673976Y-71000643D02*
X102738976Y-71000643D01*
X102738976Y-71223262D01*
X102783500Y-71356834D01*
X102872548Y-71445881D01*
X102961595Y-71490405D01*
X103139690Y-71534929D01*
X103273262Y-71534929D01*
X103451357Y-71490405D01*
X103540405Y-71445881D01*
X103629452Y-71356834D01*
X103673976Y-71223262D01*
X103673976Y-71000643D01*
X103673976Y-72425405D02*
X103673976Y-71891119D01*
X103673976Y-72158262D02*
X102738976Y-72158262D01*
X102872548Y-72069214D01*
X102961595Y-71980167D01*
X103006119Y-71891119D01*
X102738976Y-73271357D02*
X102738976Y-72826119D01*
X103184214Y-72781595D01*
X103139690Y-72826119D01*
X103095167Y-72915167D01*
X103095167Y-73137786D01*
X103139690Y-73226833D01*
X103184214Y-73271357D01*
X103273262Y-73315881D01*
X103495881Y-73315881D01*
X103584929Y-73271357D01*
X103629452Y-73226833D01*
X103673976Y-73137786D01*
X103673976Y-72915167D01*
X103629452Y-72826119D01*
X103584929Y-72781595D01*
X121453976Y-71000643D02*
X120518976Y-71000643D01*
X120518976Y-71223262D01*
X120563500Y-71356834D01*
X120652548Y-71445881D01*
X120741595Y-71490405D01*
X120919690Y-71534929D01*
X121053262Y-71534929D01*
X121231357Y-71490405D01*
X121320405Y-71445881D01*
X121409452Y-71356834D01*
X121453976Y-71223262D01*
X121453976Y-71000643D01*
X121453976Y-72425405D02*
X121453976Y-71891119D01*
X121453976Y-72158262D02*
X120518976Y-72158262D01*
X120652548Y-72069214D01*
X120741595Y-71980167D01*
X120786119Y-71891119D01*
X120518976Y-73226833D02*
X120518976Y-73048738D01*
X120563500Y-72959690D01*
X120608024Y-72915167D01*
X120741595Y-72826119D01*
X120919690Y-72781595D01*
X121275881Y-72781595D01*
X121364929Y-72826119D01*
X121409452Y-72870643D01*
X121453976Y-72959690D01*
X121453976Y-73137786D01*
X121409452Y-73226833D01*
X121364929Y-73271357D01*
X121275881Y-73315881D01*
X121053262Y-73315881D01*
X120964214Y-73271357D01*
X120919690Y-73226833D01*
X120875167Y-73137786D01*
X120875167Y-72959690D01*
X120919690Y-72870643D01*
X120964214Y-72826119D01*
X121053262Y-72781595D01*
X142281976Y-71000643D02*
X141346976Y-71000643D01*
X141346976Y-71223262D01*
X141391500Y-71356834D01*
X141480548Y-71445881D01*
X141569595Y-71490405D01*
X141747690Y-71534929D01*
X141881262Y-71534929D01*
X142059357Y-71490405D01*
X142148405Y-71445881D01*
X142237452Y-71356834D01*
X142281976Y-71223262D01*
X142281976Y-71000643D01*
X142281976Y-72425405D02*
X142281976Y-71891119D01*
X142281976Y-72158262D02*
X141346976Y-72158262D01*
X141480548Y-72069214D01*
X141569595Y-71980167D01*
X141614119Y-71891119D01*
X141346976Y-72737071D02*
X141346976Y-73360405D01*
X142281976Y-72959690D01*
X160061976Y-71000643D02*
X159126976Y-71000643D01*
X159126976Y-71223262D01*
X159171500Y-71356834D01*
X159260548Y-71445881D01*
X159349595Y-71490405D01*
X159527690Y-71534929D01*
X159661262Y-71534929D01*
X159839357Y-71490405D01*
X159928405Y-71445881D01*
X160017452Y-71356834D01*
X160061976Y-71223262D01*
X160061976Y-71000643D01*
X160061976Y-72425405D02*
X160061976Y-71891119D01*
X160061976Y-72158262D02*
X159126976Y-72158262D01*
X159260548Y-72069214D01*
X159349595Y-71980167D01*
X159394119Y-71891119D01*
X159527690Y-72959690D02*
X159483167Y-72870643D01*
X159438643Y-72826119D01*
X159349595Y-72781595D01*
X159305071Y-72781595D01*
X159216024Y-72826119D01*
X159171500Y-72870643D01*
X159126976Y-72959690D01*
X159126976Y-73137786D01*
X159171500Y-73226833D01*
X159216024Y-73271357D01*
X159305071Y-73315881D01*
X159349595Y-73315881D01*
X159438643Y-73271357D01*
X159483167Y-73226833D01*
X159527690Y-73137786D01*
X159527690Y-72959690D01*
X159572214Y-72870643D01*
X159616738Y-72826119D01*
X159705786Y-72781595D01*
X159883881Y-72781595D01*
X159972929Y-72826119D01*
X160017452Y-72870643D01*
X160061976Y-72959690D01*
X160061976Y-73137786D01*
X160017452Y-73226833D01*
X159972929Y-73271357D01*
X159883881Y-73315881D01*
X159705786Y-73315881D01*
X159616738Y-73271357D01*
X159572214Y-73226833D01*
X159527690Y-73137786D01*
X178857976Y-70492643D02*
X177922976Y-70492643D01*
X177922976Y-70715262D01*
X177967500Y-70848834D01*
X178056548Y-70937881D01*
X178145595Y-70982405D01*
X178323690Y-71026929D01*
X178457262Y-71026929D01*
X178635357Y-70982405D01*
X178724405Y-70937881D01*
X178813452Y-70848834D01*
X178857976Y-70715262D01*
X178857976Y-70492643D01*
X178857976Y-71917405D02*
X178857976Y-71383119D01*
X178857976Y-71650262D02*
X177922976Y-71650262D01*
X178056548Y-71561214D01*
X178145595Y-71472167D01*
X178190119Y-71383119D01*
X178857976Y-72362643D02*
X178857976Y-72540738D01*
X178813452Y-72629786D01*
X178768929Y-72674310D01*
X178635357Y-72763357D01*
X178457262Y-72807881D01*
X178101071Y-72807881D01*
X178012024Y-72763357D01*
X177967500Y-72718833D01*
X177922976Y-72629786D01*
X177922976Y-72451690D01*
X177967500Y-72362643D01*
X178012024Y-72318119D01*
X178101071Y-72273595D01*
X178323690Y-72273595D01*
X178412738Y-72318119D01*
X178457262Y-72362643D01*
X178501786Y-72451690D01*
X178501786Y-72629786D01*
X178457262Y-72718833D01*
X178412738Y-72763357D01*
X178323690Y-72807881D01*
X197653976Y-70492643D02*
X196718976Y-70492643D01*
X196718976Y-70715262D01*
X196763500Y-70848834D01*
X196852548Y-70937881D01*
X196941595Y-70982405D01*
X197119690Y-71026929D01*
X197253262Y-71026929D01*
X197431357Y-70982405D01*
X197520405Y-70937881D01*
X197609452Y-70848834D01*
X197653976Y-70715262D01*
X197653976Y-70492643D01*
X196808024Y-71383119D02*
X196763500Y-71427643D01*
X196718976Y-71516691D01*
X196718976Y-71739310D01*
X196763500Y-71828357D01*
X196808024Y-71872881D01*
X196897071Y-71917405D01*
X196986119Y-71917405D01*
X197119690Y-71872881D01*
X197653976Y-71338595D01*
X197653976Y-71917405D01*
X196718976Y-72496214D02*
X196718976Y-72585262D01*
X196763500Y-72674310D01*
X196808024Y-72718833D01*
X196897071Y-72763357D01*
X197075167Y-72807881D01*
X197297786Y-72807881D01*
X197475881Y-72763357D01*
X197564929Y-72718833D01*
X197609452Y-72674310D01*
X197653976Y-72585262D01*
X197653976Y-72496214D01*
X197609452Y-72407167D01*
X197564929Y-72362643D01*
X197475881Y-72318119D01*
X197297786Y-72273595D01*
X197075167Y-72273595D01*
X196897071Y-72318119D01*
X196808024Y-72362643D01*
X196763500Y-72407167D01*
X196718976Y-72496214D01*
X217465976Y-71000643D02*
X216530976Y-71000643D01*
X216530976Y-71223262D01*
X216575500Y-71356834D01*
X216664548Y-71445881D01*
X216753595Y-71490405D01*
X216931690Y-71534929D01*
X217065262Y-71534929D01*
X217243357Y-71490405D01*
X217332405Y-71445881D01*
X217421452Y-71356834D01*
X217465976Y-71223262D01*
X217465976Y-71000643D01*
X216620024Y-71891119D02*
X216575500Y-71935643D01*
X216530976Y-72024691D01*
X216530976Y-72247310D01*
X216575500Y-72336357D01*
X216620024Y-72380881D01*
X216709071Y-72425405D01*
X216798119Y-72425405D01*
X216931690Y-72380881D01*
X217465976Y-71846595D01*
X217465976Y-72425405D01*
X217465976Y-73315881D02*
X217465976Y-72781595D01*
X217465976Y-73048738D02*
X216530976Y-73048738D01*
X216664548Y-72959690D01*
X216753595Y-72870643D01*
X216798119Y-72781595D01*
X242865976Y-70492643D02*
X241930976Y-70492643D01*
X241930976Y-70715262D01*
X241975500Y-70848834D01*
X242064548Y-70937881D01*
X242153595Y-70982405D01*
X242331690Y-71026929D01*
X242465262Y-71026929D01*
X242643357Y-70982405D01*
X242732405Y-70937881D01*
X242821452Y-70848834D01*
X242865976Y-70715262D01*
X242865976Y-70492643D01*
X242020024Y-71383119D02*
X241975500Y-71427643D01*
X241930976Y-71516691D01*
X241930976Y-71739310D01*
X241975500Y-71828357D01*
X242020024Y-71872881D01*
X242109071Y-71917405D01*
X242198119Y-71917405D01*
X242331690Y-71872881D01*
X242865976Y-71338595D01*
X242865976Y-71917405D01*
X242020024Y-72273595D02*
X241975500Y-72318119D01*
X241930976Y-72407167D01*
X241930976Y-72629786D01*
X241975500Y-72718833D01*
X242020024Y-72763357D01*
X242109071Y-72807881D01*
X242198119Y-72807881D01*
X242331690Y-72763357D01*
X242865976Y-72229071D01*
X242865976Y-72807881D01*
X47285976Y-89796643D02*
X46350976Y-89796643D01*
X46350976Y-90019262D01*
X46395500Y-90152834D01*
X46484548Y-90241881D01*
X46573595Y-90286405D01*
X46751690Y-90330929D01*
X46885262Y-90330929D01*
X47063357Y-90286405D01*
X47152405Y-90241881D01*
X47241452Y-90152834D01*
X47285976Y-90019262D01*
X47285976Y-89796643D01*
X46440024Y-90687119D02*
X46395500Y-90731643D01*
X46350976Y-90820691D01*
X46350976Y-91043310D01*
X46395500Y-91132357D01*
X46440024Y-91176881D01*
X46529071Y-91221405D01*
X46618119Y-91221405D01*
X46751690Y-91176881D01*
X47285976Y-90642595D01*
X47285976Y-91221405D01*
X46350976Y-91533071D02*
X46350976Y-92111881D01*
X46707167Y-91800214D01*
X46707167Y-91933786D01*
X46751690Y-92022833D01*
X46796214Y-92067357D01*
X46885262Y-92111881D01*
X47107881Y-92111881D01*
X47196929Y-92067357D01*
X47241452Y-92022833D01*
X47285976Y-91933786D01*
X47285976Y-91666643D01*
X47241452Y-91577595D01*
X47196929Y-91533071D01*
X74209976Y-90304643D02*
X73274976Y-90304643D01*
X73274976Y-90527262D01*
X73319500Y-90660834D01*
X73408548Y-90749881D01*
X73497595Y-90794405D01*
X73675690Y-90838929D01*
X73809262Y-90838929D01*
X73987357Y-90794405D01*
X74076405Y-90749881D01*
X74165452Y-90660834D01*
X74209976Y-90527262D01*
X74209976Y-90304643D01*
X73364024Y-91195119D02*
X73319500Y-91239643D01*
X73274976Y-91328691D01*
X73274976Y-91551310D01*
X73319500Y-91640357D01*
X73364024Y-91684881D01*
X73453071Y-91729405D01*
X73542119Y-91729405D01*
X73675690Y-91684881D01*
X74209976Y-91150595D01*
X74209976Y-91729405D01*
X73586643Y-92530833D02*
X74209976Y-92530833D01*
X73230452Y-92308214D02*
X73898310Y-92085595D01*
X73898310Y-92664405D01*
X88687976Y-99194643D02*
X87752976Y-99194643D01*
X87752976Y-99417262D01*
X87797500Y-99550834D01*
X87886548Y-99639881D01*
X87975595Y-99684405D01*
X88153690Y-99728929D01*
X88287262Y-99728929D01*
X88465357Y-99684405D01*
X88554405Y-99639881D01*
X88643452Y-99550834D01*
X88687976Y-99417262D01*
X88687976Y-99194643D01*
X87842024Y-100085119D02*
X87797500Y-100129643D01*
X87752976Y-100218691D01*
X87752976Y-100441310D01*
X87797500Y-100530357D01*
X87842024Y-100574881D01*
X87931071Y-100619405D01*
X88020119Y-100619405D01*
X88153690Y-100574881D01*
X88687976Y-100040595D01*
X88687976Y-100619405D01*
X87752976Y-101465357D02*
X87752976Y-101020119D01*
X88198214Y-100975595D01*
X88153690Y-101020119D01*
X88109167Y-101109167D01*
X88109167Y-101331786D01*
X88153690Y-101420833D01*
X88198214Y-101465357D01*
X88287262Y-101509881D01*
X88509881Y-101509881D01*
X88598929Y-101465357D01*
X88643452Y-101420833D01*
X88687976Y-101331786D01*
X88687976Y-101109167D01*
X88643452Y-101020119D01*
X88598929Y-100975595D01*
X113325976Y-89542643D02*
X112390976Y-89542643D01*
X112390976Y-89765262D01*
X112435500Y-89898834D01*
X112524548Y-89987881D01*
X112613595Y-90032405D01*
X112791690Y-90076929D01*
X112925262Y-90076929D01*
X113103357Y-90032405D01*
X113192405Y-89987881D01*
X113281452Y-89898834D01*
X113325976Y-89765262D01*
X113325976Y-89542643D01*
X112480024Y-90433119D02*
X112435500Y-90477643D01*
X112390976Y-90566691D01*
X112390976Y-90789310D01*
X112435500Y-90878357D01*
X112480024Y-90922881D01*
X112569071Y-90967405D01*
X112658119Y-90967405D01*
X112791690Y-90922881D01*
X113325976Y-90388595D01*
X113325976Y-90967405D01*
X112390976Y-91768833D02*
X112390976Y-91590738D01*
X112435500Y-91501690D01*
X112480024Y-91457167D01*
X112613595Y-91368119D01*
X112791690Y-91323595D01*
X113147881Y-91323595D01*
X113236929Y-91368119D01*
X113281452Y-91412643D01*
X113325976Y-91501690D01*
X113325976Y-91679786D01*
X113281452Y-91768833D01*
X113236929Y-91813357D01*
X113147881Y-91857881D01*
X112925262Y-91857881D01*
X112836214Y-91813357D01*
X112791690Y-91768833D01*
X112747167Y-91679786D01*
X112747167Y-91501690D01*
X112791690Y-91412643D01*
X112836214Y-91368119D01*
X112925262Y-91323595D01*
X131867976Y-89542643D02*
X130932976Y-89542643D01*
X130932976Y-89765262D01*
X130977500Y-89898834D01*
X131066548Y-89987881D01*
X131155595Y-90032405D01*
X131333690Y-90076929D01*
X131467262Y-90076929D01*
X131645357Y-90032405D01*
X131734405Y-89987881D01*
X131823452Y-89898834D01*
X131867976Y-89765262D01*
X131867976Y-89542643D01*
X131022024Y-90433119D02*
X130977500Y-90477643D01*
X130932976Y-90566691D01*
X130932976Y-90789310D01*
X130977500Y-90878357D01*
X131022024Y-90922881D01*
X131111071Y-90967405D01*
X131200119Y-90967405D01*
X131333690Y-90922881D01*
X131867976Y-90388595D01*
X131867976Y-90967405D01*
X130932976Y-91279071D02*
X130932976Y-91902405D01*
X131867976Y-91501690D01*
X149647976Y-89288643D02*
X148712976Y-89288643D01*
X148712976Y-89511262D01*
X148757500Y-89644834D01*
X148846548Y-89733881D01*
X148935595Y-89778405D01*
X149113690Y-89822929D01*
X149247262Y-89822929D01*
X149425357Y-89778405D01*
X149514405Y-89733881D01*
X149603452Y-89644834D01*
X149647976Y-89511262D01*
X149647976Y-89288643D01*
X148802024Y-90179119D02*
X148757500Y-90223643D01*
X148712976Y-90312691D01*
X148712976Y-90535310D01*
X148757500Y-90624357D01*
X148802024Y-90668881D01*
X148891071Y-90713405D01*
X148980119Y-90713405D01*
X149113690Y-90668881D01*
X149647976Y-90134595D01*
X149647976Y-90713405D01*
X149113690Y-91247690D02*
X149069167Y-91158643D01*
X149024643Y-91114119D01*
X148935595Y-91069595D01*
X148891071Y-91069595D01*
X148802024Y-91114119D01*
X148757500Y-91158643D01*
X148712976Y-91247690D01*
X148712976Y-91425786D01*
X148757500Y-91514833D01*
X148802024Y-91559357D01*
X148891071Y-91603881D01*
X148935595Y-91603881D01*
X149024643Y-91559357D01*
X149069167Y-91514833D01*
X149113690Y-91425786D01*
X149113690Y-91247690D01*
X149158214Y-91158643D01*
X149202738Y-91114119D01*
X149291786Y-91069595D01*
X149469881Y-91069595D01*
X149558929Y-91114119D01*
X149603452Y-91158643D01*
X149647976Y-91247690D01*
X149647976Y-91425786D01*
X149603452Y-91514833D01*
X149558929Y-91559357D01*
X149469881Y-91603881D01*
X149291786Y-91603881D01*
X149202738Y-91559357D01*
X149158214Y-91514833D01*
X149113690Y-91425786D01*
X169205976Y-89288643D02*
X168270976Y-89288643D01*
X168270976Y-89511262D01*
X168315500Y-89644834D01*
X168404548Y-89733881D01*
X168493595Y-89778405D01*
X168671690Y-89822929D01*
X168805262Y-89822929D01*
X168983357Y-89778405D01*
X169072405Y-89733881D01*
X169161452Y-89644834D01*
X169205976Y-89511262D01*
X169205976Y-89288643D01*
X168360024Y-90179119D02*
X168315500Y-90223643D01*
X168270976Y-90312691D01*
X168270976Y-90535310D01*
X168315500Y-90624357D01*
X168360024Y-90668881D01*
X168449071Y-90713405D01*
X168538119Y-90713405D01*
X168671690Y-90668881D01*
X169205976Y-90134595D01*
X169205976Y-90713405D01*
X169205976Y-91158643D02*
X169205976Y-91336738D01*
X169161452Y-91425786D01*
X169116929Y-91470310D01*
X168983357Y-91559357D01*
X168805262Y-91603881D01*
X168449071Y-91603881D01*
X168360024Y-91559357D01*
X168315500Y-91514833D01*
X168270976Y-91425786D01*
X168270976Y-91247690D01*
X168315500Y-91158643D01*
X168360024Y-91114119D01*
X168449071Y-91069595D01*
X168671690Y-91069595D01*
X168760738Y-91114119D01*
X168805262Y-91158643D01*
X168849786Y-91247690D01*
X168849786Y-91425786D01*
X168805262Y-91514833D01*
X168760738Y-91559357D01*
X168671690Y-91603881D01*
X188509976Y-89542643D02*
X187574976Y-89542643D01*
X187574976Y-89765262D01*
X187619500Y-89898834D01*
X187708548Y-89987881D01*
X187797595Y-90032405D01*
X187975690Y-90076929D01*
X188109262Y-90076929D01*
X188287357Y-90032405D01*
X188376405Y-89987881D01*
X188465452Y-89898834D01*
X188509976Y-89765262D01*
X188509976Y-89542643D01*
X187574976Y-90388595D02*
X187574976Y-90967405D01*
X187931167Y-90655738D01*
X187931167Y-90789310D01*
X187975690Y-90878357D01*
X188020214Y-90922881D01*
X188109262Y-90967405D01*
X188331881Y-90967405D01*
X188420929Y-90922881D01*
X188465452Y-90878357D01*
X188509976Y-90789310D01*
X188509976Y-90522167D01*
X188465452Y-90433119D01*
X188420929Y-90388595D01*
X187574976Y-91546214D02*
X187574976Y-91635262D01*
X187619500Y-91724310D01*
X187664024Y-91768833D01*
X187753071Y-91813357D01*
X187931167Y-91857881D01*
X188153786Y-91857881D01*
X188331881Y-91813357D01*
X188420929Y-91768833D01*
X188465452Y-91724310D01*
X188509976Y-91635262D01*
X188509976Y-91546214D01*
X188465452Y-91457167D01*
X188420929Y-91412643D01*
X188331881Y-91368119D01*
X188153786Y-91323595D01*
X187931167Y-91323595D01*
X187753071Y-91368119D01*
X187664024Y-91412643D01*
X187619500Y-91457167D01*
X187574976Y-91546214D01*
X202987976Y-99194643D02*
X202052976Y-99194643D01*
X202052976Y-99417262D01*
X202097500Y-99550834D01*
X202186548Y-99639881D01*
X202275595Y-99684405D01*
X202453690Y-99728929D01*
X202587262Y-99728929D01*
X202765357Y-99684405D01*
X202854405Y-99639881D01*
X202943452Y-99550834D01*
X202987976Y-99417262D01*
X202987976Y-99194643D01*
X202052976Y-100040595D02*
X202052976Y-100619405D01*
X202409167Y-100307738D01*
X202409167Y-100441310D01*
X202453690Y-100530357D01*
X202498214Y-100574881D01*
X202587262Y-100619405D01*
X202809881Y-100619405D01*
X202898929Y-100574881D01*
X202943452Y-100530357D01*
X202987976Y-100441310D01*
X202987976Y-100174167D01*
X202943452Y-100085119D01*
X202898929Y-100040595D01*
X202987976Y-101509881D02*
X202987976Y-100975595D01*
X202987976Y-101242738D02*
X202052976Y-101242738D01*
X202186548Y-101153690D01*
X202275595Y-101064643D01*
X202320119Y-100975595D01*
X230165976Y-90304643D02*
X229230976Y-90304643D01*
X229230976Y-90527262D01*
X229275500Y-90660834D01*
X229364548Y-90749881D01*
X229453595Y-90794405D01*
X229631690Y-90838929D01*
X229765262Y-90838929D01*
X229943357Y-90794405D01*
X230032405Y-90749881D01*
X230121452Y-90660834D01*
X230165976Y-90527262D01*
X230165976Y-90304643D01*
X229230976Y-91150595D02*
X229230976Y-91729405D01*
X229587167Y-91417738D01*
X229587167Y-91551310D01*
X229631690Y-91640357D01*
X229676214Y-91684881D01*
X229765262Y-91729405D01*
X229987881Y-91729405D01*
X230076929Y-91684881D01*
X230121452Y-91640357D01*
X230165976Y-91551310D01*
X230165976Y-91284167D01*
X230121452Y-91195119D01*
X230076929Y-91150595D01*
X229320024Y-92085595D02*
X229275500Y-92130119D01*
X229230976Y-92219167D01*
X229230976Y-92441786D01*
X229275500Y-92530833D01*
X229320024Y-92575357D01*
X229409071Y-92619881D01*
X229498119Y-92619881D01*
X229631690Y-92575357D01*
X230165976Y-92041071D01*
X230165976Y-92619881D01*
X251755976Y-90558643D02*
X250820976Y-90558643D01*
X250820976Y-90781262D01*
X250865500Y-90914834D01*
X250954548Y-91003881D01*
X251043595Y-91048405D01*
X251221690Y-91092929D01*
X251355262Y-91092929D01*
X251533357Y-91048405D01*
X251622405Y-91003881D01*
X251711452Y-90914834D01*
X251755976Y-90781262D01*
X251755976Y-90558643D01*
X250820976Y-91404595D02*
X250820976Y-91983405D01*
X251177167Y-91671738D01*
X251177167Y-91805310D01*
X251221690Y-91894357D01*
X251266214Y-91938881D01*
X251355262Y-91983405D01*
X251577881Y-91983405D01*
X251666929Y-91938881D01*
X251711452Y-91894357D01*
X251755976Y-91805310D01*
X251755976Y-91538167D01*
X251711452Y-91449119D01*
X251666929Y-91404595D01*
X250820976Y-92295071D02*
X250820976Y-92873881D01*
X251177167Y-92562214D01*
X251177167Y-92695786D01*
X251221690Y-92784833D01*
X251266214Y-92829357D01*
X251355262Y-92873881D01*
X251577881Y-92873881D01*
X251666929Y-92829357D01*
X251711452Y-92784833D01*
X251755976Y-92695786D01*
X251755976Y-92428643D01*
X251711452Y-92339595D01*
X251666929Y-92295071D01*
X44745976Y-108592643D02*
X43810976Y-108592643D01*
X43810976Y-108815262D01*
X43855500Y-108948834D01*
X43944548Y-109037881D01*
X44033595Y-109082405D01*
X44211690Y-109126929D01*
X44345262Y-109126929D01*
X44523357Y-109082405D01*
X44612405Y-109037881D01*
X44701452Y-108948834D01*
X44745976Y-108815262D01*
X44745976Y-108592643D01*
X43810976Y-109438595D02*
X43810976Y-110017405D01*
X44167167Y-109705738D01*
X44167167Y-109839310D01*
X44211690Y-109928357D01*
X44256214Y-109972881D01*
X44345262Y-110017405D01*
X44567881Y-110017405D01*
X44656929Y-109972881D01*
X44701452Y-109928357D01*
X44745976Y-109839310D01*
X44745976Y-109572167D01*
X44701452Y-109483119D01*
X44656929Y-109438595D01*
X44122643Y-110818833D02*
X44745976Y-110818833D01*
X43766452Y-110596214D02*
X44434310Y-110373595D01*
X44434310Y-110952405D01*
X65065976Y-108592643D02*
X64130976Y-108592643D01*
X64130976Y-108815262D01*
X64175500Y-108948834D01*
X64264548Y-109037881D01*
X64353595Y-109082405D01*
X64531690Y-109126929D01*
X64665262Y-109126929D01*
X64843357Y-109082405D01*
X64932405Y-109037881D01*
X65021452Y-108948834D01*
X65065976Y-108815262D01*
X65065976Y-108592643D01*
X64130976Y-109438595D02*
X64130976Y-110017405D01*
X64487167Y-109705738D01*
X64487167Y-109839310D01*
X64531690Y-109928357D01*
X64576214Y-109972881D01*
X64665262Y-110017405D01*
X64887881Y-110017405D01*
X64976929Y-109972881D01*
X65021452Y-109928357D01*
X65065976Y-109839310D01*
X65065976Y-109572167D01*
X65021452Y-109483119D01*
X64976929Y-109438595D01*
X64130976Y-110863357D02*
X64130976Y-110418119D01*
X64576214Y-110373595D01*
X64531690Y-110418119D01*
X64487167Y-110507167D01*
X64487167Y-110729786D01*
X64531690Y-110818833D01*
X64576214Y-110863357D01*
X64665262Y-110907881D01*
X64887881Y-110907881D01*
X64976929Y-110863357D01*
X65021452Y-110818833D01*
X65065976Y-110729786D01*
X65065976Y-110507167D01*
X65021452Y-110418119D01*
X64976929Y-110373595D01*
X84115976Y-108592643D02*
X83180976Y-108592643D01*
X83180976Y-108815262D01*
X83225500Y-108948834D01*
X83314548Y-109037881D01*
X83403595Y-109082405D01*
X83581690Y-109126929D01*
X83715262Y-109126929D01*
X83893357Y-109082405D01*
X83982405Y-109037881D01*
X84071452Y-108948834D01*
X84115976Y-108815262D01*
X84115976Y-108592643D01*
X83180976Y-109438595D02*
X83180976Y-110017405D01*
X83537167Y-109705738D01*
X83537167Y-109839310D01*
X83581690Y-109928357D01*
X83626214Y-109972881D01*
X83715262Y-110017405D01*
X83937881Y-110017405D01*
X84026929Y-109972881D01*
X84071452Y-109928357D01*
X84115976Y-109839310D01*
X84115976Y-109572167D01*
X84071452Y-109483119D01*
X84026929Y-109438595D01*
X83180976Y-110818833D02*
X83180976Y-110640738D01*
X83225500Y-110551690D01*
X83270024Y-110507167D01*
X83403595Y-110418119D01*
X83581690Y-110373595D01*
X83937881Y-110373595D01*
X84026929Y-110418119D01*
X84071452Y-110462643D01*
X84115976Y-110551690D01*
X84115976Y-110729786D01*
X84071452Y-110818833D01*
X84026929Y-110863357D01*
X83937881Y-110907881D01*
X83715262Y-110907881D01*
X83626214Y-110863357D01*
X83581690Y-110818833D01*
X83537167Y-110729786D01*
X83537167Y-110551690D01*
X83581690Y-110462643D01*
X83626214Y-110418119D01*
X83715262Y-110373595D01*
X153457976Y-109354643D02*
X152522976Y-109354643D01*
X152522976Y-109577262D01*
X152567500Y-109710834D01*
X152656548Y-109799881D01*
X152745595Y-109844405D01*
X152923690Y-109888929D01*
X153057262Y-109888929D01*
X153235357Y-109844405D01*
X153324405Y-109799881D01*
X153413452Y-109710834D01*
X153457976Y-109577262D01*
X153457976Y-109354643D01*
X152522976Y-110200595D02*
X152522976Y-110779405D01*
X152879167Y-110467738D01*
X152879167Y-110601310D01*
X152923690Y-110690357D01*
X152968214Y-110734881D01*
X153057262Y-110779405D01*
X153279881Y-110779405D01*
X153368929Y-110734881D01*
X153413452Y-110690357D01*
X153457976Y-110601310D01*
X153457976Y-110334167D01*
X153413452Y-110245119D01*
X153368929Y-110200595D01*
X152522976Y-111091071D02*
X152522976Y-111714405D01*
X153457976Y-111313690D01*
X224831976Y-109100643D02*
X223896976Y-109100643D01*
X223896976Y-109323262D01*
X223941500Y-109456834D01*
X224030548Y-109545881D01*
X224119595Y-109590405D01*
X224297690Y-109634929D01*
X224431262Y-109634929D01*
X224609357Y-109590405D01*
X224698405Y-109545881D01*
X224787452Y-109456834D01*
X224831976Y-109323262D01*
X224831976Y-109100643D01*
X223896976Y-109946595D02*
X223896976Y-110525405D01*
X224253167Y-110213738D01*
X224253167Y-110347310D01*
X224297690Y-110436357D01*
X224342214Y-110480881D01*
X224431262Y-110525405D01*
X224653881Y-110525405D01*
X224742929Y-110480881D01*
X224787452Y-110436357D01*
X224831976Y-110347310D01*
X224831976Y-110080167D01*
X224787452Y-109991119D01*
X224742929Y-109946595D01*
X224297690Y-111059690D02*
X224253167Y-110970643D01*
X224208643Y-110926119D01*
X224119595Y-110881595D01*
X224075071Y-110881595D01*
X223986024Y-110926119D01*
X223941500Y-110970643D01*
X223896976Y-111059690D01*
X223896976Y-111237786D01*
X223941500Y-111326833D01*
X223986024Y-111371357D01*
X224075071Y-111415881D01*
X224119595Y-111415881D01*
X224208643Y-111371357D01*
X224253167Y-111326833D01*
X224297690Y-111237786D01*
X224297690Y-111059690D01*
X224342214Y-110970643D01*
X224386738Y-110926119D01*
X224475786Y-110881595D01*
X224653881Y-110881595D01*
X224742929Y-110926119D01*
X224787452Y-110970643D01*
X224831976Y-111059690D01*
X224831976Y-111237786D01*
X224787452Y-111326833D01*
X224742929Y-111371357D01*
X224653881Y-111415881D01*
X224475786Y-111415881D01*
X224386738Y-111371357D01*
X224342214Y-111326833D01*
X224297690Y-111237786D01*
X249215976Y-109354643D02*
X248280976Y-109354643D01*
X248280976Y-109577262D01*
X248325500Y-109710834D01*
X248414548Y-109799881D01*
X248503595Y-109844405D01*
X248681690Y-109888929D01*
X248815262Y-109888929D01*
X248993357Y-109844405D01*
X249082405Y-109799881D01*
X249171452Y-109710834D01*
X249215976Y-109577262D01*
X249215976Y-109354643D01*
X248280976Y-110200595D02*
X248280976Y-110779405D01*
X248637167Y-110467738D01*
X248637167Y-110601310D01*
X248681690Y-110690357D01*
X248726214Y-110734881D01*
X248815262Y-110779405D01*
X249037881Y-110779405D01*
X249126929Y-110734881D01*
X249171452Y-110690357D01*
X249215976Y-110601310D01*
X249215976Y-110334167D01*
X249171452Y-110245119D01*
X249126929Y-110200595D01*
X249215976Y-111224643D02*
X249215976Y-111402738D01*
X249171452Y-111491786D01*
X249126929Y-111536310D01*
X248993357Y-111625357D01*
X248815262Y-111669881D01*
X248459071Y-111669881D01*
X248370024Y-111625357D01*
X248325500Y-111580833D01*
X248280976Y-111491786D01*
X248280976Y-111313690D01*
X248325500Y-111224643D01*
X248370024Y-111180119D01*
X248459071Y-111135595D01*
X248681690Y-111135595D01*
X248770738Y-111180119D01*
X248815262Y-111224643D01*
X248859786Y-111313690D01*
X248859786Y-111491786D01*
X248815262Y-111580833D01*
X248770738Y-111625357D01*
X248681690Y-111669881D01*
X251501976Y-52204643D02*
X250566976Y-52204643D01*
X250566976Y-52427262D01*
X250611500Y-52560834D01*
X250700548Y-52649881D01*
X250789595Y-52694405D01*
X250967690Y-52738929D01*
X251101262Y-52738929D01*
X251279357Y-52694405D01*
X251368405Y-52649881D01*
X251457452Y-52560834D01*
X251501976Y-52427262D01*
X251501976Y-52204643D01*
X250878643Y-53540357D02*
X251501976Y-53540357D01*
X250522452Y-53317738D02*
X251190310Y-53095119D01*
X251190310Y-53673929D01*
X250566976Y-54208214D02*
X250566976Y-54297262D01*
X250611500Y-54386310D01*
X250656024Y-54430833D01*
X250745071Y-54475357D01*
X250923167Y-54519881D01*
X251145786Y-54519881D01*
X251323881Y-54475357D01*
X251412929Y-54430833D01*
X251457452Y-54386310D01*
X251501976Y-54297262D01*
X251501976Y-54208214D01*
X251457452Y-54119167D01*
X251412929Y-54074643D01*
X251323881Y-54030119D01*
X251145786Y-53985595D01*
X250923167Y-53985595D01*
X250745071Y-54030119D01*
X250656024Y-54074643D01*
X250611500Y-54119167D01*
X250566976Y-54208214D01*
D16*
X126050524Y-112292191D02*
X124780524Y-112292191D01*
X125929571Y-113356572D02*
X125990048Y-113308191D01*
X126050524Y-113163048D01*
X126050524Y-113066286D01*
X125990048Y-112921144D01*
X125869095Y-112824382D01*
X125748143Y-112776001D01*
X125506238Y-112727620D01*
X125324810Y-112727620D01*
X125082905Y-112776001D01*
X124961952Y-112824382D01*
X124841000Y-112921144D01*
X124780524Y-113066286D01*
X124780524Y-113163048D01*
X124841000Y-113308191D01*
X124901476Y-113356572D01*
X126050524Y-114324191D02*
X126050524Y-113743620D01*
X126050524Y-114033906D02*
X124780524Y-114033906D01*
X124961952Y-113937144D01*
X125082905Y-113840382D01*
X125143381Y-113743620D01*
X123147667Y-108687810D02*
X123147667Y-109171619D01*
X123510524Y-108591048D02*
X122240524Y-108929715D01*
X123510524Y-109268381D01*
X122240524Y-109461905D02*
X122240524Y-110042476D01*
X123510524Y-109752191D02*
X122240524Y-109752191D01*
X123510524Y-110381143D02*
X122240524Y-110381143D01*
X123147667Y-110719809D01*
X122240524Y-111058476D01*
X123510524Y-111058476D01*
X122845286Y-111542286D02*
X122845286Y-111880952D01*
X123510524Y-112026095D02*
X123510524Y-111542286D01*
X122240524Y-111542286D01*
X122240524Y-112026095D01*
X122301000Y-112993714D02*
X122240524Y-112896952D01*
X122240524Y-112751809D01*
X122301000Y-112606667D01*
X122421952Y-112509905D01*
X122542905Y-112461524D01*
X122784810Y-112413143D01*
X122966238Y-112413143D01*
X123208143Y-112461524D01*
X123329095Y-112509905D01*
X123450048Y-112606667D01*
X123510524Y-112751809D01*
X123510524Y-112848571D01*
X123450048Y-112993714D01*
X123389571Y-113042095D01*
X122966238Y-113042095D01*
X122966238Y-112848571D01*
X123147667Y-113429143D02*
X123147667Y-113912952D01*
X123510524Y-113332381D02*
X122240524Y-113671048D01*
X123510524Y-114009714D01*
X122240524Y-114251619D02*
X122240524Y-114880571D01*
X122724333Y-114541905D01*
X122724333Y-114687047D01*
X122784810Y-114783809D01*
X122845286Y-114832190D01*
X122966238Y-114880571D01*
X123268619Y-114880571D01*
X123389571Y-114832190D01*
X123450048Y-114783809D01*
X123510524Y-114687047D01*
X123510524Y-114396762D01*
X123450048Y-114300000D01*
X123389571Y-114251619D01*
X122361476Y-115267619D02*
X122301000Y-115316000D01*
X122240524Y-115412762D01*
X122240524Y-115654666D01*
X122301000Y-115751428D01*
X122361476Y-115799809D01*
X122482429Y-115848190D01*
X122603381Y-115848190D01*
X122784810Y-115799809D01*
X123510524Y-115219238D01*
X123510524Y-115848190D01*
X122240524Y-116283619D02*
X123268619Y-116283619D01*
X123389571Y-116332000D01*
X123450048Y-116380381D01*
X123510524Y-116477143D01*
X123510524Y-116670666D01*
X123450048Y-116767428D01*
X123389571Y-116815809D01*
X123268619Y-116864190D01*
X122240524Y-116864190D01*
X122663857Y-117783428D02*
X123510524Y-117783428D01*
X122180048Y-117541524D02*
X123087190Y-117299619D01*
X123087190Y-117928571D01*
D20*
X56150933Y-54940684D02*
X56150933Y-55847827D01*
X56211409Y-56029255D01*
X56332361Y-56150208D01*
X56513790Y-56210684D01*
X56634742Y-56210684D01*
X54880933Y-56210684D02*
X55606647Y-56210684D01*
X55243790Y-56210684D02*
X55243790Y-54940684D01*
X55364742Y-55122112D01*
X55485695Y-55243065D01*
X55606647Y-55303541D01*
D12*
X71894381Y-51657334D02*
X71894381Y-51181143D01*
X70894381Y-51181143D01*
X71894381Y-52562096D02*
X71418190Y-52228762D01*
X71894381Y-51990667D02*
X70894381Y-51990667D01*
X70894381Y-52371620D01*
X70942000Y-52466858D01*
X70989619Y-52514477D01*
X71084857Y-52562096D01*
X71227714Y-52562096D01*
X71322952Y-52514477D01*
X71370571Y-52466858D01*
X71418190Y-52371620D01*
X71418190Y-51990667D01*
X71894381Y-53514477D02*
X71894381Y-52943048D01*
X71894381Y-53228762D02*
X70894381Y-53228762D01*
X71037238Y-53133524D01*
X71132476Y-53038286D01*
X71180095Y-52943048D01*
X109994381Y-51657334D02*
X109994381Y-51181143D01*
X108994381Y-51181143D01*
X109994381Y-52562096D02*
X109518190Y-52228762D01*
X109994381Y-51990667D02*
X108994381Y-51990667D01*
X108994381Y-52371620D01*
X109042000Y-52466858D01*
X109089619Y-52514477D01*
X109184857Y-52562096D01*
X109327714Y-52562096D01*
X109422952Y-52514477D01*
X109470571Y-52466858D01*
X109518190Y-52371620D01*
X109518190Y-51990667D01*
X109089619Y-52943048D02*
X109042000Y-52990667D01*
X108994381Y-53085905D01*
X108994381Y-53324001D01*
X109042000Y-53419239D01*
X109089619Y-53466858D01*
X109184857Y-53514477D01*
X109280095Y-53514477D01*
X109422952Y-53466858D01*
X109994381Y-52895429D01*
X109994381Y-53514477D01*
X128790381Y-51657334D02*
X128790381Y-51181143D01*
X127790381Y-51181143D01*
X128790381Y-52562096D02*
X128314190Y-52228762D01*
X128790381Y-51990667D02*
X127790381Y-51990667D01*
X127790381Y-52371620D01*
X127838000Y-52466858D01*
X127885619Y-52514477D01*
X127980857Y-52562096D01*
X128123714Y-52562096D01*
X128218952Y-52514477D01*
X128266571Y-52466858D01*
X128314190Y-52371620D01*
X128314190Y-51990667D01*
X127790381Y-52895429D02*
X127790381Y-53514477D01*
X128171333Y-53181143D01*
X128171333Y-53324001D01*
X128218952Y-53419239D01*
X128266571Y-53466858D01*
X128361810Y-53514477D01*
X128599905Y-53514477D01*
X128695143Y-53466858D01*
X128742762Y-53419239D01*
X128790381Y-53324001D01*
X128790381Y-53038286D01*
X128742762Y-52943048D01*
X128695143Y-52895429D01*
X147586381Y-51657334D02*
X147586381Y-51181143D01*
X146586381Y-51181143D01*
X147586381Y-52562096D02*
X147110190Y-52228762D01*
X147586381Y-51990667D02*
X146586381Y-51990667D01*
X146586381Y-52371620D01*
X146634000Y-52466858D01*
X146681619Y-52514477D01*
X146776857Y-52562096D01*
X146919714Y-52562096D01*
X147014952Y-52514477D01*
X147062571Y-52466858D01*
X147110190Y-52371620D01*
X147110190Y-51990667D01*
X146919714Y-53419239D02*
X147586381Y-53419239D01*
X146538762Y-53181143D02*
X147253048Y-52943048D01*
X147253048Y-53562096D01*
X166382381Y-51657334D02*
X166382381Y-51181143D01*
X165382381Y-51181143D01*
X166382381Y-52562096D02*
X165906190Y-52228762D01*
X166382381Y-51990667D02*
X165382381Y-51990667D01*
X165382381Y-52371620D01*
X165430000Y-52466858D01*
X165477619Y-52514477D01*
X165572857Y-52562096D01*
X165715714Y-52562096D01*
X165810952Y-52514477D01*
X165858571Y-52466858D01*
X165906190Y-52371620D01*
X165906190Y-51990667D01*
X165382381Y-53466858D02*
X165382381Y-52990667D01*
X165858571Y-52943048D01*
X165810952Y-52990667D01*
X165763333Y-53085905D01*
X165763333Y-53324001D01*
X165810952Y-53419239D01*
X165858571Y-53466858D01*
X165953810Y-53514477D01*
X166191905Y-53514477D01*
X166287143Y-53466858D01*
X166334762Y-53419239D01*
X166382381Y-53324001D01*
X166382381Y-53085905D01*
X166334762Y-52990667D01*
X166287143Y-52943048D01*
X185686381Y-51657334D02*
X185686381Y-51181143D01*
X184686381Y-51181143D01*
X185686381Y-52562096D02*
X185210190Y-52228762D01*
X185686381Y-51990667D02*
X184686381Y-51990667D01*
X184686381Y-52371620D01*
X184734000Y-52466858D01*
X184781619Y-52514477D01*
X184876857Y-52562096D01*
X185019714Y-52562096D01*
X185114952Y-52514477D01*
X185162571Y-52466858D01*
X185210190Y-52371620D01*
X185210190Y-51990667D01*
X184686381Y-53419239D02*
X184686381Y-53228762D01*
X184734000Y-53133524D01*
X184781619Y-53085905D01*
X184924476Y-52990667D01*
X185114952Y-52943048D01*
X185495905Y-52943048D01*
X185591143Y-52990667D01*
X185638762Y-53038286D01*
X185686381Y-53133524D01*
X185686381Y-53324001D01*
X185638762Y-53419239D01*
X185591143Y-53466858D01*
X185495905Y-53514477D01*
X185257810Y-53514477D01*
X185162571Y-53466858D01*
X185114952Y-53419239D01*
X185067333Y-53324001D01*
X185067333Y-53133524D01*
X185114952Y-53038286D01*
X185162571Y-52990667D01*
X185257810Y-52943048D01*
X204990381Y-52165334D02*
X204990381Y-51689143D01*
X203990381Y-51689143D01*
X204990381Y-53070096D02*
X204514190Y-52736762D01*
X204990381Y-52498667D02*
X203990381Y-52498667D01*
X203990381Y-52879620D01*
X204038000Y-52974858D01*
X204085619Y-53022477D01*
X204180857Y-53070096D01*
X204323714Y-53070096D01*
X204418952Y-53022477D01*
X204466571Y-52974858D01*
X204514190Y-52879620D01*
X204514190Y-52498667D01*
X203990381Y-53403429D02*
X203990381Y-54070096D01*
X204990381Y-53641524D01*
X223786381Y-52165334D02*
X223786381Y-51689143D01*
X222786381Y-51689143D01*
X223786381Y-53070096D02*
X223310190Y-52736762D01*
X223786381Y-52498667D02*
X222786381Y-52498667D01*
X222786381Y-52879620D01*
X222834000Y-52974858D01*
X222881619Y-53022477D01*
X222976857Y-53070096D01*
X223119714Y-53070096D01*
X223214952Y-53022477D01*
X223262571Y-52974858D01*
X223310190Y-52879620D01*
X223310190Y-52498667D01*
X223214952Y-53641524D02*
X223167333Y-53546286D01*
X223119714Y-53498667D01*
X223024476Y-53451048D01*
X222976857Y-53451048D01*
X222881619Y-53498667D01*
X222834000Y-53546286D01*
X222786381Y-53641524D01*
X222786381Y-53832001D01*
X222834000Y-53927239D01*
X222881619Y-53974858D01*
X222976857Y-54022477D01*
X223024476Y-54022477D01*
X223119714Y-53974858D01*
X223167333Y-53927239D01*
X223214952Y-53832001D01*
X223214952Y-53641524D01*
X223262571Y-53546286D01*
X223310190Y-53498667D01*
X223405429Y-53451048D01*
X223595905Y-53451048D01*
X223691143Y-53498667D01*
X223738762Y-53546286D01*
X223786381Y-53641524D01*
X223786381Y-53832001D01*
X223738762Y-53927239D01*
X223691143Y-53974858D01*
X223595905Y-54022477D01*
X223405429Y-54022477D01*
X223310190Y-53974858D01*
X223262571Y-53927239D01*
X223214952Y-53832001D01*
X242582381Y-52165334D02*
X242582381Y-51689143D01*
X241582381Y-51689143D01*
X242582381Y-53070096D02*
X242106190Y-52736762D01*
X242582381Y-52498667D02*
X241582381Y-52498667D01*
X241582381Y-52879620D01*
X241630000Y-52974858D01*
X241677619Y-53022477D01*
X241772857Y-53070096D01*
X241915714Y-53070096D01*
X242010952Y-53022477D01*
X242058571Y-52974858D01*
X242106190Y-52879620D01*
X242106190Y-52498667D01*
X242582381Y-53546286D02*
X242582381Y-53736762D01*
X242534762Y-53832001D01*
X242487143Y-53879620D01*
X242344286Y-53974858D01*
X242153810Y-54022477D01*
X241772857Y-54022477D01*
X241677619Y-53974858D01*
X241630000Y-53927239D01*
X241582381Y-53832001D01*
X241582381Y-53641524D01*
X241630000Y-53546286D01*
X241677619Y-53498667D01*
X241772857Y-53451048D01*
X242010952Y-53451048D01*
X242106190Y-53498667D01*
X242153810Y-53546286D01*
X242201429Y-53641524D01*
X242201429Y-53832001D01*
X242153810Y-53927239D01*
X242106190Y-53974858D01*
X242010952Y-54022477D01*
X261378381Y-51689143D02*
X261378381Y-51212952D01*
X260378381Y-51212952D01*
X261378381Y-52593905D02*
X260902190Y-52260571D01*
X261378381Y-52022476D02*
X260378381Y-52022476D01*
X260378381Y-52403429D01*
X260426000Y-52498667D01*
X260473619Y-52546286D01*
X260568857Y-52593905D01*
X260711714Y-52593905D01*
X260806952Y-52546286D01*
X260854571Y-52498667D01*
X260902190Y-52403429D01*
X260902190Y-52022476D01*
X261378381Y-53546286D02*
X261378381Y-52974857D01*
X261378381Y-53260571D02*
X260378381Y-53260571D01*
X260521238Y-53165333D01*
X260616476Y-53070095D01*
X260664095Y-52974857D01*
X260378381Y-54165333D02*
X260378381Y-54260572D01*
X260426000Y-54355810D01*
X260473619Y-54403429D01*
X260568857Y-54451048D01*
X260759333Y-54498667D01*
X260997429Y-54498667D01*
X261187905Y-54451048D01*
X261283143Y-54403429D01*
X261330762Y-54355810D01*
X261378381Y-54260572D01*
X261378381Y-54165333D01*
X261330762Y-54070095D01*
X261283143Y-54022476D01*
X261187905Y-53974857D01*
X260997429Y-53927238D01*
X260759333Y-53927238D01*
X260568857Y-53974857D01*
X260473619Y-54022476D01*
X260426000Y-54070095D01*
X260378381Y-54165333D01*
X51180857Y-73604381D02*
X51657048Y-73604381D01*
X51657048Y-72604381D01*
X50276095Y-73604381D02*
X50609429Y-73128190D01*
X50847524Y-73604381D02*
X50847524Y-72604381D01*
X50466571Y-72604381D01*
X50371333Y-72652000D01*
X50323714Y-72699619D01*
X50276095Y-72794857D01*
X50276095Y-72937714D01*
X50323714Y-73032952D01*
X50371333Y-73080571D01*
X50466571Y-73128190D01*
X50847524Y-73128190D01*
X49323714Y-73604381D02*
X49895143Y-73604381D01*
X49609429Y-73604381D02*
X49609429Y-72604381D01*
X49704667Y-72747238D01*
X49799905Y-72842476D01*
X49895143Y-72890095D01*
X48371333Y-73604381D02*
X48942762Y-73604381D01*
X48657048Y-73604381D02*
X48657048Y-72604381D01*
X48752286Y-72747238D01*
X48847524Y-72842476D01*
X48942762Y-72890095D01*
X40652381Y-51435143D02*
X40652381Y-50958952D01*
X39652381Y-50958952D01*
X40652381Y-52339905D02*
X40176190Y-52006571D01*
X40652381Y-51768476D02*
X39652381Y-51768476D01*
X39652381Y-52149429D01*
X39700000Y-52244667D01*
X39747619Y-52292286D01*
X39842857Y-52339905D01*
X39985714Y-52339905D01*
X40080952Y-52292286D01*
X40128571Y-52244667D01*
X40176190Y-52149429D01*
X40176190Y-51768476D01*
X40652381Y-53292286D02*
X40652381Y-52720857D01*
X40652381Y-53006571D02*
X39652381Y-53006571D01*
X39795238Y-52911333D01*
X39890476Y-52816095D01*
X39938095Y-52720857D01*
X39747619Y-53673238D02*
X39700000Y-53720857D01*
X39652381Y-53816095D01*
X39652381Y-54054191D01*
X39700000Y-54149429D01*
X39747619Y-54197048D01*
X39842857Y-54244667D01*
X39938095Y-54244667D01*
X40080952Y-54197048D01*
X40652381Y-53625619D01*
X40652381Y-54244667D01*
X90182381Y-51689143D02*
X90182381Y-51212952D01*
X89182381Y-51212952D01*
X90182381Y-52593905D02*
X89706190Y-52260571D01*
X90182381Y-52022476D02*
X89182381Y-52022476D01*
X89182381Y-52403429D01*
X89230000Y-52498667D01*
X89277619Y-52546286D01*
X89372857Y-52593905D01*
X89515714Y-52593905D01*
X89610952Y-52546286D01*
X89658571Y-52498667D01*
X89706190Y-52403429D01*
X89706190Y-52022476D01*
X90182381Y-53546286D02*
X90182381Y-52974857D01*
X90182381Y-53260571D02*
X89182381Y-53260571D01*
X89325238Y-53165333D01*
X89420476Y-53070095D01*
X89468095Y-52974857D01*
X89182381Y-53879619D02*
X89182381Y-54498667D01*
X89563333Y-54165333D01*
X89563333Y-54308191D01*
X89610952Y-54403429D01*
X89658571Y-54451048D01*
X89753810Y-54498667D01*
X89991905Y-54498667D01*
X90087143Y-54451048D01*
X90134762Y-54403429D01*
X90182381Y-54308191D01*
X90182381Y-54022476D01*
X90134762Y-53927238D01*
X90087143Y-53879619D01*
X76466381Y-70485143D02*
X76466381Y-70008952D01*
X75466381Y-70008952D01*
X76466381Y-71389905D02*
X75990190Y-71056571D01*
X76466381Y-70818476D02*
X75466381Y-70818476D01*
X75466381Y-71199429D01*
X75514000Y-71294667D01*
X75561619Y-71342286D01*
X75656857Y-71389905D01*
X75799714Y-71389905D01*
X75894952Y-71342286D01*
X75942571Y-71294667D01*
X75990190Y-71199429D01*
X75990190Y-70818476D01*
X76466381Y-72342286D02*
X76466381Y-71770857D01*
X76466381Y-72056571D02*
X75466381Y-72056571D01*
X75609238Y-71961333D01*
X75704476Y-71866095D01*
X75752095Y-71770857D01*
X75799714Y-73199429D02*
X76466381Y-73199429D01*
X75418762Y-72961333D02*
X76133048Y-72723238D01*
X76133048Y-73342286D01*
X95262381Y-70485143D02*
X95262381Y-70008952D01*
X94262381Y-70008952D01*
X95262381Y-71389905D02*
X94786190Y-71056571D01*
X95262381Y-70818476D02*
X94262381Y-70818476D01*
X94262381Y-71199429D01*
X94310000Y-71294667D01*
X94357619Y-71342286D01*
X94452857Y-71389905D01*
X94595714Y-71389905D01*
X94690952Y-71342286D01*
X94738571Y-71294667D01*
X94786190Y-71199429D01*
X94786190Y-70818476D01*
X95262381Y-72342286D02*
X95262381Y-71770857D01*
X95262381Y-72056571D02*
X94262381Y-72056571D01*
X94405238Y-71961333D01*
X94500476Y-71866095D01*
X94548095Y-71770857D01*
X94262381Y-73247048D02*
X94262381Y-72770857D01*
X94738571Y-72723238D01*
X94690952Y-72770857D01*
X94643333Y-72866095D01*
X94643333Y-73104191D01*
X94690952Y-73199429D01*
X94738571Y-73247048D01*
X94833810Y-73294667D01*
X95071905Y-73294667D01*
X95167143Y-73247048D01*
X95214762Y-73199429D01*
X95262381Y-73104191D01*
X95262381Y-72866095D01*
X95214762Y-72770857D01*
X95167143Y-72723238D01*
X114566381Y-70485143D02*
X114566381Y-70008952D01*
X113566381Y-70008952D01*
X114566381Y-71389905D02*
X114090190Y-71056571D01*
X114566381Y-70818476D02*
X113566381Y-70818476D01*
X113566381Y-71199429D01*
X113614000Y-71294667D01*
X113661619Y-71342286D01*
X113756857Y-71389905D01*
X113899714Y-71389905D01*
X113994952Y-71342286D01*
X114042571Y-71294667D01*
X114090190Y-71199429D01*
X114090190Y-70818476D01*
X114566381Y-72342286D02*
X114566381Y-71770857D01*
X114566381Y-72056571D02*
X113566381Y-72056571D01*
X113709238Y-71961333D01*
X113804476Y-71866095D01*
X113852095Y-71770857D01*
X113566381Y-73199429D02*
X113566381Y-73008952D01*
X113614000Y-72913714D01*
X113661619Y-72866095D01*
X113804476Y-72770857D01*
X113994952Y-72723238D01*
X114375905Y-72723238D01*
X114471143Y-72770857D01*
X114518762Y-72818476D01*
X114566381Y-72913714D01*
X114566381Y-73104191D01*
X114518762Y-73199429D01*
X114471143Y-73247048D01*
X114375905Y-73294667D01*
X114137810Y-73294667D01*
X114042571Y-73247048D01*
X113994952Y-73199429D01*
X113947333Y-73104191D01*
X113947333Y-72913714D01*
X113994952Y-72818476D01*
X114042571Y-72770857D01*
X114137810Y-72723238D01*
X133362381Y-70485143D02*
X133362381Y-70008952D01*
X132362381Y-70008952D01*
X133362381Y-71389905D02*
X132886190Y-71056571D01*
X133362381Y-70818476D02*
X132362381Y-70818476D01*
X132362381Y-71199429D01*
X132410000Y-71294667D01*
X132457619Y-71342286D01*
X132552857Y-71389905D01*
X132695714Y-71389905D01*
X132790952Y-71342286D01*
X132838571Y-71294667D01*
X132886190Y-71199429D01*
X132886190Y-70818476D01*
X133362381Y-72342286D02*
X133362381Y-71770857D01*
X133362381Y-72056571D02*
X132362381Y-72056571D01*
X132505238Y-71961333D01*
X132600476Y-71866095D01*
X132648095Y-71770857D01*
X132362381Y-72675619D02*
X132362381Y-73342286D01*
X133362381Y-72913714D01*
X152158381Y-70485143D02*
X152158381Y-70008952D01*
X151158381Y-70008952D01*
X152158381Y-71389905D02*
X151682190Y-71056571D01*
X152158381Y-70818476D02*
X151158381Y-70818476D01*
X151158381Y-71199429D01*
X151206000Y-71294667D01*
X151253619Y-71342286D01*
X151348857Y-71389905D01*
X151491714Y-71389905D01*
X151586952Y-71342286D01*
X151634571Y-71294667D01*
X151682190Y-71199429D01*
X151682190Y-70818476D01*
X152158381Y-72342286D02*
X152158381Y-71770857D01*
X152158381Y-72056571D02*
X151158381Y-72056571D01*
X151301238Y-71961333D01*
X151396476Y-71866095D01*
X151444095Y-71770857D01*
X151586952Y-72913714D02*
X151539333Y-72818476D01*
X151491714Y-72770857D01*
X151396476Y-72723238D01*
X151348857Y-72723238D01*
X151253619Y-72770857D01*
X151206000Y-72818476D01*
X151158381Y-72913714D01*
X151158381Y-73104191D01*
X151206000Y-73199429D01*
X151253619Y-73247048D01*
X151348857Y-73294667D01*
X151396476Y-73294667D01*
X151491714Y-73247048D01*
X151539333Y-73199429D01*
X151586952Y-73104191D01*
X151586952Y-72913714D01*
X151634571Y-72818476D01*
X151682190Y-72770857D01*
X151777429Y-72723238D01*
X151967905Y-72723238D01*
X152063143Y-72770857D01*
X152110762Y-72818476D01*
X152158381Y-72913714D01*
X152158381Y-73104191D01*
X152110762Y-73199429D01*
X152063143Y-73247048D01*
X151967905Y-73294667D01*
X151777429Y-73294667D01*
X151682190Y-73247048D01*
X151634571Y-73199429D01*
X151586952Y-73104191D01*
X171462381Y-70485143D02*
X171462381Y-70008952D01*
X170462381Y-70008952D01*
X171462381Y-71389905D02*
X170986190Y-71056571D01*
X171462381Y-70818476D02*
X170462381Y-70818476D01*
X170462381Y-71199429D01*
X170510000Y-71294667D01*
X170557619Y-71342286D01*
X170652857Y-71389905D01*
X170795714Y-71389905D01*
X170890952Y-71342286D01*
X170938571Y-71294667D01*
X170986190Y-71199429D01*
X170986190Y-70818476D01*
X171462381Y-72342286D02*
X171462381Y-71770857D01*
X171462381Y-72056571D02*
X170462381Y-72056571D01*
X170605238Y-71961333D01*
X170700476Y-71866095D01*
X170748095Y-71770857D01*
X171462381Y-72818476D02*
X171462381Y-73008952D01*
X171414762Y-73104191D01*
X171367143Y-73151810D01*
X171224286Y-73247048D01*
X171033810Y-73294667D01*
X170652857Y-73294667D01*
X170557619Y-73247048D01*
X170510000Y-73199429D01*
X170462381Y-73104191D01*
X170462381Y-72913714D01*
X170510000Y-72818476D01*
X170557619Y-72770857D01*
X170652857Y-72723238D01*
X170890952Y-72723238D01*
X170986190Y-72770857D01*
X171033810Y-72818476D01*
X171081429Y-72913714D01*
X171081429Y-73104191D01*
X171033810Y-73199429D01*
X170986190Y-73247048D01*
X170890952Y-73294667D01*
X190258381Y-70485143D02*
X190258381Y-70008952D01*
X189258381Y-70008952D01*
X190258381Y-71389905D02*
X189782190Y-71056571D01*
X190258381Y-70818476D02*
X189258381Y-70818476D01*
X189258381Y-71199429D01*
X189306000Y-71294667D01*
X189353619Y-71342286D01*
X189448857Y-71389905D01*
X189591714Y-71389905D01*
X189686952Y-71342286D01*
X189734571Y-71294667D01*
X189782190Y-71199429D01*
X189782190Y-70818476D01*
X189353619Y-71770857D02*
X189306000Y-71818476D01*
X189258381Y-71913714D01*
X189258381Y-72151810D01*
X189306000Y-72247048D01*
X189353619Y-72294667D01*
X189448857Y-72342286D01*
X189544095Y-72342286D01*
X189686952Y-72294667D01*
X190258381Y-71723238D01*
X190258381Y-72342286D01*
X189258381Y-72961333D02*
X189258381Y-73056572D01*
X189306000Y-73151810D01*
X189353619Y-73199429D01*
X189448857Y-73247048D01*
X189639333Y-73294667D01*
X189877429Y-73294667D01*
X190067905Y-73247048D01*
X190163143Y-73199429D01*
X190210762Y-73151810D01*
X190258381Y-73056572D01*
X190258381Y-72961333D01*
X190210762Y-72866095D01*
X190163143Y-72818476D01*
X190067905Y-72770857D01*
X189877429Y-72723238D01*
X189639333Y-72723238D01*
X189448857Y-72770857D01*
X189353619Y-72818476D01*
X189306000Y-72866095D01*
X189258381Y-72961333D01*
X209054381Y-70993143D02*
X209054381Y-70516952D01*
X208054381Y-70516952D01*
X209054381Y-71897905D02*
X208578190Y-71564571D01*
X209054381Y-71326476D02*
X208054381Y-71326476D01*
X208054381Y-71707429D01*
X208102000Y-71802667D01*
X208149619Y-71850286D01*
X208244857Y-71897905D01*
X208387714Y-71897905D01*
X208482952Y-71850286D01*
X208530571Y-71802667D01*
X208578190Y-71707429D01*
X208578190Y-71326476D01*
X208149619Y-72278857D02*
X208102000Y-72326476D01*
X208054381Y-72421714D01*
X208054381Y-72659810D01*
X208102000Y-72755048D01*
X208149619Y-72802667D01*
X208244857Y-72850286D01*
X208340095Y-72850286D01*
X208482952Y-72802667D01*
X209054381Y-72231238D01*
X209054381Y-72850286D01*
X209054381Y-73802667D02*
X209054381Y-73231238D01*
X209054381Y-73516952D02*
X208054381Y-73516952D01*
X208197238Y-73421714D01*
X208292476Y-73326476D01*
X208340095Y-73231238D01*
X228358381Y-70485143D02*
X228358381Y-70008952D01*
X227358381Y-70008952D01*
X228358381Y-71389905D02*
X227882190Y-71056571D01*
X228358381Y-70818476D02*
X227358381Y-70818476D01*
X227358381Y-71199429D01*
X227406000Y-71294667D01*
X227453619Y-71342286D01*
X227548857Y-71389905D01*
X227691714Y-71389905D01*
X227786952Y-71342286D01*
X227834571Y-71294667D01*
X227882190Y-71199429D01*
X227882190Y-70818476D01*
X227453619Y-71770857D02*
X227406000Y-71818476D01*
X227358381Y-71913714D01*
X227358381Y-72151810D01*
X227406000Y-72247048D01*
X227453619Y-72294667D01*
X227548857Y-72342286D01*
X227644095Y-72342286D01*
X227786952Y-72294667D01*
X228358381Y-71723238D01*
X228358381Y-72342286D01*
X227453619Y-72723238D02*
X227406000Y-72770857D01*
X227358381Y-72866095D01*
X227358381Y-73104191D01*
X227406000Y-73199429D01*
X227453619Y-73247048D01*
X227548857Y-73294667D01*
X227644095Y-73294667D01*
X227786952Y-73247048D01*
X228358381Y-72675619D01*
X228358381Y-73294667D01*
X254266381Y-70485143D02*
X254266381Y-70008952D01*
X253266381Y-70008952D01*
X254266381Y-71389905D02*
X253790190Y-71056571D01*
X254266381Y-70818476D02*
X253266381Y-70818476D01*
X253266381Y-71199429D01*
X253314000Y-71294667D01*
X253361619Y-71342286D01*
X253456857Y-71389905D01*
X253599714Y-71389905D01*
X253694952Y-71342286D01*
X253742571Y-71294667D01*
X253790190Y-71199429D01*
X253790190Y-70818476D01*
X253361619Y-71770857D02*
X253314000Y-71818476D01*
X253266381Y-71913714D01*
X253266381Y-72151810D01*
X253314000Y-72247048D01*
X253361619Y-72294667D01*
X253456857Y-72342286D01*
X253552095Y-72342286D01*
X253694952Y-72294667D01*
X254266381Y-71723238D01*
X254266381Y-72342286D01*
X253266381Y-72675619D02*
X253266381Y-73294667D01*
X253647333Y-72961333D01*
X253647333Y-73104191D01*
X253694952Y-73199429D01*
X253742571Y-73247048D01*
X253837810Y-73294667D01*
X254075905Y-73294667D01*
X254171143Y-73247048D01*
X254218762Y-73199429D01*
X254266381Y-73104191D01*
X254266381Y-72818476D01*
X254218762Y-72723238D01*
X254171143Y-72675619D01*
X53978381Y-88773143D02*
X53978381Y-88296952D01*
X52978381Y-88296952D01*
X53978381Y-89677905D02*
X53502190Y-89344571D01*
X53978381Y-89106476D02*
X52978381Y-89106476D01*
X52978381Y-89487429D01*
X53026000Y-89582667D01*
X53073619Y-89630286D01*
X53168857Y-89677905D01*
X53311714Y-89677905D01*
X53406952Y-89630286D01*
X53454571Y-89582667D01*
X53502190Y-89487429D01*
X53502190Y-89106476D01*
X53073619Y-90058857D02*
X53026000Y-90106476D01*
X52978381Y-90201714D01*
X52978381Y-90439810D01*
X53026000Y-90535048D01*
X53073619Y-90582667D01*
X53168857Y-90630286D01*
X53264095Y-90630286D01*
X53406952Y-90582667D01*
X53978381Y-90011238D01*
X53978381Y-90630286D01*
X53311714Y-91487429D02*
X53978381Y-91487429D01*
X52930762Y-91249333D02*
X53645048Y-91011238D01*
X53645048Y-91630286D01*
X85102381Y-89789143D02*
X85102381Y-89312952D01*
X84102381Y-89312952D01*
X85102381Y-90693905D02*
X84626190Y-90360571D01*
X85102381Y-90122476D02*
X84102381Y-90122476D01*
X84102381Y-90503429D01*
X84150000Y-90598667D01*
X84197619Y-90646286D01*
X84292857Y-90693905D01*
X84435714Y-90693905D01*
X84530952Y-90646286D01*
X84578571Y-90598667D01*
X84626190Y-90503429D01*
X84626190Y-90122476D01*
X84197619Y-91074857D02*
X84150000Y-91122476D01*
X84102381Y-91217714D01*
X84102381Y-91455810D01*
X84150000Y-91551048D01*
X84197619Y-91598667D01*
X84292857Y-91646286D01*
X84388095Y-91646286D01*
X84530952Y-91598667D01*
X85102381Y-91027238D01*
X85102381Y-91646286D01*
X84102381Y-92551048D02*
X84102381Y-92074857D01*
X84578571Y-92027238D01*
X84530952Y-92074857D01*
X84483333Y-92170095D01*
X84483333Y-92408191D01*
X84530952Y-92503429D01*
X84578571Y-92551048D01*
X84673810Y-92598667D01*
X84911905Y-92598667D01*
X85007143Y-92551048D01*
X85054762Y-92503429D01*
X85102381Y-92408191D01*
X85102381Y-92170095D01*
X85054762Y-92074857D01*
X85007143Y-92027238D01*
X92214381Y-89535143D02*
X92214381Y-89058952D01*
X91214381Y-89058952D01*
X92214381Y-90439905D02*
X91738190Y-90106571D01*
X92214381Y-89868476D02*
X91214381Y-89868476D01*
X91214381Y-90249429D01*
X91262000Y-90344667D01*
X91309619Y-90392286D01*
X91404857Y-90439905D01*
X91547714Y-90439905D01*
X91642952Y-90392286D01*
X91690571Y-90344667D01*
X91738190Y-90249429D01*
X91738190Y-89868476D01*
X91309619Y-90820857D02*
X91262000Y-90868476D01*
X91214381Y-90963714D01*
X91214381Y-91201810D01*
X91262000Y-91297048D01*
X91309619Y-91344667D01*
X91404857Y-91392286D01*
X91500095Y-91392286D01*
X91642952Y-91344667D01*
X92214381Y-90773238D01*
X92214381Y-91392286D01*
X91214381Y-92249429D02*
X91214381Y-92058952D01*
X91262000Y-91963714D01*
X91309619Y-91916095D01*
X91452476Y-91820857D01*
X91642952Y-91773238D01*
X92023905Y-91773238D01*
X92119143Y-91820857D01*
X92166762Y-91868476D01*
X92214381Y-91963714D01*
X92214381Y-92154191D01*
X92166762Y-92249429D01*
X92119143Y-92297048D01*
X92023905Y-92344667D01*
X91785810Y-92344667D01*
X91690571Y-92297048D01*
X91642952Y-92249429D01*
X91595333Y-92154191D01*
X91595333Y-91963714D01*
X91642952Y-91868476D01*
X91690571Y-91820857D01*
X91785810Y-91773238D01*
X122440381Y-89281143D02*
X122440381Y-88804952D01*
X121440381Y-88804952D01*
X122440381Y-90185905D02*
X121964190Y-89852571D01*
X122440381Y-89614476D02*
X121440381Y-89614476D01*
X121440381Y-89995429D01*
X121488000Y-90090667D01*
X121535619Y-90138286D01*
X121630857Y-90185905D01*
X121773714Y-90185905D01*
X121868952Y-90138286D01*
X121916571Y-90090667D01*
X121964190Y-89995429D01*
X121964190Y-89614476D01*
X121535619Y-90566857D02*
X121488000Y-90614476D01*
X121440381Y-90709714D01*
X121440381Y-90947810D01*
X121488000Y-91043048D01*
X121535619Y-91090667D01*
X121630857Y-91138286D01*
X121726095Y-91138286D01*
X121868952Y-91090667D01*
X122440381Y-90519238D01*
X122440381Y-91138286D01*
X121440381Y-91471619D02*
X121440381Y-92138286D01*
X122440381Y-91709714D01*
X143014381Y-89535143D02*
X143014381Y-89058952D01*
X142014381Y-89058952D01*
X143014381Y-90439905D02*
X142538190Y-90106571D01*
X143014381Y-89868476D02*
X142014381Y-89868476D01*
X142014381Y-90249429D01*
X142062000Y-90344667D01*
X142109619Y-90392286D01*
X142204857Y-90439905D01*
X142347714Y-90439905D01*
X142442952Y-90392286D01*
X142490571Y-90344667D01*
X142538190Y-90249429D01*
X142538190Y-89868476D01*
X142109619Y-90820857D02*
X142062000Y-90868476D01*
X142014381Y-90963714D01*
X142014381Y-91201810D01*
X142062000Y-91297048D01*
X142109619Y-91344667D01*
X142204857Y-91392286D01*
X142300095Y-91392286D01*
X142442952Y-91344667D01*
X143014381Y-90773238D01*
X143014381Y-91392286D01*
X142442952Y-91963714D02*
X142395333Y-91868476D01*
X142347714Y-91820857D01*
X142252476Y-91773238D01*
X142204857Y-91773238D01*
X142109619Y-91820857D01*
X142062000Y-91868476D01*
X142014381Y-91963714D01*
X142014381Y-92154191D01*
X142062000Y-92249429D01*
X142109619Y-92297048D01*
X142204857Y-92344667D01*
X142252476Y-92344667D01*
X142347714Y-92297048D01*
X142395333Y-92249429D01*
X142442952Y-92154191D01*
X142442952Y-91963714D01*
X142490571Y-91868476D01*
X142538190Y-91820857D01*
X142633429Y-91773238D01*
X142823905Y-91773238D01*
X142919143Y-91820857D01*
X142966762Y-91868476D01*
X143014381Y-91963714D01*
X143014381Y-92154191D01*
X142966762Y-92249429D01*
X142919143Y-92297048D01*
X142823905Y-92344667D01*
X142633429Y-92344667D01*
X142538190Y-92297048D01*
X142490571Y-92249429D01*
X142442952Y-92154191D01*
X162318381Y-88265143D02*
X162318381Y-87788952D01*
X161318381Y-87788952D01*
X162318381Y-89169905D02*
X161842190Y-88836571D01*
X162318381Y-88598476D02*
X161318381Y-88598476D01*
X161318381Y-88979429D01*
X161366000Y-89074667D01*
X161413619Y-89122286D01*
X161508857Y-89169905D01*
X161651714Y-89169905D01*
X161746952Y-89122286D01*
X161794571Y-89074667D01*
X161842190Y-88979429D01*
X161842190Y-88598476D01*
X161413619Y-89550857D02*
X161366000Y-89598476D01*
X161318381Y-89693714D01*
X161318381Y-89931810D01*
X161366000Y-90027048D01*
X161413619Y-90074667D01*
X161508857Y-90122286D01*
X161604095Y-90122286D01*
X161746952Y-90074667D01*
X162318381Y-89503238D01*
X162318381Y-90122286D01*
X162318381Y-90598476D02*
X162318381Y-90788952D01*
X162270762Y-90884191D01*
X162223143Y-90931810D01*
X162080286Y-91027048D01*
X161889810Y-91074667D01*
X161508857Y-91074667D01*
X161413619Y-91027048D01*
X161366000Y-90979429D01*
X161318381Y-90884191D01*
X161318381Y-90693714D01*
X161366000Y-90598476D01*
X161413619Y-90550857D01*
X161508857Y-90503238D01*
X161746952Y-90503238D01*
X161842190Y-90550857D01*
X161889810Y-90598476D01*
X161937429Y-90693714D01*
X161937429Y-90884191D01*
X161889810Y-90979429D01*
X161842190Y-91027048D01*
X161746952Y-91074667D01*
X180860381Y-89281143D02*
X180860381Y-88804952D01*
X179860381Y-88804952D01*
X180860381Y-90185905D02*
X180384190Y-89852571D01*
X180860381Y-89614476D02*
X179860381Y-89614476D01*
X179860381Y-89995429D01*
X179908000Y-90090667D01*
X179955619Y-90138286D01*
X180050857Y-90185905D01*
X180193714Y-90185905D01*
X180288952Y-90138286D01*
X180336571Y-90090667D01*
X180384190Y-89995429D01*
X180384190Y-89614476D01*
X179860381Y-90519238D02*
X179860381Y-91138286D01*
X180241333Y-90804952D01*
X180241333Y-90947810D01*
X180288952Y-91043048D01*
X180336571Y-91090667D01*
X180431810Y-91138286D01*
X180669905Y-91138286D01*
X180765143Y-91090667D01*
X180812762Y-91043048D01*
X180860381Y-90947810D01*
X180860381Y-90662095D01*
X180812762Y-90566857D01*
X180765143Y-90519238D01*
X179860381Y-91757333D02*
X179860381Y-91852572D01*
X179908000Y-91947810D01*
X179955619Y-91995429D01*
X180050857Y-92043048D01*
X180241333Y-92090667D01*
X180479429Y-92090667D01*
X180669905Y-92043048D01*
X180765143Y-91995429D01*
X180812762Y-91947810D01*
X180860381Y-91852572D01*
X180860381Y-91757333D01*
X180812762Y-91662095D01*
X180765143Y-91614476D01*
X180669905Y-91566857D01*
X180479429Y-91519238D01*
X180241333Y-91519238D01*
X180050857Y-91566857D01*
X179955619Y-91614476D01*
X179908000Y-91662095D01*
X179860381Y-91757333D01*
X200164381Y-89027143D02*
X200164381Y-88550952D01*
X199164381Y-88550952D01*
X200164381Y-89931905D02*
X199688190Y-89598571D01*
X200164381Y-89360476D02*
X199164381Y-89360476D01*
X199164381Y-89741429D01*
X199212000Y-89836667D01*
X199259619Y-89884286D01*
X199354857Y-89931905D01*
X199497714Y-89931905D01*
X199592952Y-89884286D01*
X199640571Y-89836667D01*
X199688190Y-89741429D01*
X199688190Y-89360476D01*
X199164381Y-90265238D02*
X199164381Y-90884286D01*
X199545333Y-90550952D01*
X199545333Y-90693810D01*
X199592952Y-90789048D01*
X199640571Y-90836667D01*
X199735810Y-90884286D01*
X199973905Y-90884286D01*
X200069143Y-90836667D01*
X200116762Y-90789048D01*
X200164381Y-90693810D01*
X200164381Y-90408095D01*
X200116762Y-90312857D01*
X200069143Y-90265238D01*
X200164381Y-91836667D02*
X200164381Y-91265238D01*
X200164381Y-91550952D02*
X199164381Y-91550952D01*
X199307238Y-91455714D01*
X199402476Y-91360476D01*
X199450095Y-91265238D01*
X206514381Y-89535143D02*
X206514381Y-89058952D01*
X205514381Y-89058952D01*
X206514381Y-90439905D02*
X206038190Y-90106571D01*
X206514381Y-89868476D02*
X205514381Y-89868476D01*
X205514381Y-90249429D01*
X205562000Y-90344667D01*
X205609619Y-90392286D01*
X205704857Y-90439905D01*
X205847714Y-90439905D01*
X205942952Y-90392286D01*
X205990571Y-90344667D01*
X206038190Y-90249429D01*
X206038190Y-89868476D01*
X205514381Y-90773238D02*
X205514381Y-91392286D01*
X205895333Y-91058952D01*
X205895333Y-91201810D01*
X205942952Y-91297048D01*
X205990571Y-91344667D01*
X206085810Y-91392286D01*
X206323905Y-91392286D01*
X206419143Y-91344667D01*
X206466762Y-91297048D01*
X206514381Y-91201810D01*
X206514381Y-90916095D01*
X206466762Y-90820857D01*
X206419143Y-90773238D01*
X205609619Y-91773238D02*
X205562000Y-91820857D01*
X205514381Y-91916095D01*
X205514381Y-92154191D01*
X205562000Y-92249429D01*
X205609619Y-92297048D01*
X205704857Y-92344667D01*
X205800095Y-92344667D01*
X205942952Y-92297048D01*
X206514381Y-91725619D01*
X206514381Y-92344667D01*
X239534381Y-89535143D02*
X239534381Y-89058952D01*
X238534381Y-89058952D01*
X239534381Y-90439905D02*
X239058190Y-90106571D01*
X239534381Y-89868476D02*
X238534381Y-89868476D01*
X238534381Y-90249429D01*
X238582000Y-90344667D01*
X238629619Y-90392286D01*
X238724857Y-90439905D01*
X238867714Y-90439905D01*
X238962952Y-90392286D01*
X239010571Y-90344667D01*
X239058190Y-90249429D01*
X239058190Y-89868476D01*
X238534381Y-90773238D02*
X238534381Y-91392286D01*
X238915333Y-91058952D01*
X238915333Y-91201810D01*
X238962952Y-91297048D01*
X239010571Y-91344667D01*
X239105810Y-91392286D01*
X239343905Y-91392286D01*
X239439143Y-91344667D01*
X239486762Y-91297048D01*
X239534381Y-91201810D01*
X239534381Y-90916095D01*
X239486762Y-90820857D01*
X239439143Y-90773238D01*
X238534381Y-91725619D02*
X238534381Y-92344667D01*
X238915333Y-92011333D01*
X238915333Y-92154191D01*
X238962952Y-92249429D01*
X239010571Y-92297048D01*
X239105810Y-92344667D01*
X239343905Y-92344667D01*
X239439143Y-92297048D01*
X239486762Y-92249429D01*
X239534381Y-92154191D01*
X239534381Y-91868476D01*
X239486762Y-91773238D01*
X239439143Y-91725619D01*
X251726381Y-85725143D02*
X251726381Y-85248952D01*
X250726381Y-85248952D01*
X251726381Y-86629905D02*
X251250190Y-86296571D01*
X251726381Y-86058476D02*
X250726381Y-86058476D01*
X250726381Y-86439429D01*
X250774000Y-86534667D01*
X250821619Y-86582286D01*
X250916857Y-86629905D01*
X251059714Y-86629905D01*
X251154952Y-86582286D01*
X251202571Y-86534667D01*
X251250190Y-86439429D01*
X251250190Y-86058476D01*
X250726381Y-86963238D02*
X250726381Y-87582286D01*
X251107333Y-87248952D01*
X251107333Y-87391810D01*
X251154952Y-87487048D01*
X251202571Y-87534667D01*
X251297810Y-87582286D01*
X251535905Y-87582286D01*
X251631143Y-87534667D01*
X251678762Y-87487048D01*
X251726381Y-87391810D01*
X251726381Y-87106095D01*
X251678762Y-87010857D01*
X251631143Y-86963238D01*
X251059714Y-88439429D02*
X251726381Y-88439429D01*
X250678762Y-88201333D02*
X251393048Y-87963238D01*
X251393048Y-88582286D01*
X48898381Y-108077143D02*
X48898381Y-107600952D01*
X47898381Y-107600952D01*
X48898381Y-108981905D02*
X48422190Y-108648571D01*
X48898381Y-108410476D02*
X47898381Y-108410476D01*
X47898381Y-108791429D01*
X47946000Y-108886667D01*
X47993619Y-108934286D01*
X48088857Y-108981905D01*
X48231714Y-108981905D01*
X48326952Y-108934286D01*
X48374571Y-108886667D01*
X48422190Y-108791429D01*
X48422190Y-108410476D01*
X47898381Y-109315238D02*
X47898381Y-109934286D01*
X48279333Y-109600952D01*
X48279333Y-109743810D01*
X48326952Y-109839048D01*
X48374571Y-109886667D01*
X48469810Y-109934286D01*
X48707905Y-109934286D01*
X48803143Y-109886667D01*
X48850762Y-109839048D01*
X48898381Y-109743810D01*
X48898381Y-109458095D01*
X48850762Y-109362857D01*
X48803143Y-109315238D01*
X47898381Y-110839048D02*
X47898381Y-110362857D01*
X48374571Y-110315238D01*
X48326952Y-110362857D01*
X48279333Y-110458095D01*
X48279333Y-110696191D01*
X48326952Y-110791429D01*
X48374571Y-110839048D01*
X48469810Y-110886667D01*
X48707905Y-110886667D01*
X48803143Y-110839048D01*
X48850762Y-110791429D01*
X48898381Y-110696191D01*
X48898381Y-110458095D01*
X48850762Y-110362857D01*
X48803143Y-110315238D01*
X76466381Y-108585143D02*
X76466381Y-108108952D01*
X75466381Y-108108952D01*
X76466381Y-109489905D02*
X75990190Y-109156571D01*
X76466381Y-108918476D02*
X75466381Y-108918476D01*
X75466381Y-109299429D01*
X75514000Y-109394667D01*
X75561619Y-109442286D01*
X75656857Y-109489905D01*
X75799714Y-109489905D01*
X75894952Y-109442286D01*
X75942571Y-109394667D01*
X75990190Y-109299429D01*
X75990190Y-108918476D01*
X75466381Y-109823238D02*
X75466381Y-110442286D01*
X75847333Y-110108952D01*
X75847333Y-110251810D01*
X75894952Y-110347048D01*
X75942571Y-110394667D01*
X76037810Y-110442286D01*
X76275905Y-110442286D01*
X76371143Y-110394667D01*
X76418762Y-110347048D01*
X76466381Y-110251810D01*
X76466381Y-109966095D01*
X76418762Y-109870857D01*
X76371143Y-109823238D01*
X75466381Y-111299429D02*
X75466381Y-111108952D01*
X75514000Y-111013714D01*
X75561619Y-110966095D01*
X75704476Y-110870857D01*
X75894952Y-110823238D01*
X76275905Y-110823238D01*
X76371143Y-110870857D01*
X76418762Y-110918476D01*
X76466381Y-111013714D01*
X76466381Y-111204191D01*
X76418762Y-111299429D01*
X76371143Y-111347048D01*
X76275905Y-111394667D01*
X76037810Y-111394667D01*
X75942571Y-111347048D01*
X75894952Y-111299429D01*
X75847333Y-111204191D01*
X75847333Y-111013714D01*
X75894952Y-110918476D01*
X75942571Y-110870857D01*
X76037810Y-110823238D01*
X95008381Y-108585143D02*
X95008381Y-108108952D01*
X94008381Y-108108952D01*
X95008381Y-109489905D02*
X94532190Y-109156571D01*
X95008381Y-108918476D02*
X94008381Y-108918476D01*
X94008381Y-109299429D01*
X94056000Y-109394667D01*
X94103619Y-109442286D01*
X94198857Y-109489905D01*
X94341714Y-109489905D01*
X94436952Y-109442286D01*
X94484571Y-109394667D01*
X94532190Y-109299429D01*
X94532190Y-108918476D01*
X94008381Y-109823238D02*
X94008381Y-110442286D01*
X94389333Y-110108952D01*
X94389333Y-110251810D01*
X94436952Y-110347048D01*
X94484571Y-110394667D01*
X94579810Y-110442286D01*
X94817905Y-110442286D01*
X94913143Y-110394667D01*
X94960762Y-110347048D01*
X95008381Y-110251810D01*
X95008381Y-109966095D01*
X94960762Y-109870857D01*
X94913143Y-109823238D01*
X94008381Y-110775619D02*
X94008381Y-111442286D01*
X95008381Y-111013714D01*
X163588381Y-108585143D02*
X163588381Y-108108952D01*
X162588381Y-108108952D01*
X163588381Y-109489905D02*
X163112190Y-109156571D01*
X163588381Y-108918476D02*
X162588381Y-108918476D01*
X162588381Y-109299429D01*
X162636000Y-109394667D01*
X162683619Y-109442286D01*
X162778857Y-109489905D01*
X162921714Y-109489905D01*
X163016952Y-109442286D01*
X163064571Y-109394667D01*
X163112190Y-109299429D01*
X163112190Y-108918476D01*
X162588381Y-109823238D02*
X162588381Y-110442286D01*
X162969333Y-110108952D01*
X162969333Y-110251810D01*
X163016952Y-110347048D01*
X163064571Y-110394667D01*
X163159810Y-110442286D01*
X163397905Y-110442286D01*
X163493143Y-110394667D01*
X163540762Y-110347048D01*
X163588381Y-110251810D01*
X163588381Y-109966095D01*
X163540762Y-109870857D01*
X163493143Y-109823238D01*
X163016952Y-111013714D02*
X162969333Y-110918476D01*
X162921714Y-110870857D01*
X162826476Y-110823238D01*
X162778857Y-110823238D01*
X162683619Y-110870857D01*
X162636000Y-110918476D01*
X162588381Y-111013714D01*
X162588381Y-111204191D01*
X162636000Y-111299429D01*
X162683619Y-111347048D01*
X162778857Y-111394667D01*
X162826476Y-111394667D01*
X162921714Y-111347048D01*
X162969333Y-111299429D01*
X163016952Y-111204191D01*
X163016952Y-111013714D01*
X163064571Y-110918476D01*
X163112190Y-110870857D01*
X163207429Y-110823238D01*
X163397905Y-110823238D01*
X163493143Y-110870857D01*
X163540762Y-110918476D01*
X163588381Y-111013714D01*
X163588381Y-111204191D01*
X163540762Y-111299429D01*
X163493143Y-111347048D01*
X163397905Y-111394667D01*
X163207429Y-111394667D01*
X163112190Y-111347048D01*
X163064571Y-111299429D01*
X163016952Y-111204191D01*
X235724381Y-108839143D02*
X235724381Y-108362952D01*
X234724381Y-108362952D01*
X235724381Y-109743905D02*
X235248190Y-109410571D01*
X235724381Y-109172476D02*
X234724381Y-109172476D01*
X234724381Y-109553429D01*
X234772000Y-109648667D01*
X234819619Y-109696286D01*
X234914857Y-109743905D01*
X235057714Y-109743905D01*
X235152952Y-109696286D01*
X235200571Y-109648667D01*
X235248190Y-109553429D01*
X235248190Y-109172476D01*
X234724381Y-110077238D02*
X234724381Y-110696286D01*
X235105333Y-110362952D01*
X235105333Y-110505810D01*
X235152952Y-110601048D01*
X235200571Y-110648667D01*
X235295810Y-110696286D01*
X235533905Y-110696286D01*
X235629143Y-110648667D01*
X235676762Y-110601048D01*
X235724381Y-110505810D01*
X235724381Y-110220095D01*
X235676762Y-110124857D01*
X235629143Y-110077238D01*
X235724381Y-111172476D02*
X235724381Y-111362952D01*
X235676762Y-111458191D01*
X235629143Y-111505810D01*
X235486286Y-111601048D01*
X235295810Y-111648667D01*
X234914857Y-111648667D01*
X234819619Y-111601048D01*
X234772000Y-111553429D01*
X234724381Y-111458191D01*
X234724381Y-111267714D01*
X234772000Y-111172476D01*
X234819619Y-111124857D01*
X234914857Y-111077238D01*
X235152952Y-111077238D01*
X235248190Y-111124857D01*
X235295810Y-111172476D01*
X235343429Y-111267714D01*
X235343429Y-111458191D01*
X235295810Y-111553429D01*
X235248190Y-111601048D01*
X235152952Y-111648667D01*
X257822381Y-108331143D02*
X257822381Y-107854952D01*
X256822381Y-107854952D01*
X257822381Y-109235905D02*
X257346190Y-108902571D01*
X257822381Y-108664476D02*
X256822381Y-108664476D01*
X256822381Y-109045429D01*
X256870000Y-109140667D01*
X256917619Y-109188286D01*
X257012857Y-109235905D01*
X257155714Y-109235905D01*
X257250952Y-109188286D01*
X257298571Y-109140667D01*
X257346190Y-109045429D01*
X257346190Y-108664476D01*
X257155714Y-110093048D02*
X257822381Y-110093048D01*
X256774762Y-109854952D02*
X257489048Y-109616857D01*
X257489048Y-110235905D01*
X256822381Y-110807333D02*
X256822381Y-110902572D01*
X256870000Y-110997810D01*
X256917619Y-111045429D01*
X257012857Y-111093048D01*
X257203333Y-111140667D01*
X257441429Y-111140667D01*
X257631905Y-111093048D01*
X257727143Y-111045429D01*
X257774762Y-110997810D01*
X257822381Y-110902572D01*
X257822381Y-110807333D01*
X257774762Y-110712095D01*
X257727143Y-110664476D01*
X257631905Y-110616857D01*
X257441429Y-110569238D01*
X257203333Y-110569238D01*
X257012857Y-110616857D01*
X256917619Y-110664476D01*
X256870000Y-110712095D01*
X256822381Y-110807333D01*
X98424857Y-65408381D02*
X98901048Y-65408381D01*
X98901048Y-64408381D01*
X97520095Y-65408381D02*
X97853429Y-64932190D01*
X98091524Y-65408381D02*
X98091524Y-64408381D01*
X97710571Y-64408381D01*
X97615333Y-64456000D01*
X97567714Y-64503619D01*
X97520095Y-64598857D01*
X97520095Y-64741714D01*
X97567714Y-64836952D01*
X97615333Y-64884571D01*
X97710571Y-64932190D01*
X98091524Y-64932190D01*
X96662952Y-64741714D02*
X96662952Y-65408381D01*
X96901048Y-64360762D02*
X97139143Y-65075048D01*
X96520095Y-65075048D01*
X95615333Y-65408381D02*
X96186762Y-65408381D01*
X95901048Y-65408381D02*
X95901048Y-64408381D01*
X95996286Y-64551238D01*
X96091524Y-64646476D01*
X96186762Y-64694095D01*
X230727238Y-67893619D02*
X230822476Y-67846000D01*
X230917714Y-67750762D01*
X231060571Y-67607905D01*
X231155810Y-67560286D01*
X231251048Y-67560286D01*
X231203429Y-67798381D02*
X231298667Y-67750762D01*
X231393905Y-67655524D01*
X231441524Y-67465048D01*
X231441524Y-67131714D01*
X231393905Y-66941238D01*
X231298667Y-66846000D01*
X231203429Y-66798381D01*
X231012952Y-66798381D01*
X230917714Y-66846000D01*
X230822476Y-66941238D01*
X230774857Y-67131714D01*
X230774857Y-67465048D01*
X230822476Y-67655524D01*
X230917714Y-67750762D01*
X231012952Y-67798381D01*
X231203429Y-67798381D01*
X229822476Y-67798381D02*
X230393905Y-67798381D01*
X230108191Y-67798381D02*
X230108191Y-66798381D01*
X230203429Y-66941238D01*
X230298667Y-67036476D01*
X230393905Y-67084095D01*
X54268666Y-61920381D02*
X54602000Y-61444190D01*
X54840095Y-61920381D02*
X54840095Y-60920381D01*
X54459142Y-60920381D01*
X54363904Y-60968000D01*
X54316285Y-61015619D01*
X54268666Y-61110857D01*
X54268666Y-61253714D01*
X54316285Y-61348952D01*
X54363904Y-61396571D01*
X54459142Y-61444190D01*
X54840095Y-61444190D01*
X53316285Y-61920381D02*
X53887714Y-61920381D01*
X53602000Y-61920381D02*
X53602000Y-60920381D01*
X53697238Y-61063238D01*
X53792476Y-61158476D01*
X53887714Y-61206095D01*
X51728666Y-61920381D02*
X52062000Y-61444190D01*
X52300095Y-61920381D02*
X52300095Y-60920381D01*
X51919142Y-60920381D01*
X51823904Y-60968000D01*
X51776285Y-61015619D01*
X51728666Y-61110857D01*
X51728666Y-61253714D01*
X51776285Y-61348952D01*
X51823904Y-61396571D01*
X51919142Y-61444190D01*
X52300095Y-61444190D01*
X51347714Y-61015619D02*
X51300095Y-60968000D01*
X51204857Y-60920381D01*
X50966761Y-60920381D01*
X50871523Y-60968000D01*
X50823904Y-61015619D01*
X50776285Y-61110857D01*
X50776285Y-61206095D01*
X50823904Y-61348952D01*
X51395333Y-61920381D01*
X50776285Y-61920381D01*
X115228666Y-117732381D02*
X115562000Y-117256190D01*
X115800095Y-117732381D02*
X115800095Y-116732381D01*
X115419142Y-116732381D01*
X115323904Y-116780000D01*
X115276285Y-116827619D01*
X115228666Y-116922857D01*
X115228666Y-117065714D01*
X115276285Y-117160952D01*
X115323904Y-117208571D01*
X115419142Y-117256190D01*
X115800095Y-117256190D01*
X114895333Y-116732381D02*
X114276285Y-116732381D01*
X114609619Y-117113333D01*
X114466761Y-117113333D01*
X114371523Y-117160952D01*
X114323904Y-117208571D01*
X114276285Y-117303810D01*
X114276285Y-117541905D01*
X114323904Y-117637143D01*
X114371523Y-117684762D01*
X114466761Y-117732381D01*
X114752476Y-117732381D01*
X114847714Y-117684762D01*
X114895333Y-117637143D01*
X230798666Y-78498381D02*
X231132000Y-78022190D01*
X231370095Y-78498381D02*
X231370095Y-77498381D01*
X230989142Y-77498381D01*
X230893904Y-77546000D01*
X230846285Y-77593619D01*
X230798666Y-77688857D01*
X230798666Y-77831714D01*
X230846285Y-77926952D01*
X230893904Y-77974571D01*
X230989142Y-78022190D01*
X231370095Y-78022190D01*
X229941523Y-77831714D02*
X229941523Y-78498381D01*
X230179619Y-77450762D02*
X230417714Y-78165048D01*
X229798666Y-78165048D01*
X133008666Y-103508381D02*
X133342000Y-103032190D01*
X133580095Y-103508381D02*
X133580095Y-102508381D01*
X133199142Y-102508381D01*
X133103904Y-102556000D01*
X133056285Y-102603619D01*
X133008666Y-102698857D01*
X133008666Y-102841714D01*
X133056285Y-102936952D01*
X133103904Y-102984571D01*
X133199142Y-103032190D01*
X133580095Y-103032190D01*
X132103904Y-102508381D02*
X132580095Y-102508381D01*
X132627714Y-102984571D01*
X132580095Y-102936952D01*
X132484857Y-102889333D01*
X132246761Y-102889333D01*
X132151523Y-102936952D01*
X132103904Y-102984571D01*
X132056285Y-103079810D01*
X132056285Y-103317905D01*
X132103904Y-103413143D01*
X132151523Y-103460762D01*
X132246761Y-103508381D01*
X132484857Y-103508381D01*
X132580095Y-103460762D01*
X132627714Y-103413143D01*
X106790809Y-70238381D02*
X107124143Y-69762190D01*
X107362238Y-70238381D02*
X107362238Y-69238381D01*
X106981285Y-69238381D01*
X106886047Y-69286000D01*
X106838428Y-69333619D01*
X106790809Y-69428857D01*
X106790809Y-69571714D01*
X106838428Y-69666952D01*
X106886047Y-69714571D01*
X106981285Y-69762190D01*
X107362238Y-69762190D01*
X105838428Y-69286000D02*
X105933666Y-69238381D01*
X106076523Y-69238381D01*
X106219381Y-69286000D01*
X106314619Y-69381238D01*
X106362238Y-69476476D01*
X106409857Y-69666952D01*
X106409857Y-69809810D01*
X106362238Y-70000286D01*
X106314619Y-70095524D01*
X106219381Y-70190762D01*
X106076523Y-70238381D01*
X105981285Y-70238381D01*
X105838428Y-70190762D01*
X105790809Y-70143143D01*
X105790809Y-69809810D01*
X105981285Y-69809810D01*
X105028904Y-69714571D02*
X104886047Y-69762190D01*
X104838428Y-69809810D01*
X104790809Y-69905048D01*
X104790809Y-70047905D01*
X104838428Y-70143143D01*
X104886047Y-70190762D01*
X104981285Y-70238381D01*
X105362238Y-70238381D01*
X105362238Y-69238381D01*
X105028904Y-69238381D01*
X104933666Y-69286000D01*
X104886047Y-69333619D01*
X104838428Y-69428857D01*
X104838428Y-69524095D01*
X104886047Y-69619333D01*
X104933666Y-69666952D01*
X105028904Y-69714571D01*
X105362238Y-69714571D01*
X103886047Y-70238381D02*
X104362238Y-70238381D01*
X104362238Y-69238381D01*
X103552714Y-69714571D02*
X103219380Y-69714571D01*
X103076523Y-70238381D02*
X103552714Y-70238381D01*
X103552714Y-69238381D01*
X103076523Y-69238381D01*
X102647952Y-70238381D02*
X102647952Y-69238381D01*
X102409857Y-69238381D01*
X102266999Y-69286000D01*
X102171761Y-69381238D01*
X102124142Y-69476476D01*
X102076523Y-69666952D01*
X102076523Y-69809810D01*
X102124142Y-70000286D01*
X102171761Y-70095524D01*
X102266999Y-70190762D01*
X102409857Y-70238381D01*
X102647952Y-70238381D01*
X101124142Y-70238381D02*
X101695571Y-70238381D01*
X101409857Y-70238381D02*
X101409857Y-69238381D01*
X101505095Y-69381238D01*
X101600333Y-69476476D01*
X101695571Y-69524095D01*
X69960809Y-70238381D02*
X70294143Y-69762190D01*
X70532238Y-70238381D02*
X70532238Y-69238381D01*
X70151285Y-69238381D01*
X70056047Y-69286000D01*
X70008428Y-69333619D01*
X69960809Y-69428857D01*
X69960809Y-69571714D01*
X70008428Y-69666952D01*
X70056047Y-69714571D01*
X70151285Y-69762190D01*
X70532238Y-69762190D01*
X69008428Y-69286000D02*
X69103666Y-69238381D01*
X69246523Y-69238381D01*
X69389381Y-69286000D01*
X69484619Y-69381238D01*
X69532238Y-69476476D01*
X69579857Y-69666952D01*
X69579857Y-69809810D01*
X69532238Y-70000286D01*
X69484619Y-70095524D01*
X69389381Y-70190762D01*
X69246523Y-70238381D01*
X69151285Y-70238381D01*
X69008428Y-70190762D01*
X68960809Y-70143143D01*
X68960809Y-69809810D01*
X69151285Y-69809810D01*
X68198904Y-69714571D02*
X68056047Y-69762190D01*
X68008428Y-69809810D01*
X67960809Y-69905048D01*
X67960809Y-70047905D01*
X68008428Y-70143143D01*
X68056047Y-70190762D01*
X68151285Y-70238381D01*
X68532238Y-70238381D01*
X68532238Y-69238381D01*
X68198904Y-69238381D01*
X68103666Y-69286000D01*
X68056047Y-69333619D01*
X68008428Y-69428857D01*
X68008428Y-69524095D01*
X68056047Y-69619333D01*
X68103666Y-69666952D01*
X68198904Y-69714571D01*
X68532238Y-69714571D01*
X67056047Y-70238381D02*
X67532238Y-70238381D01*
X67532238Y-69238381D01*
X66722714Y-69714571D02*
X66389380Y-69714571D01*
X66246523Y-70238381D02*
X66722714Y-70238381D01*
X66722714Y-69238381D01*
X66246523Y-69238381D01*
X65817952Y-70238381D02*
X65817952Y-69238381D01*
X65579857Y-69238381D01*
X65436999Y-69286000D01*
X65341761Y-69381238D01*
X65294142Y-69476476D01*
X65246523Y-69666952D01*
X65246523Y-69809810D01*
X65294142Y-70000286D01*
X65341761Y-70095524D01*
X65436999Y-70190762D01*
X65579857Y-70238381D01*
X65817952Y-70238381D01*
X64865571Y-69333619D02*
X64817952Y-69286000D01*
X64722714Y-69238381D01*
X64484618Y-69238381D01*
X64389380Y-69286000D01*
X64341761Y-69333619D01*
X64294142Y-69428857D01*
X64294142Y-69524095D01*
X64341761Y-69666952D01*
X64913190Y-70238381D01*
X64294142Y-70238381D01*
X142985809Y-70238381D02*
X143319143Y-69762190D01*
X143557238Y-70238381D02*
X143557238Y-69238381D01*
X143176285Y-69238381D01*
X143081047Y-69286000D01*
X143033428Y-69333619D01*
X142985809Y-69428857D01*
X142985809Y-69571714D01*
X143033428Y-69666952D01*
X143081047Y-69714571D01*
X143176285Y-69762190D01*
X143557238Y-69762190D01*
X142033428Y-69286000D02*
X142128666Y-69238381D01*
X142271523Y-69238381D01*
X142414381Y-69286000D01*
X142509619Y-69381238D01*
X142557238Y-69476476D01*
X142604857Y-69666952D01*
X142604857Y-69809810D01*
X142557238Y-70000286D01*
X142509619Y-70095524D01*
X142414381Y-70190762D01*
X142271523Y-70238381D01*
X142176285Y-70238381D01*
X142033428Y-70190762D01*
X141985809Y-70143143D01*
X141985809Y-69809810D01*
X142176285Y-69809810D01*
X141223904Y-69714571D02*
X141081047Y-69762190D01*
X141033428Y-69809810D01*
X140985809Y-69905048D01*
X140985809Y-70047905D01*
X141033428Y-70143143D01*
X141081047Y-70190762D01*
X141176285Y-70238381D01*
X141557238Y-70238381D01*
X141557238Y-69238381D01*
X141223904Y-69238381D01*
X141128666Y-69286000D01*
X141081047Y-69333619D01*
X141033428Y-69428857D01*
X141033428Y-69524095D01*
X141081047Y-69619333D01*
X141128666Y-69666952D01*
X141223904Y-69714571D01*
X141557238Y-69714571D01*
X140081047Y-70238381D02*
X140557238Y-70238381D01*
X140557238Y-69238381D01*
X139747714Y-69714571D02*
X139414380Y-69714571D01*
X139271523Y-70238381D02*
X139747714Y-70238381D01*
X139747714Y-69238381D01*
X139271523Y-69238381D01*
X138842952Y-70238381D02*
X138842952Y-69238381D01*
X138604857Y-69238381D01*
X138461999Y-69286000D01*
X138366761Y-69381238D01*
X138319142Y-69476476D01*
X138271523Y-69666952D01*
X138271523Y-69809810D01*
X138319142Y-70000286D01*
X138366761Y-70095524D01*
X138461999Y-70190762D01*
X138604857Y-70238381D01*
X138842952Y-70238381D01*
X137938190Y-69238381D02*
X137319142Y-69238381D01*
X137652476Y-69619333D01*
X137509618Y-69619333D01*
X137414380Y-69666952D01*
X137366761Y-69714571D01*
X137319142Y-69809810D01*
X137319142Y-70047905D01*
X137366761Y-70143143D01*
X137414380Y-70190762D01*
X137509618Y-70238381D01*
X137795333Y-70238381D01*
X137890571Y-70190762D01*
X137938190Y-70143143D01*
X182355809Y-70238381D02*
X182689143Y-69762190D01*
X182927238Y-70238381D02*
X182927238Y-69238381D01*
X182546285Y-69238381D01*
X182451047Y-69286000D01*
X182403428Y-69333619D01*
X182355809Y-69428857D01*
X182355809Y-69571714D01*
X182403428Y-69666952D01*
X182451047Y-69714571D01*
X182546285Y-69762190D01*
X182927238Y-69762190D01*
X181403428Y-69286000D02*
X181498666Y-69238381D01*
X181641523Y-69238381D01*
X181784381Y-69286000D01*
X181879619Y-69381238D01*
X181927238Y-69476476D01*
X181974857Y-69666952D01*
X181974857Y-69809810D01*
X181927238Y-70000286D01*
X181879619Y-70095524D01*
X181784381Y-70190762D01*
X181641523Y-70238381D01*
X181546285Y-70238381D01*
X181403428Y-70190762D01*
X181355809Y-70143143D01*
X181355809Y-69809810D01*
X181546285Y-69809810D01*
X180593904Y-69714571D02*
X180451047Y-69762190D01*
X180403428Y-69809810D01*
X180355809Y-69905048D01*
X180355809Y-70047905D01*
X180403428Y-70143143D01*
X180451047Y-70190762D01*
X180546285Y-70238381D01*
X180927238Y-70238381D01*
X180927238Y-69238381D01*
X180593904Y-69238381D01*
X180498666Y-69286000D01*
X180451047Y-69333619D01*
X180403428Y-69428857D01*
X180403428Y-69524095D01*
X180451047Y-69619333D01*
X180498666Y-69666952D01*
X180593904Y-69714571D01*
X180927238Y-69714571D01*
X179451047Y-70238381D02*
X179927238Y-70238381D01*
X179927238Y-69238381D01*
X179117714Y-69714571D02*
X178784380Y-69714571D01*
X178641523Y-70238381D02*
X179117714Y-70238381D01*
X179117714Y-69238381D01*
X178641523Y-69238381D01*
X178212952Y-70238381D02*
X178212952Y-69238381D01*
X177974857Y-69238381D01*
X177831999Y-69286000D01*
X177736761Y-69381238D01*
X177689142Y-69476476D01*
X177641523Y-69666952D01*
X177641523Y-69809810D01*
X177689142Y-70000286D01*
X177736761Y-70095524D01*
X177831999Y-70190762D01*
X177974857Y-70238381D01*
X178212952Y-70238381D01*
X176784380Y-69571714D02*
X176784380Y-70238381D01*
X177022476Y-69190762D02*
X177260571Y-69905048D01*
X176641523Y-69905048D01*
X223630809Y-70238381D02*
X223964143Y-69762190D01*
X224202238Y-70238381D02*
X224202238Y-69238381D01*
X223821285Y-69238381D01*
X223726047Y-69286000D01*
X223678428Y-69333619D01*
X223630809Y-69428857D01*
X223630809Y-69571714D01*
X223678428Y-69666952D01*
X223726047Y-69714571D01*
X223821285Y-69762190D01*
X224202238Y-69762190D01*
X222678428Y-69286000D02*
X222773666Y-69238381D01*
X222916523Y-69238381D01*
X223059381Y-69286000D01*
X223154619Y-69381238D01*
X223202238Y-69476476D01*
X223249857Y-69666952D01*
X223249857Y-69809810D01*
X223202238Y-70000286D01*
X223154619Y-70095524D01*
X223059381Y-70190762D01*
X222916523Y-70238381D01*
X222821285Y-70238381D01*
X222678428Y-70190762D01*
X222630809Y-70143143D01*
X222630809Y-69809810D01*
X222821285Y-69809810D01*
X221868904Y-69714571D02*
X221726047Y-69762190D01*
X221678428Y-69809810D01*
X221630809Y-69905048D01*
X221630809Y-70047905D01*
X221678428Y-70143143D01*
X221726047Y-70190762D01*
X221821285Y-70238381D01*
X222202238Y-70238381D01*
X222202238Y-69238381D01*
X221868904Y-69238381D01*
X221773666Y-69286000D01*
X221726047Y-69333619D01*
X221678428Y-69428857D01*
X221678428Y-69524095D01*
X221726047Y-69619333D01*
X221773666Y-69666952D01*
X221868904Y-69714571D01*
X222202238Y-69714571D01*
X220726047Y-70238381D02*
X221202238Y-70238381D01*
X221202238Y-69238381D01*
X220392714Y-69714571D02*
X220059380Y-69714571D01*
X219916523Y-70238381D02*
X220392714Y-70238381D01*
X220392714Y-69238381D01*
X219916523Y-69238381D01*
X219487952Y-70238381D02*
X219487952Y-69238381D01*
X219249857Y-69238381D01*
X219106999Y-69286000D01*
X219011761Y-69381238D01*
X218964142Y-69476476D01*
X218916523Y-69666952D01*
X218916523Y-69809810D01*
X218964142Y-70000286D01*
X219011761Y-70095524D01*
X219106999Y-70190762D01*
X219249857Y-70238381D01*
X219487952Y-70238381D01*
X218011761Y-69238381D02*
X218487952Y-69238381D01*
X218535571Y-69714571D01*
X218487952Y-69666952D01*
X218392714Y-69619333D01*
X218154618Y-69619333D01*
X218059380Y-69666952D01*
X218011761Y-69714571D01*
X217964142Y-69809810D01*
X217964142Y-70047905D01*
X218011761Y-70143143D01*
X218059380Y-70190762D01*
X218154618Y-70238381D01*
X218392714Y-70238381D01*
X218487952Y-70190762D01*
X218535571Y-70143143D01*
X263278381Y-83582191D02*
X262802190Y-83248857D01*
X263278381Y-83010762D02*
X262278381Y-83010762D01*
X262278381Y-83391715D01*
X262326000Y-83486953D01*
X262373619Y-83534572D01*
X262468857Y-83582191D01*
X262611714Y-83582191D01*
X262706952Y-83534572D01*
X262754571Y-83486953D01*
X262802190Y-83391715D01*
X262802190Y-83010762D01*
X262326000Y-84534572D02*
X262278381Y-84439334D01*
X262278381Y-84296477D01*
X262326000Y-84153619D01*
X262421238Y-84058381D01*
X262516476Y-84010762D01*
X262706952Y-83963143D01*
X262849810Y-83963143D01*
X263040286Y-84010762D01*
X263135524Y-84058381D01*
X263230762Y-84153619D01*
X263278381Y-84296477D01*
X263278381Y-84391715D01*
X263230762Y-84534572D01*
X263183143Y-84582191D01*
X262849810Y-84582191D01*
X262849810Y-84391715D01*
X262754571Y-85344096D02*
X262802190Y-85486953D01*
X262849810Y-85534572D01*
X262945048Y-85582191D01*
X263087905Y-85582191D01*
X263183143Y-85534572D01*
X263230762Y-85486953D01*
X263278381Y-85391715D01*
X263278381Y-85010762D01*
X262278381Y-85010762D01*
X262278381Y-85344096D01*
X262326000Y-85439334D01*
X262373619Y-85486953D01*
X262468857Y-85534572D01*
X262564095Y-85534572D01*
X262659333Y-85486953D01*
X262706952Y-85439334D01*
X262754571Y-85344096D01*
X262754571Y-85010762D01*
X263278381Y-86486953D02*
X263278381Y-86010762D01*
X262278381Y-86010762D01*
X262754571Y-86820286D02*
X262754571Y-87153620D01*
X263278381Y-87296477D02*
X263278381Y-86820286D01*
X262278381Y-86820286D01*
X262278381Y-87296477D01*
X263278381Y-87725048D02*
X262278381Y-87725048D01*
X262278381Y-87963143D01*
X262326000Y-88106001D01*
X262421238Y-88201239D01*
X262516476Y-88248858D01*
X262706952Y-88296477D01*
X262849810Y-88296477D01*
X263040286Y-88248858D01*
X263135524Y-88201239D01*
X263230762Y-88106001D01*
X263278381Y-87963143D01*
X263278381Y-87725048D01*
X262278381Y-89153620D02*
X262278381Y-88963143D01*
X262326000Y-88867905D01*
X262373619Y-88820286D01*
X262516476Y-88725048D01*
X262706952Y-88677429D01*
X263087905Y-88677429D01*
X263183143Y-88725048D01*
X263230762Y-88772667D01*
X263278381Y-88867905D01*
X263278381Y-89058382D01*
X263230762Y-89153620D01*
X263183143Y-89201239D01*
X263087905Y-89248858D01*
X262849810Y-89248858D01*
X262754571Y-89201239D01*
X262706952Y-89153620D01*
X262659333Y-89058382D01*
X262659333Y-88867905D01*
X262706952Y-88772667D01*
X262754571Y-88725048D01*
X262849810Y-88677429D01*
X217153809Y-102814381D02*
X217487143Y-102338190D01*
X217725238Y-102814381D02*
X217725238Y-101814381D01*
X217344285Y-101814381D01*
X217249047Y-101862000D01*
X217201428Y-101909619D01*
X217153809Y-102004857D01*
X217153809Y-102147714D01*
X217201428Y-102242952D01*
X217249047Y-102290571D01*
X217344285Y-102338190D01*
X217725238Y-102338190D01*
X216201428Y-101862000D02*
X216296666Y-101814381D01*
X216439523Y-101814381D01*
X216582381Y-101862000D01*
X216677619Y-101957238D01*
X216725238Y-102052476D01*
X216772857Y-102242952D01*
X216772857Y-102385810D01*
X216725238Y-102576286D01*
X216677619Y-102671524D01*
X216582381Y-102766762D01*
X216439523Y-102814381D01*
X216344285Y-102814381D01*
X216201428Y-102766762D01*
X216153809Y-102719143D01*
X216153809Y-102385810D01*
X216344285Y-102385810D01*
X215391904Y-102290571D02*
X215249047Y-102338190D01*
X215201428Y-102385810D01*
X215153809Y-102481048D01*
X215153809Y-102623905D01*
X215201428Y-102719143D01*
X215249047Y-102766762D01*
X215344285Y-102814381D01*
X215725238Y-102814381D01*
X215725238Y-101814381D01*
X215391904Y-101814381D01*
X215296666Y-101862000D01*
X215249047Y-101909619D01*
X215201428Y-102004857D01*
X215201428Y-102100095D01*
X215249047Y-102195333D01*
X215296666Y-102242952D01*
X215391904Y-102290571D01*
X215725238Y-102290571D01*
X214249047Y-102814381D02*
X214725238Y-102814381D01*
X214725238Y-101814381D01*
X213915714Y-102290571D02*
X213582380Y-102290571D01*
X213439523Y-102814381D02*
X213915714Y-102814381D01*
X213915714Y-101814381D01*
X213439523Y-101814381D01*
X213010952Y-102814381D02*
X213010952Y-101814381D01*
X212772857Y-101814381D01*
X212629999Y-101862000D01*
X212534761Y-101957238D01*
X212487142Y-102052476D01*
X212439523Y-102242952D01*
X212439523Y-102385810D01*
X212487142Y-102576286D01*
X212534761Y-102671524D01*
X212629999Y-102766762D01*
X212772857Y-102814381D01*
X213010952Y-102814381D01*
X212106190Y-101814381D02*
X211439523Y-101814381D01*
X211868095Y-102814381D01*
X181847809Y-108338381D02*
X182181143Y-107862190D01*
X182419238Y-108338381D02*
X182419238Y-107338381D01*
X182038285Y-107338381D01*
X181943047Y-107386000D01*
X181895428Y-107433619D01*
X181847809Y-107528857D01*
X181847809Y-107671714D01*
X181895428Y-107766952D01*
X181943047Y-107814571D01*
X182038285Y-107862190D01*
X182419238Y-107862190D01*
X180895428Y-107386000D02*
X180990666Y-107338381D01*
X181133523Y-107338381D01*
X181276381Y-107386000D01*
X181371619Y-107481238D01*
X181419238Y-107576476D01*
X181466857Y-107766952D01*
X181466857Y-107909810D01*
X181419238Y-108100286D01*
X181371619Y-108195524D01*
X181276381Y-108290762D01*
X181133523Y-108338381D01*
X181038285Y-108338381D01*
X180895428Y-108290762D01*
X180847809Y-108243143D01*
X180847809Y-107909810D01*
X181038285Y-107909810D01*
X180085904Y-107814571D02*
X179943047Y-107862190D01*
X179895428Y-107909810D01*
X179847809Y-108005048D01*
X179847809Y-108147905D01*
X179895428Y-108243143D01*
X179943047Y-108290762D01*
X180038285Y-108338381D01*
X180419238Y-108338381D01*
X180419238Y-107338381D01*
X180085904Y-107338381D01*
X179990666Y-107386000D01*
X179943047Y-107433619D01*
X179895428Y-107528857D01*
X179895428Y-107624095D01*
X179943047Y-107719333D01*
X179990666Y-107766952D01*
X180085904Y-107814571D01*
X180419238Y-107814571D01*
X178943047Y-108338381D02*
X179419238Y-108338381D01*
X179419238Y-107338381D01*
X178609714Y-107814571D02*
X178276380Y-107814571D01*
X178133523Y-108338381D02*
X178609714Y-108338381D01*
X178609714Y-107338381D01*
X178133523Y-107338381D01*
X177704952Y-108338381D02*
X177704952Y-107338381D01*
X177466857Y-107338381D01*
X177323999Y-107386000D01*
X177228761Y-107481238D01*
X177181142Y-107576476D01*
X177133523Y-107766952D01*
X177133523Y-107909810D01*
X177181142Y-108100286D01*
X177228761Y-108195524D01*
X177323999Y-108290762D01*
X177466857Y-108338381D01*
X177704952Y-108338381D01*
X176562095Y-107766952D02*
X176657333Y-107719333D01*
X176704952Y-107671714D01*
X176752571Y-107576476D01*
X176752571Y-107528857D01*
X176704952Y-107433619D01*
X176657333Y-107386000D01*
X176562095Y-107338381D01*
X176371618Y-107338381D01*
X176276380Y-107386000D01*
X176228761Y-107433619D01*
X176181142Y-107528857D01*
X176181142Y-107576476D01*
X176228761Y-107671714D01*
X176276380Y-107719333D01*
X176371618Y-107766952D01*
X176562095Y-107766952D01*
X176657333Y-107814571D01*
X176704952Y-107862190D01*
X176752571Y-107957429D01*
X176752571Y-108147905D01*
X176704952Y-108243143D01*
X176657333Y-108290762D01*
X176562095Y-108338381D01*
X176371618Y-108338381D01*
X176276380Y-108290762D01*
X176228761Y-108243143D01*
X176181142Y-108147905D01*
X176181142Y-107957429D01*
X176228761Y-107862190D01*
X176276380Y-107814571D01*
X176371618Y-107766952D01*
X149589809Y-108592381D02*
X149923143Y-108116190D01*
X150161238Y-108592381D02*
X150161238Y-107592381D01*
X149780285Y-107592381D01*
X149685047Y-107640000D01*
X149637428Y-107687619D01*
X149589809Y-107782857D01*
X149589809Y-107925714D01*
X149637428Y-108020952D01*
X149685047Y-108068571D01*
X149780285Y-108116190D01*
X150161238Y-108116190D01*
X148637428Y-107640000D02*
X148732666Y-107592381D01*
X148875523Y-107592381D01*
X149018381Y-107640000D01*
X149113619Y-107735238D01*
X149161238Y-107830476D01*
X149208857Y-108020952D01*
X149208857Y-108163810D01*
X149161238Y-108354286D01*
X149113619Y-108449524D01*
X149018381Y-108544762D01*
X148875523Y-108592381D01*
X148780285Y-108592381D01*
X148637428Y-108544762D01*
X148589809Y-108497143D01*
X148589809Y-108163810D01*
X148780285Y-108163810D01*
X147827904Y-108068571D02*
X147685047Y-108116190D01*
X147637428Y-108163810D01*
X147589809Y-108259048D01*
X147589809Y-108401905D01*
X147637428Y-108497143D01*
X147685047Y-108544762D01*
X147780285Y-108592381D01*
X148161238Y-108592381D01*
X148161238Y-107592381D01*
X147827904Y-107592381D01*
X147732666Y-107640000D01*
X147685047Y-107687619D01*
X147637428Y-107782857D01*
X147637428Y-107878095D01*
X147685047Y-107973333D01*
X147732666Y-108020952D01*
X147827904Y-108068571D01*
X148161238Y-108068571D01*
X146685047Y-108592381D02*
X147161238Y-108592381D01*
X147161238Y-107592381D01*
X146351714Y-108068571D02*
X146018380Y-108068571D01*
X145875523Y-108592381D02*
X146351714Y-108592381D01*
X146351714Y-107592381D01*
X145875523Y-107592381D01*
X145446952Y-108592381D02*
X145446952Y-107592381D01*
X145208857Y-107592381D01*
X145065999Y-107640000D01*
X144970761Y-107735238D01*
X144923142Y-107830476D01*
X144875523Y-108020952D01*
X144875523Y-108163810D01*
X144923142Y-108354286D01*
X144970761Y-108449524D01*
X145065999Y-108544762D01*
X145208857Y-108592381D01*
X145446952Y-108592381D01*
X144399333Y-108592381D02*
X144208857Y-108592381D01*
X144113618Y-108544762D01*
X144065999Y-108497143D01*
X143970761Y-108354286D01*
X143923142Y-108163810D01*
X143923142Y-107782857D01*
X143970761Y-107687619D01*
X144018380Y-107640000D01*
X144113618Y-107592381D01*
X144304095Y-107592381D01*
X144399333Y-107640000D01*
X144446952Y-107687619D01*
X144494571Y-107782857D01*
X144494571Y-108020952D01*
X144446952Y-108116190D01*
X144399333Y-108163810D01*
X144304095Y-108211429D01*
X144113618Y-108211429D01*
X144018380Y-108163810D01*
X143970761Y-108116190D01*
X143923142Y-108020952D01*
X101552000Y-108592381D02*
X101885334Y-108116190D01*
X102123429Y-108592381D02*
X102123429Y-107592381D01*
X101742476Y-107592381D01*
X101647238Y-107640000D01*
X101599619Y-107687619D01*
X101552000Y-107782857D01*
X101552000Y-107925714D01*
X101599619Y-108020952D01*
X101647238Y-108068571D01*
X101742476Y-108116190D01*
X102123429Y-108116190D01*
X100599619Y-107640000D02*
X100694857Y-107592381D01*
X100837714Y-107592381D01*
X100980572Y-107640000D01*
X101075810Y-107735238D01*
X101123429Y-107830476D01*
X101171048Y-108020952D01*
X101171048Y-108163810D01*
X101123429Y-108354286D01*
X101075810Y-108449524D01*
X100980572Y-108544762D01*
X100837714Y-108592381D01*
X100742476Y-108592381D01*
X100599619Y-108544762D01*
X100552000Y-108497143D01*
X100552000Y-108163810D01*
X100742476Y-108163810D01*
X99790095Y-108068571D02*
X99647238Y-108116190D01*
X99599619Y-108163810D01*
X99552000Y-108259048D01*
X99552000Y-108401905D01*
X99599619Y-108497143D01*
X99647238Y-108544762D01*
X99742476Y-108592381D01*
X100123429Y-108592381D01*
X100123429Y-107592381D01*
X99790095Y-107592381D01*
X99694857Y-107640000D01*
X99647238Y-107687619D01*
X99599619Y-107782857D01*
X99599619Y-107878095D01*
X99647238Y-107973333D01*
X99694857Y-108020952D01*
X99790095Y-108068571D01*
X100123429Y-108068571D01*
X98647238Y-108592381D02*
X99123429Y-108592381D01*
X99123429Y-107592381D01*
X98313905Y-108068571D02*
X97980571Y-108068571D01*
X97837714Y-108592381D02*
X98313905Y-108592381D01*
X98313905Y-107592381D01*
X97837714Y-107592381D01*
X97409143Y-108592381D02*
X97409143Y-107592381D01*
X97171048Y-107592381D01*
X97028190Y-107640000D01*
X96932952Y-107735238D01*
X96885333Y-107830476D01*
X96837714Y-108020952D01*
X96837714Y-108163810D01*
X96885333Y-108354286D01*
X96932952Y-108449524D01*
X97028190Y-108544762D01*
X97171048Y-108592381D01*
X97409143Y-108592381D01*
X95885333Y-108592381D02*
X96456762Y-108592381D01*
X96171048Y-108592381D02*
X96171048Y-107592381D01*
X96266286Y-107735238D01*
X96361524Y-107830476D01*
X96456762Y-107878095D01*
X95266286Y-107592381D02*
X95171047Y-107592381D01*
X95075809Y-107640000D01*
X95028190Y-107687619D01*
X94980571Y-107782857D01*
X94932952Y-107973333D01*
X94932952Y-108211429D01*
X94980571Y-108401905D01*
X95028190Y-108497143D01*
X95075809Y-108544762D01*
X95171047Y-108592381D01*
X95266286Y-108592381D01*
X95361524Y-108544762D01*
X95409143Y-108497143D01*
X95456762Y-108401905D01*
X95504381Y-108211429D01*
X95504381Y-107973333D01*
X95456762Y-107782857D01*
X95409143Y-107687619D01*
X95361524Y-107640000D01*
X95266286Y-107592381D01*
X71072000Y-107576381D02*
X71405334Y-107100190D01*
X71643429Y-107576381D02*
X71643429Y-106576381D01*
X71262476Y-106576381D01*
X71167238Y-106624000D01*
X71119619Y-106671619D01*
X71072000Y-106766857D01*
X71072000Y-106909714D01*
X71119619Y-107004952D01*
X71167238Y-107052571D01*
X71262476Y-107100190D01*
X71643429Y-107100190D01*
X70119619Y-106624000D02*
X70214857Y-106576381D01*
X70357714Y-106576381D01*
X70500572Y-106624000D01*
X70595810Y-106719238D01*
X70643429Y-106814476D01*
X70691048Y-107004952D01*
X70691048Y-107147810D01*
X70643429Y-107338286D01*
X70595810Y-107433524D01*
X70500572Y-107528762D01*
X70357714Y-107576381D01*
X70262476Y-107576381D01*
X70119619Y-107528762D01*
X70072000Y-107481143D01*
X70072000Y-107147810D01*
X70262476Y-107147810D01*
X69310095Y-107052571D02*
X69167238Y-107100190D01*
X69119619Y-107147810D01*
X69072000Y-107243048D01*
X69072000Y-107385905D01*
X69119619Y-107481143D01*
X69167238Y-107528762D01*
X69262476Y-107576381D01*
X69643429Y-107576381D01*
X69643429Y-106576381D01*
X69310095Y-106576381D01*
X69214857Y-106624000D01*
X69167238Y-106671619D01*
X69119619Y-106766857D01*
X69119619Y-106862095D01*
X69167238Y-106957333D01*
X69214857Y-107004952D01*
X69310095Y-107052571D01*
X69643429Y-107052571D01*
X68167238Y-107576381D02*
X68643429Y-107576381D01*
X68643429Y-106576381D01*
X67833905Y-107052571D02*
X67500571Y-107052571D01*
X67357714Y-107576381D02*
X67833905Y-107576381D01*
X67833905Y-106576381D01*
X67357714Y-106576381D01*
X66929143Y-107576381D02*
X66929143Y-106576381D01*
X66691048Y-106576381D01*
X66548190Y-106624000D01*
X66452952Y-106719238D01*
X66405333Y-106814476D01*
X66357714Y-107004952D01*
X66357714Y-107147810D01*
X66405333Y-107338286D01*
X66452952Y-107433524D01*
X66548190Y-107528762D01*
X66691048Y-107576381D01*
X66929143Y-107576381D01*
X65405333Y-107576381D02*
X65976762Y-107576381D01*
X65691048Y-107576381D02*
X65691048Y-106576381D01*
X65786286Y-106719238D01*
X65881524Y-106814476D01*
X65976762Y-106862095D01*
X64452952Y-107576381D02*
X65024381Y-107576381D01*
X64738667Y-107576381D02*
X64738667Y-106576381D01*
X64833905Y-106719238D01*
X64929143Y-106814476D01*
X65024381Y-106862095D01*
X42044381Y-87170000D02*
X41568190Y-86836666D01*
X42044381Y-86598571D02*
X41044381Y-86598571D01*
X41044381Y-86979524D01*
X41092000Y-87074762D01*
X41139619Y-87122381D01*
X41234857Y-87170000D01*
X41377714Y-87170000D01*
X41472952Y-87122381D01*
X41520571Y-87074762D01*
X41568190Y-86979524D01*
X41568190Y-86598571D01*
X41092000Y-88122381D02*
X41044381Y-88027143D01*
X41044381Y-87884286D01*
X41092000Y-87741428D01*
X41187238Y-87646190D01*
X41282476Y-87598571D01*
X41472952Y-87550952D01*
X41615810Y-87550952D01*
X41806286Y-87598571D01*
X41901524Y-87646190D01*
X41996762Y-87741428D01*
X42044381Y-87884286D01*
X42044381Y-87979524D01*
X41996762Y-88122381D01*
X41949143Y-88170000D01*
X41615810Y-88170000D01*
X41615810Y-87979524D01*
X41520571Y-88931905D02*
X41568190Y-89074762D01*
X41615810Y-89122381D01*
X41711048Y-89170000D01*
X41853905Y-89170000D01*
X41949143Y-89122381D01*
X41996762Y-89074762D01*
X42044381Y-88979524D01*
X42044381Y-88598571D01*
X41044381Y-88598571D01*
X41044381Y-88931905D01*
X41092000Y-89027143D01*
X41139619Y-89074762D01*
X41234857Y-89122381D01*
X41330095Y-89122381D01*
X41425333Y-89074762D01*
X41472952Y-89027143D01*
X41520571Y-88931905D01*
X41520571Y-88598571D01*
X42044381Y-90074762D02*
X42044381Y-89598571D01*
X41044381Y-89598571D01*
X41520571Y-90408095D02*
X41520571Y-90741429D01*
X42044381Y-90884286D02*
X42044381Y-90408095D01*
X41044381Y-90408095D01*
X41044381Y-90884286D01*
X42044381Y-91312857D02*
X41044381Y-91312857D01*
X41044381Y-91550952D01*
X41092000Y-91693810D01*
X41187238Y-91789048D01*
X41282476Y-91836667D01*
X41472952Y-91884286D01*
X41615810Y-91884286D01*
X41806286Y-91836667D01*
X41901524Y-91789048D01*
X41996762Y-91693810D01*
X42044381Y-91550952D01*
X42044381Y-91312857D01*
X42044381Y-92836667D02*
X42044381Y-92265238D01*
X42044381Y-92550952D02*
X41044381Y-92550952D01*
X41187238Y-92455714D01*
X41282476Y-92360476D01*
X41330095Y-92265238D01*
X41139619Y-93217619D02*
X41092000Y-93265238D01*
X41044381Y-93360476D01*
X41044381Y-93598572D01*
X41092000Y-93693810D01*
X41139619Y-93741429D01*
X41234857Y-93789048D01*
X41330095Y-93789048D01*
X41472952Y-93741429D01*
X42044381Y-93170000D01*
X42044381Y-93789048D01*
D15*
X228110143Y-93072857D02*
X227892429Y-93145429D01*
X227529572Y-93145429D01*
X227384429Y-93072857D01*
X227311858Y-93000286D01*
X227239286Y-92855143D01*
X227239286Y-92710000D01*
X227311858Y-92564857D01*
X227384429Y-92492286D01*
X227529572Y-92419714D01*
X227819858Y-92347143D01*
X227965000Y-92274571D01*
X228037572Y-92202000D01*
X228110143Y-92056857D01*
X228110143Y-91911714D01*
X228037572Y-91766571D01*
X227965000Y-91694000D01*
X227819858Y-91621429D01*
X227457000Y-91621429D01*
X227239286Y-91694000D01*
X226295857Y-91621429D02*
X226150714Y-91621429D01*
X226005571Y-91694000D01*
X225933000Y-91766571D01*
X225860429Y-91911714D01*
X225787857Y-92202000D01*
X225787857Y-92564857D01*
X225860429Y-92855143D01*
X225933000Y-93000286D01*
X226005571Y-93072857D01*
X226150714Y-93145429D01*
X226295857Y-93145429D01*
X226441000Y-93072857D01*
X226513571Y-93000286D01*
X226586143Y-92855143D01*
X226658714Y-92564857D01*
X226658714Y-92202000D01*
X226586143Y-91911714D01*
X226513571Y-91766571D01*
X226441000Y-91694000D01*
X226295857Y-91621429D01*
D12*
X132294381Y-110696476D02*
X133294381Y-111363143D01*
X132294381Y-111363143D02*
X133294381Y-110696476D01*
X133294381Y-112267905D02*
X133294381Y-111696476D01*
X133294381Y-111982190D02*
X132294381Y-111982190D01*
X132437238Y-111886952D01*
X132532476Y-111791714D01*
X132580095Y-111696476D01*
X62102952Y-49982429D02*
X61341047Y-49982429D01*
X61721999Y-50363381D02*
X61721999Y-49601476D01*
X100202952Y-49982429D02*
X99441047Y-49982429D01*
X99821999Y-50363381D02*
X99821999Y-49601476D01*
X119252952Y-49982429D02*
X118491047Y-49982429D01*
X118871999Y-50363381D02*
X118871999Y-49601476D01*
X138302952Y-49982429D02*
X137541047Y-49982429D01*
X137921999Y-50363381D02*
X137921999Y-49601476D01*
X157352952Y-49982429D02*
X156591047Y-49982429D01*
X156971999Y-50363381D02*
X156971999Y-49601476D01*
X176402952Y-49982429D02*
X175641047Y-49982429D01*
X176021999Y-50363381D02*
X176021999Y-49601476D01*
X195452952Y-49982429D02*
X194691047Y-49982429D01*
X195071999Y-50363381D02*
X195071999Y-49601476D01*
X214502952Y-49982429D02*
X213741047Y-49982429D01*
X214121999Y-50363381D02*
X214121999Y-49601476D01*
X233552952Y-49982429D02*
X232791047Y-49982429D01*
X233171999Y-50363381D02*
X233171999Y-49601476D01*
X252602952Y-49982429D02*
X251841047Y-49982429D01*
X252221999Y-50363381D02*
X252221999Y-49601476D01*
X45435472Y-69032429D02*
X44673567Y-69032429D01*
X45054519Y-69413381D02*
X45054519Y-68651476D01*
X43052952Y-49982429D02*
X42291047Y-49982429D01*
X42671999Y-50363381D02*
X42671999Y-49601476D01*
X81152952Y-49982429D02*
X80391047Y-49982429D01*
X80771999Y-50363381D02*
X80771999Y-49601476D01*
X66866722Y-69032429D02*
X66104817Y-69032429D01*
X66485769Y-69413381D02*
X66485769Y-68651476D01*
X85916722Y-69032429D02*
X85154817Y-69032429D01*
X85535769Y-69413381D02*
X85535769Y-68651476D01*
X104966722Y-69032429D02*
X104204817Y-69032429D01*
X104585769Y-69413381D02*
X104585769Y-68651476D01*
X124016722Y-69032429D02*
X123254817Y-69032429D01*
X123635769Y-69413381D02*
X123635769Y-68651476D01*
X143382952Y-69032429D02*
X142621047Y-69032429D01*
X143001999Y-69413381D02*
X143001999Y-68651476D01*
X162116722Y-69032429D02*
X161354817Y-69032429D01*
X161735769Y-69413381D02*
X161735769Y-68651476D01*
X181166722Y-69032429D02*
X180404817Y-69032429D01*
X180785769Y-69413381D02*
X180785769Y-68651476D01*
X200216722Y-69032429D02*
X199454817Y-69032429D01*
X199835769Y-69413381D02*
X199835769Y-68651476D01*
X219266722Y-69032429D02*
X218504817Y-69032429D01*
X218885769Y-69413381D02*
X218885769Y-68651476D01*
X245460472Y-69032429D02*
X244698567Y-69032429D01*
X245079519Y-69413381D02*
X245079519Y-68651476D01*
X50196702Y-88082429D02*
X49434797Y-88082429D01*
X49815749Y-88463381D02*
X49815749Y-87701476D01*
X76390452Y-88082429D02*
X75628547Y-88082429D01*
X76009499Y-88463381D02*
X76009499Y-87701476D01*
X95440452Y-88082429D02*
X94678547Y-88082429D01*
X95059499Y-88463381D02*
X95059499Y-87701476D01*
X114490452Y-88082429D02*
X113728547Y-88082429D01*
X114109499Y-88463381D02*
X114109499Y-87701476D01*
X133540452Y-88082429D02*
X132778547Y-88082429D01*
X133159499Y-88463381D02*
X133159499Y-87701476D01*
X152590452Y-88082429D02*
X151828547Y-88082429D01*
X152209499Y-88463381D02*
X152209499Y-87701476D01*
X171640452Y-88082429D02*
X170878547Y-88082429D01*
X171259499Y-88463381D02*
X171259499Y-87701476D01*
X190690452Y-88082429D02*
X189928547Y-88082429D01*
X190309499Y-88463381D02*
X190309499Y-87701476D01*
X209740452Y-88082429D02*
X208978547Y-88082429D01*
X209359499Y-88463381D02*
X209359499Y-87701476D01*
X231171702Y-88082429D02*
X230409797Y-88082429D01*
X230790749Y-88463381D02*
X230790749Y-87701476D01*
X252602952Y-88082429D02*
X251841047Y-88082429D01*
X252221999Y-88463381D02*
X252221999Y-87701476D01*
X45435472Y-107132429D02*
X44673567Y-107132429D01*
X45054519Y-107513381D02*
X45054519Y-106751476D01*
X66866722Y-107132429D02*
X66104817Y-107132429D01*
X66485769Y-107513381D02*
X66485769Y-106751476D01*
X85916722Y-107132429D02*
X85154817Y-107132429D01*
X85535769Y-107513381D02*
X85535769Y-106751476D01*
X154972972Y-107132429D02*
X154211067Y-107132429D01*
X154592019Y-107513381D02*
X154592019Y-106751476D01*
X226410472Y-107132429D02*
X225648567Y-107132429D01*
X226029519Y-107513381D02*
X226029519Y-106751476D01*
X250222972Y-107132429D02*
X249461067Y-107132429D01*
X249842019Y-107513381D02*
X249842019Y-106751476D01*
M02*
