G04 #@! TF.FileFunction,Soldermask,Bot*
%FSLAX46Y46*%
G04 Gerber Fmt 4.6, Leading zero omitted, Abs format (unit mm)*
G04 Created by KiCad (PCBNEW 4.0.1-stable) date 6/24/2016 3:23:24 PM*
%MOMM*%
G01*
G04 APERTURE LIST*
%ADD10C,0.100000*%
%ADD11R,1.650000X1.400000*%
%ADD12R,1.400000X1.650000*%
%ADD13R,1.797000X1.289000*%
%ADD14O,2.299920X0.806400*%
%ADD15O,0.806400X2.299920*%
%ADD16R,1.700000X1.100000*%
%ADD17R,1.100000X1.700000*%
%ADD18R,2.127200X2.127200*%
%ADD19O,2.127200X2.127200*%
%ADD20R,2.432000X2.127200*%
%ADD21O,2.432000X2.127200*%
%ADD22R,1.200100X1.200100*%
%ADD23R,1.924000X1.924000*%
%ADD24R,1.400000X3.500000*%
%ADD25C,4.380180*%
%ADD26O,2.784001X3.480000*%
%ADD27C,2.777011*%
%ADD28C,2.099260*%
%ADD29C,1.901140*%
%ADD30C,2.000200*%
%ADD31C,2.686000*%
%ADD32C,4.387800*%
%ADD33C,2.101800*%
%ADD34C,3.448000*%
%ADD35C,5.401260*%
G04 APERTURE END LIST*
D10*
D11*
X144018000Y-104918000D03*
X144018000Y-106918000D03*
X144018000Y-110982000D03*
X144018000Y-108982000D03*
D12*
X119110000Y-100330000D03*
X117110000Y-100330000D03*
D11*
X113538000Y-114538000D03*
X113538000Y-112538000D03*
X144018000Y-115046000D03*
X144018000Y-113046000D03*
X113538000Y-104378000D03*
X113538000Y-102378000D03*
X144018000Y-100854000D03*
X144018000Y-102854000D03*
D12*
X52054000Y-61722000D03*
X50054000Y-61722000D03*
D13*
X39878000Y-57721500D03*
X39878000Y-59626500D03*
X61722000Y-47561500D03*
X61722000Y-49466500D03*
X79502000Y-47561500D03*
X79502000Y-49466500D03*
X97790000Y-48069500D03*
X97790000Y-49974500D03*
X116586000Y-47561500D03*
X116586000Y-49466500D03*
X136906000Y-47561500D03*
X136906000Y-49466500D03*
X155702000Y-47561500D03*
X155702000Y-49466500D03*
X174498000Y-47561500D03*
X174498000Y-49466500D03*
X193802000Y-47561500D03*
X193802000Y-49466500D03*
X213106000Y-48069500D03*
X213106000Y-49974500D03*
X232410000Y-48069500D03*
X232410000Y-49974500D03*
X44958000Y-66357500D03*
X44958000Y-68262500D03*
X64770000Y-66865500D03*
X64770000Y-68770500D03*
X84582000Y-66865500D03*
X84582000Y-68770500D03*
X103886000Y-66865500D03*
X103886000Y-68770500D03*
X121666000Y-66865500D03*
X121666000Y-68770500D03*
X142494000Y-66865500D03*
X142494000Y-68770500D03*
X160274000Y-66865500D03*
X160274000Y-68770500D03*
X179070000Y-66357500D03*
X179070000Y-68262500D03*
X197866000Y-66357500D03*
X197866000Y-68262500D03*
X217678000Y-66865500D03*
X217678000Y-68770500D03*
X243078000Y-66357500D03*
X243078000Y-68262500D03*
X47498000Y-85661500D03*
X47498000Y-87566500D03*
X74422000Y-86169500D03*
X74422000Y-88074500D03*
X92710000Y-97980500D03*
X92710000Y-96075500D03*
X113538000Y-85407500D03*
X113538000Y-87312500D03*
X132080000Y-85407500D03*
X132080000Y-87312500D03*
X149860000Y-85153500D03*
X149860000Y-87058500D03*
X169418000Y-85153500D03*
X169418000Y-87058500D03*
X188722000Y-85407500D03*
X188722000Y-87312500D03*
X207010000Y-97980500D03*
X207010000Y-96075500D03*
X230378000Y-86169500D03*
X230378000Y-88074500D03*
X251968000Y-86423500D03*
X251968000Y-88328500D03*
X44958000Y-104457500D03*
X44958000Y-106362500D03*
X65278000Y-104457500D03*
X65278000Y-106362500D03*
X84328000Y-104457500D03*
X84328000Y-106362500D03*
X153670000Y-105219500D03*
X153670000Y-107124500D03*
X225044000Y-104965500D03*
X225044000Y-106870500D03*
X249428000Y-105219500D03*
X249428000Y-107124500D03*
X251714000Y-48069500D03*
X251714000Y-49974500D03*
D14*
X120777000Y-109474000D03*
X120777000Y-108673900D03*
X120777000Y-107873800D03*
X120777000Y-107073700D03*
X120777000Y-106273600D03*
X120777000Y-105473500D03*
X120777000Y-110274100D03*
X120777000Y-111074200D03*
X120777000Y-111874300D03*
X120777000Y-112674400D03*
X120777000Y-113474500D03*
X132207000Y-109474000D03*
X132207000Y-108673900D03*
X132207000Y-107873800D03*
X132207000Y-107073700D03*
X132207000Y-106273600D03*
X132207000Y-105473500D03*
X132207000Y-110274100D03*
X132207000Y-111074200D03*
X132207000Y-111874300D03*
X132207000Y-112674400D03*
X132207000Y-113474500D03*
D15*
X126492000Y-103759000D03*
X126492000Y-115189000D03*
X127292100Y-103759000D03*
X127292100Y-115189000D03*
X128092200Y-115189000D03*
X128092200Y-103759000D03*
X128892300Y-103759000D03*
X128892300Y-115189000D03*
X129692400Y-115189000D03*
X129692400Y-103759000D03*
X130492500Y-103759000D03*
X130492500Y-115189000D03*
X125691900Y-115189000D03*
X125691900Y-103759000D03*
X124891800Y-103759000D03*
X124891800Y-115189000D03*
X124091700Y-115189000D03*
X124091700Y-103759000D03*
X123291600Y-103759000D03*
X123291600Y-115189000D03*
X122491500Y-115189000D03*
X122491500Y-103759000D03*
D16*
X71882000Y-49464000D03*
X71882000Y-47564000D03*
X109982000Y-49464000D03*
X109982000Y-47564000D03*
X128778000Y-49464000D03*
X128778000Y-47564000D03*
X147574000Y-49464000D03*
X147574000Y-47564000D03*
X166370000Y-49464000D03*
X166370000Y-47564000D03*
X185674000Y-49464000D03*
X185674000Y-47564000D03*
X204978000Y-49972000D03*
X204978000Y-48072000D03*
X223774000Y-49972000D03*
X223774000Y-48072000D03*
X242570000Y-49972000D03*
X242570000Y-48072000D03*
X261366000Y-49972000D03*
X261366000Y-48072000D03*
X52578000Y-65852000D03*
X52578000Y-67752000D03*
X40640000Y-49718000D03*
X40640000Y-47818000D03*
X90170000Y-49972000D03*
X90170000Y-48072000D03*
X76454000Y-68768000D03*
X76454000Y-66868000D03*
X95250000Y-68768000D03*
X95250000Y-66868000D03*
X114554000Y-68768000D03*
X114554000Y-66868000D03*
X133350000Y-68768000D03*
X133350000Y-66868000D03*
X152146000Y-68768000D03*
X152146000Y-66868000D03*
X171450000Y-68768000D03*
X171450000Y-66868000D03*
X190246000Y-68768000D03*
X190246000Y-66868000D03*
X209042000Y-69276000D03*
X209042000Y-67376000D03*
X228346000Y-68768000D03*
X228346000Y-66868000D03*
X254254000Y-68768000D03*
X254254000Y-66868000D03*
X58166000Y-85156000D03*
X58166000Y-87056000D03*
X85090000Y-88072000D03*
X85090000Y-86172000D03*
X92202000Y-87818000D03*
X92202000Y-85918000D03*
X122428000Y-87564000D03*
X122428000Y-85664000D03*
X143002000Y-87818000D03*
X143002000Y-85918000D03*
X162306000Y-86548000D03*
X162306000Y-84648000D03*
X180848000Y-87564000D03*
X180848000Y-85664000D03*
X200152000Y-87310000D03*
X200152000Y-85410000D03*
X206502000Y-87818000D03*
X206502000Y-85918000D03*
X239522000Y-87818000D03*
X239522000Y-85918000D03*
X251714000Y-84008000D03*
X251714000Y-82108000D03*
X53086000Y-104460000D03*
X53086000Y-106360000D03*
X76454000Y-106868000D03*
X76454000Y-104968000D03*
X94996000Y-106868000D03*
X94996000Y-104968000D03*
X163576000Y-106868000D03*
X163576000Y-104968000D03*
X235712000Y-107122000D03*
X235712000Y-105222000D03*
X257810000Y-106614000D03*
X257810000Y-104714000D03*
D17*
X100772000Y-63246000D03*
X98872000Y-63246000D03*
D18*
X176530000Y-114046000D03*
D19*
X176530000Y-116586000D03*
X179070000Y-114046000D03*
X179070000Y-116586000D03*
X181610000Y-114046000D03*
X181610000Y-116586000D03*
D20*
X263652000Y-68326000D03*
D21*
X263652000Y-70866000D03*
X263652000Y-73406000D03*
X263652000Y-75946000D03*
D22*
X234122000Y-66786760D03*
X232222000Y-66786760D03*
X233172000Y-64787780D03*
D16*
X56642000Y-56068000D03*
X56642000Y-54168000D03*
X54102000Y-56068000D03*
X54102000Y-54168000D03*
D17*
X118552000Y-115570000D03*
X116652000Y-115570000D03*
X232222000Y-72136000D03*
X234122000Y-72136000D03*
X136332000Y-101346000D03*
X134432000Y-101346000D03*
D23*
X103477000Y-60676000D03*
X103477000Y-63276000D03*
X110137000Y-63276000D03*
X110137000Y-60676000D03*
X66647000Y-60676000D03*
X66647000Y-63276000D03*
X73307000Y-63276000D03*
X73307000Y-60676000D03*
X139672000Y-60676000D03*
X139672000Y-63276000D03*
X146332000Y-63276000D03*
X146332000Y-60676000D03*
X179042000Y-60676000D03*
X179042000Y-63276000D03*
X185702000Y-63276000D03*
X185702000Y-60676000D03*
X220317000Y-60676000D03*
X220317000Y-63276000D03*
X226977000Y-63276000D03*
X226977000Y-60676000D03*
X260066000Y-85626000D03*
X262666000Y-85626000D03*
X262666000Y-78966000D03*
X260066000Y-78966000D03*
X214094000Y-100808000D03*
X214094000Y-103408000D03*
X220754000Y-103408000D03*
X220754000Y-100808000D03*
X178534000Y-98776000D03*
X178534000Y-101376000D03*
X185194000Y-101376000D03*
X185194000Y-98776000D03*
X146276000Y-99030000D03*
X146276000Y-101630000D03*
X152936000Y-101630000D03*
X152936000Y-99030000D03*
X97762000Y-99030000D03*
X97762000Y-101630000D03*
X104422000Y-101630000D03*
X104422000Y-99030000D03*
X67282000Y-98014000D03*
X67282000Y-100614000D03*
X73942000Y-100614000D03*
X73942000Y-98014000D03*
X38832000Y-89690000D03*
X41432000Y-89690000D03*
X41432000Y-83030000D03*
X38832000Y-83030000D03*
D24*
X226283500Y-95636000D03*
X222283000Y-86736000D03*
X226281000Y-86736000D03*
X222283000Y-95636000D03*
D25*
X46482000Y-53086000D03*
D26*
X43962000Y-57876000D03*
D27*
X50292000Y-55626000D03*
D28*
X51562000Y-53086000D03*
X41402000Y-53086000D03*
D27*
X48982000Y-57086000D03*
D25*
X65532000Y-53086000D03*
D26*
X63012000Y-57876000D03*
D27*
X69342000Y-55626000D03*
D28*
X70612000Y-53086000D03*
X60452000Y-53086000D03*
D27*
X68032000Y-57086000D03*
D25*
X84582000Y-53086000D03*
D26*
X82062000Y-57876000D03*
D27*
X88392000Y-55626000D03*
D28*
X89662000Y-53086000D03*
X79502000Y-53086000D03*
D27*
X87082000Y-57086000D03*
D25*
X103632000Y-53086000D03*
D26*
X101112000Y-57876000D03*
D27*
X107442000Y-55626000D03*
D28*
X108712000Y-53086000D03*
X98552000Y-53086000D03*
D27*
X106132000Y-57086000D03*
D25*
X122682000Y-53086000D03*
D26*
X120162000Y-57876000D03*
D27*
X126492000Y-55626000D03*
D28*
X127762000Y-53086000D03*
X117602000Y-53086000D03*
D27*
X125182000Y-57086000D03*
D25*
X141732000Y-53086000D03*
D26*
X139212000Y-57876000D03*
D27*
X145542000Y-55626000D03*
D28*
X146812000Y-53086000D03*
X136652000Y-53086000D03*
D27*
X144232000Y-57086000D03*
D25*
X160782000Y-53086000D03*
D26*
X158262000Y-57876000D03*
D27*
X164592000Y-55626000D03*
D28*
X165862000Y-53086000D03*
X155702000Y-53086000D03*
D27*
X163282000Y-57086000D03*
D25*
X179832000Y-53086000D03*
D26*
X177312000Y-57876000D03*
D27*
X183642000Y-55626000D03*
D28*
X184912000Y-53086000D03*
X174752000Y-53086000D03*
D27*
X182332000Y-57086000D03*
D25*
X198882000Y-53086000D03*
D26*
X196362000Y-57876000D03*
D27*
X202692000Y-55626000D03*
D28*
X203962000Y-53086000D03*
X193802000Y-53086000D03*
D27*
X201382000Y-57086000D03*
D25*
X217932000Y-53086000D03*
D26*
X215412000Y-57876000D03*
D27*
X221742000Y-55626000D03*
D28*
X223012000Y-53086000D03*
X212852000Y-53086000D03*
D27*
X220432000Y-57086000D03*
D25*
X236982000Y-53086000D03*
D26*
X234462000Y-57876000D03*
D27*
X240792000Y-55626000D03*
D28*
X242062000Y-53086000D03*
X231902000Y-53086000D03*
D27*
X239482000Y-57086000D03*
D25*
X48864520Y-72136000D03*
D26*
X46344520Y-76926000D03*
D27*
X52674520Y-74676000D03*
D28*
X53944520Y-72136000D03*
X43784520Y-72136000D03*
D27*
X51364520Y-76136000D03*
D25*
X70295770Y-72136000D03*
D26*
X67775770Y-76926000D03*
D27*
X74105770Y-74676000D03*
D28*
X75375770Y-72136000D03*
X65215770Y-72136000D03*
D27*
X72795770Y-76136000D03*
D25*
X89345770Y-72136000D03*
D26*
X86825770Y-76926000D03*
D27*
X93155770Y-74676000D03*
D28*
X94425770Y-72136000D03*
X84265770Y-72136000D03*
D27*
X91845770Y-76136000D03*
D25*
X108395770Y-72136000D03*
D26*
X105875770Y-76926000D03*
D27*
X112205770Y-74676000D03*
D28*
X113475770Y-72136000D03*
X103315770Y-72136000D03*
D27*
X110895770Y-76136000D03*
D25*
X127445770Y-72136000D03*
D26*
X124925770Y-76926000D03*
D27*
X131255770Y-74676000D03*
D28*
X132525770Y-72136000D03*
X122365770Y-72136000D03*
D27*
X129945770Y-76136000D03*
D25*
X146495770Y-72136000D03*
D26*
X143975770Y-76926000D03*
D27*
X150305770Y-74676000D03*
D28*
X151575770Y-72136000D03*
X141415770Y-72136000D03*
D27*
X148995770Y-76136000D03*
D25*
X165545770Y-72136000D03*
D26*
X163025770Y-76926000D03*
D27*
X169355770Y-74676000D03*
D28*
X170625770Y-72136000D03*
X160465770Y-72136000D03*
D27*
X168045770Y-76136000D03*
D25*
X184595770Y-72136000D03*
D26*
X182075770Y-76926000D03*
D27*
X188405770Y-74676000D03*
D28*
X189675770Y-72136000D03*
X179515770Y-72136000D03*
D27*
X187095770Y-76136000D03*
D25*
X203645770Y-72136000D03*
D26*
X201125770Y-76926000D03*
D27*
X207455770Y-74676000D03*
D28*
X208725770Y-72136000D03*
X198565770Y-72136000D03*
D27*
X206145770Y-76136000D03*
D25*
X222695770Y-72136000D03*
D26*
X220175770Y-76926000D03*
D27*
X226505770Y-74676000D03*
D28*
X227775770Y-72136000D03*
X217615770Y-72136000D03*
D27*
X225195770Y-76136000D03*
D25*
X248889520Y-72136000D03*
D26*
X246369520Y-76926000D03*
D27*
X252699520Y-74676000D03*
D28*
X253969520Y-72136000D03*
X243809520Y-72136000D03*
D27*
X251389520Y-76136000D03*
D25*
X53625750Y-91186000D03*
D26*
X51105750Y-95976000D03*
D27*
X57435750Y-93726000D03*
D28*
X58705750Y-91186000D03*
X48545750Y-91186000D03*
D27*
X56125750Y-95186000D03*
D25*
X79819500Y-91186000D03*
D26*
X77299500Y-95976000D03*
D27*
X83629500Y-93726000D03*
D28*
X84899500Y-91186000D03*
X74739500Y-91186000D03*
D27*
X82319500Y-95186000D03*
D25*
X98869500Y-91186000D03*
D26*
X96349500Y-95976000D03*
D27*
X102679500Y-93726000D03*
D28*
X103949500Y-91186000D03*
X93789500Y-91186000D03*
D27*
X101369500Y-95186000D03*
D25*
X117919500Y-91186000D03*
D26*
X115399500Y-95976000D03*
D27*
X121729500Y-93726000D03*
D28*
X122999500Y-91186000D03*
X112839500Y-91186000D03*
D27*
X120419500Y-95186000D03*
D25*
X136969500Y-91186000D03*
D26*
X134449500Y-95976000D03*
D27*
X140779500Y-93726000D03*
D28*
X142049500Y-91186000D03*
X131889500Y-91186000D03*
D27*
X139469500Y-95186000D03*
D25*
X156019500Y-91186000D03*
D26*
X153499500Y-95976000D03*
D27*
X159829500Y-93726000D03*
D28*
X161099500Y-91186000D03*
X150939500Y-91186000D03*
D27*
X158519500Y-95186000D03*
D25*
X175069500Y-91186000D03*
D26*
X172549500Y-95976000D03*
D27*
X178879500Y-93726000D03*
D28*
X180149500Y-91186000D03*
X169989500Y-91186000D03*
D27*
X177569500Y-95186000D03*
D25*
X194119500Y-91186000D03*
D26*
X191599500Y-95976000D03*
D27*
X197929500Y-93726000D03*
D28*
X199199500Y-91186000D03*
X189039500Y-91186000D03*
D27*
X196619500Y-95186000D03*
D25*
X213169500Y-91186000D03*
D26*
X210649500Y-95976000D03*
D27*
X216979500Y-93726000D03*
D28*
X218249500Y-91186000D03*
X208089500Y-91186000D03*
D27*
X215669500Y-95186000D03*
D25*
X234600750Y-91186000D03*
D26*
X232080750Y-95976000D03*
D27*
X238410750Y-93726000D03*
D28*
X239680750Y-91186000D03*
X229520750Y-91186000D03*
D27*
X237100750Y-95186000D03*
D25*
X256032000Y-91186000D03*
D26*
X253512000Y-95976000D03*
D27*
X259842000Y-93726000D03*
D28*
X261112000Y-91186000D03*
X250952000Y-91186000D03*
D27*
X258532000Y-95186000D03*
D25*
X48864520Y-110236000D03*
D26*
X46344520Y-115026000D03*
D27*
X52674520Y-112776000D03*
D28*
X53944520Y-110236000D03*
X43784520Y-110236000D03*
D27*
X51364520Y-114236000D03*
D25*
X70295770Y-110236000D03*
D26*
X67775770Y-115026000D03*
D27*
X74105770Y-112776000D03*
D28*
X75375770Y-110236000D03*
X65215770Y-110236000D03*
D27*
X72795770Y-114236000D03*
D25*
X89345770Y-110236000D03*
D26*
X86825770Y-115026000D03*
D27*
X93155770Y-112776000D03*
D28*
X94425770Y-110236000D03*
X84265770Y-110236000D03*
D27*
X91845770Y-114236000D03*
D25*
X229839520Y-110236000D03*
D26*
X227319520Y-115026000D03*
D27*
X233649520Y-112776000D03*
D28*
X234919520Y-110236000D03*
X224759520Y-110236000D03*
D27*
X232339520Y-114236000D03*
D25*
X253652020Y-110236000D03*
D26*
X251132020Y-115026000D03*
D27*
X257462020Y-112776000D03*
D28*
X258732020Y-110236000D03*
X248572020Y-110236000D03*
D27*
X256152020Y-114236000D03*
D25*
X256032000Y-53086000D03*
D26*
X253512000Y-57876000D03*
D27*
X259842000Y-55626000D03*
D28*
X261112000Y-53086000D03*
X250952000Y-53086000D03*
D27*
X258532000Y-57086000D03*
D29*
X139192000Y-105255060D03*
X139192000Y-110136940D03*
D30*
X64262000Y-48006000D03*
X66802000Y-48006000D03*
X102362000Y-48006000D03*
X104902000Y-48006000D03*
X121412000Y-48006000D03*
X123952000Y-48006000D03*
X140462000Y-48006000D03*
X143002000Y-48006000D03*
X159512000Y-48006000D03*
X162052000Y-48006000D03*
X178562000Y-48006000D03*
X181102000Y-48006000D03*
X197612000Y-48006000D03*
X200152000Y-48006000D03*
X216662000Y-48006000D03*
X219202000Y-48006000D03*
X235712000Y-48006000D03*
X238252000Y-48006000D03*
X254762000Y-48006000D03*
X257302000Y-48006000D03*
X47594520Y-67056000D03*
X50134520Y-67056000D03*
X45212000Y-48006000D03*
X47752000Y-48006000D03*
X83312000Y-48006000D03*
X85852000Y-48006000D03*
X69025770Y-67056000D03*
X71565770Y-67056000D03*
X88075770Y-67056000D03*
X90615770Y-67056000D03*
X107125770Y-67056000D03*
X109665770Y-67056000D03*
X126175770Y-67056000D03*
X128715770Y-67056000D03*
X145542000Y-67056000D03*
X148082000Y-67056000D03*
X164275770Y-67056000D03*
X166815770Y-67056000D03*
X183325770Y-67056000D03*
X185865770Y-67056000D03*
X202375770Y-67056000D03*
X204915770Y-67056000D03*
X221425770Y-67056000D03*
X223965770Y-67056000D03*
X247619520Y-67056000D03*
X250159520Y-67056000D03*
X52355750Y-86106000D03*
X54895750Y-86106000D03*
X78549500Y-86106000D03*
X81089500Y-86106000D03*
X97599500Y-86106000D03*
X100139500Y-86106000D03*
X116649500Y-86106000D03*
X119189500Y-86106000D03*
X135699500Y-86106000D03*
X138239500Y-86106000D03*
X154749500Y-86106000D03*
X157289500Y-86106000D03*
X173799500Y-86106000D03*
X176339500Y-86106000D03*
X192849500Y-86106000D03*
X195389500Y-86106000D03*
X211899500Y-86106000D03*
X214439500Y-86106000D03*
X233330750Y-86106000D03*
X235870750Y-86106000D03*
X254762000Y-86106000D03*
X257302000Y-86106000D03*
X47594520Y-105156000D03*
X50134520Y-105156000D03*
X69025770Y-105156000D03*
X71565770Y-105156000D03*
X88075770Y-105156000D03*
X90615770Y-105156000D03*
X157132020Y-105156000D03*
X159672020Y-105156000D03*
X228569520Y-105156000D03*
X231109520Y-105156000D03*
X252382020Y-105156000D03*
X254922020Y-105156000D03*
D31*
X155862020Y-115316000D03*
X162212020Y-112776000D03*
D32*
X158402020Y-110236000D03*
D33*
X163482020Y-110236000D03*
X153322020Y-110236000D03*
D34*
X208440020Y-117221000D03*
X108364020Y-117221000D03*
D32*
X208440020Y-101981000D03*
X108364020Y-101981000D03*
D35*
X37592000Y-97028000D03*
X265684000Y-95504000D03*
X102362000Y-114300000D03*
X238760000Y-63754000D03*
X136906000Y-80010000D03*
M02*
