M48
;DRILL file {KiCad 4.0.1-stable} date 6/17/2016 11:41:15 PM
;FORMAT={-:-/ absolute / inch / decimal}
FMAT,2
INCH,TZ
T1C0.016
T2C0.031
T3C0.032
T4C0.032
T5C0.040
T6C0.059
T7C0.059
T8C0.059
T9C0.067
T10C0.067
T11C0.098
T12C0.120
T13C0.157
T14C0.157
%
G90
G05
M72
T1
X1.43Y-2.64
X1.56Y-4.38
X1.61Y-4.04
X1.73Y-3.43
X1.93Y-2.5
X1.9494Y-2.58
X1.97Y-2.74
X2.Y-4.25
X2.05Y-4.07
X2.12Y-3.25
X2.19Y-2.31
X2.19Y-2.5
X2.21Y-3.4
X2.23Y-3.36
X2.24Y-2.3
X2.24Y-2.59
X2.25Y-1.95
X2.29Y-2.81
X2.31Y-3.49
X2.33Y-2.89
X2.33Y-4.21
X2.39Y-4.8
X2.4Y-2.54
X2.42Y-4.76
X2.44Y-4.14
X2.48Y-2.69
X2.6Y-2.61
X2.63Y-4.05
X2.7861Y-2.5388
X2.8111Y-4.1112
X2.89Y-2.58
X2.97Y-2.69
X2.97Y-4.18
X3.Y-3.27
X3.23Y-4.25
X3.25Y-3.54
X3.25Y-3.6174
X3.34Y-3.71
X3.44Y-2.04
X3.53Y-1.94
X3.53Y-3.61
X3.67Y-4.21
X3.69Y-3.8
X3.72Y-2.69
X3.7489Y-4.0288
X3.8Y-4.75
X3.97Y-4.86
X3.99Y-4.31
X4.Y-3.47
X4.Y-4.36
X4.01Y-4.12
X4.03Y-4.3
X4.03Y-4.8
X4.04Y-3.61
X4.07Y-4.43
X4.1Y-2.69
X4.1Y-4.42
X4.11Y-3.54
X4.16Y-4.56
X4.17Y-4.43
X4.17Y-4.61
X4.23Y-2.0974
X4.23Y-2.54
X4.23Y-2.64
X4.29Y-3.36
X4.29Y-4.46
X4.3Y-4.39
X4.3Y-4.43
X4.32Y-4.61
X4.32Y-4.71
X4.36Y-3.51
X4.37Y-4.1806
X4.37Y-4.26
X4.37Y-4.6594
X4.41Y-4.54
X4.46Y-4.72
X4.47Y-4.37
X4.48Y-2.69
X4.48Y-4.19
X4.5Y-4.52
X4.51Y-2.65
X4.51Y-3.87
X4.51Y-4.1
X4.54Y-3.36
X4.56Y-3.91
X4.57Y-2.72
X4.59Y-4.1
X4.61Y-4.16
X4.69Y-4.09
X4.69Y-4.15
X4.7Y-4.02
X4.71Y-3.19
X4.71Y-3.31
X4.72Y-3.53
X4.76Y-3.88
X4.79Y-3.4
X4.83Y-3.44
X4.85Y-3.65
X4.85Y-3.98
X4.87Y-4.06
X4.88Y-4.02
X4.88Y-4.58
X4.9Y-3.95
X4.91Y-4.46
X4.93Y-3.37
X4.93Y-3.46
X4.93Y-3.91
X4.95Y-4.43
X4.96Y-4.37
X4.97Y-2.1
X4.98Y-3.61
X4.98Y-3.9
X4.98Y-4.57
X4.99Y-3.71
X5.02Y-3.87
X5.02Y-4.02
X5.03Y-3.36
X5.03Y-3.5
X5.03Y-4.4
X5.04Y-3.95
X5.06Y-3.79
X5.08Y-4.05
X5.11Y-4.08
X5.13Y-3.81
X5.18Y-3.61
X5.19Y-3.14
X5.1926Y-4.14
X5.2Y-3.81
X5.25Y-2.62
X5.26Y-3.88
X5.31Y-3.92
X5.35Y-2.58
X5.36Y-3.65
X5.41Y-2.71
X5.4169Y-4.1154
X5.45Y-4.62
X5.48Y-4.04
X5.51Y-4.57
X5.52Y-4.53
X5.56Y-4.11
X5.61Y-3.64
X5.64Y-3.46
X5.67Y-2.54
X5.67Y-2.65
X5.69Y-4.02
X5.71Y-3.97
X5.72Y-2.1
X5.78Y-3.98
X5.9Y-3.6
X5.93Y-4.75
X5.96Y-3.06
X5.96Y-3.81
X5.98Y-4.11
X6.06Y-4.1
X6.24Y-3.4
X6.31Y-3.76
X6.32Y-2.92
X6.34Y-2.69
X6.45Y-2.1
X6.51Y-4.52
X6.52Y-3.4
X6.52Y-3.45
X6.55Y-3.64
X6.55Y-4.09
X6.55Y-4.51
X6.58Y-3.39
X6.58Y-4.21
X6.59Y-4.63
X6.62Y-4.47
X6.65Y-2.8574
X6.76Y-4.41
X6.78Y-4.7
X6.8Y-3.09
X6.81Y-2.3
X6.9489Y-2.5388
X6.95Y-2.69
X6.97Y-3.96
X7.04Y-2.61
X7.07Y-4.44
X7.18Y-4.14
X7.19Y-4.04
X7.2Y-3.45
X7.2111Y-2.6412
X7.22Y-2.54
X7.23Y-2.29
X7.25Y-4.17
X7.26Y-3.94
X7.28Y-2.66
X7.28Y-2.74
X7.29Y-3.36
X7.3Y-4.3
X7.31Y-1.9
X7.31Y-2.79
X7.33Y-4.05
X7.34Y-2.88
X7.4Y-3.25
X7.41Y-4.63
X7.44Y-2.67
X7.44Y-4.15
X7.49Y-3.24
X7.56Y-4.68
X7.56Y-4.79
X7.63Y-4.64
X7.77Y-3.52
X7.85Y-3.44
X7.87Y-4.09
X7.88Y-3.81
X7.88Y-3.88
X7.89Y-3.54
X7.97Y-2.1174
X7.97Y-3.61
X8.16Y-3.73
X8.21Y-3.64
X8.3289Y-4.2212
X8.34Y-4.06
X8.55Y-2.54
X8.59Y-4.23
X8.62Y-4.1
X8.66Y-3.44
X8.72Y-2.12
X8.83Y-2.54
X8.8361Y-2.6412
X8.96Y-2.75
X9.02Y-2.54
X9.04Y-2.05
X9.04Y-2.82
X9.0426Y-2.99
X9.13Y-3.13
X9.23Y-4.07
X9.27Y-4.13
X9.37Y-2.55
X9.41Y-3.79
X9.42Y-4.04
X9.45Y-2.1174
X9.45Y-4.38
X9.49Y-3.47
X9.59Y-4.43
X9.6Y-3.53
X9.63Y-3.43
X9.63Y-3.93
X9.74Y-3.8
X9.75Y-3.24
X9.78Y-4.42
X9.81Y-3.3826
X9.81Y-3.4574
X9.82Y-2.97
X9.82Y-3.55
X9.89Y-4.23
X9.94Y-3.24
X10.01Y-2.68
X10.01Y-4.23
X10.02Y-2.81
X10.06Y-4.01
X10.11Y-2.72
X10.17Y-2.65
X10.18Y-2.12
X10.2412Y-3.5211
T2
X1.9471Y-2.1307
X1.9786Y-2.0835
X2.01Y-2.1307
X2.0414Y-2.0835
X2.0729Y-2.1307
T3
X5.38Y-4.2939
X5.38Y-4.4861
T4
X1.68Y-2.04
X1.7738Y-2.79
X1.7738Y-4.29
X1.78Y-2.04
X1.8738Y-2.79
X1.8738Y-4.29
X1.9612Y-3.54
X2.0612Y-3.54
X2.43Y-2.04
X2.53Y-2.04
X2.6176Y-2.79
X2.6176Y-4.29
X2.7176Y-2.79
X2.7176Y-4.29
X2.9925Y-3.54
X3.0925Y-3.54
X3.18Y-2.04
X3.28Y-2.04
X3.3676Y-2.79
X3.3676Y-4.29
X3.4676Y-2.79
X3.4676Y-4.29
X3.7425Y-3.54
X3.8425Y-3.54
X3.93Y-2.04
X4.03Y-2.04
X4.1175Y-2.79
X4.2176Y-2.79
X4.4925Y-3.54
X4.5925Y-3.54
X4.68Y-2.04
X4.78Y-2.04
X4.8675Y-2.79
X4.9676Y-2.79
X5.2425Y-3.54
X5.3425Y-3.54
X5.43Y-2.04
X5.53Y-2.04
X5.63Y-2.79
X5.73Y-2.79
X5.9925Y-3.54
X6.0863Y-4.29
X6.0925Y-3.54
X6.18Y-2.04
X6.1863Y-4.29
X6.28Y-2.04
X6.3675Y-2.79
X6.4676Y-2.79
X6.7425Y-3.54
X6.8425Y-3.54
X6.93Y-2.04
X7.03Y-2.04
X7.1175Y-2.79
X7.2176Y-2.79
X7.4925Y-3.54
X7.5925Y-3.54
X7.68Y-2.04
X7.78Y-2.04
X7.8675Y-2.79
X7.9676Y-2.79
X8.2425Y-3.54
X8.3425Y-3.54
X8.43Y-2.04
X8.53Y-2.04
X8.6175Y-2.79
X8.7175Y-2.79
X8.8988Y-4.29
X8.9988Y-4.29
X9.0862Y-3.54
X9.18Y-2.04
X9.1862Y-3.54
X9.28Y-2.04
X9.6488Y-2.79
X9.7488Y-2.79
X9.8363Y-4.29
X9.93Y-2.04
X9.93Y-3.54
X9.9363Y-4.29
X10.03Y-2.04
X10.03Y-3.54
T5
X6.85Y-4.64
X6.85Y-4.74
X6.95Y-4.64
X6.95Y-4.74
X7.05Y-4.64
X7.05Y-4.74
X10.28Y-2.84
X10.28Y-2.94
X10.28Y-3.04
X10.28Y-3.14
T6
X6.0363Y-4.69
X6.2863Y-4.59
T7
X1.8284Y-2.3975
X1.87Y-1.91
X1.87Y-2.09
X1.9222Y-3.1475
X1.9222Y-4.6475
X2.1097Y-3.8975
X2.15Y-1.9
X2.15Y-2.09
X2.5784Y-2.3975
X2.766Y-3.1475
X2.766Y-4.6475
X3.1409Y-3.8975
X3.3284Y-2.3975
X3.516Y-3.1475
X3.516Y-4.6475
X3.8909Y-3.8975
X4.0784Y-2.3975
X4.266Y-3.1475
X4.6409Y-3.8975
X4.8284Y-2.3975
X5.016Y-3.1475
X5.3909Y-3.8975
X5.5784Y-2.3975
X5.766Y-3.1475
X6.1409Y-3.8975
X6.3284Y-2.3975
X6.516Y-3.1475
X6.8909Y-3.8975
X7.0784Y-2.3975
X7.266Y-3.1475
X7.6409Y-3.8975
X7.8284Y-2.3975
X8.016Y-3.1475
X8.3909Y-3.8975
X8.5784Y-2.3975
X8.766Y-3.1475
X9.0472Y-4.6475
X9.2347Y-3.8975
X9.3284Y-2.3975
X9.7972Y-3.1475
X9.9847Y-4.6475
X10.0784Y-2.3975
X10.0784Y-3.8975
T8
X1.88Y-2.34
X1.9738Y-3.09
X1.9738Y-4.59
X2.1612Y-3.84
X2.63Y-2.34
X2.8175Y-3.09
X2.8175Y-4.59
X3.1925Y-3.84
X3.38Y-2.34
X3.5675Y-3.09
X3.5675Y-4.59
X3.9425Y-3.84
X4.13Y-2.34
X4.3175Y-3.09
X4.6925Y-3.84
X4.88Y-2.34
X5.0675Y-3.09
X5.4425Y-3.84
X5.63Y-2.34
X5.8175Y-3.09
X6.1925Y-3.84
X6.38Y-2.34
X6.5675Y-3.09
X6.9425Y-3.84
X7.13Y-2.34
X7.3175Y-3.09
X7.6925Y-3.84
X7.88Y-2.34
X8.0676Y-3.09
X8.4425Y-3.84
X8.63Y-2.34
X8.8176Y-3.09
X9.0988Y-4.59
X9.2862Y-3.84
X9.38Y-2.34
X9.8488Y-3.09
X10.0363Y-4.59
X10.13Y-2.34
X10.13Y-3.84
T9
X1.53Y-2.24
X1.6238Y-2.99
X1.6238Y-4.49
X1.8113Y-3.74
X1.93Y-2.24
X2.0238Y-2.99
X2.0238Y-4.49
X2.2113Y-3.74
X2.28Y-2.24
X2.4676Y-2.99
X2.4676Y-4.49
X2.68Y-2.24
X2.8425Y-3.74
X2.8676Y-2.99
X2.8676Y-4.49
X3.03Y-2.24
X3.2176Y-2.99
X3.2176Y-4.49
X3.2425Y-3.74
X3.43Y-2.24
X3.5925Y-3.74
X3.6176Y-2.99
X3.6176Y-4.49
X3.78Y-2.24
X3.9675Y-2.99
X3.9925Y-3.74
X4.18Y-2.24
X4.3425Y-3.74
X4.3675Y-2.99
X4.53Y-2.24
X4.7176Y-2.99
X4.7425Y-3.74
X4.93Y-2.24
X5.0925Y-3.74
X5.1175Y-2.99
X5.28Y-2.24
X5.4676Y-2.99
X5.4925Y-3.74
X5.68Y-2.24
X5.8425Y-3.74
X5.8675Y-2.99
X6.03Y-2.24
X6.2176Y-2.99
X6.2425Y-3.74
X6.43Y-2.24
X6.5925Y-3.74
X6.6175Y-2.99
X6.78Y-2.24
X6.9676Y-2.99
X6.9925Y-3.74
X7.18Y-2.24
X7.3425Y-3.74
X7.3675Y-2.99
X7.53Y-2.24
X7.7176Y-2.99
X7.7425Y-3.74
X7.93Y-2.24
X8.0925Y-3.74
X8.1175Y-2.99
X8.28Y-2.24
X8.4675Y-2.99
X8.4925Y-3.74
X8.68Y-2.24
X8.7488Y-4.49
X8.8675Y-2.99
X8.9362Y-3.74
X9.03Y-2.24
X9.1488Y-4.49
X9.3362Y-3.74
X9.43Y-2.24
X9.4988Y-2.99
X9.6863Y-4.49
X9.78Y-2.24
X9.78Y-3.74
X9.8988Y-2.99
X10.0863Y-4.49
X10.18Y-2.24
X10.18Y-3.74
T10
X5.9363Y-4.49
X6.3363Y-4.49
T11
X1.38Y-3.97
X3.93Y-4.65
X5.29Y-3.3
X9.3Y-2.66
X10.36Y-3.91
T12
X4.1663Y-4.765
X8.1063Y-4.765
T13
X1.73Y-2.24
X1.8238Y-2.99
X1.8238Y-4.49
X2.0112Y-3.74
X2.48Y-2.24
X2.6675Y-2.99
X2.6675Y-4.49
X3.0425Y-3.74
X3.23Y-2.24
X3.4175Y-2.99
X3.4175Y-4.49
X3.7925Y-3.74
X3.98Y-2.24
X4.1676Y-2.99
X4.5425Y-3.74
X4.73Y-2.24
X4.9176Y-2.99
X5.2925Y-3.74
X5.48Y-2.24
X5.6676Y-2.99
X6.0425Y-3.74
X6.23Y-2.24
X6.4175Y-2.99
X6.7925Y-3.74
X6.98Y-2.24
X7.1675Y-2.99
X7.5425Y-3.74
X7.73Y-2.24
X7.9175Y-2.99
X8.2925Y-3.74
X8.48Y-2.24
X8.6676Y-2.99
X8.9488Y-4.49
X9.1363Y-3.74
X9.23Y-2.24
X9.6988Y-2.99
X9.8863Y-4.49
X9.98Y-2.24
X9.98Y-3.74
T14
X4.1663Y-4.165
X6.1363Y-4.49
X8.1063Y-4.165
T7
X1.6308Y-2.44G85X1.6308Y-2.4172
G05
X1.7246Y-3.19G85X1.7246Y-3.1672
G05
X1.7246Y-4.69G85X1.7246Y-4.6672
G05
X1.912Y-3.94G85X1.912Y-3.9172
G05
X2.3808Y-2.44G85X2.3808Y-2.4172
G05
X2.5683Y-3.19G85X2.5683Y-3.1672
G05
X2.5683Y-4.69G85X2.5683Y-4.6672
G05
X2.9433Y-3.94G85X2.9433Y-3.9172
G05
X3.1308Y-2.44G85X3.1308Y-2.4172
G05
X3.3183Y-3.19G85X3.3183Y-3.1672
G05
X3.3183Y-4.69G85X3.3183Y-4.6672
G05
X3.6933Y-3.94G85X3.6933Y-3.9172
G05
X3.8808Y-2.44G85X3.8808Y-2.4172
G05
X4.0683Y-3.19G85X4.0683Y-3.1672
G05
X4.4433Y-3.94G85X4.4433Y-3.9172
G05
X4.6308Y-2.44G85X4.6308Y-2.4172
G05
X4.8183Y-3.19G85X4.8183Y-3.1672
G05
X5.1933Y-3.94G85X5.1933Y-3.9172
G05
X5.3808Y-2.44G85X5.3808Y-2.4172
G05
X5.5683Y-3.19G85X5.5683Y-3.1672
G05
X5.9433Y-3.94G85X5.9433Y-3.9172
G05
X6.1308Y-2.44G85X6.1308Y-2.4172
G05
X6.3183Y-3.19G85X6.3183Y-3.1672
G05
X6.6933Y-3.94G85X6.6933Y-3.9172
G05
X6.8808Y-2.44G85X6.8808Y-2.4172
G05
X7.0683Y-3.19G85X7.0683Y-3.1672
G05
X7.4433Y-3.94G85X7.4433Y-3.9172
G05
X7.6308Y-2.44G85X7.6308Y-2.4172
G05
X7.8183Y-3.19G85X7.8183Y-3.1672
G05
X8.1933Y-3.94G85X8.1933Y-3.9172
G05
X8.3808Y-2.44G85X8.3808Y-2.4172
G05
X8.5683Y-3.19G85X8.5683Y-3.1672
G05
X8.8496Y-4.69G85X8.8496Y-4.6672
G05
X9.037Y-3.94G85X9.037Y-3.9172
G05
X9.1308Y-2.44G85X9.1308Y-2.4172
G05
X9.5996Y-3.19G85X9.5996Y-3.1672
G05
X9.7871Y-4.69G85X9.7871Y-4.6672
G05
X9.8808Y-2.44G85X9.8808Y-2.4172
G05
X9.8808Y-3.94G85X9.8808Y-3.9172
G05
T0
M30
