G04 #@! TF.FileFunction,Soldermask,Top*
%FSLAX46Y46*%
G04 Gerber Fmt 4.6, Leading zero omitted, Abs format (unit mm)*
G04 Created by KiCad (PCBNEW 4.0.1-stable) date 5/15/2016 6:24:45 PM*
%MOMM*%
G01*
G04 APERTURE LIST*
%ADD10C,0.150000*%
%ADD11C,0.099100*%
%ADD12C,2.003200*%
%ADD13C,1.803200*%
%ADD14C,2.489200*%
%ADD15C,4.191000*%
%ADD16C,1.905000*%
%ADD17O,2.108200X2.362200*%
%ADD18R,2.108200X2.362200*%
%ADD19O,1.727200X1.270000*%
%ADD20C,1.203200*%
%ADD21C,5.204460*%
%ADD22C,1.703200*%
%ADD23C,3.251200*%
%ADD24C,1.704340*%
G04 APERTURE END LIST*
D10*
D11*
X227209040Y-75750560D02*
X768040Y-75750560D01*
X227209040Y-75750560D02*
G75*
G03X227971040Y-74988560I0J762000D01*
G01*
X227971040Y-693560D02*
X227971040Y-74988560D01*
X227971040Y-693560D02*
G75*
G03X227209040Y68440I-762000J0D01*
G01*
X768040Y68440D02*
X227209040Y68440D01*
X768040Y68440D02*
G75*
G03X6040Y-693560I0J-762000D01*
G01*
X6040Y-74988560D02*
X6040Y-693560D01*
X6040Y-74988560D02*
G75*
G03X768040Y-75750560I762000J0D01*
G01*
D12*
X94263000Y-73175000D03*
X89183000Y-73175000D03*
X84103000Y-73175000D03*
X91723000Y-73175000D03*
X86643000Y-73175000D03*
X96803000Y-73175000D03*
D13*
X3496000Y-34313000D03*
X3496000Y-26693000D03*
X6861500Y-42220000D03*
X6861500Y-49840000D03*
D14*
X9020500Y-71430000D03*
X15370500Y-68890000D03*
D15*
X11560500Y-66350000D03*
D16*
X16640500Y-66350000D03*
X6480500Y-66350000D03*
D14*
X9020500Y-33330000D03*
X15370500Y-30790000D03*
D15*
X11560500Y-28250000D03*
D16*
X16640500Y-28250000D03*
X6480500Y-28250000D03*
D14*
X13719500Y-52380000D03*
X20069500Y-49840000D03*
D15*
X16259500Y-47300000D03*
D16*
X21339500Y-47300000D03*
X11179500Y-47300000D03*
D17*
X62742000Y-42220000D03*
D18*
X60202000Y-42220000D03*
D17*
X34293500Y-61270000D03*
D18*
X31753500Y-61270000D03*
D17*
X43692000Y-42220000D03*
D18*
X41152000Y-42220000D03*
D17*
X12830500Y-23170000D03*
D18*
X10290500Y-23170000D03*
D17*
X29467500Y-4118800D03*
D18*
X26927500Y-4118800D03*
D17*
X12830500Y-61270000D03*
D18*
X10290500Y-61270000D03*
D14*
X216158000Y-52380000D03*
X222508000Y-49840000D03*
D15*
X218698000Y-47300000D03*
D16*
X223778000Y-47300000D03*
X213618000Y-47300000D03*
D14*
X125734000Y-33330000D03*
X132084000Y-30790000D03*
D15*
X128274000Y-28250000D03*
D16*
X133354000Y-28250000D03*
X123194000Y-28250000D03*
D14*
X178058000Y-14280000D03*
X184408000Y-11740000D03*
D15*
X180598000Y-9200000D03*
D16*
X185678000Y-9200000D03*
X175518000Y-9200000D03*
D14*
X82808000Y-14280000D03*
X89158000Y-11740000D03*
D15*
X85348000Y-9200000D03*
D16*
X90428000Y-9200000D03*
X80268000Y-9200000D03*
D14*
X213744000Y-71430000D03*
X220094000Y-68890000D03*
D15*
X216284000Y-66350000D03*
D16*
X221364000Y-66350000D03*
X211204000Y-66350000D03*
D14*
X189996000Y-71430000D03*
X196346000Y-68890000D03*
D15*
X192536000Y-66350000D03*
D16*
X197616000Y-66350000D03*
X187456000Y-66350000D03*
D14*
X49534000Y-71430000D03*
X55884000Y-68890000D03*
D15*
X52074000Y-66350000D03*
D16*
X57154000Y-66350000D03*
X46994000Y-66350000D03*
D14*
X30483500Y-71430000D03*
X36833500Y-68890000D03*
D15*
X33023500Y-66350000D03*
D16*
X38103500Y-66350000D03*
X27943500Y-66350000D03*
D14*
X194694000Y-52380000D03*
X201044000Y-49840000D03*
D15*
X197234000Y-47300000D03*
D16*
X202314000Y-47300000D03*
X192154000Y-47300000D03*
D14*
X173232000Y-52380000D03*
X179582000Y-49840000D03*
D15*
X175772000Y-47300000D03*
D16*
X180852000Y-47300000D03*
X170692000Y-47300000D03*
D14*
X68584000Y-33330000D03*
X74934000Y-30790000D03*
D15*
X71124000Y-28250000D03*
D16*
X76204000Y-28250000D03*
X66044000Y-28250000D03*
D14*
X49534000Y-33330000D03*
X55884000Y-30790000D03*
D15*
X52074000Y-28250000D03*
D16*
X57154000Y-28250000D03*
X46994000Y-28250000D03*
D14*
X30483500Y-33330000D03*
X36833500Y-30790000D03*
D15*
X33023500Y-28250000D03*
D16*
X38103500Y-28250000D03*
X27943500Y-28250000D03*
D14*
X216158000Y-14280000D03*
X222508000Y-11740000D03*
D15*
X218698000Y-9200000D03*
D16*
X223778000Y-9200000D03*
X213618000Y-9200000D03*
D14*
X159008000Y-14280000D03*
X165358000Y-11740000D03*
D15*
X161548000Y-9200000D03*
D16*
X166628000Y-9200000D03*
X156468000Y-9200000D03*
D14*
X139958000Y-14280000D03*
X146308000Y-11740000D03*
D15*
X142498000Y-9200000D03*
D16*
X147578000Y-9200000D03*
X137418000Y-9200000D03*
D14*
X120908000Y-14280000D03*
X127258000Y-11740000D03*
D15*
X123448000Y-9200000D03*
D16*
X128528000Y-9200000D03*
X118368000Y-9200000D03*
D14*
X101858000Y-14280000D03*
X108208000Y-11740000D03*
D15*
X104398000Y-9200000D03*
D16*
X109478000Y-9200000D03*
X99318000Y-9200000D03*
D14*
X63758000Y-14280000D03*
X70108000Y-11740000D03*
D15*
X66298000Y-9200000D03*
D16*
X71378000Y-9200000D03*
X61218000Y-9200000D03*
D14*
X44708000Y-14280000D03*
X51058000Y-11740000D03*
D15*
X47248000Y-9200000D03*
D16*
X52328000Y-9200000D03*
X42168000Y-9200000D03*
D14*
X25657500Y-14280000D03*
X32007500Y-11740000D03*
D15*
X28197500Y-9200000D03*
D16*
X33277500Y-9200000D03*
X23117500Y-9200000D03*
D14*
X154182000Y-52380000D03*
X160532000Y-49840000D03*
D15*
X156722000Y-47300000D03*
D16*
X161802000Y-47300000D03*
X151642000Y-47300000D03*
D14*
X135132000Y-52380000D03*
X141482000Y-49840000D03*
D15*
X137672000Y-47300000D03*
D16*
X142752000Y-47300000D03*
X132592000Y-47300000D03*
D14*
X116082000Y-52380000D03*
X122432000Y-49840000D03*
D15*
X118622000Y-47300000D03*
D16*
X123702000Y-47300000D03*
X113542000Y-47300000D03*
D14*
X97032000Y-52380000D03*
X103382000Y-49840000D03*
D15*
X99572000Y-47300000D03*
D16*
X104652000Y-47300000D03*
X94492000Y-47300000D03*
D14*
X77982000Y-52380000D03*
X84332000Y-49840000D03*
D15*
X80522000Y-47300000D03*
D16*
X85602000Y-47300000D03*
X75442000Y-47300000D03*
D14*
X58932000Y-52380000D03*
X65282000Y-49840000D03*
D15*
X61472000Y-47300000D03*
D16*
X66552000Y-47300000D03*
X56392000Y-47300000D03*
D14*
X39882000Y-52380000D03*
X46232000Y-49840000D03*
D15*
X42422000Y-47300000D03*
D16*
X47502000Y-47300000D03*
X37342000Y-47300000D03*
D14*
X209046000Y-33330000D03*
X215396000Y-30790000D03*
D15*
X211586000Y-28250000D03*
D16*
X216666000Y-28250000D03*
X206506000Y-28250000D03*
D14*
X182884000Y-33330000D03*
X189234000Y-30790000D03*
D15*
X185424000Y-28250000D03*
D16*
X190504000Y-28250000D03*
X180344000Y-28250000D03*
D14*
X163834000Y-33330000D03*
X170184000Y-30790000D03*
D15*
X166374000Y-28250000D03*
D16*
X171454000Y-28250000D03*
X161294000Y-28250000D03*
D14*
X144784000Y-33330000D03*
X151134000Y-30790000D03*
D15*
X147324000Y-28250000D03*
D16*
X152404000Y-28250000D03*
X142244000Y-28250000D03*
D14*
X106684000Y-33330000D03*
X113034000Y-30790000D03*
D15*
X109224000Y-28250000D03*
D16*
X114304000Y-28250000D03*
X104144000Y-28250000D03*
D14*
X87634000Y-33330000D03*
X93984000Y-30790000D03*
D15*
X90174000Y-28250000D03*
D16*
X95254000Y-28250000D03*
X85094000Y-28250000D03*
D14*
X197108000Y-14280000D03*
X203458000Y-11740000D03*
D15*
X199648000Y-9200000D03*
D16*
X204728000Y-9200000D03*
X194568000Y-9200000D03*
D17*
X122609000Y-61275000D03*
D18*
X120069000Y-61275000D03*
D17*
X157992000Y-42220000D03*
D18*
X155452000Y-42220000D03*
D17*
X138942000Y-42220000D03*
D18*
X136402000Y-42220000D03*
D17*
X119892000Y-42220000D03*
D18*
X117352000Y-42220000D03*
D17*
X100842000Y-42220000D03*
D18*
X98302000Y-42220000D03*
D17*
X212856000Y-23170000D03*
D18*
X210316000Y-23170000D03*
D17*
X186694000Y-23170000D03*
D18*
X184154000Y-23170000D03*
D17*
X167644000Y-23170000D03*
D18*
X165104000Y-23170000D03*
D17*
X81792000Y-42347000D03*
D18*
X79252000Y-42347000D03*
D17*
X148594000Y-23170000D03*
D18*
X146054000Y-23170000D03*
D17*
X86618000Y-4120000D03*
D18*
X84078000Y-4120000D03*
D17*
X105668000Y-4120000D03*
D18*
X103128000Y-4120000D03*
D17*
X124718000Y-4120000D03*
D18*
X122178000Y-4120000D03*
D17*
X143768000Y-4120000D03*
D18*
X141228000Y-4120000D03*
D17*
X67568000Y-4120000D03*
D18*
X65028000Y-4120000D03*
D17*
X129544000Y-23170000D03*
D18*
X127004000Y-23170000D03*
D17*
X162818000Y-4120000D03*
D18*
X160278000Y-4120000D03*
D17*
X181868000Y-4120000D03*
D18*
X179328000Y-4120000D03*
D17*
X200918000Y-4120000D03*
D18*
X198378000Y-4120000D03*
D17*
X219968000Y-4120000D03*
D18*
X217428000Y-4120000D03*
D17*
X91444000Y-23170000D03*
D18*
X88904000Y-23170000D03*
D17*
X110494000Y-23170000D03*
D18*
X107954000Y-23170000D03*
D17*
X217554000Y-61270000D03*
D18*
X215014000Y-61270000D03*
D17*
X193806000Y-61270000D03*
D18*
X191266000Y-61270000D03*
D17*
X177042000Y-42220000D03*
D18*
X174502000Y-42220000D03*
D17*
X198504000Y-42220000D03*
D18*
X195964000Y-42220000D03*
D17*
X53344000Y-61270000D03*
D18*
X50804000Y-61270000D03*
D17*
X219968000Y-42220000D03*
D18*
X217428000Y-42220000D03*
D17*
X10417500Y-4118800D03*
D18*
X7877500Y-4118800D03*
D14*
X6607500Y-14280000D03*
X12957500Y-11740000D03*
D15*
X9147500Y-9200000D03*
D16*
X14227500Y-9200000D03*
X4067500Y-9200000D03*
D17*
X17529500Y-42220000D03*
D18*
X14989500Y-42220000D03*
D13*
X79506000Y-30790000D03*
X79506000Y-23170000D03*
X60582000Y-30790000D03*
X60582000Y-23170000D03*
X41406000Y-33076000D03*
X41406000Y-25456000D03*
X55884000Y-11740000D03*
X55884000Y-4120000D03*
D17*
X72394000Y-23170000D03*
D18*
X69854000Y-23170000D03*
D17*
X53344000Y-23170000D03*
D18*
X50804000Y-23170000D03*
D17*
X34293500Y-23170000D03*
D18*
X31753500Y-23170000D03*
D17*
X48518000Y-4120000D03*
D18*
X45978000Y-4120000D03*
D14*
X213872000Y-52380000D03*
X220222000Y-49840000D03*
D15*
X216412000Y-47300000D03*
D16*
X221492000Y-47300000D03*
X211332000Y-47300000D03*
D14*
X192282000Y-52380000D03*
X198632000Y-49840000D03*
D15*
X194822000Y-47300000D03*
D16*
X199902000Y-47300000D03*
X189742000Y-47300000D03*
D17*
X193552000Y-42220000D03*
D18*
X196092000Y-42220000D03*
D17*
X215142000Y-42220000D03*
D18*
X217682000Y-42220000D03*
D19*
X226000000Y-19200000D03*
X226000000Y-20470000D03*
X226000000Y-21740000D03*
X226000000Y-23010000D03*
X226000000Y-33170000D03*
X226000000Y-34440000D03*
X226000000Y-26820000D03*
X226000000Y-28090000D03*
X226000000Y-29360000D03*
X226000000Y-30630000D03*
X226000000Y-31900000D03*
D20*
X892500Y-74859000D03*
X227080000Y-818000D03*
X227016000Y-74851000D03*
X892500Y-818000D03*
D19*
X226000000Y-35710000D03*
X226000000Y-25550000D03*
X226000000Y-36980000D03*
X226000000Y-38250000D03*
D21*
X226241000Y-56500000D03*
X199902000Y-28250000D03*
X42676000Y-19614000D03*
X128200000Y-47000000D03*
X1458900Y-56501000D03*
D22*
X95510000Y-5392600D03*
X95510000Y-7932600D03*
X95510000Y-10472600D03*
X114560000Y-2852600D03*
X114560000Y-7932600D03*
X114560000Y-10472600D03*
X95510000Y-2852600D03*
X133610000Y-7932600D03*
X133610000Y-10472600D03*
X152660000Y-10472600D03*
X152660000Y-7932600D03*
X152660000Y-5392600D03*
X152660000Y-2852600D03*
X133610000Y-5392600D03*
X114560000Y-5392600D03*
X133610000Y-2852600D03*
X133610000Y-15552600D03*
X152660000Y-15552600D03*
D14*
X118370000Y-71433000D03*
X124720000Y-68893000D03*
D15*
X120910000Y-66353000D03*
D16*
X125990000Y-66353000D03*
X115830000Y-66353000D03*
D23*
X170948000Y-73338000D03*
X70872000Y-73338000D03*
D15*
X170948000Y-58098000D03*
X70872000Y-58098000D03*
D24*
X156150000Y-65527060D03*
X156150000Y-70408940D03*
M02*
