G04 #@! TF.FileFunction,Legend,Bot*
%FSLAX46Y46*%
G04 Gerber Fmt 4.6, Leading zero omitted, Abs format (unit mm)*
G04 Created by KiCad (PCBNEW 4.0.1-stable) date 6/24/2016 3:23:24 PM*
%MOMM*%
G01*
G04 APERTURE LIST*
%ADD10C,0.100000*%
%ADD11C,1.270000*%
%ADD12C,0.300000*%
%ADD13C,0.150000*%
%ADD14C,0.200000*%
%ADD15C,0.304800*%
%ADD16C,0.203200*%
%ADD17C,0.200660*%
%ADD18C,0.381000*%
%ADD19C,0.158800*%
%ADD20C,0.088900*%
G04 APERTURE END LIST*
D10*
D11*
X218500474Y-110526286D02*
X218742379Y-110768190D01*
X219468093Y-111010095D01*
X219951903Y-111010095D01*
X220677617Y-110768190D01*
X221161426Y-110284381D01*
X221403331Y-109800571D01*
X221645236Y-108832952D01*
X221645236Y-108107238D01*
X221403331Y-107139619D01*
X221161426Y-106655810D01*
X220677617Y-106172000D01*
X219951903Y-105930095D01*
X219468093Y-105930095D01*
X218742379Y-106172000D01*
X218500474Y-106413905D01*
X216807141Y-107623429D02*
X215597617Y-111010095D01*
X214388093Y-107623429D02*
X215597617Y-111010095D01*
X216081426Y-112219619D01*
X216323331Y-112461524D01*
X216807141Y-112703429D01*
X212452855Y-107623429D02*
X212452855Y-112703429D01*
X212452855Y-107865333D02*
X211969046Y-107623429D01*
X211001427Y-107623429D01*
X210517617Y-107865333D01*
X210275712Y-108107238D01*
X210033808Y-108591048D01*
X210033808Y-110042476D01*
X210275712Y-110526286D01*
X210517617Y-110768190D01*
X211001427Y-111010095D01*
X211969046Y-111010095D01*
X212452855Y-110768190D01*
X208582379Y-107623429D02*
X206647141Y-107623429D01*
X207856665Y-105930095D02*
X207856665Y-110284381D01*
X207614760Y-110768190D01*
X207130951Y-111010095D01*
X206647141Y-111010095D01*
X204228094Y-111010095D02*
X204711903Y-110768190D01*
X204953808Y-110526286D01*
X205195713Y-110042476D01*
X205195713Y-108591048D01*
X204953808Y-108107238D01*
X204711903Y-107865333D01*
X204228094Y-107623429D01*
X203502380Y-107623429D01*
X203018570Y-107865333D01*
X202776665Y-108107238D01*
X202534761Y-108591048D01*
X202534761Y-110042476D01*
X202776665Y-110526286D01*
X203018570Y-110768190D01*
X203502380Y-111010095D01*
X204228094Y-111010095D01*
X200841428Y-105930095D02*
X199631904Y-111010095D01*
X198664285Y-107381524D01*
X197696666Y-111010095D01*
X196487142Y-105930095D01*
X192374761Y-111010095D02*
X192374761Y-108349143D01*
X192616666Y-107865333D01*
X193100476Y-107623429D01*
X194068095Y-107623429D01*
X194551904Y-107865333D01*
X192374761Y-110768190D02*
X192858571Y-111010095D01*
X194068095Y-111010095D01*
X194551904Y-110768190D01*
X194793809Y-110284381D01*
X194793809Y-109800571D01*
X194551904Y-109316762D01*
X194068095Y-109074857D01*
X192858571Y-109074857D01*
X192374761Y-108832952D01*
X189230000Y-111010095D02*
X189713809Y-110768190D01*
X189955714Y-110284381D01*
X189955714Y-105930095D01*
X186569048Y-111010095D02*
X187052857Y-110768190D01*
X187294762Y-110284381D01*
X187294762Y-105930095D01*
X182456667Y-107623429D02*
X182456667Y-111010095D01*
X183666191Y-105688190D02*
X184875715Y-109316762D01*
X181730953Y-109316762D01*
X178828096Y-105930095D02*
X178344287Y-105930095D01*
X177860477Y-106172000D01*
X177618572Y-106413905D01*
X177376668Y-106897714D01*
X177134763Y-107865333D01*
X177134763Y-109074857D01*
X177376668Y-110042476D01*
X177618572Y-110526286D01*
X177860477Y-110768190D01*
X178344287Y-111010095D01*
X178828096Y-111010095D01*
X179311906Y-110768190D01*
X179553810Y-110526286D01*
X179795715Y-110042476D01*
X180037620Y-109074857D01*
X180037620Y-107865333D01*
X179795715Y-106897714D01*
X179553810Y-106413905D01*
X179311906Y-106172000D01*
X178828096Y-105930095D01*
D12*
X252433666Y-118878048D02*
X252252238Y-118938524D01*
X251949857Y-118938524D01*
X251828904Y-118878048D01*
X251768428Y-118817571D01*
X251707952Y-118696619D01*
X251707952Y-118575667D01*
X251768428Y-118454714D01*
X251828904Y-118394238D01*
X251949857Y-118333762D01*
X252191761Y-118273286D01*
X252312714Y-118212810D01*
X252373190Y-118152333D01*
X252433666Y-118031381D01*
X252433666Y-117910429D01*
X252373190Y-117789476D01*
X252312714Y-117729000D01*
X252191761Y-117668524D01*
X251889381Y-117668524D01*
X251707952Y-117729000D01*
X251163666Y-118091857D02*
X251163666Y-119361857D01*
X251163666Y-118152333D02*
X251042714Y-118091857D01*
X250800809Y-118091857D01*
X250679857Y-118152333D01*
X250619380Y-118212810D01*
X250558904Y-118333762D01*
X250558904Y-118696619D01*
X250619380Y-118817571D01*
X250679857Y-118878048D01*
X250800809Y-118938524D01*
X251042714Y-118938524D01*
X251163666Y-118878048D01*
X249530809Y-118878048D02*
X249651761Y-118938524D01*
X249893666Y-118938524D01*
X250014618Y-118878048D01*
X250075094Y-118757095D01*
X250075094Y-118273286D01*
X250014618Y-118152333D01*
X249893666Y-118091857D01*
X249651761Y-118091857D01*
X249530809Y-118152333D01*
X249470332Y-118273286D01*
X249470332Y-118394238D01*
X250075094Y-118515190D01*
X248381761Y-118878048D02*
X248502714Y-118938524D01*
X248744618Y-118938524D01*
X248865571Y-118878048D01*
X248926047Y-118817571D01*
X248986523Y-118696619D01*
X248986523Y-118333762D01*
X248926047Y-118212810D01*
X248865571Y-118152333D01*
X248744618Y-118091857D01*
X248502714Y-118091857D01*
X248381761Y-118152333D01*
X247837476Y-118938524D02*
X247837476Y-118091857D01*
X247837476Y-117668524D02*
X247897952Y-117729000D01*
X247837476Y-117789476D01*
X247777000Y-117729000D01*
X247837476Y-117668524D01*
X247837476Y-117789476D01*
X246688428Y-118938524D02*
X246688428Y-118273286D01*
X246748905Y-118152333D01*
X246869857Y-118091857D01*
X247111762Y-118091857D01*
X247232714Y-118152333D01*
X246688428Y-118878048D02*
X246809381Y-118938524D01*
X247111762Y-118938524D01*
X247232714Y-118878048D01*
X247293190Y-118757095D01*
X247293190Y-118636143D01*
X247232714Y-118515190D01*
X247111762Y-118454714D01*
X246809381Y-118454714D01*
X246688428Y-118394238D01*
X245902237Y-118938524D02*
X246023190Y-118878048D01*
X246083666Y-118757095D01*
X246083666Y-117668524D01*
X244632238Y-117668524D02*
X243906523Y-117668524D01*
X244269380Y-118938524D02*
X244269380Y-117668524D01*
X243483190Y-118938524D02*
X243483190Y-117668524D01*
X242938904Y-118938524D02*
X242938904Y-118273286D01*
X242999381Y-118152333D01*
X243120333Y-118091857D01*
X243301761Y-118091857D01*
X243422714Y-118152333D01*
X243483190Y-118212810D01*
X241789856Y-118938524D02*
X241789856Y-118273286D01*
X241850333Y-118152333D01*
X241971285Y-118091857D01*
X242213190Y-118091857D01*
X242334142Y-118152333D01*
X241789856Y-118878048D02*
X241910809Y-118938524D01*
X242213190Y-118938524D01*
X242334142Y-118878048D01*
X242394618Y-118757095D01*
X242394618Y-118636143D01*
X242334142Y-118515190D01*
X242213190Y-118454714D01*
X241910809Y-118454714D01*
X241789856Y-118394238D01*
X241185094Y-118091857D02*
X241185094Y-118938524D01*
X241185094Y-118212810D02*
X241124618Y-118152333D01*
X241003665Y-118091857D01*
X240822237Y-118091857D01*
X240701285Y-118152333D01*
X240640808Y-118273286D01*
X240640808Y-118938524D01*
X240036046Y-118938524D02*
X240036046Y-117668524D01*
X239915094Y-118454714D02*
X239552237Y-118938524D01*
X239552237Y-118091857D02*
X240036046Y-118575667D01*
X239068427Y-118878048D02*
X238947475Y-118938524D01*
X238705570Y-118938524D01*
X238584618Y-118878048D01*
X238524142Y-118757095D01*
X238524142Y-118696619D01*
X238584618Y-118575667D01*
X238705570Y-118515190D01*
X238886999Y-118515190D01*
X239007951Y-118454714D01*
X239068427Y-118333762D01*
X239068427Y-118273286D01*
X239007951Y-118152333D01*
X238886999Y-118091857D01*
X238705570Y-118091857D01*
X238584618Y-118152333D01*
X237193666Y-118091857D02*
X236709856Y-118091857D01*
X237012237Y-117668524D02*
X237012237Y-118757095D01*
X236951761Y-118878048D01*
X236830808Y-118938524D01*
X236709856Y-118938524D01*
X236105094Y-118938524D02*
X236226047Y-118878048D01*
X236286523Y-118817571D01*
X236346999Y-118696619D01*
X236346999Y-118333762D01*
X236286523Y-118212810D01*
X236226047Y-118152333D01*
X236105094Y-118091857D01*
X235923666Y-118091857D01*
X235802714Y-118152333D01*
X235742237Y-118212810D01*
X235681761Y-118333762D01*
X235681761Y-118696619D01*
X235742237Y-118817571D01*
X235802714Y-118878048D01*
X235923666Y-118938524D01*
X236105094Y-118938524D01*
X234230332Y-118878048D02*
X234048904Y-118938524D01*
X233746523Y-118938524D01*
X233625570Y-118878048D01*
X233565094Y-118817571D01*
X233504618Y-118696619D01*
X233504618Y-118575667D01*
X233565094Y-118454714D01*
X233625570Y-118394238D01*
X233746523Y-118333762D01*
X233988427Y-118273286D01*
X234109380Y-118212810D01*
X234169856Y-118152333D01*
X234230332Y-118031381D01*
X234230332Y-117910429D01*
X234169856Y-117789476D01*
X234109380Y-117729000D01*
X233988427Y-117668524D01*
X233686047Y-117668524D01*
X233504618Y-117729000D01*
X232960332Y-118938524D02*
X232960332Y-118091857D01*
X232960332Y-118212810D02*
X232899856Y-118152333D01*
X232778903Y-118091857D01*
X232597475Y-118091857D01*
X232476523Y-118152333D01*
X232416046Y-118273286D01*
X232416046Y-118938524D01*
X232416046Y-118273286D02*
X232355570Y-118152333D01*
X232234618Y-118091857D01*
X232053189Y-118091857D01*
X231932237Y-118152333D01*
X231871761Y-118273286D01*
X231871761Y-118938524D01*
X230722713Y-118938524D02*
X230722713Y-118273286D01*
X230783190Y-118152333D01*
X230904142Y-118091857D01*
X231146047Y-118091857D01*
X231266999Y-118152333D01*
X230722713Y-118878048D02*
X230843666Y-118938524D01*
X231146047Y-118938524D01*
X231266999Y-118878048D01*
X231327475Y-118757095D01*
X231327475Y-118636143D01*
X231266999Y-118515190D01*
X231146047Y-118454714D01*
X230843666Y-118454714D01*
X230722713Y-118394238D01*
X229936522Y-118938524D02*
X230057475Y-118878048D01*
X230117951Y-118757095D01*
X230117951Y-117668524D01*
X229271284Y-118938524D02*
X229392237Y-118878048D01*
X229452713Y-118757095D01*
X229452713Y-117668524D01*
X228364142Y-118273286D02*
X228787475Y-118273286D01*
X228787475Y-118938524D02*
X228787475Y-117668524D01*
X228182713Y-117668524D01*
X227698904Y-118938524D02*
X227698904Y-118091857D01*
X227698904Y-118333762D02*
X227638428Y-118212810D01*
X227577952Y-118152333D01*
X227456999Y-118091857D01*
X227336047Y-118091857D01*
X227033666Y-118091857D02*
X226731285Y-118938524D01*
X226428905Y-118091857D02*
X226731285Y-118938524D01*
X226852238Y-119240905D01*
X226912714Y-119301381D01*
X227033666Y-119361857D01*
X225400809Y-118091857D02*
X225400809Y-118938524D01*
X225703190Y-117608048D02*
X226005571Y-118515190D01*
X225219381Y-118515190D01*
X224493666Y-117668524D02*
X224372714Y-117668524D01*
X224251762Y-117729000D01*
X224191285Y-117789476D01*
X224130809Y-117910429D01*
X224070333Y-118152333D01*
X224070333Y-118454714D01*
X224130809Y-118696619D01*
X224191285Y-118817571D01*
X224251762Y-118878048D01*
X224372714Y-118938524D01*
X224493666Y-118938524D01*
X224614619Y-118878048D01*
X224675095Y-118817571D01*
X224735571Y-118696619D01*
X224796047Y-118454714D01*
X224796047Y-118152333D01*
X224735571Y-117910429D01*
X224675095Y-117789476D01*
X224614619Y-117729000D01*
X224493666Y-117668524D01*
D13*
X143168000Y-106418000D02*
X143168000Y-105418000D01*
X144868000Y-105418000D02*
X144868000Y-106418000D01*
X144868000Y-109482000D02*
X144868000Y-110482000D01*
X143168000Y-110482000D02*
X143168000Y-109482000D01*
X117610000Y-99480000D02*
X118610000Y-99480000D01*
X118610000Y-101180000D02*
X117610000Y-101180000D01*
X114388000Y-113038000D02*
X114388000Y-114038000D01*
X112688000Y-114038000D02*
X112688000Y-113038000D01*
X144868000Y-113546000D02*
X144868000Y-114546000D01*
X143168000Y-114546000D02*
X143168000Y-113546000D01*
X114388000Y-102878000D02*
X114388000Y-103878000D01*
X112688000Y-103878000D02*
X112688000Y-102878000D01*
X143168000Y-102354000D02*
X143168000Y-101354000D01*
X144868000Y-101354000D02*
X144868000Y-102354000D01*
X50554000Y-60872000D02*
X51554000Y-60872000D01*
X51554000Y-62572000D02*
X50554000Y-62572000D01*
D12*
X38862000Y-59201000D02*
X38862000Y-60325000D01*
X38862000Y-60325000D02*
X40894000Y-60325000D01*
X40894000Y-60325000D02*
X40894000Y-59201000D01*
X38862000Y-58120000D02*
X38862000Y-57023000D01*
X38862000Y-57023000D02*
X40894000Y-57023000D01*
X40894000Y-57023000D02*
X40894000Y-58120000D01*
D14*
X39497000Y-58928000D02*
X40259000Y-58928000D01*
X39497000Y-58483500D02*
X40259000Y-58483500D01*
X40259000Y-58483500D02*
X39878000Y-58864500D01*
X39878000Y-58864500D02*
X39497000Y-58483500D01*
D12*
X60706000Y-49041000D02*
X60706000Y-50165000D01*
X60706000Y-50165000D02*
X62738000Y-50165000D01*
X62738000Y-50165000D02*
X62738000Y-49041000D01*
X60706000Y-47960000D02*
X60706000Y-46863000D01*
X60706000Y-46863000D02*
X62738000Y-46863000D01*
X62738000Y-46863000D02*
X62738000Y-47960000D01*
D14*
X61341000Y-48768000D02*
X62103000Y-48768000D01*
X61341000Y-48323500D02*
X62103000Y-48323500D01*
X62103000Y-48323500D02*
X61722000Y-48704500D01*
X61722000Y-48704500D02*
X61341000Y-48323500D01*
D12*
X78486000Y-49041000D02*
X78486000Y-50165000D01*
X78486000Y-50165000D02*
X80518000Y-50165000D01*
X80518000Y-50165000D02*
X80518000Y-49041000D01*
X78486000Y-47960000D02*
X78486000Y-46863000D01*
X78486000Y-46863000D02*
X80518000Y-46863000D01*
X80518000Y-46863000D02*
X80518000Y-47960000D01*
D14*
X79121000Y-48768000D02*
X79883000Y-48768000D01*
X79121000Y-48323500D02*
X79883000Y-48323500D01*
X79883000Y-48323500D02*
X79502000Y-48704500D01*
X79502000Y-48704500D02*
X79121000Y-48323500D01*
D12*
X96774000Y-49549000D02*
X96774000Y-50673000D01*
X96774000Y-50673000D02*
X98806000Y-50673000D01*
X98806000Y-50673000D02*
X98806000Y-49549000D01*
X96774000Y-48468000D02*
X96774000Y-47371000D01*
X96774000Y-47371000D02*
X98806000Y-47371000D01*
X98806000Y-47371000D02*
X98806000Y-48468000D01*
D14*
X97409000Y-49276000D02*
X98171000Y-49276000D01*
X97409000Y-48831500D02*
X98171000Y-48831500D01*
X98171000Y-48831500D02*
X97790000Y-49212500D01*
X97790000Y-49212500D02*
X97409000Y-48831500D01*
D12*
X115570000Y-49041000D02*
X115570000Y-50165000D01*
X115570000Y-50165000D02*
X117602000Y-50165000D01*
X117602000Y-50165000D02*
X117602000Y-49041000D01*
X115570000Y-47960000D02*
X115570000Y-46863000D01*
X115570000Y-46863000D02*
X117602000Y-46863000D01*
X117602000Y-46863000D02*
X117602000Y-47960000D01*
D14*
X116205000Y-48768000D02*
X116967000Y-48768000D01*
X116205000Y-48323500D02*
X116967000Y-48323500D01*
X116967000Y-48323500D02*
X116586000Y-48704500D01*
X116586000Y-48704500D02*
X116205000Y-48323500D01*
D12*
X135890000Y-49041000D02*
X135890000Y-50165000D01*
X135890000Y-50165000D02*
X137922000Y-50165000D01*
X137922000Y-50165000D02*
X137922000Y-49041000D01*
X135890000Y-47960000D02*
X135890000Y-46863000D01*
X135890000Y-46863000D02*
X137922000Y-46863000D01*
X137922000Y-46863000D02*
X137922000Y-47960000D01*
D14*
X136525000Y-48768000D02*
X137287000Y-48768000D01*
X136525000Y-48323500D02*
X137287000Y-48323500D01*
X137287000Y-48323500D02*
X136906000Y-48704500D01*
X136906000Y-48704500D02*
X136525000Y-48323500D01*
D12*
X154686000Y-49041000D02*
X154686000Y-50165000D01*
X154686000Y-50165000D02*
X156718000Y-50165000D01*
X156718000Y-50165000D02*
X156718000Y-49041000D01*
X154686000Y-47960000D02*
X154686000Y-46863000D01*
X154686000Y-46863000D02*
X156718000Y-46863000D01*
X156718000Y-46863000D02*
X156718000Y-47960000D01*
D14*
X155321000Y-48768000D02*
X156083000Y-48768000D01*
X155321000Y-48323500D02*
X156083000Y-48323500D01*
X156083000Y-48323500D02*
X155702000Y-48704500D01*
X155702000Y-48704500D02*
X155321000Y-48323500D01*
D12*
X173482000Y-49041000D02*
X173482000Y-50165000D01*
X173482000Y-50165000D02*
X175514000Y-50165000D01*
X175514000Y-50165000D02*
X175514000Y-49041000D01*
X173482000Y-47960000D02*
X173482000Y-46863000D01*
X173482000Y-46863000D02*
X175514000Y-46863000D01*
X175514000Y-46863000D02*
X175514000Y-47960000D01*
D14*
X174117000Y-48768000D02*
X174879000Y-48768000D01*
X174117000Y-48323500D02*
X174879000Y-48323500D01*
X174879000Y-48323500D02*
X174498000Y-48704500D01*
X174498000Y-48704500D02*
X174117000Y-48323500D01*
D12*
X192786000Y-49041000D02*
X192786000Y-50165000D01*
X192786000Y-50165000D02*
X194818000Y-50165000D01*
X194818000Y-50165000D02*
X194818000Y-49041000D01*
X192786000Y-47960000D02*
X192786000Y-46863000D01*
X192786000Y-46863000D02*
X194818000Y-46863000D01*
X194818000Y-46863000D02*
X194818000Y-47960000D01*
D14*
X193421000Y-48768000D02*
X194183000Y-48768000D01*
X193421000Y-48323500D02*
X194183000Y-48323500D01*
X194183000Y-48323500D02*
X193802000Y-48704500D01*
X193802000Y-48704500D02*
X193421000Y-48323500D01*
D12*
X212090000Y-49549000D02*
X212090000Y-50673000D01*
X212090000Y-50673000D02*
X214122000Y-50673000D01*
X214122000Y-50673000D02*
X214122000Y-49549000D01*
X212090000Y-48468000D02*
X212090000Y-47371000D01*
X212090000Y-47371000D02*
X214122000Y-47371000D01*
X214122000Y-47371000D02*
X214122000Y-48468000D01*
D14*
X212725000Y-49276000D02*
X213487000Y-49276000D01*
X212725000Y-48831500D02*
X213487000Y-48831500D01*
X213487000Y-48831500D02*
X213106000Y-49212500D01*
X213106000Y-49212500D02*
X212725000Y-48831500D01*
D12*
X231394000Y-49549000D02*
X231394000Y-50673000D01*
X231394000Y-50673000D02*
X233426000Y-50673000D01*
X233426000Y-50673000D02*
X233426000Y-49549000D01*
X231394000Y-48468000D02*
X231394000Y-47371000D01*
X231394000Y-47371000D02*
X233426000Y-47371000D01*
X233426000Y-47371000D02*
X233426000Y-48468000D01*
D14*
X232029000Y-49276000D02*
X232791000Y-49276000D01*
X232029000Y-48831500D02*
X232791000Y-48831500D01*
X232791000Y-48831500D02*
X232410000Y-49212500D01*
X232410000Y-49212500D02*
X232029000Y-48831500D01*
D12*
X43942000Y-67837000D02*
X43942000Y-68961000D01*
X43942000Y-68961000D02*
X45974000Y-68961000D01*
X45974000Y-68961000D02*
X45974000Y-67837000D01*
X43942000Y-66756000D02*
X43942000Y-65659000D01*
X43942000Y-65659000D02*
X45974000Y-65659000D01*
X45974000Y-65659000D02*
X45974000Y-66756000D01*
D14*
X44577000Y-67564000D02*
X45339000Y-67564000D01*
X44577000Y-67119500D02*
X45339000Y-67119500D01*
X45339000Y-67119500D02*
X44958000Y-67500500D01*
X44958000Y-67500500D02*
X44577000Y-67119500D01*
D12*
X63754000Y-68345000D02*
X63754000Y-69469000D01*
X63754000Y-69469000D02*
X65786000Y-69469000D01*
X65786000Y-69469000D02*
X65786000Y-68345000D01*
X63754000Y-67264000D02*
X63754000Y-66167000D01*
X63754000Y-66167000D02*
X65786000Y-66167000D01*
X65786000Y-66167000D02*
X65786000Y-67264000D01*
D14*
X64389000Y-68072000D02*
X65151000Y-68072000D01*
X64389000Y-67627500D02*
X65151000Y-67627500D01*
X65151000Y-67627500D02*
X64770000Y-68008500D01*
X64770000Y-68008500D02*
X64389000Y-67627500D01*
D12*
X83566000Y-68345000D02*
X83566000Y-69469000D01*
X83566000Y-69469000D02*
X85598000Y-69469000D01*
X85598000Y-69469000D02*
X85598000Y-68345000D01*
X83566000Y-67264000D02*
X83566000Y-66167000D01*
X83566000Y-66167000D02*
X85598000Y-66167000D01*
X85598000Y-66167000D02*
X85598000Y-67264000D01*
D14*
X84201000Y-68072000D02*
X84963000Y-68072000D01*
X84201000Y-67627500D02*
X84963000Y-67627500D01*
X84963000Y-67627500D02*
X84582000Y-68008500D01*
X84582000Y-68008500D02*
X84201000Y-67627500D01*
D12*
X102870000Y-68345000D02*
X102870000Y-69469000D01*
X102870000Y-69469000D02*
X104902000Y-69469000D01*
X104902000Y-69469000D02*
X104902000Y-68345000D01*
X102870000Y-67264000D02*
X102870000Y-66167000D01*
X102870000Y-66167000D02*
X104902000Y-66167000D01*
X104902000Y-66167000D02*
X104902000Y-67264000D01*
D14*
X103505000Y-68072000D02*
X104267000Y-68072000D01*
X103505000Y-67627500D02*
X104267000Y-67627500D01*
X104267000Y-67627500D02*
X103886000Y-68008500D01*
X103886000Y-68008500D02*
X103505000Y-67627500D01*
D12*
X120650000Y-68345000D02*
X120650000Y-69469000D01*
X120650000Y-69469000D02*
X122682000Y-69469000D01*
X122682000Y-69469000D02*
X122682000Y-68345000D01*
X120650000Y-67264000D02*
X120650000Y-66167000D01*
X120650000Y-66167000D02*
X122682000Y-66167000D01*
X122682000Y-66167000D02*
X122682000Y-67264000D01*
D14*
X121285000Y-68072000D02*
X122047000Y-68072000D01*
X121285000Y-67627500D02*
X122047000Y-67627500D01*
X122047000Y-67627500D02*
X121666000Y-68008500D01*
X121666000Y-68008500D02*
X121285000Y-67627500D01*
D12*
X141478000Y-68345000D02*
X141478000Y-69469000D01*
X141478000Y-69469000D02*
X143510000Y-69469000D01*
X143510000Y-69469000D02*
X143510000Y-68345000D01*
X141478000Y-67264000D02*
X141478000Y-66167000D01*
X141478000Y-66167000D02*
X143510000Y-66167000D01*
X143510000Y-66167000D02*
X143510000Y-67264000D01*
D14*
X142113000Y-68072000D02*
X142875000Y-68072000D01*
X142113000Y-67627500D02*
X142875000Y-67627500D01*
X142875000Y-67627500D02*
X142494000Y-68008500D01*
X142494000Y-68008500D02*
X142113000Y-67627500D01*
D12*
X159258000Y-68345000D02*
X159258000Y-69469000D01*
X159258000Y-69469000D02*
X161290000Y-69469000D01*
X161290000Y-69469000D02*
X161290000Y-68345000D01*
X159258000Y-67264000D02*
X159258000Y-66167000D01*
X159258000Y-66167000D02*
X161290000Y-66167000D01*
X161290000Y-66167000D02*
X161290000Y-67264000D01*
D14*
X159893000Y-68072000D02*
X160655000Y-68072000D01*
X159893000Y-67627500D02*
X160655000Y-67627500D01*
X160655000Y-67627500D02*
X160274000Y-68008500D01*
X160274000Y-68008500D02*
X159893000Y-67627500D01*
D12*
X178054000Y-67837000D02*
X178054000Y-68961000D01*
X178054000Y-68961000D02*
X180086000Y-68961000D01*
X180086000Y-68961000D02*
X180086000Y-67837000D01*
X178054000Y-66756000D02*
X178054000Y-65659000D01*
X178054000Y-65659000D02*
X180086000Y-65659000D01*
X180086000Y-65659000D02*
X180086000Y-66756000D01*
D14*
X178689000Y-67564000D02*
X179451000Y-67564000D01*
X178689000Y-67119500D02*
X179451000Y-67119500D01*
X179451000Y-67119500D02*
X179070000Y-67500500D01*
X179070000Y-67500500D02*
X178689000Y-67119500D01*
D12*
X196850000Y-67837000D02*
X196850000Y-68961000D01*
X196850000Y-68961000D02*
X198882000Y-68961000D01*
X198882000Y-68961000D02*
X198882000Y-67837000D01*
X196850000Y-66756000D02*
X196850000Y-65659000D01*
X196850000Y-65659000D02*
X198882000Y-65659000D01*
X198882000Y-65659000D02*
X198882000Y-66756000D01*
D14*
X197485000Y-67564000D02*
X198247000Y-67564000D01*
X197485000Y-67119500D02*
X198247000Y-67119500D01*
X198247000Y-67119500D02*
X197866000Y-67500500D01*
X197866000Y-67500500D02*
X197485000Y-67119500D01*
D12*
X216662000Y-68345000D02*
X216662000Y-69469000D01*
X216662000Y-69469000D02*
X218694000Y-69469000D01*
X218694000Y-69469000D02*
X218694000Y-68345000D01*
X216662000Y-67264000D02*
X216662000Y-66167000D01*
X216662000Y-66167000D02*
X218694000Y-66167000D01*
X218694000Y-66167000D02*
X218694000Y-67264000D01*
D14*
X217297000Y-68072000D02*
X218059000Y-68072000D01*
X217297000Y-67627500D02*
X218059000Y-67627500D01*
X218059000Y-67627500D02*
X217678000Y-68008500D01*
X217678000Y-68008500D02*
X217297000Y-67627500D01*
D12*
X242062000Y-67837000D02*
X242062000Y-68961000D01*
X242062000Y-68961000D02*
X244094000Y-68961000D01*
X244094000Y-68961000D02*
X244094000Y-67837000D01*
X242062000Y-66756000D02*
X242062000Y-65659000D01*
X242062000Y-65659000D02*
X244094000Y-65659000D01*
X244094000Y-65659000D02*
X244094000Y-66756000D01*
D14*
X242697000Y-67564000D02*
X243459000Y-67564000D01*
X242697000Y-67119500D02*
X243459000Y-67119500D01*
X243459000Y-67119500D02*
X243078000Y-67500500D01*
X243078000Y-67500500D02*
X242697000Y-67119500D01*
D12*
X46482000Y-87141000D02*
X46482000Y-88265000D01*
X46482000Y-88265000D02*
X48514000Y-88265000D01*
X48514000Y-88265000D02*
X48514000Y-87141000D01*
X46482000Y-86060000D02*
X46482000Y-84963000D01*
X46482000Y-84963000D02*
X48514000Y-84963000D01*
X48514000Y-84963000D02*
X48514000Y-86060000D01*
D14*
X47117000Y-86868000D02*
X47879000Y-86868000D01*
X47117000Y-86423500D02*
X47879000Y-86423500D01*
X47879000Y-86423500D02*
X47498000Y-86804500D01*
X47498000Y-86804500D02*
X47117000Y-86423500D01*
D12*
X73406000Y-87649000D02*
X73406000Y-88773000D01*
X73406000Y-88773000D02*
X75438000Y-88773000D01*
X75438000Y-88773000D02*
X75438000Y-87649000D01*
X73406000Y-86568000D02*
X73406000Y-85471000D01*
X73406000Y-85471000D02*
X75438000Y-85471000D01*
X75438000Y-85471000D02*
X75438000Y-86568000D01*
D14*
X74041000Y-87376000D02*
X74803000Y-87376000D01*
X74041000Y-86931500D02*
X74803000Y-86931500D01*
X74803000Y-86931500D02*
X74422000Y-87312500D01*
X74422000Y-87312500D02*
X74041000Y-86931500D01*
D12*
X93726000Y-96501000D02*
X93726000Y-95377000D01*
X93726000Y-95377000D02*
X91694000Y-95377000D01*
X91694000Y-95377000D02*
X91694000Y-96501000D01*
X93726000Y-97582000D02*
X93726000Y-98679000D01*
X93726000Y-98679000D02*
X91694000Y-98679000D01*
X91694000Y-98679000D02*
X91694000Y-97582000D01*
D14*
X93091000Y-96774000D02*
X92329000Y-96774000D01*
X93091000Y-97218500D02*
X92329000Y-97218500D01*
X92329000Y-97218500D02*
X92710000Y-96837500D01*
X92710000Y-96837500D02*
X93091000Y-97218500D01*
D12*
X112522000Y-86887000D02*
X112522000Y-88011000D01*
X112522000Y-88011000D02*
X114554000Y-88011000D01*
X114554000Y-88011000D02*
X114554000Y-86887000D01*
X112522000Y-85806000D02*
X112522000Y-84709000D01*
X112522000Y-84709000D02*
X114554000Y-84709000D01*
X114554000Y-84709000D02*
X114554000Y-85806000D01*
D14*
X113157000Y-86614000D02*
X113919000Y-86614000D01*
X113157000Y-86169500D02*
X113919000Y-86169500D01*
X113919000Y-86169500D02*
X113538000Y-86550500D01*
X113538000Y-86550500D02*
X113157000Y-86169500D01*
D12*
X131064000Y-86887000D02*
X131064000Y-88011000D01*
X131064000Y-88011000D02*
X133096000Y-88011000D01*
X133096000Y-88011000D02*
X133096000Y-86887000D01*
X131064000Y-85806000D02*
X131064000Y-84709000D01*
X131064000Y-84709000D02*
X133096000Y-84709000D01*
X133096000Y-84709000D02*
X133096000Y-85806000D01*
D14*
X131699000Y-86614000D02*
X132461000Y-86614000D01*
X131699000Y-86169500D02*
X132461000Y-86169500D01*
X132461000Y-86169500D02*
X132080000Y-86550500D01*
X132080000Y-86550500D02*
X131699000Y-86169500D01*
D12*
X148844000Y-86633000D02*
X148844000Y-87757000D01*
X148844000Y-87757000D02*
X150876000Y-87757000D01*
X150876000Y-87757000D02*
X150876000Y-86633000D01*
X148844000Y-85552000D02*
X148844000Y-84455000D01*
X148844000Y-84455000D02*
X150876000Y-84455000D01*
X150876000Y-84455000D02*
X150876000Y-85552000D01*
D14*
X149479000Y-86360000D02*
X150241000Y-86360000D01*
X149479000Y-85915500D02*
X150241000Y-85915500D01*
X150241000Y-85915500D02*
X149860000Y-86296500D01*
X149860000Y-86296500D02*
X149479000Y-85915500D01*
D12*
X168402000Y-86633000D02*
X168402000Y-87757000D01*
X168402000Y-87757000D02*
X170434000Y-87757000D01*
X170434000Y-87757000D02*
X170434000Y-86633000D01*
X168402000Y-85552000D02*
X168402000Y-84455000D01*
X168402000Y-84455000D02*
X170434000Y-84455000D01*
X170434000Y-84455000D02*
X170434000Y-85552000D01*
D14*
X169037000Y-86360000D02*
X169799000Y-86360000D01*
X169037000Y-85915500D02*
X169799000Y-85915500D01*
X169799000Y-85915500D02*
X169418000Y-86296500D01*
X169418000Y-86296500D02*
X169037000Y-85915500D01*
D12*
X187706000Y-86887000D02*
X187706000Y-88011000D01*
X187706000Y-88011000D02*
X189738000Y-88011000D01*
X189738000Y-88011000D02*
X189738000Y-86887000D01*
X187706000Y-85806000D02*
X187706000Y-84709000D01*
X187706000Y-84709000D02*
X189738000Y-84709000D01*
X189738000Y-84709000D02*
X189738000Y-85806000D01*
D14*
X188341000Y-86614000D02*
X189103000Y-86614000D01*
X188341000Y-86169500D02*
X189103000Y-86169500D01*
X189103000Y-86169500D02*
X188722000Y-86550500D01*
X188722000Y-86550500D02*
X188341000Y-86169500D01*
D12*
X208026000Y-96501000D02*
X208026000Y-95377000D01*
X208026000Y-95377000D02*
X205994000Y-95377000D01*
X205994000Y-95377000D02*
X205994000Y-96501000D01*
X208026000Y-97582000D02*
X208026000Y-98679000D01*
X208026000Y-98679000D02*
X205994000Y-98679000D01*
X205994000Y-98679000D02*
X205994000Y-97582000D01*
D14*
X207391000Y-96774000D02*
X206629000Y-96774000D01*
X207391000Y-97218500D02*
X206629000Y-97218500D01*
X206629000Y-97218500D02*
X207010000Y-96837500D01*
X207010000Y-96837500D02*
X207391000Y-97218500D01*
D12*
X229362000Y-87649000D02*
X229362000Y-88773000D01*
X229362000Y-88773000D02*
X231394000Y-88773000D01*
X231394000Y-88773000D02*
X231394000Y-87649000D01*
X229362000Y-86568000D02*
X229362000Y-85471000D01*
X229362000Y-85471000D02*
X231394000Y-85471000D01*
X231394000Y-85471000D02*
X231394000Y-86568000D01*
D14*
X229997000Y-87376000D02*
X230759000Y-87376000D01*
X229997000Y-86931500D02*
X230759000Y-86931500D01*
X230759000Y-86931500D02*
X230378000Y-87312500D01*
X230378000Y-87312500D02*
X229997000Y-86931500D01*
D12*
X250952000Y-87903000D02*
X250952000Y-89027000D01*
X250952000Y-89027000D02*
X252984000Y-89027000D01*
X252984000Y-89027000D02*
X252984000Y-87903000D01*
X250952000Y-86822000D02*
X250952000Y-85725000D01*
X250952000Y-85725000D02*
X252984000Y-85725000D01*
X252984000Y-85725000D02*
X252984000Y-86822000D01*
D14*
X251587000Y-87630000D02*
X252349000Y-87630000D01*
X251587000Y-87185500D02*
X252349000Y-87185500D01*
X252349000Y-87185500D02*
X251968000Y-87566500D01*
X251968000Y-87566500D02*
X251587000Y-87185500D01*
D12*
X43942000Y-105937000D02*
X43942000Y-107061000D01*
X43942000Y-107061000D02*
X45974000Y-107061000D01*
X45974000Y-107061000D02*
X45974000Y-105937000D01*
X43942000Y-104856000D02*
X43942000Y-103759000D01*
X43942000Y-103759000D02*
X45974000Y-103759000D01*
X45974000Y-103759000D02*
X45974000Y-104856000D01*
D14*
X44577000Y-105664000D02*
X45339000Y-105664000D01*
X44577000Y-105219500D02*
X45339000Y-105219500D01*
X45339000Y-105219500D02*
X44958000Y-105600500D01*
X44958000Y-105600500D02*
X44577000Y-105219500D01*
D12*
X64262000Y-105937000D02*
X64262000Y-107061000D01*
X64262000Y-107061000D02*
X66294000Y-107061000D01*
X66294000Y-107061000D02*
X66294000Y-105937000D01*
X64262000Y-104856000D02*
X64262000Y-103759000D01*
X64262000Y-103759000D02*
X66294000Y-103759000D01*
X66294000Y-103759000D02*
X66294000Y-104856000D01*
D14*
X64897000Y-105664000D02*
X65659000Y-105664000D01*
X64897000Y-105219500D02*
X65659000Y-105219500D01*
X65659000Y-105219500D02*
X65278000Y-105600500D01*
X65278000Y-105600500D02*
X64897000Y-105219500D01*
D12*
X83312000Y-105937000D02*
X83312000Y-107061000D01*
X83312000Y-107061000D02*
X85344000Y-107061000D01*
X85344000Y-107061000D02*
X85344000Y-105937000D01*
X83312000Y-104856000D02*
X83312000Y-103759000D01*
X83312000Y-103759000D02*
X85344000Y-103759000D01*
X85344000Y-103759000D02*
X85344000Y-104856000D01*
D14*
X83947000Y-105664000D02*
X84709000Y-105664000D01*
X83947000Y-105219500D02*
X84709000Y-105219500D01*
X84709000Y-105219500D02*
X84328000Y-105600500D01*
X84328000Y-105600500D02*
X83947000Y-105219500D01*
D12*
X152654000Y-106699000D02*
X152654000Y-107823000D01*
X152654000Y-107823000D02*
X154686000Y-107823000D01*
X154686000Y-107823000D02*
X154686000Y-106699000D01*
X152654000Y-105618000D02*
X152654000Y-104521000D01*
X152654000Y-104521000D02*
X154686000Y-104521000D01*
X154686000Y-104521000D02*
X154686000Y-105618000D01*
D14*
X153289000Y-106426000D02*
X154051000Y-106426000D01*
X153289000Y-105981500D02*
X154051000Y-105981500D01*
X154051000Y-105981500D02*
X153670000Y-106362500D01*
X153670000Y-106362500D02*
X153289000Y-105981500D01*
D12*
X224028000Y-106445000D02*
X224028000Y-107569000D01*
X224028000Y-107569000D02*
X226060000Y-107569000D01*
X226060000Y-107569000D02*
X226060000Y-106445000D01*
X224028000Y-105364000D02*
X224028000Y-104267000D01*
X224028000Y-104267000D02*
X226060000Y-104267000D01*
X226060000Y-104267000D02*
X226060000Y-105364000D01*
D14*
X224663000Y-106172000D02*
X225425000Y-106172000D01*
X224663000Y-105727500D02*
X225425000Y-105727500D01*
X225425000Y-105727500D02*
X225044000Y-106108500D01*
X225044000Y-106108500D02*
X224663000Y-105727500D01*
D12*
X248412000Y-106699000D02*
X248412000Y-107823000D01*
X248412000Y-107823000D02*
X250444000Y-107823000D01*
X250444000Y-107823000D02*
X250444000Y-106699000D01*
X248412000Y-105618000D02*
X248412000Y-104521000D01*
X248412000Y-104521000D02*
X250444000Y-104521000D01*
X250444000Y-104521000D02*
X250444000Y-105618000D01*
D14*
X249047000Y-106426000D02*
X249809000Y-106426000D01*
X249047000Y-105981500D02*
X249809000Y-105981500D01*
X249809000Y-105981500D02*
X249428000Y-106362500D01*
X249428000Y-106362500D02*
X249047000Y-105981500D01*
D12*
X250698000Y-49549000D02*
X250698000Y-50673000D01*
X250698000Y-50673000D02*
X252730000Y-50673000D01*
X252730000Y-50673000D02*
X252730000Y-49549000D01*
X250698000Y-48468000D02*
X250698000Y-47371000D01*
X250698000Y-47371000D02*
X252730000Y-47371000D01*
X252730000Y-47371000D02*
X252730000Y-48468000D01*
D14*
X251333000Y-49276000D02*
X252095000Y-49276000D01*
X251333000Y-48831500D02*
X252095000Y-48831500D01*
X252095000Y-48831500D02*
X251714000Y-49212500D01*
X251714000Y-49212500D02*
X251333000Y-48831500D01*
D15*
X121488200Y-114477800D02*
X131495800Y-114477800D01*
X131495800Y-114477800D02*
X131495800Y-104470200D01*
X121970800Y-104470200D02*
X131495800Y-104470200D01*
X121488200Y-104952800D02*
X121488200Y-114477800D01*
X121970800Y-104470200D02*
X121488200Y-104952800D01*
D16*
X123317000Y-105664000D02*
G75*
G03X123317000Y-105664000I-635000J0D01*
G01*
D13*
X71007000Y-47914000D02*
X71007000Y-49114000D01*
X72757000Y-49114000D02*
X72757000Y-47914000D01*
X109107000Y-47914000D02*
X109107000Y-49114000D01*
X110857000Y-49114000D02*
X110857000Y-47914000D01*
X127903000Y-47914000D02*
X127903000Y-49114000D01*
X129653000Y-49114000D02*
X129653000Y-47914000D01*
X146699000Y-47914000D02*
X146699000Y-49114000D01*
X148449000Y-49114000D02*
X148449000Y-47914000D01*
X165495000Y-47914000D02*
X165495000Y-49114000D01*
X167245000Y-49114000D02*
X167245000Y-47914000D01*
X184799000Y-47914000D02*
X184799000Y-49114000D01*
X186549000Y-49114000D02*
X186549000Y-47914000D01*
X204103000Y-48422000D02*
X204103000Y-49622000D01*
X205853000Y-49622000D02*
X205853000Y-48422000D01*
X222899000Y-48422000D02*
X222899000Y-49622000D01*
X224649000Y-49622000D02*
X224649000Y-48422000D01*
X241695000Y-48422000D02*
X241695000Y-49622000D01*
X243445000Y-49622000D02*
X243445000Y-48422000D01*
X260491000Y-48422000D02*
X260491000Y-49622000D01*
X262241000Y-49622000D02*
X262241000Y-48422000D01*
X53453000Y-67402000D02*
X53453000Y-66202000D01*
X51703000Y-66202000D02*
X51703000Y-67402000D01*
X39765000Y-48168000D02*
X39765000Y-49368000D01*
X41515000Y-49368000D02*
X41515000Y-48168000D01*
X89295000Y-48422000D02*
X89295000Y-49622000D01*
X91045000Y-49622000D02*
X91045000Y-48422000D01*
X75579000Y-67218000D02*
X75579000Y-68418000D01*
X77329000Y-68418000D02*
X77329000Y-67218000D01*
X94375000Y-67218000D02*
X94375000Y-68418000D01*
X96125000Y-68418000D02*
X96125000Y-67218000D01*
X113679000Y-67218000D02*
X113679000Y-68418000D01*
X115429000Y-68418000D02*
X115429000Y-67218000D01*
X132475000Y-67218000D02*
X132475000Y-68418000D01*
X134225000Y-68418000D02*
X134225000Y-67218000D01*
X151271000Y-67218000D02*
X151271000Y-68418000D01*
X153021000Y-68418000D02*
X153021000Y-67218000D01*
X170575000Y-67218000D02*
X170575000Y-68418000D01*
X172325000Y-68418000D02*
X172325000Y-67218000D01*
X189371000Y-67218000D02*
X189371000Y-68418000D01*
X191121000Y-68418000D02*
X191121000Y-67218000D01*
X208167000Y-67726000D02*
X208167000Y-68926000D01*
X209917000Y-68926000D02*
X209917000Y-67726000D01*
X227471000Y-67218000D02*
X227471000Y-68418000D01*
X229221000Y-68418000D02*
X229221000Y-67218000D01*
X253379000Y-67218000D02*
X253379000Y-68418000D01*
X255129000Y-68418000D02*
X255129000Y-67218000D01*
X59041000Y-86706000D02*
X59041000Y-85506000D01*
X57291000Y-85506000D02*
X57291000Y-86706000D01*
X84215000Y-86522000D02*
X84215000Y-87722000D01*
X85965000Y-87722000D02*
X85965000Y-86522000D01*
X91327000Y-86268000D02*
X91327000Y-87468000D01*
X93077000Y-87468000D02*
X93077000Y-86268000D01*
X121553000Y-86014000D02*
X121553000Y-87214000D01*
X123303000Y-87214000D02*
X123303000Y-86014000D01*
X142127000Y-86268000D02*
X142127000Y-87468000D01*
X143877000Y-87468000D02*
X143877000Y-86268000D01*
X161431000Y-84998000D02*
X161431000Y-86198000D01*
X163181000Y-86198000D02*
X163181000Y-84998000D01*
X179973000Y-86014000D02*
X179973000Y-87214000D01*
X181723000Y-87214000D02*
X181723000Y-86014000D01*
X199277000Y-85760000D02*
X199277000Y-86960000D01*
X201027000Y-86960000D02*
X201027000Y-85760000D01*
X205627000Y-86268000D02*
X205627000Y-87468000D01*
X207377000Y-87468000D02*
X207377000Y-86268000D01*
X238647000Y-86268000D02*
X238647000Y-87468000D01*
X240397000Y-87468000D02*
X240397000Y-86268000D01*
X250839000Y-82458000D02*
X250839000Y-83658000D01*
X252589000Y-83658000D02*
X252589000Y-82458000D01*
X53961000Y-106010000D02*
X53961000Y-104810000D01*
X52211000Y-104810000D02*
X52211000Y-106010000D01*
X75579000Y-105318000D02*
X75579000Y-106518000D01*
X77329000Y-106518000D02*
X77329000Y-105318000D01*
X94121000Y-105318000D02*
X94121000Y-106518000D01*
X95871000Y-106518000D02*
X95871000Y-105318000D01*
X162701000Y-105318000D02*
X162701000Y-106518000D01*
X164451000Y-106518000D02*
X164451000Y-105318000D01*
X234837000Y-105572000D02*
X234837000Y-106772000D01*
X236587000Y-106772000D02*
X236587000Y-105572000D01*
X256935000Y-105064000D02*
X256935000Y-106264000D01*
X258685000Y-106264000D02*
X258685000Y-105064000D01*
X99222000Y-64121000D02*
X100422000Y-64121000D01*
X100422000Y-62371000D02*
X99222000Y-62371000D01*
X231872840Y-65135760D02*
X231921100Y-65135760D01*
X234671820Y-65836800D02*
X234671820Y-65135760D01*
X234671820Y-65135760D02*
X234422900Y-65135760D01*
X231872840Y-65135760D02*
X231672180Y-65135760D01*
X231672180Y-65135760D02*
X231672180Y-65836800D01*
X55767000Y-54518000D02*
X55767000Y-55718000D01*
X57517000Y-55718000D02*
X57517000Y-54518000D01*
X53227000Y-54518000D02*
X53227000Y-55718000D01*
X54977000Y-55718000D02*
X54977000Y-54518000D01*
X117002000Y-116445000D02*
X118202000Y-116445000D01*
X118202000Y-114695000D02*
X117002000Y-114695000D01*
X233772000Y-71261000D02*
X232572000Y-71261000D01*
X232572000Y-73011000D02*
X233772000Y-73011000D01*
X134782000Y-102221000D02*
X135982000Y-102221000D01*
X135982000Y-100471000D02*
X134782000Y-100471000D01*
X104307000Y-62976000D02*
X105807000Y-64476000D01*
X109307000Y-59476000D02*
X104307000Y-59476000D01*
X104307000Y-59476000D02*
X104307000Y-64476000D01*
X104307000Y-64476000D02*
X109307000Y-64476000D01*
X109307000Y-64476000D02*
X109307000Y-59476000D01*
X67477000Y-62976000D02*
X68977000Y-64476000D01*
X72477000Y-59476000D02*
X67477000Y-59476000D01*
X67477000Y-59476000D02*
X67477000Y-64476000D01*
X67477000Y-64476000D02*
X72477000Y-64476000D01*
X72477000Y-64476000D02*
X72477000Y-59476000D01*
X140502000Y-62976000D02*
X142002000Y-64476000D01*
X145502000Y-59476000D02*
X140502000Y-59476000D01*
X140502000Y-59476000D02*
X140502000Y-64476000D01*
X140502000Y-64476000D02*
X145502000Y-64476000D01*
X145502000Y-64476000D02*
X145502000Y-59476000D01*
X179872000Y-62976000D02*
X181372000Y-64476000D01*
X184872000Y-59476000D02*
X179872000Y-59476000D01*
X179872000Y-59476000D02*
X179872000Y-64476000D01*
X179872000Y-64476000D02*
X184872000Y-64476000D01*
X184872000Y-64476000D02*
X184872000Y-59476000D01*
X221147000Y-62976000D02*
X222647000Y-64476000D01*
X226147000Y-59476000D02*
X221147000Y-59476000D01*
X221147000Y-59476000D02*
X221147000Y-64476000D01*
X221147000Y-64476000D02*
X226147000Y-64476000D01*
X226147000Y-64476000D02*
X226147000Y-59476000D01*
X262366000Y-84796000D02*
X263866000Y-83296000D01*
X258866000Y-79796000D02*
X258866000Y-84796000D01*
X258866000Y-84796000D02*
X263866000Y-84796000D01*
X263866000Y-84796000D02*
X263866000Y-79796000D01*
X263866000Y-79796000D02*
X258866000Y-79796000D01*
X214924000Y-103108000D02*
X216424000Y-104608000D01*
X219924000Y-99608000D02*
X214924000Y-99608000D01*
X214924000Y-99608000D02*
X214924000Y-104608000D01*
X214924000Y-104608000D02*
X219924000Y-104608000D01*
X219924000Y-104608000D02*
X219924000Y-99608000D01*
X179364000Y-101076000D02*
X180864000Y-102576000D01*
X184364000Y-97576000D02*
X179364000Y-97576000D01*
X179364000Y-97576000D02*
X179364000Y-102576000D01*
X179364000Y-102576000D02*
X184364000Y-102576000D01*
X184364000Y-102576000D02*
X184364000Y-97576000D01*
X147106000Y-101330000D02*
X148606000Y-102830000D01*
X152106000Y-97830000D02*
X147106000Y-97830000D01*
X147106000Y-97830000D02*
X147106000Y-102830000D01*
X147106000Y-102830000D02*
X152106000Y-102830000D01*
X152106000Y-102830000D02*
X152106000Y-97830000D01*
X98592000Y-101330000D02*
X100092000Y-102830000D01*
X103592000Y-97830000D02*
X98592000Y-97830000D01*
X98592000Y-97830000D02*
X98592000Y-102830000D01*
X98592000Y-102830000D02*
X103592000Y-102830000D01*
X103592000Y-102830000D02*
X103592000Y-97830000D01*
X68112000Y-100314000D02*
X69612000Y-101814000D01*
X73112000Y-96814000D02*
X68112000Y-96814000D01*
X68112000Y-96814000D02*
X68112000Y-101814000D01*
X68112000Y-101814000D02*
X73112000Y-101814000D01*
X73112000Y-101814000D02*
X73112000Y-96814000D01*
X41132000Y-88860000D02*
X42632000Y-87360000D01*
X37632000Y-83860000D02*
X37632000Y-88860000D01*
X37632000Y-88860000D02*
X42632000Y-88860000D01*
X42632000Y-88860000D02*
X42632000Y-83860000D01*
X42632000Y-83860000D02*
X37632000Y-83860000D01*
D17*
X225783140Y-91186000D02*
G75*
G03X225783140Y-91186000I-1501140J0D01*
G01*
X226631500Y-94284800D02*
X226631500Y-94785180D01*
X226631500Y-94785180D02*
X225933000Y-94785180D01*
X225933000Y-94785180D02*
X225933000Y-94284800D01*
X221932500Y-94785180D02*
X221932500Y-94284800D01*
X222631000Y-94785180D02*
X221932500Y-94785180D01*
X222631000Y-94284800D02*
X222631000Y-94785180D01*
X222631000Y-88087200D02*
X222631000Y-87586820D01*
X222631000Y-87586820D02*
X221932500Y-87586820D01*
X221932500Y-87586820D02*
X221932500Y-88087200D01*
X226631500Y-88087200D02*
X226631500Y-87586820D01*
X226631500Y-87586820D02*
X225933000Y-87586820D01*
X225933000Y-87586820D02*
X225933000Y-88087200D01*
D18*
X221183200Y-93985080D02*
X221183200Y-88386920D01*
X227380800Y-93985080D02*
X227380800Y-88386920D01*
X227281740Y-94284800D02*
X227281740Y-88087200D01*
X227281740Y-88087200D02*
X221282260Y-88087200D01*
X221282260Y-88087200D02*
X221282260Y-94284800D01*
X221282260Y-94284800D02*
X227281740Y-94284800D01*
D13*
X138191240Y-112395000D02*
X138592560Y-112595660D01*
X138592560Y-112595660D02*
X139192000Y-112697260D01*
X139192000Y-112697260D02*
X139692380Y-112595660D01*
X139692380Y-112595660D02*
X140390880Y-112196880D01*
X140390880Y-112196880D02*
X140792200Y-111594900D01*
X140792200Y-111594900D02*
X140992860Y-110995460D01*
X140992860Y-110995460D02*
X140992860Y-104396540D01*
X140992860Y-104396540D02*
X140792200Y-103695500D01*
X140792200Y-103695500D02*
X140492480Y-103296720D01*
X140492480Y-103296720D02*
X139992100Y-102895400D01*
X139992100Y-102895400D02*
X139392660Y-102694740D01*
X139392660Y-102694740D02*
X138892280Y-102694740D01*
X138892280Y-102694740D02*
X138391900Y-102895400D01*
X138391900Y-102895400D02*
X137792460Y-103395780D01*
X137792460Y-103395780D02*
X137492740Y-103896160D01*
X137492740Y-103896160D02*
X137391140Y-104396540D01*
X137391140Y-104495600D02*
X137391140Y-111097060D01*
X137391140Y-111097060D02*
X137492740Y-111495840D01*
X137492740Y-111495840D02*
X137792460Y-111996220D01*
X137792460Y-111996220D02*
X138292840Y-112496600D01*
X136862820Y-104505760D02*
X136911080Y-104046020D01*
X136911080Y-104046020D02*
X137022840Y-103647240D01*
X137022840Y-103647240D02*
X137241280Y-103215440D01*
X137241280Y-103215440D02*
X137472420Y-102925880D01*
X137472420Y-102925880D02*
X137822940Y-102595680D01*
X137822940Y-102595680D02*
X138361420Y-102306120D01*
X138361420Y-102306120D02*
X138960860Y-102176580D01*
X138960860Y-102176580D02*
X139471400Y-102176580D01*
X139471400Y-102176580D02*
X140172440Y-102346760D01*
X140172440Y-102346760D02*
X140761720Y-102745540D01*
X140761720Y-102745540D02*
X141132560Y-103205280D01*
X141132560Y-103205280D02*
X141340840Y-103626920D01*
X141340840Y-103626920D02*
X141500860Y-104076500D01*
X141500860Y-104076500D02*
X141531340Y-104515920D01*
X141312900Y-111856520D02*
X141091920Y-112234980D01*
X141091920Y-112234980D02*
X140812520Y-112555020D01*
X140812520Y-112555020D02*
X140482320Y-112806480D01*
X140482320Y-112806480D02*
X139931140Y-113106200D01*
X139931140Y-113106200D02*
X139461240Y-113215420D01*
X139461240Y-113215420D02*
X139001500Y-113235740D01*
X139001500Y-113235740D02*
X138541760Y-113146840D01*
X138541760Y-113146840D02*
X138092180Y-112956340D01*
X138092180Y-112956340D02*
X137622280Y-112595660D01*
X137622280Y-112595660D02*
X137302240Y-112245140D01*
X137302240Y-112245140D02*
X137071100Y-111856520D01*
X137071100Y-111856520D02*
X136931400Y-111427260D01*
X136931400Y-111427260D02*
X136862820Y-110985300D01*
X141521180Y-104495600D02*
X141521180Y-110947200D01*
X141521180Y-110947200D02*
X141483080Y-111366300D01*
X141483080Y-111366300D02*
X141312900Y-111856520D01*
X136862820Y-104495600D02*
X136862820Y-110947200D01*
X142275143Y-105751334D02*
X142322762Y-105703715D01*
X142370381Y-105560858D01*
X142370381Y-105465620D01*
X142322762Y-105322762D01*
X142227524Y-105227524D01*
X142132286Y-105179905D01*
X141941810Y-105132286D01*
X141798952Y-105132286D01*
X141608476Y-105179905D01*
X141513238Y-105227524D01*
X141418000Y-105322762D01*
X141370381Y-105465620D01*
X141370381Y-105560858D01*
X141418000Y-105703715D01*
X141465619Y-105751334D01*
X142370381Y-106703715D02*
X142370381Y-106132286D01*
X142370381Y-106418000D02*
X141370381Y-106418000D01*
X141513238Y-106322762D01*
X141608476Y-106227524D01*
X141656095Y-106132286D01*
X146475143Y-109815334D02*
X146522762Y-109767715D01*
X146570381Y-109624858D01*
X146570381Y-109529620D01*
X146522762Y-109386762D01*
X146427524Y-109291524D01*
X146332286Y-109243905D01*
X146141810Y-109196286D01*
X145998952Y-109196286D01*
X145808476Y-109243905D01*
X145713238Y-109291524D01*
X145618000Y-109386762D01*
X145570381Y-109529620D01*
X145570381Y-109624858D01*
X145618000Y-109767715D01*
X145665619Y-109815334D01*
X145665619Y-110196286D02*
X145618000Y-110243905D01*
X145570381Y-110339143D01*
X145570381Y-110577239D01*
X145618000Y-110672477D01*
X145665619Y-110720096D01*
X145760857Y-110767715D01*
X145856095Y-110767715D01*
X145998952Y-110720096D01*
X146570381Y-110148667D01*
X146570381Y-110767715D01*
X118276666Y-98587143D02*
X118324285Y-98634762D01*
X118467142Y-98682381D01*
X118562380Y-98682381D01*
X118705238Y-98634762D01*
X118800476Y-98539524D01*
X118848095Y-98444286D01*
X118895714Y-98253810D01*
X118895714Y-98110952D01*
X118848095Y-97920476D01*
X118800476Y-97825238D01*
X118705238Y-97730000D01*
X118562380Y-97682381D01*
X118467142Y-97682381D01*
X118324285Y-97730000D01*
X118276666Y-97777619D01*
X117943333Y-97682381D02*
X117324285Y-97682381D01*
X117657619Y-98063333D01*
X117514761Y-98063333D01*
X117419523Y-98110952D01*
X117371904Y-98158571D01*
X117324285Y-98253810D01*
X117324285Y-98491905D01*
X117371904Y-98587143D01*
X117419523Y-98634762D01*
X117514761Y-98682381D01*
X117800476Y-98682381D01*
X117895714Y-98634762D01*
X117943333Y-98587143D01*
X115995143Y-113371334D02*
X116042762Y-113323715D01*
X116090381Y-113180858D01*
X116090381Y-113085620D01*
X116042762Y-112942762D01*
X115947524Y-112847524D01*
X115852286Y-112799905D01*
X115661810Y-112752286D01*
X115518952Y-112752286D01*
X115328476Y-112799905D01*
X115233238Y-112847524D01*
X115138000Y-112942762D01*
X115090381Y-113085620D01*
X115090381Y-113180858D01*
X115138000Y-113323715D01*
X115185619Y-113371334D01*
X115423714Y-114228477D02*
X116090381Y-114228477D01*
X115042762Y-113990381D02*
X115757048Y-113752286D01*
X115757048Y-114371334D01*
X146475143Y-113879334D02*
X146522762Y-113831715D01*
X146570381Y-113688858D01*
X146570381Y-113593620D01*
X146522762Y-113450762D01*
X146427524Y-113355524D01*
X146332286Y-113307905D01*
X146141810Y-113260286D01*
X145998952Y-113260286D01*
X145808476Y-113307905D01*
X145713238Y-113355524D01*
X145618000Y-113450762D01*
X145570381Y-113593620D01*
X145570381Y-113688858D01*
X145618000Y-113831715D01*
X145665619Y-113879334D01*
X145570381Y-114784096D02*
X145570381Y-114307905D01*
X146046571Y-114260286D01*
X145998952Y-114307905D01*
X145951333Y-114403143D01*
X145951333Y-114641239D01*
X145998952Y-114736477D01*
X146046571Y-114784096D01*
X146141810Y-114831715D01*
X146379905Y-114831715D01*
X146475143Y-114784096D01*
X146522762Y-114736477D01*
X146570381Y-114641239D01*
X146570381Y-114403143D01*
X146522762Y-114307905D01*
X146475143Y-114260286D01*
X115995143Y-103211334D02*
X116042762Y-103163715D01*
X116090381Y-103020858D01*
X116090381Y-102925620D01*
X116042762Y-102782762D01*
X115947524Y-102687524D01*
X115852286Y-102639905D01*
X115661810Y-102592286D01*
X115518952Y-102592286D01*
X115328476Y-102639905D01*
X115233238Y-102687524D01*
X115138000Y-102782762D01*
X115090381Y-102925620D01*
X115090381Y-103020858D01*
X115138000Y-103163715D01*
X115185619Y-103211334D01*
X115090381Y-104068477D02*
X115090381Y-103878000D01*
X115138000Y-103782762D01*
X115185619Y-103735143D01*
X115328476Y-103639905D01*
X115518952Y-103592286D01*
X115899905Y-103592286D01*
X115995143Y-103639905D01*
X116042762Y-103687524D01*
X116090381Y-103782762D01*
X116090381Y-103973239D01*
X116042762Y-104068477D01*
X115995143Y-104116096D01*
X115899905Y-104163715D01*
X115661810Y-104163715D01*
X115566571Y-104116096D01*
X115518952Y-104068477D01*
X115471333Y-103973239D01*
X115471333Y-103782762D01*
X115518952Y-103687524D01*
X115566571Y-103639905D01*
X115661810Y-103592286D01*
X142275143Y-101687334D02*
X142322762Y-101639715D01*
X142370381Y-101496858D01*
X142370381Y-101401620D01*
X142322762Y-101258762D01*
X142227524Y-101163524D01*
X142132286Y-101115905D01*
X141941810Y-101068286D01*
X141798952Y-101068286D01*
X141608476Y-101115905D01*
X141513238Y-101163524D01*
X141418000Y-101258762D01*
X141370381Y-101401620D01*
X141370381Y-101496858D01*
X141418000Y-101639715D01*
X141465619Y-101687334D01*
X141370381Y-102020667D02*
X141370381Y-102687334D01*
X142370381Y-102258762D01*
X51220666Y-59979143D02*
X51268285Y-60026762D01*
X51411142Y-60074381D01*
X51506380Y-60074381D01*
X51649238Y-60026762D01*
X51744476Y-59931524D01*
X51792095Y-59836286D01*
X51839714Y-59645810D01*
X51839714Y-59502952D01*
X51792095Y-59312476D01*
X51744476Y-59217238D01*
X51649238Y-59122000D01*
X51506380Y-59074381D01*
X51411142Y-59074381D01*
X51268285Y-59122000D01*
X51220666Y-59169619D01*
X50649238Y-59502952D02*
X50744476Y-59455333D01*
X50792095Y-59407714D01*
X50839714Y-59312476D01*
X50839714Y-59264857D01*
X50792095Y-59169619D01*
X50744476Y-59122000D01*
X50649238Y-59074381D01*
X50458761Y-59074381D01*
X50363523Y-59122000D01*
X50315904Y-59169619D01*
X50268285Y-59264857D01*
X50268285Y-59312476D01*
X50315904Y-59407714D01*
X50363523Y-59455333D01*
X50458761Y-59502952D01*
X50649238Y-59502952D01*
X50744476Y-59550571D01*
X50792095Y-59598190D01*
X50839714Y-59693429D01*
X50839714Y-59883905D01*
X50792095Y-59979143D01*
X50744476Y-60026762D01*
X50649238Y-60074381D01*
X50458761Y-60074381D01*
X50363523Y-60026762D01*
X50315904Y-59979143D01*
X50268285Y-59883905D01*
X50268285Y-59693429D01*
X50315904Y-59598190D01*
X50363523Y-59550571D01*
X50458761Y-59502952D01*
D19*
X42205976Y-58491881D02*
X41270976Y-58491881D01*
X41270976Y-58714500D01*
X41315500Y-58848072D01*
X41404548Y-58937119D01*
X41493595Y-58981643D01*
X41671690Y-59026167D01*
X41805262Y-59026167D01*
X41983357Y-58981643D01*
X42072405Y-58937119D01*
X42161452Y-58848072D01*
X42205976Y-58714500D01*
X42205976Y-58491881D01*
X42205976Y-59916643D02*
X42205976Y-59382357D01*
X42205976Y-59649500D02*
X41270976Y-59649500D01*
X41404548Y-59560452D01*
X41493595Y-59471405D01*
X41538119Y-59382357D01*
X64049976Y-48331881D02*
X63114976Y-48331881D01*
X63114976Y-48554500D01*
X63159500Y-48688072D01*
X63248548Y-48777119D01*
X63337595Y-48821643D01*
X63515690Y-48866167D01*
X63649262Y-48866167D01*
X63827357Y-48821643D01*
X63916405Y-48777119D01*
X64005452Y-48688072D01*
X64049976Y-48554500D01*
X64049976Y-48331881D01*
X63204024Y-49222357D02*
X63159500Y-49266881D01*
X63114976Y-49355929D01*
X63114976Y-49578548D01*
X63159500Y-49667595D01*
X63204024Y-49712119D01*
X63293071Y-49756643D01*
X63382119Y-49756643D01*
X63515690Y-49712119D01*
X64049976Y-49177833D01*
X64049976Y-49756643D01*
X81829976Y-48331881D02*
X80894976Y-48331881D01*
X80894976Y-48554500D01*
X80939500Y-48688072D01*
X81028548Y-48777119D01*
X81117595Y-48821643D01*
X81295690Y-48866167D01*
X81429262Y-48866167D01*
X81607357Y-48821643D01*
X81696405Y-48777119D01*
X81785452Y-48688072D01*
X81829976Y-48554500D01*
X81829976Y-48331881D01*
X80894976Y-49177833D02*
X80894976Y-49756643D01*
X81251167Y-49444976D01*
X81251167Y-49578548D01*
X81295690Y-49667595D01*
X81340214Y-49712119D01*
X81429262Y-49756643D01*
X81651881Y-49756643D01*
X81740929Y-49712119D01*
X81785452Y-49667595D01*
X81829976Y-49578548D01*
X81829976Y-49311405D01*
X81785452Y-49222357D01*
X81740929Y-49177833D01*
X100117976Y-48839881D02*
X99182976Y-48839881D01*
X99182976Y-49062500D01*
X99227500Y-49196072D01*
X99316548Y-49285119D01*
X99405595Y-49329643D01*
X99583690Y-49374167D01*
X99717262Y-49374167D01*
X99895357Y-49329643D01*
X99984405Y-49285119D01*
X100073452Y-49196072D01*
X100117976Y-49062500D01*
X100117976Y-48839881D01*
X99494643Y-50175595D02*
X100117976Y-50175595D01*
X99138452Y-49952976D02*
X99806310Y-49730357D01*
X99806310Y-50309167D01*
X118913976Y-48331881D02*
X117978976Y-48331881D01*
X117978976Y-48554500D01*
X118023500Y-48688072D01*
X118112548Y-48777119D01*
X118201595Y-48821643D01*
X118379690Y-48866167D01*
X118513262Y-48866167D01*
X118691357Y-48821643D01*
X118780405Y-48777119D01*
X118869452Y-48688072D01*
X118913976Y-48554500D01*
X118913976Y-48331881D01*
X117978976Y-49712119D02*
X117978976Y-49266881D01*
X118424214Y-49222357D01*
X118379690Y-49266881D01*
X118335167Y-49355929D01*
X118335167Y-49578548D01*
X118379690Y-49667595D01*
X118424214Y-49712119D01*
X118513262Y-49756643D01*
X118735881Y-49756643D01*
X118824929Y-49712119D01*
X118869452Y-49667595D01*
X118913976Y-49578548D01*
X118913976Y-49355929D01*
X118869452Y-49266881D01*
X118824929Y-49222357D01*
X139233976Y-48331881D02*
X138298976Y-48331881D01*
X138298976Y-48554500D01*
X138343500Y-48688072D01*
X138432548Y-48777119D01*
X138521595Y-48821643D01*
X138699690Y-48866167D01*
X138833262Y-48866167D01*
X139011357Y-48821643D01*
X139100405Y-48777119D01*
X139189452Y-48688072D01*
X139233976Y-48554500D01*
X139233976Y-48331881D01*
X138298976Y-49667595D02*
X138298976Y-49489500D01*
X138343500Y-49400452D01*
X138388024Y-49355929D01*
X138521595Y-49266881D01*
X138699690Y-49222357D01*
X139055881Y-49222357D01*
X139144929Y-49266881D01*
X139189452Y-49311405D01*
X139233976Y-49400452D01*
X139233976Y-49578548D01*
X139189452Y-49667595D01*
X139144929Y-49712119D01*
X139055881Y-49756643D01*
X138833262Y-49756643D01*
X138744214Y-49712119D01*
X138699690Y-49667595D01*
X138655167Y-49578548D01*
X138655167Y-49400452D01*
X138699690Y-49311405D01*
X138744214Y-49266881D01*
X138833262Y-49222357D01*
X158029976Y-48331881D02*
X157094976Y-48331881D01*
X157094976Y-48554500D01*
X157139500Y-48688072D01*
X157228548Y-48777119D01*
X157317595Y-48821643D01*
X157495690Y-48866167D01*
X157629262Y-48866167D01*
X157807357Y-48821643D01*
X157896405Y-48777119D01*
X157985452Y-48688072D01*
X158029976Y-48554500D01*
X158029976Y-48331881D01*
X157094976Y-49177833D02*
X157094976Y-49801167D01*
X158029976Y-49400452D01*
X176825976Y-48331881D02*
X175890976Y-48331881D01*
X175890976Y-48554500D01*
X175935500Y-48688072D01*
X176024548Y-48777119D01*
X176113595Y-48821643D01*
X176291690Y-48866167D01*
X176425262Y-48866167D01*
X176603357Y-48821643D01*
X176692405Y-48777119D01*
X176781452Y-48688072D01*
X176825976Y-48554500D01*
X176825976Y-48331881D01*
X176291690Y-49400452D02*
X176247167Y-49311405D01*
X176202643Y-49266881D01*
X176113595Y-49222357D01*
X176069071Y-49222357D01*
X175980024Y-49266881D01*
X175935500Y-49311405D01*
X175890976Y-49400452D01*
X175890976Y-49578548D01*
X175935500Y-49667595D01*
X175980024Y-49712119D01*
X176069071Y-49756643D01*
X176113595Y-49756643D01*
X176202643Y-49712119D01*
X176247167Y-49667595D01*
X176291690Y-49578548D01*
X176291690Y-49400452D01*
X176336214Y-49311405D01*
X176380738Y-49266881D01*
X176469786Y-49222357D01*
X176647881Y-49222357D01*
X176736929Y-49266881D01*
X176781452Y-49311405D01*
X176825976Y-49400452D01*
X176825976Y-49578548D01*
X176781452Y-49667595D01*
X176736929Y-49712119D01*
X176647881Y-49756643D01*
X176469786Y-49756643D01*
X176380738Y-49712119D01*
X176336214Y-49667595D01*
X176291690Y-49578548D01*
X196129976Y-48331881D02*
X195194976Y-48331881D01*
X195194976Y-48554500D01*
X195239500Y-48688072D01*
X195328548Y-48777119D01*
X195417595Y-48821643D01*
X195595690Y-48866167D01*
X195729262Y-48866167D01*
X195907357Y-48821643D01*
X195996405Y-48777119D01*
X196085452Y-48688072D01*
X196129976Y-48554500D01*
X196129976Y-48331881D01*
X196129976Y-49311405D02*
X196129976Y-49489500D01*
X196085452Y-49578548D01*
X196040929Y-49623072D01*
X195907357Y-49712119D01*
X195729262Y-49756643D01*
X195373071Y-49756643D01*
X195284024Y-49712119D01*
X195239500Y-49667595D01*
X195194976Y-49578548D01*
X195194976Y-49400452D01*
X195239500Y-49311405D01*
X195284024Y-49266881D01*
X195373071Y-49222357D01*
X195595690Y-49222357D01*
X195684738Y-49266881D01*
X195729262Y-49311405D01*
X195773786Y-49400452D01*
X195773786Y-49578548D01*
X195729262Y-49667595D01*
X195684738Y-49712119D01*
X195595690Y-49756643D01*
X215433976Y-48394643D02*
X214498976Y-48394643D01*
X214498976Y-48617262D01*
X214543500Y-48750834D01*
X214632548Y-48839881D01*
X214721595Y-48884405D01*
X214899690Y-48928929D01*
X215033262Y-48928929D01*
X215211357Y-48884405D01*
X215300405Y-48839881D01*
X215389452Y-48750834D01*
X215433976Y-48617262D01*
X215433976Y-48394643D01*
X215433976Y-49819405D02*
X215433976Y-49285119D01*
X215433976Y-49552262D02*
X214498976Y-49552262D01*
X214632548Y-49463214D01*
X214721595Y-49374167D01*
X214766119Y-49285119D01*
X214498976Y-50398214D02*
X214498976Y-50487262D01*
X214543500Y-50576310D01*
X214588024Y-50620833D01*
X214677071Y-50665357D01*
X214855167Y-50709881D01*
X215077786Y-50709881D01*
X215255881Y-50665357D01*
X215344929Y-50620833D01*
X215389452Y-50576310D01*
X215433976Y-50487262D01*
X215433976Y-50398214D01*
X215389452Y-50309167D01*
X215344929Y-50264643D01*
X215255881Y-50220119D01*
X215077786Y-50175595D01*
X214855167Y-50175595D01*
X214677071Y-50220119D01*
X214588024Y-50264643D01*
X214543500Y-50309167D01*
X214498976Y-50398214D01*
X234737976Y-48394643D02*
X233802976Y-48394643D01*
X233802976Y-48617262D01*
X233847500Y-48750834D01*
X233936548Y-48839881D01*
X234025595Y-48884405D01*
X234203690Y-48928929D01*
X234337262Y-48928929D01*
X234515357Y-48884405D01*
X234604405Y-48839881D01*
X234693452Y-48750834D01*
X234737976Y-48617262D01*
X234737976Y-48394643D01*
X234737976Y-49819405D02*
X234737976Y-49285119D01*
X234737976Y-49552262D02*
X233802976Y-49552262D01*
X233936548Y-49463214D01*
X234025595Y-49374167D01*
X234070119Y-49285119D01*
X234737976Y-50709881D02*
X234737976Y-50175595D01*
X234737976Y-50442738D02*
X233802976Y-50442738D01*
X233936548Y-50353690D01*
X234025595Y-50264643D01*
X234070119Y-50175595D01*
X47285976Y-66682643D02*
X46350976Y-66682643D01*
X46350976Y-66905262D01*
X46395500Y-67038834D01*
X46484548Y-67127881D01*
X46573595Y-67172405D01*
X46751690Y-67216929D01*
X46885262Y-67216929D01*
X47063357Y-67172405D01*
X47152405Y-67127881D01*
X47241452Y-67038834D01*
X47285976Y-66905262D01*
X47285976Y-66682643D01*
X47285976Y-68107405D02*
X47285976Y-67573119D01*
X47285976Y-67840262D02*
X46350976Y-67840262D01*
X46484548Y-67751214D01*
X46573595Y-67662167D01*
X46618119Y-67573119D01*
X46440024Y-68463595D02*
X46395500Y-68508119D01*
X46350976Y-68597167D01*
X46350976Y-68819786D01*
X46395500Y-68908833D01*
X46440024Y-68953357D01*
X46529071Y-68997881D01*
X46618119Y-68997881D01*
X46751690Y-68953357D01*
X47285976Y-68419071D01*
X47285976Y-68997881D01*
X67097976Y-67190643D02*
X66162976Y-67190643D01*
X66162976Y-67413262D01*
X66207500Y-67546834D01*
X66296548Y-67635881D01*
X66385595Y-67680405D01*
X66563690Y-67724929D01*
X66697262Y-67724929D01*
X66875357Y-67680405D01*
X66964405Y-67635881D01*
X67053452Y-67546834D01*
X67097976Y-67413262D01*
X67097976Y-67190643D01*
X67097976Y-68615405D02*
X67097976Y-68081119D01*
X67097976Y-68348262D02*
X66162976Y-68348262D01*
X66296548Y-68259214D01*
X66385595Y-68170167D01*
X66430119Y-68081119D01*
X66162976Y-68927071D02*
X66162976Y-69505881D01*
X66519167Y-69194214D01*
X66519167Y-69327786D01*
X66563690Y-69416833D01*
X66608214Y-69461357D01*
X66697262Y-69505881D01*
X66919881Y-69505881D01*
X67008929Y-69461357D01*
X67053452Y-69416833D01*
X67097976Y-69327786D01*
X67097976Y-69060643D01*
X67053452Y-68971595D01*
X67008929Y-68927071D01*
X86909976Y-67190643D02*
X85974976Y-67190643D01*
X85974976Y-67413262D01*
X86019500Y-67546834D01*
X86108548Y-67635881D01*
X86197595Y-67680405D01*
X86375690Y-67724929D01*
X86509262Y-67724929D01*
X86687357Y-67680405D01*
X86776405Y-67635881D01*
X86865452Y-67546834D01*
X86909976Y-67413262D01*
X86909976Y-67190643D01*
X86909976Y-68615405D02*
X86909976Y-68081119D01*
X86909976Y-68348262D02*
X85974976Y-68348262D01*
X86108548Y-68259214D01*
X86197595Y-68170167D01*
X86242119Y-68081119D01*
X86286643Y-69416833D02*
X86909976Y-69416833D01*
X85930452Y-69194214D02*
X86598310Y-68971595D01*
X86598310Y-69550405D01*
X106213976Y-67190643D02*
X105278976Y-67190643D01*
X105278976Y-67413262D01*
X105323500Y-67546834D01*
X105412548Y-67635881D01*
X105501595Y-67680405D01*
X105679690Y-67724929D01*
X105813262Y-67724929D01*
X105991357Y-67680405D01*
X106080405Y-67635881D01*
X106169452Y-67546834D01*
X106213976Y-67413262D01*
X106213976Y-67190643D01*
X106213976Y-68615405D02*
X106213976Y-68081119D01*
X106213976Y-68348262D02*
X105278976Y-68348262D01*
X105412548Y-68259214D01*
X105501595Y-68170167D01*
X105546119Y-68081119D01*
X105278976Y-69461357D02*
X105278976Y-69016119D01*
X105724214Y-68971595D01*
X105679690Y-69016119D01*
X105635167Y-69105167D01*
X105635167Y-69327786D01*
X105679690Y-69416833D01*
X105724214Y-69461357D01*
X105813262Y-69505881D01*
X106035881Y-69505881D01*
X106124929Y-69461357D01*
X106169452Y-69416833D01*
X106213976Y-69327786D01*
X106213976Y-69105167D01*
X106169452Y-69016119D01*
X106124929Y-68971595D01*
X123993976Y-67190643D02*
X123058976Y-67190643D01*
X123058976Y-67413262D01*
X123103500Y-67546834D01*
X123192548Y-67635881D01*
X123281595Y-67680405D01*
X123459690Y-67724929D01*
X123593262Y-67724929D01*
X123771357Y-67680405D01*
X123860405Y-67635881D01*
X123949452Y-67546834D01*
X123993976Y-67413262D01*
X123993976Y-67190643D01*
X123993976Y-68615405D02*
X123993976Y-68081119D01*
X123993976Y-68348262D02*
X123058976Y-68348262D01*
X123192548Y-68259214D01*
X123281595Y-68170167D01*
X123326119Y-68081119D01*
X123058976Y-69416833D02*
X123058976Y-69238738D01*
X123103500Y-69149690D01*
X123148024Y-69105167D01*
X123281595Y-69016119D01*
X123459690Y-68971595D01*
X123815881Y-68971595D01*
X123904929Y-69016119D01*
X123949452Y-69060643D01*
X123993976Y-69149690D01*
X123993976Y-69327786D01*
X123949452Y-69416833D01*
X123904929Y-69461357D01*
X123815881Y-69505881D01*
X123593262Y-69505881D01*
X123504214Y-69461357D01*
X123459690Y-69416833D01*
X123415167Y-69327786D01*
X123415167Y-69149690D01*
X123459690Y-69060643D01*
X123504214Y-69016119D01*
X123593262Y-68971595D01*
X144821976Y-67190643D02*
X143886976Y-67190643D01*
X143886976Y-67413262D01*
X143931500Y-67546834D01*
X144020548Y-67635881D01*
X144109595Y-67680405D01*
X144287690Y-67724929D01*
X144421262Y-67724929D01*
X144599357Y-67680405D01*
X144688405Y-67635881D01*
X144777452Y-67546834D01*
X144821976Y-67413262D01*
X144821976Y-67190643D01*
X144821976Y-68615405D02*
X144821976Y-68081119D01*
X144821976Y-68348262D02*
X143886976Y-68348262D01*
X144020548Y-68259214D01*
X144109595Y-68170167D01*
X144154119Y-68081119D01*
X143886976Y-68927071D02*
X143886976Y-69550405D01*
X144821976Y-69149690D01*
X162601976Y-67190643D02*
X161666976Y-67190643D01*
X161666976Y-67413262D01*
X161711500Y-67546834D01*
X161800548Y-67635881D01*
X161889595Y-67680405D01*
X162067690Y-67724929D01*
X162201262Y-67724929D01*
X162379357Y-67680405D01*
X162468405Y-67635881D01*
X162557452Y-67546834D01*
X162601976Y-67413262D01*
X162601976Y-67190643D01*
X162601976Y-68615405D02*
X162601976Y-68081119D01*
X162601976Y-68348262D02*
X161666976Y-68348262D01*
X161800548Y-68259214D01*
X161889595Y-68170167D01*
X161934119Y-68081119D01*
X162067690Y-69149690D02*
X162023167Y-69060643D01*
X161978643Y-69016119D01*
X161889595Y-68971595D01*
X161845071Y-68971595D01*
X161756024Y-69016119D01*
X161711500Y-69060643D01*
X161666976Y-69149690D01*
X161666976Y-69327786D01*
X161711500Y-69416833D01*
X161756024Y-69461357D01*
X161845071Y-69505881D01*
X161889595Y-69505881D01*
X161978643Y-69461357D01*
X162023167Y-69416833D01*
X162067690Y-69327786D01*
X162067690Y-69149690D01*
X162112214Y-69060643D01*
X162156738Y-69016119D01*
X162245786Y-68971595D01*
X162423881Y-68971595D01*
X162512929Y-69016119D01*
X162557452Y-69060643D01*
X162601976Y-69149690D01*
X162601976Y-69327786D01*
X162557452Y-69416833D01*
X162512929Y-69461357D01*
X162423881Y-69505881D01*
X162245786Y-69505881D01*
X162156738Y-69461357D01*
X162112214Y-69416833D01*
X162067690Y-69327786D01*
X181397976Y-66682643D02*
X180462976Y-66682643D01*
X180462976Y-66905262D01*
X180507500Y-67038834D01*
X180596548Y-67127881D01*
X180685595Y-67172405D01*
X180863690Y-67216929D01*
X180997262Y-67216929D01*
X181175357Y-67172405D01*
X181264405Y-67127881D01*
X181353452Y-67038834D01*
X181397976Y-66905262D01*
X181397976Y-66682643D01*
X181397976Y-68107405D02*
X181397976Y-67573119D01*
X181397976Y-67840262D02*
X180462976Y-67840262D01*
X180596548Y-67751214D01*
X180685595Y-67662167D01*
X180730119Y-67573119D01*
X181397976Y-68552643D02*
X181397976Y-68730738D01*
X181353452Y-68819786D01*
X181308929Y-68864310D01*
X181175357Y-68953357D01*
X180997262Y-68997881D01*
X180641071Y-68997881D01*
X180552024Y-68953357D01*
X180507500Y-68908833D01*
X180462976Y-68819786D01*
X180462976Y-68641690D01*
X180507500Y-68552643D01*
X180552024Y-68508119D01*
X180641071Y-68463595D01*
X180863690Y-68463595D01*
X180952738Y-68508119D01*
X180997262Y-68552643D01*
X181041786Y-68641690D01*
X181041786Y-68819786D01*
X180997262Y-68908833D01*
X180952738Y-68953357D01*
X180863690Y-68997881D01*
X200193976Y-66682643D02*
X199258976Y-66682643D01*
X199258976Y-66905262D01*
X199303500Y-67038834D01*
X199392548Y-67127881D01*
X199481595Y-67172405D01*
X199659690Y-67216929D01*
X199793262Y-67216929D01*
X199971357Y-67172405D01*
X200060405Y-67127881D01*
X200149452Y-67038834D01*
X200193976Y-66905262D01*
X200193976Y-66682643D01*
X199348024Y-67573119D02*
X199303500Y-67617643D01*
X199258976Y-67706691D01*
X199258976Y-67929310D01*
X199303500Y-68018357D01*
X199348024Y-68062881D01*
X199437071Y-68107405D01*
X199526119Y-68107405D01*
X199659690Y-68062881D01*
X200193976Y-67528595D01*
X200193976Y-68107405D01*
X199258976Y-68686214D02*
X199258976Y-68775262D01*
X199303500Y-68864310D01*
X199348024Y-68908833D01*
X199437071Y-68953357D01*
X199615167Y-68997881D01*
X199837786Y-68997881D01*
X200015881Y-68953357D01*
X200104929Y-68908833D01*
X200149452Y-68864310D01*
X200193976Y-68775262D01*
X200193976Y-68686214D01*
X200149452Y-68597167D01*
X200104929Y-68552643D01*
X200015881Y-68508119D01*
X199837786Y-68463595D01*
X199615167Y-68463595D01*
X199437071Y-68508119D01*
X199348024Y-68552643D01*
X199303500Y-68597167D01*
X199258976Y-68686214D01*
X220005976Y-67190643D02*
X219070976Y-67190643D01*
X219070976Y-67413262D01*
X219115500Y-67546834D01*
X219204548Y-67635881D01*
X219293595Y-67680405D01*
X219471690Y-67724929D01*
X219605262Y-67724929D01*
X219783357Y-67680405D01*
X219872405Y-67635881D01*
X219961452Y-67546834D01*
X220005976Y-67413262D01*
X220005976Y-67190643D01*
X219160024Y-68081119D02*
X219115500Y-68125643D01*
X219070976Y-68214691D01*
X219070976Y-68437310D01*
X219115500Y-68526357D01*
X219160024Y-68570881D01*
X219249071Y-68615405D01*
X219338119Y-68615405D01*
X219471690Y-68570881D01*
X220005976Y-68036595D01*
X220005976Y-68615405D01*
X220005976Y-69505881D02*
X220005976Y-68971595D01*
X220005976Y-69238738D02*
X219070976Y-69238738D01*
X219204548Y-69149690D01*
X219293595Y-69060643D01*
X219338119Y-68971595D01*
X245405976Y-66682643D02*
X244470976Y-66682643D01*
X244470976Y-66905262D01*
X244515500Y-67038834D01*
X244604548Y-67127881D01*
X244693595Y-67172405D01*
X244871690Y-67216929D01*
X245005262Y-67216929D01*
X245183357Y-67172405D01*
X245272405Y-67127881D01*
X245361452Y-67038834D01*
X245405976Y-66905262D01*
X245405976Y-66682643D01*
X244560024Y-67573119D02*
X244515500Y-67617643D01*
X244470976Y-67706691D01*
X244470976Y-67929310D01*
X244515500Y-68018357D01*
X244560024Y-68062881D01*
X244649071Y-68107405D01*
X244738119Y-68107405D01*
X244871690Y-68062881D01*
X245405976Y-67528595D01*
X245405976Y-68107405D01*
X244560024Y-68463595D02*
X244515500Y-68508119D01*
X244470976Y-68597167D01*
X244470976Y-68819786D01*
X244515500Y-68908833D01*
X244560024Y-68953357D01*
X244649071Y-68997881D01*
X244738119Y-68997881D01*
X244871690Y-68953357D01*
X245405976Y-68419071D01*
X245405976Y-68997881D01*
X49825976Y-85986643D02*
X48890976Y-85986643D01*
X48890976Y-86209262D01*
X48935500Y-86342834D01*
X49024548Y-86431881D01*
X49113595Y-86476405D01*
X49291690Y-86520929D01*
X49425262Y-86520929D01*
X49603357Y-86476405D01*
X49692405Y-86431881D01*
X49781452Y-86342834D01*
X49825976Y-86209262D01*
X49825976Y-85986643D01*
X48980024Y-86877119D02*
X48935500Y-86921643D01*
X48890976Y-87010691D01*
X48890976Y-87233310D01*
X48935500Y-87322357D01*
X48980024Y-87366881D01*
X49069071Y-87411405D01*
X49158119Y-87411405D01*
X49291690Y-87366881D01*
X49825976Y-86832595D01*
X49825976Y-87411405D01*
X48890976Y-87723071D02*
X48890976Y-88301881D01*
X49247167Y-87990214D01*
X49247167Y-88123786D01*
X49291690Y-88212833D01*
X49336214Y-88257357D01*
X49425262Y-88301881D01*
X49647881Y-88301881D01*
X49736929Y-88257357D01*
X49781452Y-88212833D01*
X49825976Y-88123786D01*
X49825976Y-87856643D01*
X49781452Y-87767595D01*
X49736929Y-87723071D01*
X76749976Y-86494643D02*
X75814976Y-86494643D01*
X75814976Y-86717262D01*
X75859500Y-86850834D01*
X75948548Y-86939881D01*
X76037595Y-86984405D01*
X76215690Y-87028929D01*
X76349262Y-87028929D01*
X76527357Y-86984405D01*
X76616405Y-86939881D01*
X76705452Y-86850834D01*
X76749976Y-86717262D01*
X76749976Y-86494643D01*
X75904024Y-87385119D02*
X75859500Y-87429643D01*
X75814976Y-87518691D01*
X75814976Y-87741310D01*
X75859500Y-87830357D01*
X75904024Y-87874881D01*
X75993071Y-87919405D01*
X76082119Y-87919405D01*
X76215690Y-87874881D01*
X76749976Y-87340595D01*
X76749976Y-87919405D01*
X76126643Y-88720833D02*
X76749976Y-88720833D01*
X75770452Y-88498214D02*
X76438310Y-88275595D01*
X76438310Y-88854405D01*
X91227976Y-95384643D02*
X90292976Y-95384643D01*
X90292976Y-95607262D01*
X90337500Y-95740834D01*
X90426548Y-95829881D01*
X90515595Y-95874405D01*
X90693690Y-95918929D01*
X90827262Y-95918929D01*
X91005357Y-95874405D01*
X91094405Y-95829881D01*
X91183452Y-95740834D01*
X91227976Y-95607262D01*
X91227976Y-95384643D01*
X90382024Y-96275119D02*
X90337500Y-96319643D01*
X90292976Y-96408691D01*
X90292976Y-96631310D01*
X90337500Y-96720357D01*
X90382024Y-96764881D01*
X90471071Y-96809405D01*
X90560119Y-96809405D01*
X90693690Y-96764881D01*
X91227976Y-96230595D01*
X91227976Y-96809405D01*
X90292976Y-97655357D02*
X90292976Y-97210119D01*
X90738214Y-97165595D01*
X90693690Y-97210119D01*
X90649167Y-97299167D01*
X90649167Y-97521786D01*
X90693690Y-97610833D01*
X90738214Y-97655357D01*
X90827262Y-97699881D01*
X91049881Y-97699881D01*
X91138929Y-97655357D01*
X91183452Y-97610833D01*
X91227976Y-97521786D01*
X91227976Y-97299167D01*
X91183452Y-97210119D01*
X91138929Y-97165595D01*
X115865976Y-85732643D02*
X114930976Y-85732643D01*
X114930976Y-85955262D01*
X114975500Y-86088834D01*
X115064548Y-86177881D01*
X115153595Y-86222405D01*
X115331690Y-86266929D01*
X115465262Y-86266929D01*
X115643357Y-86222405D01*
X115732405Y-86177881D01*
X115821452Y-86088834D01*
X115865976Y-85955262D01*
X115865976Y-85732643D01*
X115020024Y-86623119D02*
X114975500Y-86667643D01*
X114930976Y-86756691D01*
X114930976Y-86979310D01*
X114975500Y-87068357D01*
X115020024Y-87112881D01*
X115109071Y-87157405D01*
X115198119Y-87157405D01*
X115331690Y-87112881D01*
X115865976Y-86578595D01*
X115865976Y-87157405D01*
X114930976Y-87958833D02*
X114930976Y-87780738D01*
X114975500Y-87691690D01*
X115020024Y-87647167D01*
X115153595Y-87558119D01*
X115331690Y-87513595D01*
X115687881Y-87513595D01*
X115776929Y-87558119D01*
X115821452Y-87602643D01*
X115865976Y-87691690D01*
X115865976Y-87869786D01*
X115821452Y-87958833D01*
X115776929Y-88003357D01*
X115687881Y-88047881D01*
X115465262Y-88047881D01*
X115376214Y-88003357D01*
X115331690Y-87958833D01*
X115287167Y-87869786D01*
X115287167Y-87691690D01*
X115331690Y-87602643D01*
X115376214Y-87558119D01*
X115465262Y-87513595D01*
X134407976Y-85732643D02*
X133472976Y-85732643D01*
X133472976Y-85955262D01*
X133517500Y-86088834D01*
X133606548Y-86177881D01*
X133695595Y-86222405D01*
X133873690Y-86266929D01*
X134007262Y-86266929D01*
X134185357Y-86222405D01*
X134274405Y-86177881D01*
X134363452Y-86088834D01*
X134407976Y-85955262D01*
X134407976Y-85732643D01*
X133562024Y-86623119D02*
X133517500Y-86667643D01*
X133472976Y-86756691D01*
X133472976Y-86979310D01*
X133517500Y-87068357D01*
X133562024Y-87112881D01*
X133651071Y-87157405D01*
X133740119Y-87157405D01*
X133873690Y-87112881D01*
X134407976Y-86578595D01*
X134407976Y-87157405D01*
X133472976Y-87469071D02*
X133472976Y-88092405D01*
X134407976Y-87691690D01*
X152187976Y-85478643D02*
X151252976Y-85478643D01*
X151252976Y-85701262D01*
X151297500Y-85834834D01*
X151386548Y-85923881D01*
X151475595Y-85968405D01*
X151653690Y-86012929D01*
X151787262Y-86012929D01*
X151965357Y-85968405D01*
X152054405Y-85923881D01*
X152143452Y-85834834D01*
X152187976Y-85701262D01*
X152187976Y-85478643D01*
X151342024Y-86369119D02*
X151297500Y-86413643D01*
X151252976Y-86502691D01*
X151252976Y-86725310D01*
X151297500Y-86814357D01*
X151342024Y-86858881D01*
X151431071Y-86903405D01*
X151520119Y-86903405D01*
X151653690Y-86858881D01*
X152187976Y-86324595D01*
X152187976Y-86903405D01*
X151653690Y-87437690D02*
X151609167Y-87348643D01*
X151564643Y-87304119D01*
X151475595Y-87259595D01*
X151431071Y-87259595D01*
X151342024Y-87304119D01*
X151297500Y-87348643D01*
X151252976Y-87437690D01*
X151252976Y-87615786D01*
X151297500Y-87704833D01*
X151342024Y-87749357D01*
X151431071Y-87793881D01*
X151475595Y-87793881D01*
X151564643Y-87749357D01*
X151609167Y-87704833D01*
X151653690Y-87615786D01*
X151653690Y-87437690D01*
X151698214Y-87348643D01*
X151742738Y-87304119D01*
X151831786Y-87259595D01*
X152009881Y-87259595D01*
X152098929Y-87304119D01*
X152143452Y-87348643D01*
X152187976Y-87437690D01*
X152187976Y-87615786D01*
X152143452Y-87704833D01*
X152098929Y-87749357D01*
X152009881Y-87793881D01*
X151831786Y-87793881D01*
X151742738Y-87749357D01*
X151698214Y-87704833D01*
X151653690Y-87615786D01*
X171745976Y-85478643D02*
X170810976Y-85478643D01*
X170810976Y-85701262D01*
X170855500Y-85834834D01*
X170944548Y-85923881D01*
X171033595Y-85968405D01*
X171211690Y-86012929D01*
X171345262Y-86012929D01*
X171523357Y-85968405D01*
X171612405Y-85923881D01*
X171701452Y-85834834D01*
X171745976Y-85701262D01*
X171745976Y-85478643D01*
X170900024Y-86369119D02*
X170855500Y-86413643D01*
X170810976Y-86502691D01*
X170810976Y-86725310D01*
X170855500Y-86814357D01*
X170900024Y-86858881D01*
X170989071Y-86903405D01*
X171078119Y-86903405D01*
X171211690Y-86858881D01*
X171745976Y-86324595D01*
X171745976Y-86903405D01*
X171745976Y-87348643D02*
X171745976Y-87526738D01*
X171701452Y-87615786D01*
X171656929Y-87660310D01*
X171523357Y-87749357D01*
X171345262Y-87793881D01*
X170989071Y-87793881D01*
X170900024Y-87749357D01*
X170855500Y-87704833D01*
X170810976Y-87615786D01*
X170810976Y-87437690D01*
X170855500Y-87348643D01*
X170900024Y-87304119D01*
X170989071Y-87259595D01*
X171211690Y-87259595D01*
X171300738Y-87304119D01*
X171345262Y-87348643D01*
X171389786Y-87437690D01*
X171389786Y-87615786D01*
X171345262Y-87704833D01*
X171300738Y-87749357D01*
X171211690Y-87793881D01*
X191049976Y-85732643D02*
X190114976Y-85732643D01*
X190114976Y-85955262D01*
X190159500Y-86088834D01*
X190248548Y-86177881D01*
X190337595Y-86222405D01*
X190515690Y-86266929D01*
X190649262Y-86266929D01*
X190827357Y-86222405D01*
X190916405Y-86177881D01*
X191005452Y-86088834D01*
X191049976Y-85955262D01*
X191049976Y-85732643D01*
X190114976Y-86578595D02*
X190114976Y-87157405D01*
X190471167Y-86845738D01*
X190471167Y-86979310D01*
X190515690Y-87068357D01*
X190560214Y-87112881D01*
X190649262Y-87157405D01*
X190871881Y-87157405D01*
X190960929Y-87112881D01*
X191005452Y-87068357D01*
X191049976Y-86979310D01*
X191049976Y-86712167D01*
X191005452Y-86623119D01*
X190960929Y-86578595D01*
X190114976Y-87736214D02*
X190114976Y-87825262D01*
X190159500Y-87914310D01*
X190204024Y-87958833D01*
X190293071Y-88003357D01*
X190471167Y-88047881D01*
X190693786Y-88047881D01*
X190871881Y-88003357D01*
X190960929Y-87958833D01*
X191005452Y-87914310D01*
X191049976Y-87825262D01*
X191049976Y-87736214D01*
X191005452Y-87647167D01*
X190960929Y-87602643D01*
X190871881Y-87558119D01*
X190693786Y-87513595D01*
X190471167Y-87513595D01*
X190293071Y-87558119D01*
X190204024Y-87602643D01*
X190159500Y-87647167D01*
X190114976Y-87736214D01*
X205527976Y-95384643D02*
X204592976Y-95384643D01*
X204592976Y-95607262D01*
X204637500Y-95740834D01*
X204726548Y-95829881D01*
X204815595Y-95874405D01*
X204993690Y-95918929D01*
X205127262Y-95918929D01*
X205305357Y-95874405D01*
X205394405Y-95829881D01*
X205483452Y-95740834D01*
X205527976Y-95607262D01*
X205527976Y-95384643D01*
X204592976Y-96230595D02*
X204592976Y-96809405D01*
X204949167Y-96497738D01*
X204949167Y-96631310D01*
X204993690Y-96720357D01*
X205038214Y-96764881D01*
X205127262Y-96809405D01*
X205349881Y-96809405D01*
X205438929Y-96764881D01*
X205483452Y-96720357D01*
X205527976Y-96631310D01*
X205527976Y-96364167D01*
X205483452Y-96275119D01*
X205438929Y-96230595D01*
X205527976Y-97699881D02*
X205527976Y-97165595D01*
X205527976Y-97432738D02*
X204592976Y-97432738D01*
X204726548Y-97343690D01*
X204815595Y-97254643D01*
X204860119Y-97165595D01*
X232705976Y-86494643D02*
X231770976Y-86494643D01*
X231770976Y-86717262D01*
X231815500Y-86850834D01*
X231904548Y-86939881D01*
X231993595Y-86984405D01*
X232171690Y-87028929D01*
X232305262Y-87028929D01*
X232483357Y-86984405D01*
X232572405Y-86939881D01*
X232661452Y-86850834D01*
X232705976Y-86717262D01*
X232705976Y-86494643D01*
X231770976Y-87340595D02*
X231770976Y-87919405D01*
X232127167Y-87607738D01*
X232127167Y-87741310D01*
X232171690Y-87830357D01*
X232216214Y-87874881D01*
X232305262Y-87919405D01*
X232527881Y-87919405D01*
X232616929Y-87874881D01*
X232661452Y-87830357D01*
X232705976Y-87741310D01*
X232705976Y-87474167D01*
X232661452Y-87385119D01*
X232616929Y-87340595D01*
X231860024Y-88275595D02*
X231815500Y-88320119D01*
X231770976Y-88409167D01*
X231770976Y-88631786D01*
X231815500Y-88720833D01*
X231860024Y-88765357D01*
X231949071Y-88809881D01*
X232038119Y-88809881D01*
X232171690Y-88765357D01*
X232705976Y-88231071D01*
X232705976Y-88809881D01*
X254295976Y-86748643D02*
X253360976Y-86748643D01*
X253360976Y-86971262D01*
X253405500Y-87104834D01*
X253494548Y-87193881D01*
X253583595Y-87238405D01*
X253761690Y-87282929D01*
X253895262Y-87282929D01*
X254073357Y-87238405D01*
X254162405Y-87193881D01*
X254251452Y-87104834D01*
X254295976Y-86971262D01*
X254295976Y-86748643D01*
X253360976Y-87594595D02*
X253360976Y-88173405D01*
X253717167Y-87861738D01*
X253717167Y-87995310D01*
X253761690Y-88084357D01*
X253806214Y-88128881D01*
X253895262Y-88173405D01*
X254117881Y-88173405D01*
X254206929Y-88128881D01*
X254251452Y-88084357D01*
X254295976Y-87995310D01*
X254295976Y-87728167D01*
X254251452Y-87639119D01*
X254206929Y-87594595D01*
X253360976Y-88485071D02*
X253360976Y-89063881D01*
X253717167Y-88752214D01*
X253717167Y-88885786D01*
X253761690Y-88974833D01*
X253806214Y-89019357D01*
X253895262Y-89063881D01*
X254117881Y-89063881D01*
X254206929Y-89019357D01*
X254251452Y-88974833D01*
X254295976Y-88885786D01*
X254295976Y-88618643D01*
X254251452Y-88529595D01*
X254206929Y-88485071D01*
X47285976Y-104782643D02*
X46350976Y-104782643D01*
X46350976Y-105005262D01*
X46395500Y-105138834D01*
X46484548Y-105227881D01*
X46573595Y-105272405D01*
X46751690Y-105316929D01*
X46885262Y-105316929D01*
X47063357Y-105272405D01*
X47152405Y-105227881D01*
X47241452Y-105138834D01*
X47285976Y-105005262D01*
X47285976Y-104782643D01*
X46350976Y-105628595D02*
X46350976Y-106207405D01*
X46707167Y-105895738D01*
X46707167Y-106029310D01*
X46751690Y-106118357D01*
X46796214Y-106162881D01*
X46885262Y-106207405D01*
X47107881Y-106207405D01*
X47196929Y-106162881D01*
X47241452Y-106118357D01*
X47285976Y-106029310D01*
X47285976Y-105762167D01*
X47241452Y-105673119D01*
X47196929Y-105628595D01*
X46662643Y-107008833D02*
X47285976Y-107008833D01*
X46306452Y-106786214D02*
X46974310Y-106563595D01*
X46974310Y-107142405D01*
X67605976Y-104782643D02*
X66670976Y-104782643D01*
X66670976Y-105005262D01*
X66715500Y-105138834D01*
X66804548Y-105227881D01*
X66893595Y-105272405D01*
X67071690Y-105316929D01*
X67205262Y-105316929D01*
X67383357Y-105272405D01*
X67472405Y-105227881D01*
X67561452Y-105138834D01*
X67605976Y-105005262D01*
X67605976Y-104782643D01*
X66670976Y-105628595D02*
X66670976Y-106207405D01*
X67027167Y-105895738D01*
X67027167Y-106029310D01*
X67071690Y-106118357D01*
X67116214Y-106162881D01*
X67205262Y-106207405D01*
X67427881Y-106207405D01*
X67516929Y-106162881D01*
X67561452Y-106118357D01*
X67605976Y-106029310D01*
X67605976Y-105762167D01*
X67561452Y-105673119D01*
X67516929Y-105628595D01*
X66670976Y-107053357D02*
X66670976Y-106608119D01*
X67116214Y-106563595D01*
X67071690Y-106608119D01*
X67027167Y-106697167D01*
X67027167Y-106919786D01*
X67071690Y-107008833D01*
X67116214Y-107053357D01*
X67205262Y-107097881D01*
X67427881Y-107097881D01*
X67516929Y-107053357D01*
X67561452Y-107008833D01*
X67605976Y-106919786D01*
X67605976Y-106697167D01*
X67561452Y-106608119D01*
X67516929Y-106563595D01*
X86655976Y-104782643D02*
X85720976Y-104782643D01*
X85720976Y-105005262D01*
X85765500Y-105138834D01*
X85854548Y-105227881D01*
X85943595Y-105272405D01*
X86121690Y-105316929D01*
X86255262Y-105316929D01*
X86433357Y-105272405D01*
X86522405Y-105227881D01*
X86611452Y-105138834D01*
X86655976Y-105005262D01*
X86655976Y-104782643D01*
X85720976Y-105628595D02*
X85720976Y-106207405D01*
X86077167Y-105895738D01*
X86077167Y-106029310D01*
X86121690Y-106118357D01*
X86166214Y-106162881D01*
X86255262Y-106207405D01*
X86477881Y-106207405D01*
X86566929Y-106162881D01*
X86611452Y-106118357D01*
X86655976Y-106029310D01*
X86655976Y-105762167D01*
X86611452Y-105673119D01*
X86566929Y-105628595D01*
X85720976Y-107008833D02*
X85720976Y-106830738D01*
X85765500Y-106741690D01*
X85810024Y-106697167D01*
X85943595Y-106608119D01*
X86121690Y-106563595D01*
X86477881Y-106563595D01*
X86566929Y-106608119D01*
X86611452Y-106652643D01*
X86655976Y-106741690D01*
X86655976Y-106919786D01*
X86611452Y-107008833D01*
X86566929Y-107053357D01*
X86477881Y-107097881D01*
X86255262Y-107097881D01*
X86166214Y-107053357D01*
X86121690Y-107008833D01*
X86077167Y-106919786D01*
X86077167Y-106741690D01*
X86121690Y-106652643D01*
X86166214Y-106608119D01*
X86255262Y-106563595D01*
X155997976Y-105544643D02*
X155062976Y-105544643D01*
X155062976Y-105767262D01*
X155107500Y-105900834D01*
X155196548Y-105989881D01*
X155285595Y-106034405D01*
X155463690Y-106078929D01*
X155597262Y-106078929D01*
X155775357Y-106034405D01*
X155864405Y-105989881D01*
X155953452Y-105900834D01*
X155997976Y-105767262D01*
X155997976Y-105544643D01*
X155062976Y-106390595D02*
X155062976Y-106969405D01*
X155419167Y-106657738D01*
X155419167Y-106791310D01*
X155463690Y-106880357D01*
X155508214Y-106924881D01*
X155597262Y-106969405D01*
X155819881Y-106969405D01*
X155908929Y-106924881D01*
X155953452Y-106880357D01*
X155997976Y-106791310D01*
X155997976Y-106524167D01*
X155953452Y-106435119D01*
X155908929Y-106390595D01*
X155062976Y-107281071D02*
X155062976Y-107904405D01*
X155997976Y-107503690D01*
X227371976Y-105290643D02*
X226436976Y-105290643D01*
X226436976Y-105513262D01*
X226481500Y-105646834D01*
X226570548Y-105735881D01*
X226659595Y-105780405D01*
X226837690Y-105824929D01*
X226971262Y-105824929D01*
X227149357Y-105780405D01*
X227238405Y-105735881D01*
X227327452Y-105646834D01*
X227371976Y-105513262D01*
X227371976Y-105290643D01*
X226436976Y-106136595D02*
X226436976Y-106715405D01*
X226793167Y-106403738D01*
X226793167Y-106537310D01*
X226837690Y-106626357D01*
X226882214Y-106670881D01*
X226971262Y-106715405D01*
X227193881Y-106715405D01*
X227282929Y-106670881D01*
X227327452Y-106626357D01*
X227371976Y-106537310D01*
X227371976Y-106270167D01*
X227327452Y-106181119D01*
X227282929Y-106136595D01*
X226837690Y-107249690D02*
X226793167Y-107160643D01*
X226748643Y-107116119D01*
X226659595Y-107071595D01*
X226615071Y-107071595D01*
X226526024Y-107116119D01*
X226481500Y-107160643D01*
X226436976Y-107249690D01*
X226436976Y-107427786D01*
X226481500Y-107516833D01*
X226526024Y-107561357D01*
X226615071Y-107605881D01*
X226659595Y-107605881D01*
X226748643Y-107561357D01*
X226793167Y-107516833D01*
X226837690Y-107427786D01*
X226837690Y-107249690D01*
X226882214Y-107160643D01*
X226926738Y-107116119D01*
X227015786Y-107071595D01*
X227193881Y-107071595D01*
X227282929Y-107116119D01*
X227327452Y-107160643D01*
X227371976Y-107249690D01*
X227371976Y-107427786D01*
X227327452Y-107516833D01*
X227282929Y-107561357D01*
X227193881Y-107605881D01*
X227015786Y-107605881D01*
X226926738Y-107561357D01*
X226882214Y-107516833D01*
X226837690Y-107427786D01*
X251755976Y-105544643D02*
X250820976Y-105544643D01*
X250820976Y-105767262D01*
X250865500Y-105900834D01*
X250954548Y-105989881D01*
X251043595Y-106034405D01*
X251221690Y-106078929D01*
X251355262Y-106078929D01*
X251533357Y-106034405D01*
X251622405Y-105989881D01*
X251711452Y-105900834D01*
X251755976Y-105767262D01*
X251755976Y-105544643D01*
X250820976Y-106390595D02*
X250820976Y-106969405D01*
X251177167Y-106657738D01*
X251177167Y-106791310D01*
X251221690Y-106880357D01*
X251266214Y-106924881D01*
X251355262Y-106969405D01*
X251577881Y-106969405D01*
X251666929Y-106924881D01*
X251711452Y-106880357D01*
X251755976Y-106791310D01*
X251755976Y-106524167D01*
X251711452Y-106435119D01*
X251666929Y-106390595D01*
X251755976Y-107414643D02*
X251755976Y-107592738D01*
X251711452Y-107681786D01*
X251666929Y-107726310D01*
X251533357Y-107815357D01*
X251355262Y-107859881D01*
X250999071Y-107859881D01*
X250910024Y-107815357D01*
X250865500Y-107770833D01*
X250820976Y-107681786D01*
X250820976Y-107503690D01*
X250865500Y-107414643D01*
X250910024Y-107370119D01*
X250999071Y-107325595D01*
X251221690Y-107325595D01*
X251310738Y-107370119D01*
X251355262Y-107414643D01*
X251399786Y-107503690D01*
X251399786Y-107681786D01*
X251355262Y-107770833D01*
X251310738Y-107815357D01*
X251221690Y-107859881D01*
X254041976Y-48394643D02*
X253106976Y-48394643D01*
X253106976Y-48617262D01*
X253151500Y-48750834D01*
X253240548Y-48839881D01*
X253329595Y-48884405D01*
X253507690Y-48928929D01*
X253641262Y-48928929D01*
X253819357Y-48884405D01*
X253908405Y-48839881D01*
X253997452Y-48750834D01*
X254041976Y-48617262D01*
X254041976Y-48394643D01*
X253418643Y-49730357D02*
X254041976Y-49730357D01*
X253062452Y-49507738D02*
X253730310Y-49285119D01*
X253730310Y-49863929D01*
X253106976Y-50398214D02*
X253106976Y-50487262D01*
X253151500Y-50576310D01*
X253196024Y-50620833D01*
X253285071Y-50665357D01*
X253463167Y-50709881D01*
X253685786Y-50709881D01*
X253863881Y-50665357D01*
X253952929Y-50620833D01*
X253997452Y-50576310D01*
X254041976Y-50487262D01*
X254041976Y-50398214D01*
X253997452Y-50309167D01*
X253952929Y-50264643D01*
X253863881Y-50220119D01*
X253685786Y-50175595D01*
X253463167Y-50175595D01*
X253285071Y-50220119D01*
X253196024Y-50264643D01*
X253151500Y-50309167D01*
X253106976Y-50398214D01*
D16*
X128590524Y-108482191D02*
X127320524Y-108482191D01*
X128469571Y-109546572D02*
X128530048Y-109498191D01*
X128590524Y-109353048D01*
X128590524Y-109256286D01*
X128530048Y-109111144D01*
X128409095Y-109014382D01*
X128288143Y-108966001D01*
X128046238Y-108917620D01*
X127864810Y-108917620D01*
X127622905Y-108966001D01*
X127501952Y-109014382D01*
X127381000Y-109111144D01*
X127320524Y-109256286D01*
X127320524Y-109353048D01*
X127381000Y-109498191D01*
X127441476Y-109546572D01*
X128590524Y-110514191D02*
X128590524Y-109933620D01*
X128590524Y-110223906D02*
X127320524Y-110223906D01*
X127501952Y-110127144D01*
X127622905Y-110030382D01*
X127683381Y-109933620D01*
X125687667Y-104877810D02*
X125687667Y-105361619D01*
X126050524Y-104781048D02*
X124780524Y-105119715D01*
X126050524Y-105458381D01*
X124780524Y-105651905D02*
X124780524Y-106232476D01*
X126050524Y-105942191D02*
X124780524Y-105942191D01*
X126050524Y-106571143D02*
X124780524Y-106571143D01*
X125687667Y-106909809D01*
X124780524Y-107248476D01*
X126050524Y-107248476D01*
X125385286Y-107732286D02*
X125385286Y-108070952D01*
X126050524Y-108216095D02*
X126050524Y-107732286D01*
X124780524Y-107732286D01*
X124780524Y-108216095D01*
X124841000Y-109183714D02*
X124780524Y-109086952D01*
X124780524Y-108941809D01*
X124841000Y-108796667D01*
X124961952Y-108699905D01*
X125082905Y-108651524D01*
X125324810Y-108603143D01*
X125506238Y-108603143D01*
X125748143Y-108651524D01*
X125869095Y-108699905D01*
X125990048Y-108796667D01*
X126050524Y-108941809D01*
X126050524Y-109038571D01*
X125990048Y-109183714D01*
X125929571Y-109232095D01*
X125506238Y-109232095D01*
X125506238Y-109038571D01*
X125687667Y-109619143D02*
X125687667Y-110102952D01*
X126050524Y-109522381D02*
X124780524Y-109861048D01*
X126050524Y-110199714D01*
X124780524Y-110441619D02*
X124780524Y-111070571D01*
X125264333Y-110731905D01*
X125264333Y-110877047D01*
X125324810Y-110973809D01*
X125385286Y-111022190D01*
X125506238Y-111070571D01*
X125808619Y-111070571D01*
X125929571Y-111022190D01*
X125990048Y-110973809D01*
X126050524Y-110877047D01*
X126050524Y-110586762D01*
X125990048Y-110490000D01*
X125929571Y-110441619D01*
X124901476Y-111457619D02*
X124841000Y-111506000D01*
X124780524Y-111602762D01*
X124780524Y-111844666D01*
X124841000Y-111941428D01*
X124901476Y-111989809D01*
X125022429Y-112038190D01*
X125143381Y-112038190D01*
X125324810Y-111989809D01*
X126050524Y-111409238D01*
X126050524Y-112038190D01*
X124780524Y-112473619D02*
X125808619Y-112473619D01*
X125929571Y-112522000D01*
X125990048Y-112570381D01*
X126050524Y-112667143D01*
X126050524Y-112860666D01*
X125990048Y-112957428D01*
X125929571Y-113005809D01*
X125808619Y-113054190D01*
X124780524Y-113054190D01*
X125203857Y-113973428D02*
X126050524Y-113973428D01*
X124720048Y-113731524D02*
X125627190Y-113489619D01*
X125627190Y-114118571D01*
D20*
X58690933Y-51130684D02*
X58690933Y-52037827D01*
X58751409Y-52219255D01*
X58872361Y-52340208D01*
X59053790Y-52400684D01*
X59174742Y-52400684D01*
X57420933Y-52400684D02*
X58146647Y-52400684D01*
X57783790Y-52400684D02*
X57783790Y-51130684D01*
X57904742Y-51312112D01*
X58025695Y-51433065D01*
X58146647Y-51493541D01*
D13*
X74434381Y-47847334D02*
X74434381Y-47371143D01*
X73434381Y-47371143D01*
X74434381Y-48752096D02*
X73958190Y-48418762D01*
X74434381Y-48180667D02*
X73434381Y-48180667D01*
X73434381Y-48561620D01*
X73482000Y-48656858D01*
X73529619Y-48704477D01*
X73624857Y-48752096D01*
X73767714Y-48752096D01*
X73862952Y-48704477D01*
X73910571Y-48656858D01*
X73958190Y-48561620D01*
X73958190Y-48180667D01*
X74434381Y-49704477D02*
X74434381Y-49133048D01*
X74434381Y-49418762D02*
X73434381Y-49418762D01*
X73577238Y-49323524D01*
X73672476Y-49228286D01*
X73720095Y-49133048D01*
X112534381Y-47847334D02*
X112534381Y-47371143D01*
X111534381Y-47371143D01*
X112534381Y-48752096D02*
X112058190Y-48418762D01*
X112534381Y-48180667D02*
X111534381Y-48180667D01*
X111534381Y-48561620D01*
X111582000Y-48656858D01*
X111629619Y-48704477D01*
X111724857Y-48752096D01*
X111867714Y-48752096D01*
X111962952Y-48704477D01*
X112010571Y-48656858D01*
X112058190Y-48561620D01*
X112058190Y-48180667D01*
X111629619Y-49133048D02*
X111582000Y-49180667D01*
X111534381Y-49275905D01*
X111534381Y-49514001D01*
X111582000Y-49609239D01*
X111629619Y-49656858D01*
X111724857Y-49704477D01*
X111820095Y-49704477D01*
X111962952Y-49656858D01*
X112534381Y-49085429D01*
X112534381Y-49704477D01*
X131330381Y-47847334D02*
X131330381Y-47371143D01*
X130330381Y-47371143D01*
X131330381Y-48752096D02*
X130854190Y-48418762D01*
X131330381Y-48180667D02*
X130330381Y-48180667D01*
X130330381Y-48561620D01*
X130378000Y-48656858D01*
X130425619Y-48704477D01*
X130520857Y-48752096D01*
X130663714Y-48752096D01*
X130758952Y-48704477D01*
X130806571Y-48656858D01*
X130854190Y-48561620D01*
X130854190Y-48180667D01*
X130330381Y-49085429D02*
X130330381Y-49704477D01*
X130711333Y-49371143D01*
X130711333Y-49514001D01*
X130758952Y-49609239D01*
X130806571Y-49656858D01*
X130901810Y-49704477D01*
X131139905Y-49704477D01*
X131235143Y-49656858D01*
X131282762Y-49609239D01*
X131330381Y-49514001D01*
X131330381Y-49228286D01*
X131282762Y-49133048D01*
X131235143Y-49085429D01*
X150126381Y-47847334D02*
X150126381Y-47371143D01*
X149126381Y-47371143D01*
X150126381Y-48752096D02*
X149650190Y-48418762D01*
X150126381Y-48180667D02*
X149126381Y-48180667D01*
X149126381Y-48561620D01*
X149174000Y-48656858D01*
X149221619Y-48704477D01*
X149316857Y-48752096D01*
X149459714Y-48752096D01*
X149554952Y-48704477D01*
X149602571Y-48656858D01*
X149650190Y-48561620D01*
X149650190Y-48180667D01*
X149459714Y-49609239D02*
X150126381Y-49609239D01*
X149078762Y-49371143D02*
X149793048Y-49133048D01*
X149793048Y-49752096D01*
X168922381Y-47847334D02*
X168922381Y-47371143D01*
X167922381Y-47371143D01*
X168922381Y-48752096D02*
X168446190Y-48418762D01*
X168922381Y-48180667D02*
X167922381Y-48180667D01*
X167922381Y-48561620D01*
X167970000Y-48656858D01*
X168017619Y-48704477D01*
X168112857Y-48752096D01*
X168255714Y-48752096D01*
X168350952Y-48704477D01*
X168398571Y-48656858D01*
X168446190Y-48561620D01*
X168446190Y-48180667D01*
X167922381Y-49656858D02*
X167922381Y-49180667D01*
X168398571Y-49133048D01*
X168350952Y-49180667D01*
X168303333Y-49275905D01*
X168303333Y-49514001D01*
X168350952Y-49609239D01*
X168398571Y-49656858D01*
X168493810Y-49704477D01*
X168731905Y-49704477D01*
X168827143Y-49656858D01*
X168874762Y-49609239D01*
X168922381Y-49514001D01*
X168922381Y-49275905D01*
X168874762Y-49180667D01*
X168827143Y-49133048D01*
X188226381Y-47847334D02*
X188226381Y-47371143D01*
X187226381Y-47371143D01*
X188226381Y-48752096D02*
X187750190Y-48418762D01*
X188226381Y-48180667D02*
X187226381Y-48180667D01*
X187226381Y-48561620D01*
X187274000Y-48656858D01*
X187321619Y-48704477D01*
X187416857Y-48752096D01*
X187559714Y-48752096D01*
X187654952Y-48704477D01*
X187702571Y-48656858D01*
X187750190Y-48561620D01*
X187750190Y-48180667D01*
X187226381Y-49609239D02*
X187226381Y-49418762D01*
X187274000Y-49323524D01*
X187321619Y-49275905D01*
X187464476Y-49180667D01*
X187654952Y-49133048D01*
X188035905Y-49133048D01*
X188131143Y-49180667D01*
X188178762Y-49228286D01*
X188226381Y-49323524D01*
X188226381Y-49514001D01*
X188178762Y-49609239D01*
X188131143Y-49656858D01*
X188035905Y-49704477D01*
X187797810Y-49704477D01*
X187702571Y-49656858D01*
X187654952Y-49609239D01*
X187607333Y-49514001D01*
X187607333Y-49323524D01*
X187654952Y-49228286D01*
X187702571Y-49180667D01*
X187797810Y-49133048D01*
X207530381Y-48355334D02*
X207530381Y-47879143D01*
X206530381Y-47879143D01*
X207530381Y-49260096D02*
X207054190Y-48926762D01*
X207530381Y-48688667D02*
X206530381Y-48688667D01*
X206530381Y-49069620D01*
X206578000Y-49164858D01*
X206625619Y-49212477D01*
X206720857Y-49260096D01*
X206863714Y-49260096D01*
X206958952Y-49212477D01*
X207006571Y-49164858D01*
X207054190Y-49069620D01*
X207054190Y-48688667D01*
X206530381Y-49593429D02*
X206530381Y-50260096D01*
X207530381Y-49831524D01*
X226326381Y-48355334D02*
X226326381Y-47879143D01*
X225326381Y-47879143D01*
X226326381Y-49260096D02*
X225850190Y-48926762D01*
X226326381Y-48688667D02*
X225326381Y-48688667D01*
X225326381Y-49069620D01*
X225374000Y-49164858D01*
X225421619Y-49212477D01*
X225516857Y-49260096D01*
X225659714Y-49260096D01*
X225754952Y-49212477D01*
X225802571Y-49164858D01*
X225850190Y-49069620D01*
X225850190Y-48688667D01*
X225754952Y-49831524D02*
X225707333Y-49736286D01*
X225659714Y-49688667D01*
X225564476Y-49641048D01*
X225516857Y-49641048D01*
X225421619Y-49688667D01*
X225374000Y-49736286D01*
X225326381Y-49831524D01*
X225326381Y-50022001D01*
X225374000Y-50117239D01*
X225421619Y-50164858D01*
X225516857Y-50212477D01*
X225564476Y-50212477D01*
X225659714Y-50164858D01*
X225707333Y-50117239D01*
X225754952Y-50022001D01*
X225754952Y-49831524D01*
X225802571Y-49736286D01*
X225850190Y-49688667D01*
X225945429Y-49641048D01*
X226135905Y-49641048D01*
X226231143Y-49688667D01*
X226278762Y-49736286D01*
X226326381Y-49831524D01*
X226326381Y-50022001D01*
X226278762Y-50117239D01*
X226231143Y-50164858D01*
X226135905Y-50212477D01*
X225945429Y-50212477D01*
X225850190Y-50164858D01*
X225802571Y-50117239D01*
X225754952Y-50022001D01*
X245122381Y-48355334D02*
X245122381Y-47879143D01*
X244122381Y-47879143D01*
X245122381Y-49260096D02*
X244646190Y-48926762D01*
X245122381Y-48688667D02*
X244122381Y-48688667D01*
X244122381Y-49069620D01*
X244170000Y-49164858D01*
X244217619Y-49212477D01*
X244312857Y-49260096D01*
X244455714Y-49260096D01*
X244550952Y-49212477D01*
X244598571Y-49164858D01*
X244646190Y-49069620D01*
X244646190Y-48688667D01*
X245122381Y-49736286D02*
X245122381Y-49926762D01*
X245074762Y-50022001D01*
X245027143Y-50069620D01*
X244884286Y-50164858D01*
X244693810Y-50212477D01*
X244312857Y-50212477D01*
X244217619Y-50164858D01*
X244170000Y-50117239D01*
X244122381Y-50022001D01*
X244122381Y-49831524D01*
X244170000Y-49736286D01*
X244217619Y-49688667D01*
X244312857Y-49641048D01*
X244550952Y-49641048D01*
X244646190Y-49688667D01*
X244693810Y-49736286D01*
X244741429Y-49831524D01*
X244741429Y-50022001D01*
X244693810Y-50117239D01*
X244646190Y-50164858D01*
X244550952Y-50212477D01*
X263918381Y-47879143D02*
X263918381Y-47402952D01*
X262918381Y-47402952D01*
X263918381Y-48783905D02*
X263442190Y-48450571D01*
X263918381Y-48212476D02*
X262918381Y-48212476D01*
X262918381Y-48593429D01*
X262966000Y-48688667D01*
X263013619Y-48736286D01*
X263108857Y-48783905D01*
X263251714Y-48783905D01*
X263346952Y-48736286D01*
X263394571Y-48688667D01*
X263442190Y-48593429D01*
X263442190Y-48212476D01*
X263918381Y-49736286D02*
X263918381Y-49164857D01*
X263918381Y-49450571D02*
X262918381Y-49450571D01*
X263061238Y-49355333D01*
X263156476Y-49260095D01*
X263204095Y-49164857D01*
X262918381Y-50355333D02*
X262918381Y-50450572D01*
X262966000Y-50545810D01*
X263013619Y-50593429D01*
X263108857Y-50641048D01*
X263299333Y-50688667D01*
X263537429Y-50688667D01*
X263727905Y-50641048D01*
X263823143Y-50593429D01*
X263870762Y-50545810D01*
X263918381Y-50450572D01*
X263918381Y-50355333D01*
X263870762Y-50260095D01*
X263823143Y-50212476D01*
X263727905Y-50164857D01*
X263537429Y-50117238D01*
X263299333Y-50117238D01*
X263108857Y-50164857D01*
X263013619Y-50212476D01*
X262966000Y-50260095D01*
X262918381Y-50355333D01*
X53720857Y-69794381D02*
X54197048Y-69794381D01*
X54197048Y-68794381D01*
X52816095Y-69794381D02*
X53149429Y-69318190D01*
X53387524Y-69794381D02*
X53387524Y-68794381D01*
X53006571Y-68794381D01*
X52911333Y-68842000D01*
X52863714Y-68889619D01*
X52816095Y-68984857D01*
X52816095Y-69127714D01*
X52863714Y-69222952D01*
X52911333Y-69270571D01*
X53006571Y-69318190D01*
X53387524Y-69318190D01*
X51863714Y-69794381D02*
X52435143Y-69794381D01*
X52149429Y-69794381D02*
X52149429Y-68794381D01*
X52244667Y-68937238D01*
X52339905Y-69032476D01*
X52435143Y-69080095D01*
X50911333Y-69794381D02*
X51482762Y-69794381D01*
X51197048Y-69794381D02*
X51197048Y-68794381D01*
X51292286Y-68937238D01*
X51387524Y-69032476D01*
X51482762Y-69080095D01*
X43192381Y-47625143D02*
X43192381Y-47148952D01*
X42192381Y-47148952D01*
X43192381Y-48529905D02*
X42716190Y-48196571D01*
X43192381Y-47958476D02*
X42192381Y-47958476D01*
X42192381Y-48339429D01*
X42240000Y-48434667D01*
X42287619Y-48482286D01*
X42382857Y-48529905D01*
X42525714Y-48529905D01*
X42620952Y-48482286D01*
X42668571Y-48434667D01*
X42716190Y-48339429D01*
X42716190Y-47958476D01*
X43192381Y-49482286D02*
X43192381Y-48910857D01*
X43192381Y-49196571D02*
X42192381Y-49196571D01*
X42335238Y-49101333D01*
X42430476Y-49006095D01*
X42478095Y-48910857D01*
X42287619Y-49863238D02*
X42240000Y-49910857D01*
X42192381Y-50006095D01*
X42192381Y-50244191D01*
X42240000Y-50339429D01*
X42287619Y-50387048D01*
X42382857Y-50434667D01*
X42478095Y-50434667D01*
X42620952Y-50387048D01*
X43192381Y-49815619D01*
X43192381Y-50434667D01*
X92722381Y-47879143D02*
X92722381Y-47402952D01*
X91722381Y-47402952D01*
X92722381Y-48783905D02*
X92246190Y-48450571D01*
X92722381Y-48212476D02*
X91722381Y-48212476D01*
X91722381Y-48593429D01*
X91770000Y-48688667D01*
X91817619Y-48736286D01*
X91912857Y-48783905D01*
X92055714Y-48783905D01*
X92150952Y-48736286D01*
X92198571Y-48688667D01*
X92246190Y-48593429D01*
X92246190Y-48212476D01*
X92722381Y-49736286D02*
X92722381Y-49164857D01*
X92722381Y-49450571D02*
X91722381Y-49450571D01*
X91865238Y-49355333D01*
X91960476Y-49260095D01*
X92008095Y-49164857D01*
X91722381Y-50069619D02*
X91722381Y-50688667D01*
X92103333Y-50355333D01*
X92103333Y-50498191D01*
X92150952Y-50593429D01*
X92198571Y-50641048D01*
X92293810Y-50688667D01*
X92531905Y-50688667D01*
X92627143Y-50641048D01*
X92674762Y-50593429D01*
X92722381Y-50498191D01*
X92722381Y-50212476D01*
X92674762Y-50117238D01*
X92627143Y-50069619D01*
X79006381Y-66675143D02*
X79006381Y-66198952D01*
X78006381Y-66198952D01*
X79006381Y-67579905D02*
X78530190Y-67246571D01*
X79006381Y-67008476D02*
X78006381Y-67008476D01*
X78006381Y-67389429D01*
X78054000Y-67484667D01*
X78101619Y-67532286D01*
X78196857Y-67579905D01*
X78339714Y-67579905D01*
X78434952Y-67532286D01*
X78482571Y-67484667D01*
X78530190Y-67389429D01*
X78530190Y-67008476D01*
X79006381Y-68532286D02*
X79006381Y-67960857D01*
X79006381Y-68246571D02*
X78006381Y-68246571D01*
X78149238Y-68151333D01*
X78244476Y-68056095D01*
X78292095Y-67960857D01*
X78339714Y-69389429D02*
X79006381Y-69389429D01*
X77958762Y-69151333D02*
X78673048Y-68913238D01*
X78673048Y-69532286D01*
X97802381Y-66675143D02*
X97802381Y-66198952D01*
X96802381Y-66198952D01*
X97802381Y-67579905D02*
X97326190Y-67246571D01*
X97802381Y-67008476D02*
X96802381Y-67008476D01*
X96802381Y-67389429D01*
X96850000Y-67484667D01*
X96897619Y-67532286D01*
X96992857Y-67579905D01*
X97135714Y-67579905D01*
X97230952Y-67532286D01*
X97278571Y-67484667D01*
X97326190Y-67389429D01*
X97326190Y-67008476D01*
X97802381Y-68532286D02*
X97802381Y-67960857D01*
X97802381Y-68246571D02*
X96802381Y-68246571D01*
X96945238Y-68151333D01*
X97040476Y-68056095D01*
X97088095Y-67960857D01*
X96802381Y-69437048D02*
X96802381Y-68960857D01*
X97278571Y-68913238D01*
X97230952Y-68960857D01*
X97183333Y-69056095D01*
X97183333Y-69294191D01*
X97230952Y-69389429D01*
X97278571Y-69437048D01*
X97373810Y-69484667D01*
X97611905Y-69484667D01*
X97707143Y-69437048D01*
X97754762Y-69389429D01*
X97802381Y-69294191D01*
X97802381Y-69056095D01*
X97754762Y-68960857D01*
X97707143Y-68913238D01*
X117106381Y-66675143D02*
X117106381Y-66198952D01*
X116106381Y-66198952D01*
X117106381Y-67579905D02*
X116630190Y-67246571D01*
X117106381Y-67008476D02*
X116106381Y-67008476D01*
X116106381Y-67389429D01*
X116154000Y-67484667D01*
X116201619Y-67532286D01*
X116296857Y-67579905D01*
X116439714Y-67579905D01*
X116534952Y-67532286D01*
X116582571Y-67484667D01*
X116630190Y-67389429D01*
X116630190Y-67008476D01*
X117106381Y-68532286D02*
X117106381Y-67960857D01*
X117106381Y-68246571D02*
X116106381Y-68246571D01*
X116249238Y-68151333D01*
X116344476Y-68056095D01*
X116392095Y-67960857D01*
X116106381Y-69389429D02*
X116106381Y-69198952D01*
X116154000Y-69103714D01*
X116201619Y-69056095D01*
X116344476Y-68960857D01*
X116534952Y-68913238D01*
X116915905Y-68913238D01*
X117011143Y-68960857D01*
X117058762Y-69008476D01*
X117106381Y-69103714D01*
X117106381Y-69294191D01*
X117058762Y-69389429D01*
X117011143Y-69437048D01*
X116915905Y-69484667D01*
X116677810Y-69484667D01*
X116582571Y-69437048D01*
X116534952Y-69389429D01*
X116487333Y-69294191D01*
X116487333Y-69103714D01*
X116534952Y-69008476D01*
X116582571Y-68960857D01*
X116677810Y-68913238D01*
X135902381Y-66675143D02*
X135902381Y-66198952D01*
X134902381Y-66198952D01*
X135902381Y-67579905D02*
X135426190Y-67246571D01*
X135902381Y-67008476D02*
X134902381Y-67008476D01*
X134902381Y-67389429D01*
X134950000Y-67484667D01*
X134997619Y-67532286D01*
X135092857Y-67579905D01*
X135235714Y-67579905D01*
X135330952Y-67532286D01*
X135378571Y-67484667D01*
X135426190Y-67389429D01*
X135426190Y-67008476D01*
X135902381Y-68532286D02*
X135902381Y-67960857D01*
X135902381Y-68246571D02*
X134902381Y-68246571D01*
X135045238Y-68151333D01*
X135140476Y-68056095D01*
X135188095Y-67960857D01*
X134902381Y-68865619D02*
X134902381Y-69532286D01*
X135902381Y-69103714D01*
X154698381Y-66675143D02*
X154698381Y-66198952D01*
X153698381Y-66198952D01*
X154698381Y-67579905D02*
X154222190Y-67246571D01*
X154698381Y-67008476D02*
X153698381Y-67008476D01*
X153698381Y-67389429D01*
X153746000Y-67484667D01*
X153793619Y-67532286D01*
X153888857Y-67579905D01*
X154031714Y-67579905D01*
X154126952Y-67532286D01*
X154174571Y-67484667D01*
X154222190Y-67389429D01*
X154222190Y-67008476D01*
X154698381Y-68532286D02*
X154698381Y-67960857D01*
X154698381Y-68246571D02*
X153698381Y-68246571D01*
X153841238Y-68151333D01*
X153936476Y-68056095D01*
X153984095Y-67960857D01*
X154126952Y-69103714D02*
X154079333Y-69008476D01*
X154031714Y-68960857D01*
X153936476Y-68913238D01*
X153888857Y-68913238D01*
X153793619Y-68960857D01*
X153746000Y-69008476D01*
X153698381Y-69103714D01*
X153698381Y-69294191D01*
X153746000Y-69389429D01*
X153793619Y-69437048D01*
X153888857Y-69484667D01*
X153936476Y-69484667D01*
X154031714Y-69437048D01*
X154079333Y-69389429D01*
X154126952Y-69294191D01*
X154126952Y-69103714D01*
X154174571Y-69008476D01*
X154222190Y-68960857D01*
X154317429Y-68913238D01*
X154507905Y-68913238D01*
X154603143Y-68960857D01*
X154650762Y-69008476D01*
X154698381Y-69103714D01*
X154698381Y-69294191D01*
X154650762Y-69389429D01*
X154603143Y-69437048D01*
X154507905Y-69484667D01*
X154317429Y-69484667D01*
X154222190Y-69437048D01*
X154174571Y-69389429D01*
X154126952Y-69294191D01*
X174002381Y-66675143D02*
X174002381Y-66198952D01*
X173002381Y-66198952D01*
X174002381Y-67579905D02*
X173526190Y-67246571D01*
X174002381Y-67008476D02*
X173002381Y-67008476D01*
X173002381Y-67389429D01*
X173050000Y-67484667D01*
X173097619Y-67532286D01*
X173192857Y-67579905D01*
X173335714Y-67579905D01*
X173430952Y-67532286D01*
X173478571Y-67484667D01*
X173526190Y-67389429D01*
X173526190Y-67008476D01*
X174002381Y-68532286D02*
X174002381Y-67960857D01*
X174002381Y-68246571D02*
X173002381Y-68246571D01*
X173145238Y-68151333D01*
X173240476Y-68056095D01*
X173288095Y-67960857D01*
X174002381Y-69008476D02*
X174002381Y-69198952D01*
X173954762Y-69294191D01*
X173907143Y-69341810D01*
X173764286Y-69437048D01*
X173573810Y-69484667D01*
X173192857Y-69484667D01*
X173097619Y-69437048D01*
X173050000Y-69389429D01*
X173002381Y-69294191D01*
X173002381Y-69103714D01*
X173050000Y-69008476D01*
X173097619Y-68960857D01*
X173192857Y-68913238D01*
X173430952Y-68913238D01*
X173526190Y-68960857D01*
X173573810Y-69008476D01*
X173621429Y-69103714D01*
X173621429Y-69294191D01*
X173573810Y-69389429D01*
X173526190Y-69437048D01*
X173430952Y-69484667D01*
X192798381Y-66675143D02*
X192798381Y-66198952D01*
X191798381Y-66198952D01*
X192798381Y-67579905D02*
X192322190Y-67246571D01*
X192798381Y-67008476D02*
X191798381Y-67008476D01*
X191798381Y-67389429D01*
X191846000Y-67484667D01*
X191893619Y-67532286D01*
X191988857Y-67579905D01*
X192131714Y-67579905D01*
X192226952Y-67532286D01*
X192274571Y-67484667D01*
X192322190Y-67389429D01*
X192322190Y-67008476D01*
X191893619Y-67960857D02*
X191846000Y-68008476D01*
X191798381Y-68103714D01*
X191798381Y-68341810D01*
X191846000Y-68437048D01*
X191893619Y-68484667D01*
X191988857Y-68532286D01*
X192084095Y-68532286D01*
X192226952Y-68484667D01*
X192798381Y-67913238D01*
X192798381Y-68532286D01*
X191798381Y-69151333D02*
X191798381Y-69246572D01*
X191846000Y-69341810D01*
X191893619Y-69389429D01*
X191988857Y-69437048D01*
X192179333Y-69484667D01*
X192417429Y-69484667D01*
X192607905Y-69437048D01*
X192703143Y-69389429D01*
X192750762Y-69341810D01*
X192798381Y-69246572D01*
X192798381Y-69151333D01*
X192750762Y-69056095D01*
X192703143Y-69008476D01*
X192607905Y-68960857D01*
X192417429Y-68913238D01*
X192179333Y-68913238D01*
X191988857Y-68960857D01*
X191893619Y-69008476D01*
X191846000Y-69056095D01*
X191798381Y-69151333D01*
X211594381Y-67183143D02*
X211594381Y-66706952D01*
X210594381Y-66706952D01*
X211594381Y-68087905D02*
X211118190Y-67754571D01*
X211594381Y-67516476D02*
X210594381Y-67516476D01*
X210594381Y-67897429D01*
X210642000Y-67992667D01*
X210689619Y-68040286D01*
X210784857Y-68087905D01*
X210927714Y-68087905D01*
X211022952Y-68040286D01*
X211070571Y-67992667D01*
X211118190Y-67897429D01*
X211118190Y-67516476D01*
X210689619Y-68468857D02*
X210642000Y-68516476D01*
X210594381Y-68611714D01*
X210594381Y-68849810D01*
X210642000Y-68945048D01*
X210689619Y-68992667D01*
X210784857Y-69040286D01*
X210880095Y-69040286D01*
X211022952Y-68992667D01*
X211594381Y-68421238D01*
X211594381Y-69040286D01*
X211594381Y-69992667D02*
X211594381Y-69421238D01*
X211594381Y-69706952D02*
X210594381Y-69706952D01*
X210737238Y-69611714D01*
X210832476Y-69516476D01*
X210880095Y-69421238D01*
X230898381Y-66675143D02*
X230898381Y-66198952D01*
X229898381Y-66198952D01*
X230898381Y-67579905D02*
X230422190Y-67246571D01*
X230898381Y-67008476D02*
X229898381Y-67008476D01*
X229898381Y-67389429D01*
X229946000Y-67484667D01*
X229993619Y-67532286D01*
X230088857Y-67579905D01*
X230231714Y-67579905D01*
X230326952Y-67532286D01*
X230374571Y-67484667D01*
X230422190Y-67389429D01*
X230422190Y-67008476D01*
X229993619Y-67960857D02*
X229946000Y-68008476D01*
X229898381Y-68103714D01*
X229898381Y-68341810D01*
X229946000Y-68437048D01*
X229993619Y-68484667D01*
X230088857Y-68532286D01*
X230184095Y-68532286D01*
X230326952Y-68484667D01*
X230898381Y-67913238D01*
X230898381Y-68532286D01*
X229993619Y-68913238D02*
X229946000Y-68960857D01*
X229898381Y-69056095D01*
X229898381Y-69294191D01*
X229946000Y-69389429D01*
X229993619Y-69437048D01*
X230088857Y-69484667D01*
X230184095Y-69484667D01*
X230326952Y-69437048D01*
X230898381Y-68865619D01*
X230898381Y-69484667D01*
X256806381Y-66675143D02*
X256806381Y-66198952D01*
X255806381Y-66198952D01*
X256806381Y-67579905D02*
X256330190Y-67246571D01*
X256806381Y-67008476D02*
X255806381Y-67008476D01*
X255806381Y-67389429D01*
X255854000Y-67484667D01*
X255901619Y-67532286D01*
X255996857Y-67579905D01*
X256139714Y-67579905D01*
X256234952Y-67532286D01*
X256282571Y-67484667D01*
X256330190Y-67389429D01*
X256330190Y-67008476D01*
X255901619Y-67960857D02*
X255854000Y-68008476D01*
X255806381Y-68103714D01*
X255806381Y-68341810D01*
X255854000Y-68437048D01*
X255901619Y-68484667D01*
X255996857Y-68532286D01*
X256092095Y-68532286D01*
X256234952Y-68484667D01*
X256806381Y-67913238D01*
X256806381Y-68532286D01*
X255806381Y-68865619D02*
X255806381Y-69484667D01*
X256187333Y-69151333D01*
X256187333Y-69294191D01*
X256234952Y-69389429D01*
X256282571Y-69437048D01*
X256377810Y-69484667D01*
X256615905Y-69484667D01*
X256711143Y-69437048D01*
X256758762Y-69389429D01*
X256806381Y-69294191D01*
X256806381Y-69008476D01*
X256758762Y-68913238D01*
X256711143Y-68865619D01*
X56518381Y-84963143D02*
X56518381Y-84486952D01*
X55518381Y-84486952D01*
X56518381Y-85867905D02*
X56042190Y-85534571D01*
X56518381Y-85296476D02*
X55518381Y-85296476D01*
X55518381Y-85677429D01*
X55566000Y-85772667D01*
X55613619Y-85820286D01*
X55708857Y-85867905D01*
X55851714Y-85867905D01*
X55946952Y-85820286D01*
X55994571Y-85772667D01*
X56042190Y-85677429D01*
X56042190Y-85296476D01*
X55613619Y-86248857D02*
X55566000Y-86296476D01*
X55518381Y-86391714D01*
X55518381Y-86629810D01*
X55566000Y-86725048D01*
X55613619Y-86772667D01*
X55708857Y-86820286D01*
X55804095Y-86820286D01*
X55946952Y-86772667D01*
X56518381Y-86201238D01*
X56518381Y-86820286D01*
X55851714Y-87677429D02*
X56518381Y-87677429D01*
X55470762Y-87439333D02*
X56185048Y-87201238D01*
X56185048Y-87820286D01*
X87642381Y-85979143D02*
X87642381Y-85502952D01*
X86642381Y-85502952D01*
X87642381Y-86883905D02*
X87166190Y-86550571D01*
X87642381Y-86312476D02*
X86642381Y-86312476D01*
X86642381Y-86693429D01*
X86690000Y-86788667D01*
X86737619Y-86836286D01*
X86832857Y-86883905D01*
X86975714Y-86883905D01*
X87070952Y-86836286D01*
X87118571Y-86788667D01*
X87166190Y-86693429D01*
X87166190Y-86312476D01*
X86737619Y-87264857D02*
X86690000Y-87312476D01*
X86642381Y-87407714D01*
X86642381Y-87645810D01*
X86690000Y-87741048D01*
X86737619Y-87788667D01*
X86832857Y-87836286D01*
X86928095Y-87836286D01*
X87070952Y-87788667D01*
X87642381Y-87217238D01*
X87642381Y-87836286D01*
X86642381Y-88741048D02*
X86642381Y-88264857D01*
X87118571Y-88217238D01*
X87070952Y-88264857D01*
X87023333Y-88360095D01*
X87023333Y-88598191D01*
X87070952Y-88693429D01*
X87118571Y-88741048D01*
X87213810Y-88788667D01*
X87451905Y-88788667D01*
X87547143Y-88741048D01*
X87594762Y-88693429D01*
X87642381Y-88598191D01*
X87642381Y-88360095D01*
X87594762Y-88264857D01*
X87547143Y-88217238D01*
X94754381Y-85725143D02*
X94754381Y-85248952D01*
X93754381Y-85248952D01*
X94754381Y-86629905D02*
X94278190Y-86296571D01*
X94754381Y-86058476D02*
X93754381Y-86058476D01*
X93754381Y-86439429D01*
X93802000Y-86534667D01*
X93849619Y-86582286D01*
X93944857Y-86629905D01*
X94087714Y-86629905D01*
X94182952Y-86582286D01*
X94230571Y-86534667D01*
X94278190Y-86439429D01*
X94278190Y-86058476D01*
X93849619Y-87010857D02*
X93802000Y-87058476D01*
X93754381Y-87153714D01*
X93754381Y-87391810D01*
X93802000Y-87487048D01*
X93849619Y-87534667D01*
X93944857Y-87582286D01*
X94040095Y-87582286D01*
X94182952Y-87534667D01*
X94754381Y-86963238D01*
X94754381Y-87582286D01*
X93754381Y-88439429D02*
X93754381Y-88248952D01*
X93802000Y-88153714D01*
X93849619Y-88106095D01*
X93992476Y-88010857D01*
X94182952Y-87963238D01*
X94563905Y-87963238D01*
X94659143Y-88010857D01*
X94706762Y-88058476D01*
X94754381Y-88153714D01*
X94754381Y-88344191D01*
X94706762Y-88439429D01*
X94659143Y-88487048D01*
X94563905Y-88534667D01*
X94325810Y-88534667D01*
X94230571Y-88487048D01*
X94182952Y-88439429D01*
X94135333Y-88344191D01*
X94135333Y-88153714D01*
X94182952Y-88058476D01*
X94230571Y-88010857D01*
X94325810Y-87963238D01*
X124980381Y-85471143D02*
X124980381Y-84994952D01*
X123980381Y-84994952D01*
X124980381Y-86375905D02*
X124504190Y-86042571D01*
X124980381Y-85804476D02*
X123980381Y-85804476D01*
X123980381Y-86185429D01*
X124028000Y-86280667D01*
X124075619Y-86328286D01*
X124170857Y-86375905D01*
X124313714Y-86375905D01*
X124408952Y-86328286D01*
X124456571Y-86280667D01*
X124504190Y-86185429D01*
X124504190Y-85804476D01*
X124075619Y-86756857D02*
X124028000Y-86804476D01*
X123980381Y-86899714D01*
X123980381Y-87137810D01*
X124028000Y-87233048D01*
X124075619Y-87280667D01*
X124170857Y-87328286D01*
X124266095Y-87328286D01*
X124408952Y-87280667D01*
X124980381Y-86709238D01*
X124980381Y-87328286D01*
X123980381Y-87661619D02*
X123980381Y-88328286D01*
X124980381Y-87899714D01*
X145554381Y-85725143D02*
X145554381Y-85248952D01*
X144554381Y-85248952D01*
X145554381Y-86629905D02*
X145078190Y-86296571D01*
X145554381Y-86058476D02*
X144554381Y-86058476D01*
X144554381Y-86439429D01*
X144602000Y-86534667D01*
X144649619Y-86582286D01*
X144744857Y-86629905D01*
X144887714Y-86629905D01*
X144982952Y-86582286D01*
X145030571Y-86534667D01*
X145078190Y-86439429D01*
X145078190Y-86058476D01*
X144649619Y-87010857D02*
X144602000Y-87058476D01*
X144554381Y-87153714D01*
X144554381Y-87391810D01*
X144602000Y-87487048D01*
X144649619Y-87534667D01*
X144744857Y-87582286D01*
X144840095Y-87582286D01*
X144982952Y-87534667D01*
X145554381Y-86963238D01*
X145554381Y-87582286D01*
X144982952Y-88153714D02*
X144935333Y-88058476D01*
X144887714Y-88010857D01*
X144792476Y-87963238D01*
X144744857Y-87963238D01*
X144649619Y-88010857D01*
X144602000Y-88058476D01*
X144554381Y-88153714D01*
X144554381Y-88344191D01*
X144602000Y-88439429D01*
X144649619Y-88487048D01*
X144744857Y-88534667D01*
X144792476Y-88534667D01*
X144887714Y-88487048D01*
X144935333Y-88439429D01*
X144982952Y-88344191D01*
X144982952Y-88153714D01*
X145030571Y-88058476D01*
X145078190Y-88010857D01*
X145173429Y-87963238D01*
X145363905Y-87963238D01*
X145459143Y-88010857D01*
X145506762Y-88058476D01*
X145554381Y-88153714D01*
X145554381Y-88344191D01*
X145506762Y-88439429D01*
X145459143Y-88487048D01*
X145363905Y-88534667D01*
X145173429Y-88534667D01*
X145078190Y-88487048D01*
X145030571Y-88439429D01*
X144982952Y-88344191D01*
X164858381Y-84455143D02*
X164858381Y-83978952D01*
X163858381Y-83978952D01*
X164858381Y-85359905D02*
X164382190Y-85026571D01*
X164858381Y-84788476D02*
X163858381Y-84788476D01*
X163858381Y-85169429D01*
X163906000Y-85264667D01*
X163953619Y-85312286D01*
X164048857Y-85359905D01*
X164191714Y-85359905D01*
X164286952Y-85312286D01*
X164334571Y-85264667D01*
X164382190Y-85169429D01*
X164382190Y-84788476D01*
X163953619Y-85740857D02*
X163906000Y-85788476D01*
X163858381Y-85883714D01*
X163858381Y-86121810D01*
X163906000Y-86217048D01*
X163953619Y-86264667D01*
X164048857Y-86312286D01*
X164144095Y-86312286D01*
X164286952Y-86264667D01*
X164858381Y-85693238D01*
X164858381Y-86312286D01*
X164858381Y-86788476D02*
X164858381Y-86978952D01*
X164810762Y-87074191D01*
X164763143Y-87121810D01*
X164620286Y-87217048D01*
X164429810Y-87264667D01*
X164048857Y-87264667D01*
X163953619Y-87217048D01*
X163906000Y-87169429D01*
X163858381Y-87074191D01*
X163858381Y-86883714D01*
X163906000Y-86788476D01*
X163953619Y-86740857D01*
X164048857Y-86693238D01*
X164286952Y-86693238D01*
X164382190Y-86740857D01*
X164429810Y-86788476D01*
X164477429Y-86883714D01*
X164477429Y-87074191D01*
X164429810Y-87169429D01*
X164382190Y-87217048D01*
X164286952Y-87264667D01*
X183400381Y-85471143D02*
X183400381Y-84994952D01*
X182400381Y-84994952D01*
X183400381Y-86375905D02*
X182924190Y-86042571D01*
X183400381Y-85804476D02*
X182400381Y-85804476D01*
X182400381Y-86185429D01*
X182448000Y-86280667D01*
X182495619Y-86328286D01*
X182590857Y-86375905D01*
X182733714Y-86375905D01*
X182828952Y-86328286D01*
X182876571Y-86280667D01*
X182924190Y-86185429D01*
X182924190Y-85804476D01*
X182400381Y-86709238D02*
X182400381Y-87328286D01*
X182781333Y-86994952D01*
X182781333Y-87137810D01*
X182828952Y-87233048D01*
X182876571Y-87280667D01*
X182971810Y-87328286D01*
X183209905Y-87328286D01*
X183305143Y-87280667D01*
X183352762Y-87233048D01*
X183400381Y-87137810D01*
X183400381Y-86852095D01*
X183352762Y-86756857D01*
X183305143Y-86709238D01*
X182400381Y-87947333D02*
X182400381Y-88042572D01*
X182448000Y-88137810D01*
X182495619Y-88185429D01*
X182590857Y-88233048D01*
X182781333Y-88280667D01*
X183019429Y-88280667D01*
X183209905Y-88233048D01*
X183305143Y-88185429D01*
X183352762Y-88137810D01*
X183400381Y-88042572D01*
X183400381Y-87947333D01*
X183352762Y-87852095D01*
X183305143Y-87804476D01*
X183209905Y-87756857D01*
X183019429Y-87709238D01*
X182781333Y-87709238D01*
X182590857Y-87756857D01*
X182495619Y-87804476D01*
X182448000Y-87852095D01*
X182400381Y-87947333D01*
X202704381Y-85217143D02*
X202704381Y-84740952D01*
X201704381Y-84740952D01*
X202704381Y-86121905D02*
X202228190Y-85788571D01*
X202704381Y-85550476D02*
X201704381Y-85550476D01*
X201704381Y-85931429D01*
X201752000Y-86026667D01*
X201799619Y-86074286D01*
X201894857Y-86121905D01*
X202037714Y-86121905D01*
X202132952Y-86074286D01*
X202180571Y-86026667D01*
X202228190Y-85931429D01*
X202228190Y-85550476D01*
X201704381Y-86455238D02*
X201704381Y-87074286D01*
X202085333Y-86740952D01*
X202085333Y-86883810D01*
X202132952Y-86979048D01*
X202180571Y-87026667D01*
X202275810Y-87074286D01*
X202513905Y-87074286D01*
X202609143Y-87026667D01*
X202656762Y-86979048D01*
X202704381Y-86883810D01*
X202704381Y-86598095D01*
X202656762Y-86502857D01*
X202609143Y-86455238D01*
X202704381Y-88026667D02*
X202704381Y-87455238D01*
X202704381Y-87740952D02*
X201704381Y-87740952D01*
X201847238Y-87645714D01*
X201942476Y-87550476D01*
X201990095Y-87455238D01*
X209054381Y-85725143D02*
X209054381Y-85248952D01*
X208054381Y-85248952D01*
X209054381Y-86629905D02*
X208578190Y-86296571D01*
X209054381Y-86058476D02*
X208054381Y-86058476D01*
X208054381Y-86439429D01*
X208102000Y-86534667D01*
X208149619Y-86582286D01*
X208244857Y-86629905D01*
X208387714Y-86629905D01*
X208482952Y-86582286D01*
X208530571Y-86534667D01*
X208578190Y-86439429D01*
X208578190Y-86058476D01*
X208054381Y-86963238D02*
X208054381Y-87582286D01*
X208435333Y-87248952D01*
X208435333Y-87391810D01*
X208482952Y-87487048D01*
X208530571Y-87534667D01*
X208625810Y-87582286D01*
X208863905Y-87582286D01*
X208959143Y-87534667D01*
X209006762Y-87487048D01*
X209054381Y-87391810D01*
X209054381Y-87106095D01*
X209006762Y-87010857D01*
X208959143Y-86963238D01*
X208149619Y-87963238D02*
X208102000Y-88010857D01*
X208054381Y-88106095D01*
X208054381Y-88344191D01*
X208102000Y-88439429D01*
X208149619Y-88487048D01*
X208244857Y-88534667D01*
X208340095Y-88534667D01*
X208482952Y-88487048D01*
X209054381Y-87915619D01*
X209054381Y-88534667D01*
X242074381Y-85725143D02*
X242074381Y-85248952D01*
X241074381Y-85248952D01*
X242074381Y-86629905D02*
X241598190Y-86296571D01*
X242074381Y-86058476D02*
X241074381Y-86058476D01*
X241074381Y-86439429D01*
X241122000Y-86534667D01*
X241169619Y-86582286D01*
X241264857Y-86629905D01*
X241407714Y-86629905D01*
X241502952Y-86582286D01*
X241550571Y-86534667D01*
X241598190Y-86439429D01*
X241598190Y-86058476D01*
X241074381Y-86963238D02*
X241074381Y-87582286D01*
X241455333Y-87248952D01*
X241455333Y-87391810D01*
X241502952Y-87487048D01*
X241550571Y-87534667D01*
X241645810Y-87582286D01*
X241883905Y-87582286D01*
X241979143Y-87534667D01*
X242026762Y-87487048D01*
X242074381Y-87391810D01*
X242074381Y-87106095D01*
X242026762Y-87010857D01*
X241979143Y-86963238D01*
X241074381Y-87915619D02*
X241074381Y-88534667D01*
X241455333Y-88201333D01*
X241455333Y-88344191D01*
X241502952Y-88439429D01*
X241550571Y-88487048D01*
X241645810Y-88534667D01*
X241883905Y-88534667D01*
X241979143Y-88487048D01*
X242026762Y-88439429D01*
X242074381Y-88344191D01*
X242074381Y-88058476D01*
X242026762Y-87963238D01*
X241979143Y-87915619D01*
X254266381Y-81915143D02*
X254266381Y-81438952D01*
X253266381Y-81438952D01*
X254266381Y-82819905D02*
X253790190Y-82486571D01*
X254266381Y-82248476D02*
X253266381Y-82248476D01*
X253266381Y-82629429D01*
X253314000Y-82724667D01*
X253361619Y-82772286D01*
X253456857Y-82819905D01*
X253599714Y-82819905D01*
X253694952Y-82772286D01*
X253742571Y-82724667D01*
X253790190Y-82629429D01*
X253790190Y-82248476D01*
X253266381Y-83153238D02*
X253266381Y-83772286D01*
X253647333Y-83438952D01*
X253647333Y-83581810D01*
X253694952Y-83677048D01*
X253742571Y-83724667D01*
X253837810Y-83772286D01*
X254075905Y-83772286D01*
X254171143Y-83724667D01*
X254218762Y-83677048D01*
X254266381Y-83581810D01*
X254266381Y-83296095D01*
X254218762Y-83200857D01*
X254171143Y-83153238D01*
X253599714Y-84629429D02*
X254266381Y-84629429D01*
X253218762Y-84391333D02*
X253933048Y-84153238D01*
X253933048Y-84772286D01*
X51438381Y-104267143D02*
X51438381Y-103790952D01*
X50438381Y-103790952D01*
X51438381Y-105171905D02*
X50962190Y-104838571D01*
X51438381Y-104600476D02*
X50438381Y-104600476D01*
X50438381Y-104981429D01*
X50486000Y-105076667D01*
X50533619Y-105124286D01*
X50628857Y-105171905D01*
X50771714Y-105171905D01*
X50866952Y-105124286D01*
X50914571Y-105076667D01*
X50962190Y-104981429D01*
X50962190Y-104600476D01*
X50438381Y-105505238D02*
X50438381Y-106124286D01*
X50819333Y-105790952D01*
X50819333Y-105933810D01*
X50866952Y-106029048D01*
X50914571Y-106076667D01*
X51009810Y-106124286D01*
X51247905Y-106124286D01*
X51343143Y-106076667D01*
X51390762Y-106029048D01*
X51438381Y-105933810D01*
X51438381Y-105648095D01*
X51390762Y-105552857D01*
X51343143Y-105505238D01*
X50438381Y-107029048D02*
X50438381Y-106552857D01*
X50914571Y-106505238D01*
X50866952Y-106552857D01*
X50819333Y-106648095D01*
X50819333Y-106886191D01*
X50866952Y-106981429D01*
X50914571Y-107029048D01*
X51009810Y-107076667D01*
X51247905Y-107076667D01*
X51343143Y-107029048D01*
X51390762Y-106981429D01*
X51438381Y-106886191D01*
X51438381Y-106648095D01*
X51390762Y-106552857D01*
X51343143Y-106505238D01*
X79006381Y-104775143D02*
X79006381Y-104298952D01*
X78006381Y-104298952D01*
X79006381Y-105679905D02*
X78530190Y-105346571D01*
X79006381Y-105108476D02*
X78006381Y-105108476D01*
X78006381Y-105489429D01*
X78054000Y-105584667D01*
X78101619Y-105632286D01*
X78196857Y-105679905D01*
X78339714Y-105679905D01*
X78434952Y-105632286D01*
X78482571Y-105584667D01*
X78530190Y-105489429D01*
X78530190Y-105108476D01*
X78006381Y-106013238D02*
X78006381Y-106632286D01*
X78387333Y-106298952D01*
X78387333Y-106441810D01*
X78434952Y-106537048D01*
X78482571Y-106584667D01*
X78577810Y-106632286D01*
X78815905Y-106632286D01*
X78911143Y-106584667D01*
X78958762Y-106537048D01*
X79006381Y-106441810D01*
X79006381Y-106156095D01*
X78958762Y-106060857D01*
X78911143Y-106013238D01*
X78006381Y-107489429D02*
X78006381Y-107298952D01*
X78054000Y-107203714D01*
X78101619Y-107156095D01*
X78244476Y-107060857D01*
X78434952Y-107013238D01*
X78815905Y-107013238D01*
X78911143Y-107060857D01*
X78958762Y-107108476D01*
X79006381Y-107203714D01*
X79006381Y-107394191D01*
X78958762Y-107489429D01*
X78911143Y-107537048D01*
X78815905Y-107584667D01*
X78577810Y-107584667D01*
X78482571Y-107537048D01*
X78434952Y-107489429D01*
X78387333Y-107394191D01*
X78387333Y-107203714D01*
X78434952Y-107108476D01*
X78482571Y-107060857D01*
X78577810Y-107013238D01*
X97548381Y-104775143D02*
X97548381Y-104298952D01*
X96548381Y-104298952D01*
X97548381Y-105679905D02*
X97072190Y-105346571D01*
X97548381Y-105108476D02*
X96548381Y-105108476D01*
X96548381Y-105489429D01*
X96596000Y-105584667D01*
X96643619Y-105632286D01*
X96738857Y-105679905D01*
X96881714Y-105679905D01*
X96976952Y-105632286D01*
X97024571Y-105584667D01*
X97072190Y-105489429D01*
X97072190Y-105108476D01*
X96548381Y-106013238D02*
X96548381Y-106632286D01*
X96929333Y-106298952D01*
X96929333Y-106441810D01*
X96976952Y-106537048D01*
X97024571Y-106584667D01*
X97119810Y-106632286D01*
X97357905Y-106632286D01*
X97453143Y-106584667D01*
X97500762Y-106537048D01*
X97548381Y-106441810D01*
X97548381Y-106156095D01*
X97500762Y-106060857D01*
X97453143Y-106013238D01*
X96548381Y-106965619D02*
X96548381Y-107632286D01*
X97548381Y-107203714D01*
X166128381Y-104775143D02*
X166128381Y-104298952D01*
X165128381Y-104298952D01*
X166128381Y-105679905D02*
X165652190Y-105346571D01*
X166128381Y-105108476D02*
X165128381Y-105108476D01*
X165128381Y-105489429D01*
X165176000Y-105584667D01*
X165223619Y-105632286D01*
X165318857Y-105679905D01*
X165461714Y-105679905D01*
X165556952Y-105632286D01*
X165604571Y-105584667D01*
X165652190Y-105489429D01*
X165652190Y-105108476D01*
X165128381Y-106013238D02*
X165128381Y-106632286D01*
X165509333Y-106298952D01*
X165509333Y-106441810D01*
X165556952Y-106537048D01*
X165604571Y-106584667D01*
X165699810Y-106632286D01*
X165937905Y-106632286D01*
X166033143Y-106584667D01*
X166080762Y-106537048D01*
X166128381Y-106441810D01*
X166128381Y-106156095D01*
X166080762Y-106060857D01*
X166033143Y-106013238D01*
X165556952Y-107203714D02*
X165509333Y-107108476D01*
X165461714Y-107060857D01*
X165366476Y-107013238D01*
X165318857Y-107013238D01*
X165223619Y-107060857D01*
X165176000Y-107108476D01*
X165128381Y-107203714D01*
X165128381Y-107394191D01*
X165176000Y-107489429D01*
X165223619Y-107537048D01*
X165318857Y-107584667D01*
X165366476Y-107584667D01*
X165461714Y-107537048D01*
X165509333Y-107489429D01*
X165556952Y-107394191D01*
X165556952Y-107203714D01*
X165604571Y-107108476D01*
X165652190Y-107060857D01*
X165747429Y-107013238D01*
X165937905Y-107013238D01*
X166033143Y-107060857D01*
X166080762Y-107108476D01*
X166128381Y-107203714D01*
X166128381Y-107394191D01*
X166080762Y-107489429D01*
X166033143Y-107537048D01*
X165937905Y-107584667D01*
X165747429Y-107584667D01*
X165652190Y-107537048D01*
X165604571Y-107489429D01*
X165556952Y-107394191D01*
X238264381Y-105029143D02*
X238264381Y-104552952D01*
X237264381Y-104552952D01*
X238264381Y-105933905D02*
X237788190Y-105600571D01*
X238264381Y-105362476D02*
X237264381Y-105362476D01*
X237264381Y-105743429D01*
X237312000Y-105838667D01*
X237359619Y-105886286D01*
X237454857Y-105933905D01*
X237597714Y-105933905D01*
X237692952Y-105886286D01*
X237740571Y-105838667D01*
X237788190Y-105743429D01*
X237788190Y-105362476D01*
X237264381Y-106267238D02*
X237264381Y-106886286D01*
X237645333Y-106552952D01*
X237645333Y-106695810D01*
X237692952Y-106791048D01*
X237740571Y-106838667D01*
X237835810Y-106886286D01*
X238073905Y-106886286D01*
X238169143Y-106838667D01*
X238216762Y-106791048D01*
X238264381Y-106695810D01*
X238264381Y-106410095D01*
X238216762Y-106314857D01*
X238169143Y-106267238D01*
X238264381Y-107362476D02*
X238264381Y-107552952D01*
X238216762Y-107648191D01*
X238169143Y-107695810D01*
X238026286Y-107791048D01*
X237835810Y-107838667D01*
X237454857Y-107838667D01*
X237359619Y-107791048D01*
X237312000Y-107743429D01*
X237264381Y-107648191D01*
X237264381Y-107457714D01*
X237312000Y-107362476D01*
X237359619Y-107314857D01*
X237454857Y-107267238D01*
X237692952Y-107267238D01*
X237788190Y-107314857D01*
X237835810Y-107362476D01*
X237883429Y-107457714D01*
X237883429Y-107648191D01*
X237835810Y-107743429D01*
X237788190Y-107791048D01*
X237692952Y-107838667D01*
X260362381Y-104521143D02*
X260362381Y-104044952D01*
X259362381Y-104044952D01*
X260362381Y-105425905D02*
X259886190Y-105092571D01*
X260362381Y-104854476D02*
X259362381Y-104854476D01*
X259362381Y-105235429D01*
X259410000Y-105330667D01*
X259457619Y-105378286D01*
X259552857Y-105425905D01*
X259695714Y-105425905D01*
X259790952Y-105378286D01*
X259838571Y-105330667D01*
X259886190Y-105235429D01*
X259886190Y-104854476D01*
X259695714Y-106283048D02*
X260362381Y-106283048D01*
X259314762Y-106044952D02*
X260029048Y-105806857D01*
X260029048Y-106425905D01*
X259362381Y-106997333D02*
X259362381Y-107092572D01*
X259410000Y-107187810D01*
X259457619Y-107235429D01*
X259552857Y-107283048D01*
X259743333Y-107330667D01*
X259981429Y-107330667D01*
X260171905Y-107283048D01*
X260267143Y-107235429D01*
X260314762Y-107187810D01*
X260362381Y-107092572D01*
X260362381Y-106997333D01*
X260314762Y-106902095D01*
X260267143Y-106854476D01*
X260171905Y-106806857D01*
X259981429Y-106759238D01*
X259743333Y-106759238D01*
X259552857Y-106806857D01*
X259457619Y-106854476D01*
X259410000Y-106902095D01*
X259362381Y-106997333D01*
X100964857Y-61598381D02*
X101441048Y-61598381D01*
X101441048Y-60598381D01*
X100060095Y-61598381D02*
X100393429Y-61122190D01*
X100631524Y-61598381D02*
X100631524Y-60598381D01*
X100250571Y-60598381D01*
X100155333Y-60646000D01*
X100107714Y-60693619D01*
X100060095Y-60788857D01*
X100060095Y-60931714D01*
X100107714Y-61026952D01*
X100155333Y-61074571D01*
X100250571Y-61122190D01*
X100631524Y-61122190D01*
X99202952Y-60931714D02*
X99202952Y-61598381D01*
X99441048Y-60550762D02*
X99679143Y-61265048D01*
X99060095Y-61265048D01*
X98155333Y-61598381D02*
X98726762Y-61598381D01*
X98441048Y-61598381D02*
X98441048Y-60598381D01*
X98536286Y-60741238D01*
X98631524Y-60836476D01*
X98726762Y-60884095D01*
X233267238Y-64083619D02*
X233362476Y-64036000D01*
X233457714Y-63940762D01*
X233600571Y-63797905D01*
X233695810Y-63750286D01*
X233791048Y-63750286D01*
X233743429Y-63988381D02*
X233838667Y-63940762D01*
X233933905Y-63845524D01*
X233981524Y-63655048D01*
X233981524Y-63321714D01*
X233933905Y-63131238D01*
X233838667Y-63036000D01*
X233743429Y-62988381D01*
X233552952Y-62988381D01*
X233457714Y-63036000D01*
X233362476Y-63131238D01*
X233314857Y-63321714D01*
X233314857Y-63655048D01*
X233362476Y-63845524D01*
X233457714Y-63940762D01*
X233552952Y-63988381D01*
X233743429Y-63988381D01*
X232362476Y-63988381D02*
X232933905Y-63988381D01*
X232648191Y-63988381D02*
X232648191Y-62988381D01*
X232743429Y-63131238D01*
X232838667Y-63226476D01*
X232933905Y-63274095D01*
X56808666Y-58110381D02*
X57142000Y-57634190D01*
X57380095Y-58110381D02*
X57380095Y-57110381D01*
X56999142Y-57110381D01*
X56903904Y-57158000D01*
X56856285Y-57205619D01*
X56808666Y-57300857D01*
X56808666Y-57443714D01*
X56856285Y-57538952D01*
X56903904Y-57586571D01*
X56999142Y-57634190D01*
X57380095Y-57634190D01*
X55856285Y-58110381D02*
X56427714Y-58110381D01*
X56142000Y-58110381D02*
X56142000Y-57110381D01*
X56237238Y-57253238D01*
X56332476Y-57348476D01*
X56427714Y-57396095D01*
X54268666Y-58110381D02*
X54602000Y-57634190D01*
X54840095Y-58110381D02*
X54840095Y-57110381D01*
X54459142Y-57110381D01*
X54363904Y-57158000D01*
X54316285Y-57205619D01*
X54268666Y-57300857D01*
X54268666Y-57443714D01*
X54316285Y-57538952D01*
X54363904Y-57586571D01*
X54459142Y-57634190D01*
X54840095Y-57634190D01*
X53887714Y-57205619D02*
X53840095Y-57158000D01*
X53744857Y-57110381D01*
X53506761Y-57110381D01*
X53411523Y-57158000D01*
X53363904Y-57205619D01*
X53316285Y-57300857D01*
X53316285Y-57396095D01*
X53363904Y-57538952D01*
X53935333Y-58110381D01*
X53316285Y-58110381D01*
X117768666Y-113922381D02*
X118102000Y-113446190D01*
X118340095Y-113922381D02*
X118340095Y-112922381D01*
X117959142Y-112922381D01*
X117863904Y-112970000D01*
X117816285Y-113017619D01*
X117768666Y-113112857D01*
X117768666Y-113255714D01*
X117816285Y-113350952D01*
X117863904Y-113398571D01*
X117959142Y-113446190D01*
X118340095Y-113446190D01*
X117435333Y-112922381D02*
X116816285Y-112922381D01*
X117149619Y-113303333D01*
X117006761Y-113303333D01*
X116911523Y-113350952D01*
X116863904Y-113398571D01*
X116816285Y-113493810D01*
X116816285Y-113731905D01*
X116863904Y-113827143D01*
X116911523Y-113874762D01*
X117006761Y-113922381D01*
X117292476Y-113922381D01*
X117387714Y-113874762D01*
X117435333Y-113827143D01*
X233338666Y-74688381D02*
X233672000Y-74212190D01*
X233910095Y-74688381D02*
X233910095Y-73688381D01*
X233529142Y-73688381D01*
X233433904Y-73736000D01*
X233386285Y-73783619D01*
X233338666Y-73878857D01*
X233338666Y-74021714D01*
X233386285Y-74116952D01*
X233433904Y-74164571D01*
X233529142Y-74212190D01*
X233910095Y-74212190D01*
X232481523Y-74021714D02*
X232481523Y-74688381D01*
X232719619Y-73640762D02*
X232957714Y-74355048D01*
X232338666Y-74355048D01*
X135548666Y-99698381D02*
X135882000Y-99222190D01*
X136120095Y-99698381D02*
X136120095Y-98698381D01*
X135739142Y-98698381D01*
X135643904Y-98746000D01*
X135596285Y-98793619D01*
X135548666Y-98888857D01*
X135548666Y-99031714D01*
X135596285Y-99126952D01*
X135643904Y-99174571D01*
X135739142Y-99222190D01*
X136120095Y-99222190D01*
X134643904Y-98698381D02*
X135120095Y-98698381D01*
X135167714Y-99174571D01*
X135120095Y-99126952D01*
X135024857Y-99079333D01*
X134786761Y-99079333D01*
X134691523Y-99126952D01*
X134643904Y-99174571D01*
X134596285Y-99269810D01*
X134596285Y-99507905D01*
X134643904Y-99603143D01*
X134691523Y-99650762D01*
X134786761Y-99698381D01*
X135024857Y-99698381D01*
X135120095Y-99650762D01*
X135167714Y-99603143D01*
X109330809Y-66428381D02*
X109664143Y-65952190D01*
X109902238Y-66428381D02*
X109902238Y-65428381D01*
X109521285Y-65428381D01*
X109426047Y-65476000D01*
X109378428Y-65523619D01*
X109330809Y-65618857D01*
X109330809Y-65761714D01*
X109378428Y-65856952D01*
X109426047Y-65904571D01*
X109521285Y-65952190D01*
X109902238Y-65952190D01*
X108378428Y-65476000D02*
X108473666Y-65428381D01*
X108616523Y-65428381D01*
X108759381Y-65476000D01*
X108854619Y-65571238D01*
X108902238Y-65666476D01*
X108949857Y-65856952D01*
X108949857Y-65999810D01*
X108902238Y-66190286D01*
X108854619Y-66285524D01*
X108759381Y-66380762D01*
X108616523Y-66428381D01*
X108521285Y-66428381D01*
X108378428Y-66380762D01*
X108330809Y-66333143D01*
X108330809Y-65999810D01*
X108521285Y-65999810D01*
X107568904Y-65904571D02*
X107426047Y-65952190D01*
X107378428Y-65999810D01*
X107330809Y-66095048D01*
X107330809Y-66237905D01*
X107378428Y-66333143D01*
X107426047Y-66380762D01*
X107521285Y-66428381D01*
X107902238Y-66428381D01*
X107902238Y-65428381D01*
X107568904Y-65428381D01*
X107473666Y-65476000D01*
X107426047Y-65523619D01*
X107378428Y-65618857D01*
X107378428Y-65714095D01*
X107426047Y-65809333D01*
X107473666Y-65856952D01*
X107568904Y-65904571D01*
X107902238Y-65904571D01*
X106426047Y-66428381D02*
X106902238Y-66428381D01*
X106902238Y-65428381D01*
X106092714Y-65904571D02*
X105759380Y-65904571D01*
X105616523Y-66428381D02*
X106092714Y-66428381D01*
X106092714Y-65428381D01*
X105616523Y-65428381D01*
X105187952Y-66428381D02*
X105187952Y-65428381D01*
X104949857Y-65428381D01*
X104806999Y-65476000D01*
X104711761Y-65571238D01*
X104664142Y-65666476D01*
X104616523Y-65856952D01*
X104616523Y-65999810D01*
X104664142Y-66190286D01*
X104711761Y-66285524D01*
X104806999Y-66380762D01*
X104949857Y-66428381D01*
X105187952Y-66428381D01*
X103664142Y-66428381D02*
X104235571Y-66428381D01*
X103949857Y-66428381D02*
X103949857Y-65428381D01*
X104045095Y-65571238D01*
X104140333Y-65666476D01*
X104235571Y-65714095D01*
X72500809Y-66428381D02*
X72834143Y-65952190D01*
X73072238Y-66428381D02*
X73072238Y-65428381D01*
X72691285Y-65428381D01*
X72596047Y-65476000D01*
X72548428Y-65523619D01*
X72500809Y-65618857D01*
X72500809Y-65761714D01*
X72548428Y-65856952D01*
X72596047Y-65904571D01*
X72691285Y-65952190D01*
X73072238Y-65952190D01*
X71548428Y-65476000D02*
X71643666Y-65428381D01*
X71786523Y-65428381D01*
X71929381Y-65476000D01*
X72024619Y-65571238D01*
X72072238Y-65666476D01*
X72119857Y-65856952D01*
X72119857Y-65999810D01*
X72072238Y-66190286D01*
X72024619Y-66285524D01*
X71929381Y-66380762D01*
X71786523Y-66428381D01*
X71691285Y-66428381D01*
X71548428Y-66380762D01*
X71500809Y-66333143D01*
X71500809Y-65999810D01*
X71691285Y-65999810D01*
X70738904Y-65904571D02*
X70596047Y-65952190D01*
X70548428Y-65999810D01*
X70500809Y-66095048D01*
X70500809Y-66237905D01*
X70548428Y-66333143D01*
X70596047Y-66380762D01*
X70691285Y-66428381D01*
X71072238Y-66428381D01*
X71072238Y-65428381D01*
X70738904Y-65428381D01*
X70643666Y-65476000D01*
X70596047Y-65523619D01*
X70548428Y-65618857D01*
X70548428Y-65714095D01*
X70596047Y-65809333D01*
X70643666Y-65856952D01*
X70738904Y-65904571D01*
X71072238Y-65904571D01*
X69596047Y-66428381D02*
X70072238Y-66428381D01*
X70072238Y-65428381D01*
X69262714Y-65904571D02*
X68929380Y-65904571D01*
X68786523Y-66428381D02*
X69262714Y-66428381D01*
X69262714Y-65428381D01*
X68786523Y-65428381D01*
X68357952Y-66428381D02*
X68357952Y-65428381D01*
X68119857Y-65428381D01*
X67976999Y-65476000D01*
X67881761Y-65571238D01*
X67834142Y-65666476D01*
X67786523Y-65856952D01*
X67786523Y-65999810D01*
X67834142Y-66190286D01*
X67881761Y-66285524D01*
X67976999Y-66380762D01*
X68119857Y-66428381D01*
X68357952Y-66428381D01*
X67405571Y-65523619D02*
X67357952Y-65476000D01*
X67262714Y-65428381D01*
X67024618Y-65428381D01*
X66929380Y-65476000D01*
X66881761Y-65523619D01*
X66834142Y-65618857D01*
X66834142Y-65714095D01*
X66881761Y-65856952D01*
X67453190Y-66428381D01*
X66834142Y-66428381D01*
X145525809Y-66428381D02*
X145859143Y-65952190D01*
X146097238Y-66428381D02*
X146097238Y-65428381D01*
X145716285Y-65428381D01*
X145621047Y-65476000D01*
X145573428Y-65523619D01*
X145525809Y-65618857D01*
X145525809Y-65761714D01*
X145573428Y-65856952D01*
X145621047Y-65904571D01*
X145716285Y-65952190D01*
X146097238Y-65952190D01*
X144573428Y-65476000D02*
X144668666Y-65428381D01*
X144811523Y-65428381D01*
X144954381Y-65476000D01*
X145049619Y-65571238D01*
X145097238Y-65666476D01*
X145144857Y-65856952D01*
X145144857Y-65999810D01*
X145097238Y-66190286D01*
X145049619Y-66285524D01*
X144954381Y-66380762D01*
X144811523Y-66428381D01*
X144716285Y-66428381D01*
X144573428Y-66380762D01*
X144525809Y-66333143D01*
X144525809Y-65999810D01*
X144716285Y-65999810D01*
X143763904Y-65904571D02*
X143621047Y-65952190D01*
X143573428Y-65999810D01*
X143525809Y-66095048D01*
X143525809Y-66237905D01*
X143573428Y-66333143D01*
X143621047Y-66380762D01*
X143716285Y-66428381D01*
X144097238Y-66428381D01*
X144097238Y-65428381D01*
X143763904Y-65428381D01*
X143668666Y-65476000D01*
X143621047Y-65523619D01*
X143573428Y-65618857D01*
X143573428Y-65714095D01*
X143621047Y-65809333D01*
X143668666Y-65856952D01*
X143763904Y-65904571D01*
X144097238Y-65904571D01*
X142621047Y-66428381D02*
X143097238Y-66428381D01*
X143097238Y-65428381D01*
X142287714Y-65904571D02*
X141954380Y-65904571D01*
X141811523Y-66428381D02*
X142287714Y-66428381D01*
X142287714Y-65428381D01*
X141811523Y-65428381D01*
X141382952Y-66428381D02*
X141382952Y-65428381D01*
X141144857Y-65428381D01*
X141001999Y-65476000D01*
X140906761Y-65571238D01*
X140859142Y-65666476D01*
X140811523Y-65856952D01*
X140811523Y-65999810D01*
X140859142Y-66190286D01*
X140906761Y-66285524D01*
X141001999Y-66380762D01*
X141144857Y-66428381D01*
X141382952Y-66428381D01*
X140478190Y-65428381D02*
X139859142Y-65428381D01*
X140192476Y-65809333D01*
X140049618Y-65809333D01*
X139954380Y-65856952D01*
X139906761Y-65904571D01*
X139859142Y-65999810D01*
X139859142Y-66237905D01*
X139906761Y-66333143D01*
X139954380Y-66380762D01*
X140049618Y-66428381D01*
X140335333Y-66428381D01*
X140430571Y-66380762D01*
X140478190Y-66333143D01*
X184895809Y-66428381D02*
X185229143Y-65952190D01*
X185467238Y-66428381D02*
X185467238Y-65428381D01*
X185086285Y-65428381D01*
X184991047Y-65476000D01*
X184943428Y-65523619D01*
X184895809Y-65618857D01*
X184895809Y-65761714D01*
X184943428Y-65856952D01*
X184991047Y-65904571D01*
X185086285Y-65952190D01*
X185467238Y-65952190D01*
X183943428Y-65476000D02*
X184038666Y-65428381D01*
X184181523Y-65428381D01*
X184324381Y-65476000D01*
X184419619Y-65571238D01*
X184467238Y-65666476D01*
X184514857Y-65856952D01*
X184514857Y-65999810D01*
X184467238Y-66190286D01*
X184419619Y-66285524D01*
X184324381Y-66380762D01*
X184181523Y-66428381D01*
X184086285Y-66428381D01*
X183943428Y-66380762D01*
X183895809Y-66333143D01*
X183895809Y-65999810D01*
X184086285Y-65999810D01*
X183133904Y-65904571D02*
X182991047Y-65952190D01*
X182943428Y-65999810D01*
X182895809Y-66095048D01*
X182895809Y-66237905D01*
X182943428Y-66333143D01*
X182991047Y-66380762D01*
X183086285Y-66428381D01*
X183467238Y-66428381D01*
X183467238Y-65428381D01*
X183133904Y-65428381D01*
X183038666Y-65476000D01*
X182991047Y-65523619D01*
X182943428Y-65618857D01*
X182943428Y-65714095D01*
X182991047Y-65809333D01*
X183038666Y-65856952D01*
X183133904Y-65904571D01*
X183467238Y-65904571D01*
X181991047Y-66428381D02*
X182467238Y-66428381D01*
X182467238Y-65428381D01*
X181657714Y-65904571D02*
X181324380Y-65904571D01*
X181181523Y-66428381D02*
X181657714Y-66428381D01*
X181657714Y-65428381D01*
X181181523Y-65428381D01*
X180752952Y-66428381D02*
X180752952Y-65428381D01*
X180514857Y-65428381D01*
X180371999Y-65476000D01*
X180276761Y-65571238D01*
X180229142Y-65666476D01*
X180181523Y-65856952D01*
X180181523Y-65999810D01*
X180229142Y-66190286D01*
X180276761Y-66285524D01*
X180371999Y-66380762D01*
X180514857Y-66428381D01*
X180752952Y-66428381D01*
X179324380Y-65761714D02*
X179324380Y-66428381D01*
X179562476Y-65380762D02*
X179800571Y-66095048D01*
X179181523Y-66095048D01*
X226170809Y-66428381D02*
X226504143Y-65952190D01*
X226742238Y-66428381D02*
X226742238Y-65428381D01*
X226361285Y-65428381D01*
X226266047Y-65476000D01*
X226218428Y-65523619D01*
X226170809Y-65618857D01*
X226170809Y-65761714D01*
X226218428Y-65856952D01*
X226266047Y-65904571D01*
X226361285Y-65952190D01*
X226742238Y-65952190D01*
X225218428Y-65476000D02*
X225313666Y-65428381D01*
X225456523Y-65428381D01*
X225599381Y-65476000D01*
X225694619Y-65571238D01*
X225742238Y-65666476D01*
X225789857Y-65856952D01*
X225789857Y-65999810D01*
X225742238Y-66190286D01*
X225694619Y-66285524D01*
X225599381Y-66380762D01*
X225456523Y-66428381D01*
X225361285Y-66428381D01*
X225218428Y-66380762D01*
X225170809Y-66333143D01*
X225170809Y-65999810D01*
X225361285Y-65999810D01*
X224408904Y-65904571D02*
X224266047Y-65952190D01*
X224218428Y-65999810D01*
X224170809Y-66095048D01*
X224170809Y-66237905D01*
X224218428Y-66333143D01*
X224266047Y-66380762D01*
X224361285Y-66428381D01*
X224742238Y-66428381D01*
X224742238Y-65428381D01*
X224408904Y-65428381D01*
X224313666Y-65476000D01*
X224266047Y-65523619D01*
X224218428Y-65618857D01*
X224218428Y-65714095D01*
X224266047Y-65809333D01*
X224313666Y-65856952D01*
X224408904Y-65904571D01*
X224742238Y-65904571D01*
X223266047Y-66428381D02*
X223742238Y-66428381D01*
X223742238Y-65428381D01*
X222932714Y-65904571D02*
X222599380Y-65904571D01*
X222456523Y-66428381D02*
X222932714Y-66428381D01*
X222932714Y-65428381D01*
X222456523Y-65428381D01*
X222027952Y-66428381D02*
X222027952Y-65428381D01*
X221789857Y-65428381D01*
X221646999Y-65476000D01*
X221551761Y-65571238D01*
X221504142Y-65666476D01*
X221456523Y-65856952D01*
X221456523Y-65999810D01*
X221504142Y-66190286D01*
X221551761Y-66285524D01*
X221646999Y-66380762D01*
X221789857Y-66428381D01*
X222027952Y-66428381D01*
X220551761Y-65428381D02*
X221027952Y-65428381D01*
X221075571Y-65904571D01*
X221027952Y-65856952D01*
X220932714Y-65809333D01*
X220694618Y-65809333D01*
X220599380Y-65856952D01*
X220551761Y-65904571D01*
X220504142Y-65999810D01*
X220504142Y-66237905D01*
X220551761Y-66333143D01*
X220599380Y-66380762D01*
X220694618Y-66428381D01*
X220932714Y-66428381D01*
X221027952Y-66380762D01*
X221075571Y-66333143D01*
X265818381Y-79772191D02*
X265342190Y-79438857D01*
X265818381Y-79200762D02*
X264818381Y-79200762D01*
X264818381Y-79581715D01*
X264866000Y-79676953D01*
X264913619Y-79724572D01*
X265008857Y-79772191D01*
X265151714Y-79772191D01*
X265246952Y-79724572D01*
X265294571Y-79676953D01*
X265342190Y-79581715D01*
X265342190Y-79200762D01*
X264866000Y-80724572D02*
X264818381Y-80629334D01*
X264818381Y-80486477D01*
X264866000Y-80343619D01*
X264961238Y-80248381D01*
X265056476Y-80200762D01*
X265246952Y-80153143D01*
X265389810Y-80153143D01*
X265580286Y-80200762D01*
X265675524Y-80248381D01*
X265770762Y-80343619D01*
X265818381Y-80486477D01*
X265818381Y-80581715D01*
X265770762Y-80724572D01*
X265723143Y-80772191D01*
X265389810Y-80772191D01*
X265389810Y-80581715D01*
X265294571Y-81534096D02*
X265342190Y-81676953D01*
X265389810Y-81724572D01*
X265485048Y-81772191D01*
X265627905Y-81772191D01*
X265723143Y-81724572D01*
X265770762Y-81676953D01*
X265818381Y-81581715D01*
X265818381Y-81200762D01*
X264818381Y-81200762D01*
X264818381Y-81534096D01*
X264866000Y-81629334D01*
X264913619Y-81676953D01*
X265008857Y-81724572D01*
X265104095Y-81724572D01*
X265199333Y-81676953D01*
X265246952Y-81629334D01*
X265294571Y-81534096D01*
X265294571Y-81200762D01*
X265818381Y-82676953D02*
X265818381Y-82200762D01*
X264818381Y-82200762D01*
X265294571Y-83010286D02*
X265294571Y-83343620D01*
X265818381Y-83486477D02*
X265818381Y-83010286D01*
X264818381Y-83010286D01*
X264818381Y-83486477D01*
X265818381Y-83915048D02*
X264818381Y-83915048D01*
X264818381Y-84153143D01*
X264866000Y-84296001D01*
X264961238Y-84391239D01*
X265056476Y-84438858D01*
X265246952Y-84486477D01*
X265389810Y-84486477D01*
X265580286Y-84438858D01*
X265675524Y-84391239D01*
X265770762Y-84296001D01*
X265818381Y-84153143D01*
X265818381Y-83915048D01*
X264818381Y-85343620D02*
X264818381Y-85153143D01*
X264866000Y-85057905D01*
X264913619Y-85010286D01*
X265056476Y-84915048D01*
X265246952Y-84867429D01*
X265627905Y-84867429D01*
X265723143Y-84915048D01*
X265770762Y-84962667D01*
X265818381Y-85057905D01*
X265818381Y-85248382D01*
X265770762Y-85343620D01*
X265723143Y-85391239D01*
X265627905Y-85438858D01*
X265389810Y-85438858D01*
X265294571Y-85391239D01*
X265246952Y-85343620D01*
X265199333Y-85248382D01*
X265199333Y-85057905D01*
X265246952Y-84962667D01*
X265294571Y-84915048D01*
X265389810Y-84867429D01*
X219693809Y-99004381D02*
X220027143Y-98528190D01*
X220265238Y-99004381D02*
X220265238Y-98004381D01*
X219884285Y-98004381D01*
X219789047Y-98052000D01*
X219741428Y-98099619D01*
X219693809Y-98194857D01*
X219693809Y-98337714D01*
X219741428Y-98432952D01*
X219789047Y-98480571D01*
X219884285Y-98528190D01*
X220265238Y-98528190D01*
X218741428Y-98052000D02*
X218836666Y-98004381D01*
X218979523Y-98004381D01*
X219122381Y-98052000D01*
X219217619Y-98147238D01*
X219265238Y-98242476D01*
X219312857Y-98432952D01*
X219312857Y-98575810D01*
X219265238Y-98766286D01*
X219217619Y-98861524D01*
X219122381Y-98956762D01*
X218979523Y-99004381D01*
X218884285Y-99004381D01*
X218741428Y-98956762D01*
X218693809Y-98909143D01*
X218693809Y-98575810D01*
X218884285Y-98575810D01*
X217931904Y-98480571D02*
X217789047Y-98528190D01*
X217741428Y-98575810D01*
X217693809Y-98671048D01*
X217693809Y-98813905D01*
X217741428Y-98909143D01*
X217789047Y-98956762D01*
X217884285Y-99004381D01*
X218265238Y-99004381D01*
X218265238Y-98004381D01*
X217931904Y-98004381D01*
X217836666Y-98052000D01*
X217789047Y-98099619D01*
X217741428Y-98194857D01*
X217741428Y-98290095D01*
X217789047Y-98385333D01*
X217836666Y-98432952D01*
X217931904Y-98480571D01*
X218265238Y-98480571D01*
X216789047Y-99004381D02*
X217265238Y-99004381D01*
X217265238Y-98004381D01*
X216455714Y-98480571D02*
X216122380Y-98480571D01*
X215979523Y-99004381D02*
X216455714Y-99004381D01*
X216455714Y-98004381D01*
X215979523Y-98004381D01*
X215550952Y-99004381D02*
X215550952Y-98004381D01*
X215312857Y-98004381D01*
X215169999Y-98052000D01*
X215074761Y-98147238D01*
X215027142Y-98242476D01*
X214979523Y-98432952D01*
X214979523Y-98575810D01*
X215027142Y-98766286D01*
X215074761Y-98861524D01*
X215169999Y-98956762D01*
X215312857Y-99004381D01*
X215550952Y-99004381D01*
X214646190Y-98004381D02*
X213979523Y-98004381D01*
X214408095Y-99004381D01*
X184387809Y-104528381D02*
X184721143Y-104052190D01*
X184959238Y-104528381D02*
X184959238Y-103528381D01*
X184578285Y-103528381D01*
X184483047Y-103576000D01*
X184435428Y-103623619D01*
X184387809Y-103718857D01*
X184387809Y-103861714D01*
X184435428Y-103956952D01*
X184483047Y-104004571D01*
X184578285Y-104052190D01*
X184959238Y-104052190D01*
X183435428Y-103576000D02*
X183530666Y-103528381D01*
X183673523Y-103528381D01*
X183816381Y-103576000D01*
X183911619Y-103671238D01*
X183959238Y-103766476D01*
X184006857Y-103956952D01*
X184006857Y-104099810D01*
X183959238Y-104290286D01*
X183911619Y-104385524D01*
X183816381Y-104480762D01*
X183673523Y-104528381D01*
X183578285Y-104528381D01*
X183435428Y-104480762D01*
X183387809Y-104433143D01*
X183387809Y-104099810D01*
X183578285Y-104099810D01*
X182625904Y-104004571D02*
X182483047Y-104052190D01*
X182435428Y-104099810D01*
X182387809Y-104195048D01*
X182387809Y-104337905D01*
X182435428Y-104433143D01*
X182483047Y-104480762D01*
X182578285Y-104528381D01*
X182959238Y-104528381D01*
X182959238Y-103528381D01*
X182625904Y-103528381D01*
X182530666Y-103576000D01*
X182483047Y-103623619D01*
X182435428Y-103718857D01*
X182435428Y-103814095D01*
X182483047Y-103909333D01*
X182530666Y-103956952D01*
X182625904Y-104004571D01*
X182959238Y-104004571D01*
X181483047Y-104528381D02*
X181959238Y-104528381D01*
X181959238Y-103528381D01*
X181149714Y-104004571D02*
X180816380Y-104004571D01*
X180673523Y-104528381D02*
X181149714Y-104528381D01*
X181149714Y-103528381D01*
X180673523Y-103528381D01*
X180244952Y-104528381D02*
X180244952Y-103528381D01*
X180006857Y-103528381D01*
X179863999Y-103576000D01*
X179768761Y-103671238D01*
X179721142Y-103766476D01*
X179673523Y-103956952D01*
X179673523Y-104099810D01*
X179721142Y-104290286D01*
X179768761Y-104385524D01*
X179863999Y-104480762D01*
X180006857Y-104528381D01*
X180244952Y-104528381D01*
X179102095Y-103956952D02*
X179197333Y-103909333D01*
X179244952Y-103861714D01*
X179292571Y-103766476D01*
X179292571Y-103718857D01*
X179244952Y-103623619D01*
X179197333Y-103576000D01*
X179102095Y-103528381D01*
X178911618Y-103528381D01*
X178816380Y-103576000D01*
X178768761Y-103623619D01*
X178721142Y-103718857D01*
X178721142Y-103766476D01*
X178768761Y-103861714D01*
X178816380Y-103909333D01*
X178911618Y-103956952D01*
X179102095Y-103956952D01*
X179197333Y-104004571D01*
X179244952Y-104052190D01*
X179292571Y-104147429D01*
X179292571Y-104337905D01*
X179244952Y-104433143D01*
X179197333Y-104480762D01*
X179102095Y-104528381D01*
X178911618Y-104528381D01*
X178816380Y-104480762D01*
X178768761Y-104433143D01*
X178721142Y-104337905D01*
X178721142Y-104147429D01*
X178768761Y-104052190D01*
X178816380Y-104004571D01*
X178911618Y-103956952D01*
X152129809Y-104782381D02*
X152463143Y-104306190D01*
X152701238Y-104782381D02*
X152701238Y-103782381D01*
X152320285Y-103782381D01*
X152225047Y-103830000D01*
X152177428Y-103877619D01*
X152129809Y-103972857D01*
X152129809Y-104115714D01*
X152177428Y-104210952D01*
X152225047Y-104258571D01*
X152320285Y-104306190D01*
X152701238Y-104306190D01*
X151177428Y-103830000D02*
X151272666Y-103782381D01*
X151415523Y-103782381D01*
X151558381Y-103830000D01*
X151653619Y-103925238D01*
X151701238Y-104020476D01*
X151748857Y-104210952D01*
X151748857Y-104353810D01*
X151701238Y-104544286D01*
X151653619Y-104639524D01*
X151558381Y-104734762D01*
X151415523Y-104782381D01*
X151320285Y-104782381D01*
X151177428Y-104734762D01*
X151129809Y-104687143D01*
X151129809Y-104353810D01*
X151320285Y-104353810D01*
X150367904Y-104258571D02*
X150225047Y-104306190D01*
X150177428Y-104353810D01*
X150129809Y-104449048D01*
X150129809Y-104591905D01*
X150177428Y-104687143D01*
X150225047Y-104734762D01*
X150320285Y-104782381D01*
X150701238Y-104782381D01*
X150701238Y-103782381D01*
X150367904Y-103782381D01*
X150272666Y-103830000D01*
X150225047Y-103877619D01*
X150177428Y-103972857D01*
X150177428Y-104068095D01*
X150225047Y-104163333D01*
X150272666Y-104210952D01*
X150367904Y-104258571D01*
X150701238Y-104258571D01*
X149225047Y-104782381D02*
X149701238Y-104782381D01*
X149701238Y-103782381D01*
X148891714Y-104258571D02*
X148558380Y-104258571D01*
X148415523Y-104782381D02*
X148891714Y-104782381D01*
X148891714Y-103782381D01*
X148415523Y-103782381D01*
X147986952Y-104782381D02*
X147986952Y-103782381D01*
X147748857Y-103782381D01*
X147605999Y-103830000D01*
X147510761Y-103925238D01*
X147463142Y-104020476D01*
X147415523Y-104210952D01*
X147415523Y-104353810D01*
X147463142Y-104544286D01*
X147510761Y-104639524D01*
X147605999Y-104734762D01*
X147748857Y-104782381D01*
X147986952Y-104782381D01*
X146939333Y-104782381D02*
X146748857Y-104782381D01*
X146653618Y-104734762D01*
X146605999Y-104687143D01*
X146510761Y-104544286D01*
X146463142Y-104353810D01*
X146463142Y-103972857D01*
X146510761Y-103877619D01*
X146558380Y-103830000D01*
X146653618Y-103782381D01*
X146844095Y-103782381D01*
X146939333Y-103830000D01*
X146986952Y-103877619D01*
X147034571Y-103972857D01*
X147034571Y-104210952D01*
X146986952Y-104306190D01*
X146939333Y-104353810D01*
X146844095Y-104401429D01*
X146653618Y-104401429D01*
X146558380Y-104353810D01*
X146510761Y-104306190D01*
X146463142Y-104210952D01*
X104092000Y-104782381D02*
X104425334Y-104306190D01*
X104663429Y-104782381D02*
X104663429Y-103782381D01*
X104282476Y-103782381D01*
X104187238Y-103830000D01*
X104139619Y-103877619D01*
X104092000Y-103972857D01*
X104092000Y-104115714D01*
X104139619Y-104210952D01*
X104187238Y-104258571D01*
X104282476Y-104306190D01*
X104663429Y-104306190D01*
X103139619Y-103830000D02*
X103234857Y-103782381D01*
X103377714Y-103782381D01*
X103520572Y-103830000D01*
X103615810Y-103925238D01*
X103663429Y-104020476D01*
X103711048Y-104210952D01*
X103711048Y-104353810D01*
X103663429Y-104544286D01*
X103615810Y-104639524D01*
X103520572Y-104734762D01*
X103377714Y-104782381D01*
X103282476Y-104782381D01*
X103139619Y-104734762D01*
X103092000Y-104687143D01*
X103092000Y-104353810D01*
X103282476Y-104353810D01*
X102330095Y-104258571D02*
X102187238Y-104306190D01*
X102139619Y-104353810D01*
X102092000Y-104449048D01*
X102092000Y-104591905D01*
X102139619Y-104687143D01*
X102187238Y-104734762D01*
X102282476Y-104782381D01*
X102663429Y-104782381D01*
X102663429Y-103782381D01*
X102330095Y-103782381D01*
X102234857Y-103830000D01*
X102187238Y-103877619D01*
X102139619Y-103972857D01*
X102139619Y-104068095D01*
X102187238Y-104163333D01*
X102234857Y-104210952D01*
X102330095Y-104258571D01*
X102663429Y-104258571D01*
X101187238Y-104782381D02*
X101663429Y-104782381D01*
X101663429Y-103782381D01*
X100853905Y-104258571D02*
X100520571Y-104258571D01*
X100377714Y-104782381D02*
X100853905Y-104782381D01*
X100853905Y-103782381D01*
X100377714Y-103782381D01*
X99949143Y-104782381D02*
X99949143Y-103782381D01*
X99711048Y-103782381D01*
X99568190Y-103830000D01*
X99472952Y-103925238D01*
X99425333Y-104020476D01*
X99377714Y-104210952D01*
X99377714Y-104353810D01*
X99425333Y-104544286D01*
X99472952Y-104639524D01*
X99568190Y-104734762D01*
X99711048Y-104782381D01*
X99949143Y-104782381D01*
X98425333Y-104782381D02*
X98996762Y-104782381D01*
X98711048Y-104782381D02*
X98711048Y-103782381D01*
X98806286Y-103925238D01*
X98901524Y-104020476D01*
X98996762Y-104068095D01*
X97806286Y-103782381D02*
X97711047Y-103782381D01*
X97615809Y-103830000D01*
X97568190Y-103877619D01*
X97520571Y-103972857D01*
X97472952Y-104163333D01*
X97472952Y-104401429D01*
X97520571Y-104591905D01*
X97568190Y-104687143D01*
X97615809Y-104734762D01*
X97711047Y-104782381D01*
X97806286Y-104782381D01*
X97901524Y-104734762D01*
X97949143Y-104687143D01*
X97996762Y-104591905D01*
X98044381Y-104401429D01*
X98044381Y-104163333D01*
X97996762Y-103972857D01*
X97949143Y-103877619D01*
X97901524Y-103830000D01*
X97806286Y-103782381D01*
X73612000Y-103766381D02*
X73945334Y-103290190D01*
X74183429Y-103766381D02*
X74183429Y-102766381D01*
X73802476Y-102766381D01*
X73707238Y-102814000D01*
X73659619Y-102861619D01*
X73612000Y-102956857D01*
X73612000Y-103099714D01*
X73659619Y-103194952D01*
X73707238Y-103242571D01*
X73802476Y-103290190D01*
X74183429Y-103290190D01*
X72659619Y-102814000D02*
X72754857Y-102766381D01*
X72897714Y-102766381D01*
X73040572Y-102814000D01*
X73135810Y-102909238D01*
X73183429Y-103004476D01*
X73231048Y-103194952D01*
X73231048Y-103337810D01*
X73183429Y-103528286D01*
X73135810Y-103623524D01*
X73040572Y-103718762D01*
X72897714Y-103766381D01*
X72802476Y-103766381D01*
X72659619Y-103718762D01*
X72612000Y-103671143D01*
X72612000Y-103337810D01*
X72802476Y-103337810D01*
X71850095Y-103242571D02*
X71707238Y-103290190D01*
X71659619Y-103337810D01*
X71612000Y-103433048D01*
X71612000Y-103575905D01*
X71659619Y-103671143D01*
X71707238Y-103718762D01*
X71802476Y-103766381D01*
X72183429Y-103766381D01*
X72183429Y-102766381D01*
X71850095Y-102766381D01*
X71754857Y-102814000D01*
X71707238Y-102861619D01*
X71659619Y-102956857D01*
X71659619Y-103052095D01*
X71707238Y-103147333D01*
X71754857Y-103194952D01*
X71850095Y-103242571D01*
X72183429Y-103242571D01*
X70707238Y-103766381D02*
X71183429Y-103766381D01*
X71183429Y-102766381D01*
X70373905Y-103242571D02*
X70040571Y-103242571D01*
X69897714Y-103766381D02*
X70373905Y-103766381D01*
X70373905Y-102766381D01*
X69897714Y-102766381D01*
X69469143Y-103766381D02*
X69469143Y-102766381D01*
X69231048Y-102766381D01*
X69088190Y-102814000D01*
X68992952Y-102909238D01*
X68945333Y-103004476D01*
X68897714Y-103194952D01*
X68897714Y-103337810D01*
X68945333Y-103528286D01*
X68992952Y-103623524D01*
X69088190Y-103718762D01*
X69231048Y-103766381D01*
X69469143Y-103766381D01*
X67945333Y-103766381D02*
X68516762Y-103766381D01*
X68231048Y-103766381D02*
X68231048Y-102766381D01*
X68326286Y-102909238D01*
X68421524Y-103004476D01*
X68516762Y-103052095D01*
X66992952Y-103766381D02*
X67564381Y-103766381D01*
X67278667Y-103766381D02*
X67278667Y-102766381D01*
X67373905Y-102909238D01*
X67469143Y-103004476D01*
X67564381Y-103052095D01*
X44584381Y-83360000D02*
X44108190Y-83026666D01*
X44584381Y-82788571D02*
X43584381Y-82788571D01*
X43584381Y-83169524D01*
X43632000Y-83264762D01*
X43679619Y-83312381D01*
X43774857Y-83360000D01*
X43917714Y-83360000D01*
X44012952Y-83312381D01*
X44060571Y-83264762D01*
X44108190Y-83169524D01*
X44108190Y-82788571D01*
X43632000Y-84312381D02*
X43584381Y-84217143D01*
X43584381Y-84074286D01*
X43632000Y-83931428D01*
X43727238Y-83836190D01*
X43822476Y-83788571D01*
X44012952Y-83740952D01*
X44155810Y-83740952D01*
X44346286Y-83788571D01*
X44441524Y-83836190D01*
X44536762Y-83931428D01*
X44584381Y-84074286D01*
X44584381Y-84169524D01*
X44536762Y-84312381D01*
X44489143Y-84360000D01*
X44155810Y-84360000D01*
X44155810Y-84169524D01*
X44060571Y-85121905D02*
X44108190Y-85264762D01*
X44155810Y-85312381D01*
X44251048Y-85360000D01*
X44393905Y-85360000D01*
X44489143Y-85312381D01*
X44536762Y-85264762D01*
X44584381Y-85169524D01*
X44584381Y-84788571D01*
X43584381Y-84788571D01*
X43584381Y-85121905D01*
X43632000Y-85217143D01*
X43679619Y-85264762D01*
X43774857Y-85312381D01*
X43870095Y-85312381D01*
X43965333Y-85264762D01*
X44012952Y-85217143D01*
X44060571Y-85121905D01*
X44060571Y-84788571D01*
X44584381Y-86264762D02*
X44584381Y-85788571D01*
X43584381Y-85788571D01*
X44060571Y-86598095D02*
X44060571Y-86931429D01*
X44584381Y-87074286D02*
X44584381Y-86598095D01*
X43584381Y-86598095D01*
X43584381Y-87074286D01*
X44584381Y-87502857D02*
X43584381Y-87502857D01*
X43584381Y-87740952D01*
X43632000Y-87883810D01*
X43727238Y-87979048D01*
X43822476Y-88026667D01*
X44012952Y-88074286D01*
X44155810Y-88074286D01*
X44346286Y-88026667D01*
X44441524Y-87979048D01*
X44536762Y-87883810D01*
X44584381Y-87740952D01*
X44584381Y-87502857D01*
X44584381Y-89026667D02*
X44584381Y-88455238D01*
X44584381Y-88740952D02*
X43584381Y-88740952D01*
X43727238Y-88645714D01*
X43822476Y-88550476D01*
X43870095Y-88455238D01*
X43679619Y-89407619D02*
X43632000Y-89455238D01*
X43584381Y-89550476D01*
X43584381Y-89788572D01*
X43632000Y-89883810D01*
X43679619Y-89931429D01*
X43774857Y-89979048D01*
X43870095Y-89979048D01*
X44012952Y-89931429D01*
X44584381Y-89360000D01*
X44584381Y-89979048D01*
D15*
X230650143Y-89262857D02*
X230432429Y-89335429D01*
X230069572Y-89335429D01*
X229924429Y-89262857D01*
X229851858Y-89190286D01*
X229779286Y-89045143D01*
X229779286Y-88900000D01*
X229851858Y-88754857D01*
X229924429Y-88682286D01*
X230069572Y-88609714D01*
X230359858Y-88537143D01*
X230505000Y-88464571D01*
X230577572Y-88392000D01*
X230650143Y-88246857D01*
X230650143Y-88101714D01*
X230577572Y-87956571D01*
X230505000Y-87884000D01*
X230359858Y-87811429D01*
X229997000Y-87811429D01*
X229779286Y-87884000D01*
X228835857Y-87811429D02*
X228690714Y-87811429D01*
X228545571Y-87884000D01*
X228473000Y-87956571D01*
X228400429Y-88101714D01*
X228327857Y-88392000D01*
X228327857Y-88754857D01*
X228400429Y-89045143D01*
X228473000Y-89190286D01*
X228545571Y-89262857D01*
X228690714Y-89335429D01*
X228835857Y-89335429D01*
X228981000Y-89262857D01*
X229053571Y-89190286D01*
X229126143Y-89045143D01*
X229198714Y-88754857D01*
X229198714Y-88392000D01*
X229126143Y-88101714D01*
X229053571Y-87956571D01*
X228981000Y-87884000D01*
X228835857Y-87811429D01*
D13*
X134834381Y-106886476D02*
X135834381Y-107553143D01*
X134834381Y-107553143D02*
X135834381Y-106886476D01*
X135834381Y-108457905D02*
X135834381Y-107886476D01*
X135834381Y-108172190D02*
X134834381Y-108172190D01*
X134977238Y-108076952D01*
X135072476Y-107981714D01*
X135120095Y-107886476D01*
X64642952Y-46172429D02*
X63881047Y-46172429D01*
X64261999Y-46553381D02*
X64261999Y-45791476D01*
X102742952Y-46172429D02*
X101981047Y-46172429D01*
X102361999Y-46553381D02*
X102361999Y-45791476D01*
X121792952Y-46172429D02*
X121031047Y-46172429D01*
X121411999Y-46553381D02*
X121411999Y-45791476D01*
X140842952Y-46172429D02*
X140081047Y-46172429D01*
X140461999Y-46553381D02*
X140461999Y-45791476D01*
X159892952Y-46172429D02*
X159131047Y-46172429D01*
X159511999Y-46553381D02*
X159511999Y-45791476D01*
X178942952Y-46172429D02*
X178181047Y-46172429D01*
X178561999Y-46553381D02*
X178561999Y-45791476D01*
X197992952Y-46172429D02*
X197231047Y-46172429D01*
X197611999Y-46553381D02*
X197611999Y-45791476D01*
X217042952Y-46172429D02*
X216281047Y-46172429D01*
X216661999Y-46553381D02*
X216661999Y-45791476D01*
X236092952Y-46172429D02*
X235331047Y-46172429D01*
X235711999Y-46553381D02*
X235711999Y-45791476D01*
X255142952Y-46172429D02*
X254381047Y-46172429D01*
X254761999Y-46553381D02*
X254761999Y-45791476D01*
X47975472Y-65222429D02*
X47213567Y-65222429D01*
X47594519Y-65603381D02*
X47594519Y-64841476D01*
X45592952Y-46172429D02*
X44831047Y-46172429D01*
X45211999Y-46553381D02*
X45211999Y-45791476D01*
X83692952Y-46172429D02*
X82931047Y-46172429D01*
X83311999Y-46553381D02*
X83311999Y-45791476D01*
X69406722Y-65222429D02*
X68644817Y-65222429D01*
X69025769Y-65603381D02*
X69025769Y-64841476D01*
X88456722Y-65222429D02*
X87694817Y-65222429D01*
X88075769Y-65603381D02*
X88075769Y-64841476D01*
X107506722Y-65222429D02*
X106744817Y-65222429D01*
X107125769Y-65603381D02*
X107125769Y-64841476D01*
X126556722Y-65222429D02*
X125794817Y-65222429D01*
X126175769Y-65603381D02*
X126175769Y-64841476D01*
X145922952Y-65222429D02*
X145161047Y-65222429D01*
X145541999Y-65603381D02*
X145541999Y-64841476D01*
X164656722Y-65222429D02*
X163894817Y-65222429D01*
X164275769Y-65603381D02*
X164275769Y-64841476D01*
X183706722Y-65222429D02*
X182944817Y-65222429D01*
X183325769Y-65603381D02*
X183325769Y-64841476D01*
X202756722Y-65222429D02*
X201994817Y-65222429D01*
X202375769Y-65603381D02*
X202375769Y-64841476D01*
X221806722Y-65222429D02*
X221044817Y-65222429D01*
X221425769Y-65603381D02*
X221425769Y-64841476D01*
X248000472Y-65222429D02*
X247238567Y-65222429D01*
X247619519Y-65603381D02*
X247619519Y-64841476D01*
X52736702Y-84272429D02*
X51974797Y-84272429D01*
X52355749Y-84653381D02*
X52355749Y-83891476D01*
X78930452Y-84272429D02*
X78168547Y-84272429D01*
X78549499Y-84653381D02*
X78549499Y-83891476D01*
X97980452Y-84272429D02*
X97218547Y-84272429D01*
X97599499Y-84653381D02*
X97599499Y-83891476D01*
X117030452Y-84272429D02*
X116268547Y-84272429D01*
X116649499Y-84653381D02*
X116649499Y-83891476D01*
X136080452Y-84272429D02*
X135318547Y-84272429D01*
X135699499Y-84653381D02*
X135699499Y-83891476D01*
X155130452Y-84272429D02*
X154368547Y-84272429D01*
X154749499Y-84653381D02*
X154749499Y-83891476D01*
X174180452Y-84272429D02*
X173418547Y-84272429D01*
X173799499Y-84653381D02*
X173799499Y-83891476D01*
X193230452Y-84272429D02*
X192468547Y-84272429D01*
X192849499Y-84653381D02*
X192849499Y-83891476D01*
X212280452Y-84272429D02*
X211518547Y-84272429D01*
X211899499Y-84653381D02*
X211899499Y-83891476D01*
X233711702Y-84272429D02*
X232949797Y-84272429D01*
X233330749Y-84653381D02*
X233330749Y-83891476D01*
X255142952Y-84272429D02*
X254381047Y-84272429D01*
X254761999Y-84653381D02*
X254761999Y-83891476D01*
X47975472Y-103322429D02*
X47213567Y-103322429D01*
X47594519Y-103703381D02*
X47594519Y-102941476D01*
X69406722Y-103322429D02*
X68644817Y-103322429D01*
X69025769Y-103703381D02*
X69025769Y-102941476D01*
X88456722Y-103322429D02*
X87694817Y-103322429D01*
X88075769Y-103703381D02*
X88075769Y-102941476D01*
X157512972Y-103322429D02*
X156751067Y-103322429D01*
X157132019Y-103703381D02*
X157132019Y-102941476D01*
X228950472Y-103322429D02*
X228188567Y-103322429D01*
X228569519Y-103703381D02*
X228569519Y-102941476D01*
X252762972Y-103322429D02*
X252001067Y-103322429D01*
X252382019Y-103703381D02*
X252382019Y-102941476D01*
M02*
